<?xml version="1.0" standalone="no"?>
<!DOCTYPE svg PUBLIC "-//W3C//DTD SVG 1.1//EN" "http://www.w3.org/Graphics/SVG/1.1/DTD/svg11.dtd" >
<svg>
<metadata>
Created by FontForge 20110222 at Sat Sep 21 22:42:46 2013
 By Orthosie Webhosting
Copyright (c) 2007 Monotype Imaging Inc. Soho is designed by Sebastian Lester. All rights reserved.
</metadata>
<defs>
<font id="SohoStdMedium" horiz-adv-x="691" >
  <font-face 
    font-family="SohoStdMedium"
    font-weight="500"
    font-stretch="normal"
    units-per-em="1000"
    panose-1="2 4 6 3 4 5 6 2 2 4"
    ascent="777"
    descent="-223"
    x-height="563"
    cap-height="743"
    bbox="-68 -224 1487 1009"
    underline-thickness="39"
    underline-position="-49"
    unicode-range="U+000D-FB16"
  />
<missing-glyph horiz-adv-x="196" 
 />
    <glyph glyph-name="f_f" unicode="ff" horiz-adv-x="804" 
d="M763 458h-145v-348l50 -5v-105h-231v105l50 5v348h-220v-348l50 -5v-105h-232v105l50 5v348l-99 10v95h99v54q0 86 34 130.5t124 44.5q63 0 121 -15v-85q-40 3 -90 3q-37 0 -47 -17t-10 -63v-52h220v54q0 86 33.5 130.5t123.5 44.5q64 0 121 -15v-85q-63 3 -89 3
q-38 0 -48 -16.5t-10 -63.5v-52h145v-105z" />
    <glyph glyph-name="f_i" unicode="fi" horiz-adv-x="710" 
d="M668 0h-232v105l50 5v348h-218v-348l49 -5v-105h-231v105l50 5v348l-100 10v95h100v54q0 88 33.5 131.5t123.5 43.5q63 0 121 -15v-85q-84 3 -89 3q-38 0 -47.5 -16t-9.5 -64v-52h351v-453l49 -5v-105zM621 650h-137v127h137v-127z" />
    <glyph glyph-name="f_l" unicode="fl" horiz-adv-x="715" 
d="M673 0h-231v105l49 5v580q-68 5 -141 5q-48 0 -65.5 -14.5t-17.5 -65.5v-52h145v-105h-145v-348l50 -5v-105h-231v105l50 5v348l-100 10v95h100v52q0 99 44.5 138t139.5 39q66 0 171 -15h133v-667l49 -5v-105z" />
    <glyph glyph-name="f_f_i" unicode="ffi" horiz-adv-x="1062" 
d="M1017 0h-231v105l50 5v348h-218v-348l50 -5v-105h-232v105l50 5v348h-219v-348l50 -5v-105h-232v105l50 5v348l-99 10v95h99v54q0 87 33.5 131t124.5 44q63 0 121 -15v-85q-63 3 -90 3q-37 0 -47 -16.5t-10 -63.5v-52h219v54q0 87 33.5 131t123.5 44q63 0 121 -15v-85
q-60 3 -89 3q-37 0 -47 -16.5t-10 -63.5v-52h350v-453l49 -5v-105zM970 650h-137v127h137v-127z" />
    <glyph glyph-name="f_f_l" unicode="ffl" horiz-adv-x="1064" 
d="M1022 0h-232v105l50 5v580q-67 5 -140 5q-48 0 -65 -14.5t-17 -65.5v-52h144v-105h-144v-348l50 -5v-105h-232v105l50 5v348h-219v-348l50 -5v-105h-232v105l50 5v348l-99 10v95h99v54q0 87 33.5 131t124.5 44q61 0 121 -15v-85q-72 3 -90 3q-37 0 -47 -16.5t-10 -63.5
v-52h219v52q0 99 44.5 138t139.5 39q80 0 170 -15h132v-667l50 -5v-105z" />
    <glyph glyph-name="f_b" unicode="fb" horiz-adv-x="1032" 
d="M618 777v-226q55 27 133 27q117 0 172 -60.5t55 -189.5v-78q0 -140 -65 -202t-200 -62q-91 0 -227 14v690q-63 5 -139 5q-46 0 -62.5 -14.5t-16.5 -64.5v-53h144v-105h-144v-348l50 -5v-105h-232v105l50 5v348l-100 10v95h100v53q0 98 44.5 137t137.5 39q74 0 168 -15
h132zM847 250v79q0 77 -25 107t-89 30q-72 0 -115 -21v-342q55 -5 97 -5q71 0 101.5 33t30.5 119z" />
    <glyph glyph-name="f_f_b" unicode="ffb" horiz-adv-x="1386" 
d="M1333 250q0 -140 -65.5 -202t-200.5 -62q-92 0 -226 14v690q-65 5 -139 5q-46 0 -63 -14.5t-17 -65.5v-52h145v-105h-145v-348l50 -5v-105h-231v105l50 5v348h-223v-348l50 -5v-105h-231v105l49 5v348l-100 8v97h100v54q0 86 33 130.5t125 44.5q58 0 120 -15v-85
q-42 3 -87 3q-39 0 -49 -16.5t-10 -63.5v-52h223v52q0 98 44.5 137.5t137.5 39.5q81 0 168 -15h131v-225q56 26 133 26q117 0 172.5 -60.5t55.5 -189.5v-78zM1201 250v79q0 76 -25 106.5t-88 30.5q-72 0 -116 -21v-343q76 -4 98 -4q70 0 100.5 33t30.5 119z" />
    <glyph glyph-name="f_h" unicode="fh" horiz-adv-x="1070" 
d="M1027 0h-182v355q0 64 -19.5 87.5t-69.5 23.5q-71 0 -137 -31v-325l49 -5v-105h-231v105l50 5v580q-73 5 -136 5q-48 0 -65.5 -14.5t-17.5 -65.5v-52h144v-105h-144v-348l50 -5v-105h-232v105l50 5v348l-100 10v95h100v52q0 99 45.5 138t141.5 39q68 0 164 -15h132v-242
q78 42 174 42q100 0 142.5 -56t42.5 -164v-247l49 -5v-105z" />
    <glyph glyph-name="f_f_h" unicode="ffh" horiz-adv-x="1421" 
d="M1378 0h-181v355q0 64 -20 87.5t-70 23.5q-71 0 -137 -31v-325l50 -5v-105h-232v105l49 5v580q-70 5 -135 5q-49 0 -66 -14.5t-17 -65.5v-52h144v-105h-144v-348l49 -5v-105h-231v105l50 5v348h-219v-348l50 -5v-105h-232v105l50 5v348l-100 10v95h100v54q0 86 33 130.5
t124 44.5q63 0 121 -15v-85q-60 3 -89 3q-38 0 -47.5 -16t-9.5 -64v-52h219v52q0 99 45.5 138t141.5 39q70 0 163 -15h133v-242q78 42 174 42q100 0 142.5 -55.5t42.5 -164.5v-247l49 -5v-105z" />
    <glyph glyph-name="f_j" unicode="fj" horiz-adv-x="705" 
d="M620 -45q0 -95 -36 -134t-123 -39q-56 0 -85 8v93q16 -1 58 -1q34 0 44 14.5t10 58.5v503h-220v-348l50 -5v-105h-232v105l50 5v348l-100 10v95h100v54q0 86 33.5 130.5t123.5 44.5q63 0 121 -15v-85q-34 3 -89 3q-37 0 -47 -16.5t-10 -63.5v-52h352v-608zM622 650h-137
v127h137v-127z" />
    <glyph glyph-name="f_f_j" unicode="ffj" horiz-adv-x="1056" 
d="M971 -45q0 -96 -35.5 -134.5t-122.5 -38.5q-56 0 -85 8v93q15 -1 57 -1q34 0 44.5 14.5t10.5 58.5v503h-221v-348l50 -5v-105h-232v105l50 5v348h-219v-348l50 -5v-105h-232v105l50 5v348l-100 10v95h100v54q0 85 34 130t123 45q63 0 121 -15v-85q-60 3 -89 3
q-37 0 -47 -17t-10 -63v-52h219v54q0 86 34 130.5t124 44.5q63 0 120 -15v-85q-63 3 -89 3q-37 0 -47 -16.5t-10 -63.5v-52h352v-608zM974 650h-138v127h138v-127z" />
    <glyph glyph-name="f_k" unicode="fk" horiz-adv-x="1010" 
d="M967 0h-146l-203 268v-268h-181v105l50 5v580q-73 5 -136 5q-48 0 -65.5 -14.5t-17.5 -65.5v-52h144v-105h-144v-348l50 -5v-105h-232v105l50 5v348l-100 10v95h100v52q0 99 45.5 138t141.5 39q68 0 164 -15h131v-465l204 251h144v-105l-71 -7l-143 -157l151 -182l64 -7
v-105z" />
    <glyph glyph-name="f_f_k" unicode="ffk" horiz-adv-x="1360" 
d="M1317 0h-146l-203 268v-268h-181v105l50 5v580q-73 5 -135 5q-49 0 -66.5 -14.5t-17.5 -65.5v-52h145v-105h-145v-348l50 -5v-105h-232v105l50 5v348h-218v-348l50 -5v-105h-232v105l50 5v348l-100 9v96h100v54q0 86 33.5 130.5t123.5 44.5q63 0 121 -15v-85q-60 3 -89 3
q-38 0 -47.5 -16t-9.5 -64v-52h218v52q0 99 45.5 138t141.5 39q68 0 164 -15h131v-465l204 251h145v-105l-72 -7l-143 -157l151 -182l64 -7v-105z" />
    <glyph glyph-name=".notdef" horiz-adv-x="196" 
 />
    <glyph glyph-name=".null" horiz-adv-x="0" 
 />
    <glyph glyph-name=".null" horiz-adv-x="0" 
 />
    <glyph glyph-name="nonmarkingreturn" horiz-adv-x="333" 
 />
    <glyph glyph-name="CR" unicode="&#xd;" horiz-adv-x="196" 
 />
    <glyph glyph-name="space" unicode=" " horiz-adv-x="196" 
 />
    <glyph glyph-name="exclam" unicode="!" horiz-adv-x="286" 
d="M210 0h-135v154h135v-154zM215 777l-12 -565h-120l-13 565h145z" />
    <glyph glyph-name="quotedbl" unicode="&#x22;" horiz-adv-x="410" 
d="M390 766l-53 -254h-94l25 254h122zM168 766h-122l-26 -254h95z" />
    <glyph glyph-name="numbersign" unicode="#" horiz-adv-x="759" 
d="M683 185h-138l-21 -185h-112l20 185h-152l-20 -185h-113l21 185h-92v97h102l19 169h-121v96h131l23 196h112l-22 -196h152l22 196h112l-21 -196h98v-96h-109l-19 -169h128v-97zM461 451h-152l-18 -169h152z" />
    <glyph glyph-name="dollar" unicode="$" horiz-adv-x="649" 
d="M583 200q0 -89 -51.5 -142t-149.5 -67v-115h-116v111q-111 4 -181 21v166h92l10 -71q64 -2 119 -2q136 0 136 95q0 36 -19.5 58.5t-72.5 46.5l-119 54q-85 39 -125 83.5t-40 124.5q0 165 200 189v107h116v-103q113 -6 175 -22v-159h-92l-11 65q-72 4 -113 4
q-68 0 -101.5 -18t-33.5 -61q0 -34 19 -55t73 -45l116 -51q87 -38 128 -86t41 -128z" />
    <glyph glyph-name="percent" unicode="%" horiz-adv-x="1115" 
d="M1059 201q0 -103 -47 -157t-139 -54q-93 0 -140 54t-47 157v44q0 211 187 211q186 0 186 -211v-44zM954 201v44q0 71 -21 98t-60 27t-60 -27t-21 -98v-44q0 -71 21 -98.5t60 -27.5t60 27.5t21 98.5zM857 745l-486 -745h-118l486 745h118zM427 502q0 -212 -186 -212
t-186 212v44q0 211 186 211t186 -211v-44zM322 502v44q0 71 -19 98.5t-62 27.5t-62 -28.5t-19 -97.5v-44q0 -71 19 -98.5t62 -27.5t62 27.5t19 98.5z" />
    <glyph glyph-name="ampersand" unicode="&#x26;" horiz-adv-x="780" 
d="M736 370l-51 -8q0 -150 -56 -234l101 -98v-30h-153l-39 40q-77 -54 -226 -54q-256 0 -256 193v7q0 66 29 110.5t103 83.5l-11 10q-89 80 -89 187v4q0 177 244 177q129 0 222 -24v-158h-91l-11 69q-46 4 -120 4q-57 0 -83 -14.5t-26 -53.5v-4q0 -35 16 -60t63 -70
l245 -239q28 62 28 154l-51 8v78h212v-78zM462 113l-197 192q-41 -22 -56.5 -50t-15.5 -69v-7q0 -94 133 -94q87 0 136 28z" />
    <glyph glyph-name="quotesingle" unicode="'" horiz-adv-x="188" 
d="M168 766l-53 -254h-95l26 254h122z" />
    <glyph glyph-name="parenleft" unicode="(" horiz-adv-x="381" 
d="M342 -203h-123q-63 81 -108.5 201.5t-45.5 267.5v7q0 147 45.5 268t108.5 202h123q-146 -213 -146 -470v-7q0 -256 146 -469z" />
    <glyph glyph-name="parenright" unicode=")" horiz-adv-x="381" 
d="M317 266q0 -146 -45.5 -266.5t-108.5 -202.5h-124q147 212 147 469v7q0 258 -147 470h124q63 -82 108.5 -202.5t45.5 -267.5v-7z" />
    <glyph glyph-name="asterisk" unicode="*" horiz-adv-x="545" 
d="M482 586l-65 -20q-34 -12 -74 -17q29 -28 49 -55l41 -53l-81 -62l-41 53q-21 28 -39 63q-15 -29 -39 -62l-40 -53l-82 61l41 54q25 33 49 55q-36 4 -73 16l-65 21l31 100l65 -20q35 -11 70 -29q-6 37 -6 72v67h100v-67q0 -38 -7 -73q33 17 70 29l65 21z" />
    <glyph glyph-name="plus" unicode="+" horiz-adv-x="690" 
d="M604 333h-205v-202h-103v202h-208v109h208v202h103v-202h205v-109z" />
    <glyph glyph-name="comma" unicode="," horiz-adv-x="317" 
d="M266 155l-126 -247h-112l94 247h144z" />
    <glyph glyph-name="hyphen" unicode="-" horiz-adv-x="390" 
d="M322 242h-254v104h254v-104z" />
    <glyph glyph-name="period" unicode="." horiz-adv-x="281" 
d="M207 0h-133v154h133v-154z" />
    <glyph glyph-name="slash" unicode="/" horiz-adv-x="457" 
d="M440 743l-291 -743h-132l292 743h131z" />
    <glyph glyph-name="zero" unicode="0" horiz-adv-x="676" 
d="M621 316q0 -162 -71.5 -246.5t-210.5 -84.5q-140 0 -211.5 84t-71.5 247v110q0 163 71.5 247.5t211.5 84.5q139 0 210.5 -84.5t71.5 -247.5v-110zM481 316v110q0 118 -37 166.5t-106 48.5q-68 0 -105 -48.5t-37 -166.5v-110q0 -118 37 -166.5t105 -48.5q69 0 106 48.5
t37 166.5z" />
    <glyph glyph-name="one" unicode="1" horiz-adv-x="586" 
d="M528 0h-470v107l166 7v498l-166 -48v112l204 71h101v-633l165 -7v-107z" />
    <glyph glyph-name="two" unicode="2" horiz-adv-x="624" 
d="M559 0h-498v93q0 87 23 144t68.5 96t133.5 86q94 49 118.5 76t24.5 70q0 46 -33.5 63.5t-117.5 17.5q-34 0 -108 -4l-9 -68h-92v156q26 9 96 18.5t131 9.5q141 0 207.5 -45t66.5 -142q0 -74 -42.5 -125.5t-156.5 -114.5q-112 -59 -143 -95.5t-31 -108.5v-10h261l9 64h92
v-181z" />
    <glyph glyph-name="three" unicode="3" horiz-adv-x="628" 
d="M573 204q0 -118 -69 -168.5t-210 -50.5q-62 0 -128 9.5t-97 20.5v159h92l10 -73q70 -4 113 -4q80 0 115 23t35 89v20q0 51 -23 75t-95 24h-209v106h209q71 0 94.5 26t23.5 76v12q0 57 -31.5 77t-118.5 20q-60 0 -111 -3l-10 -68h-91v156q22 8 91.5 18t130.5 10
q142 0 210.5 -45.5t68.5 -156.5v-12q0 -116 -90 -162q90 -44 90 -158v-20z" />
    <glyph glyph-name="four" unicode="4" horiz-adv-x="686" 
d="M638 179h-106v-95l50 -5v-79h-240v79l51 5v95h-347v116l354 448h132v-454h106v-110zM397 289v285l-231 -285h231z" />
    <glyph glyph-name="five" unicode="5" horiz-adv-x="617" 
d="M562 215q0 -122 -72 -176t-213 -54q-125 0 -226 26v162h91l10 -73q68 -4 105 -4q92 0 128.5 26t36.5 93v22q0 64 -33.5 87.5t-130.5 23.5h-196l34 395h441v-171h-91l-9 57h-227l-16 -173h85q154 0 218.5 -51t64.5 -167v-23z" />
    <glyph glyph-name="six" unicode="6" horiz-adv-x="664" 
d="M608 226q0 -56 -17 -99.5t-43.5 -69.5t-63.5 -43t-72.5 -23t-74.5 -6q-137 0 -209 67.5t-72 235.5v175q0 150 64 222.5t228 72.5q114 0 225 -26v-158h-91l-10 68q-51 3 -112 3q-56 0 -90 -10t-50 -34t-21 -50t-5 -71v-29q69 18 153 18q58 0 101 -8t81.5 -29.5t58.5 -64
t20 -105.5v-36zM470 226v32q0 67 -32 89.5t-103 22.5q-76 0 -141 -14v-89q0 -99 35.5 -136.5t108.5 -37.5q58 0 95 33.5t37 99.5z" />
    <glyph glyph-name="seven" unicode="7" horiz-adv-x="617" 
d="M574 614l-325 -614h-151l341 629h-283l-9 -60h-91v174h518v-129z" />
    <glyph glyph-name="eight" unicode="8" horiz-adv-x="688" 
d="M629 213q0 -61 -16.5 -104.5t-40.5 -67t-64.5 -36.5t-75.5 -16.5t-86 -3.5h-4q-51 0 -86 3.5t-75.5 16.5t-64.5 36.5t-40.5 67t-16.5 104.5v8q0 110 82 163q-80 51 -80 157v11q0 62 22.5 104.5t64 63.5t87.5 29.5t107 8.5h4q61 0 107 -8.5t87.5 -29.5t63.5 -63.5
t22 -104.5v-11q0 -107 -79 -157q82 -53 82 -163v-8zM491 215v7q0 60 -20 86t-73 26h-109q-52 0 -72.5 -26t-20.5 -86v-7q0 -75 36 -99.5t110 -24.5h4q74 0 109.5 24t35.5 100zM490 538v10q0 60 -36.5 81.5t-107.5 21.5h-4q-71 0 -107.5 -21.5t-36.5 -81.5v-10
q0 -51 20 -76.5t71 -25.5h109q51 0 71.5 25.5t20.5 76.5z" />
    <glyph glyph-name="nine" unicode="9" horiz-adv-x="664" 
d="M608 281q0 -149 -64 -222.5t-228 -73.5q-128 0 -226 26v158h91l10 -68q70 -4 115 -4q55 0 88.5 10.5t49.5 34t21 50t5 71.5v28q-71 -17 -153 -17q-58 0 -101 8t-81.5 29.5t-58.5 64t-20 105.5v35q0 56 17 99.5t43.5 70t63 43t72 23t74.5 6.5q138 0 210 -66.5t72 -232.5
v-178zM470 387v89q0 99 -35.5 136.5t-108.5 37.5q-59 0 -95.5 -33t-36.5 -100v-33q0 -67 31.5 -89.5t102.5 -22.5t142 15z" />
    <glyph glyph-name="colon" unicode=":" horiz-adv-x="290" 
d="M211 0h-133v155h133v-155zM211 553v-154h-133v154h133z" />
    <glyph glyph-name="semicolon" unicode=";" horiz-adv-x="313" 
d="M246 155l-129 -247h-109l93 247h145zM235 399h-133v154h133v-154z" />
    <glyph glyph-name="less" unicode="&#x3c;" horiz-adv-x="690" 
d="M565 127h-156l-285 261l285 260h156l-283 -260z" />
    <glyph glyph-name="equal" unicode="=" horiz-adv-x="690" 
d="M578 206h-468v110h468v-110zM578 458h-468v111h468v-111z" />
    <glyph glyph-name="greater" unicode="&#x3e;" horiz-adv-x="690" 
d="M565 388l-285 -261h-156l284 261l-284 260h156z" />
    <glyph glyph-name="question" unicode="?" horiz-adv-x="539" 
d="M50 762q87 28 191 28q111 0 167 -39.5t56 -126.5v-7q0 -52 -22.5 -96.5t-80.5 -99.5q-66 -63 -83 -95t-17 -82v-32h-120v32q0 69 16 110.5t72 98.5q50 51 68 82t18 64v7q0 38 -26 53t-81 15q-32 0 -63 -2l-10 -63h-85v153zM135 154h133v-154h-133v154z" />
    <glyph glyph-name="at" unicode="@" horiz-adv-x="863" 
d="M810 368q0 -320 -368 -320q-112 0 -163 37t-51 119q0 8 3 74q7 115 61 164t147 49q81 0 173 -22l-33 -321q148 36 148 221q0 223 -262 223q-331 0 -331 -423q0 -110 59.5 -164t200.5 -54q39 0 183 9v-55q-79 -17 -183 -17q-342 0 -342 282q0 108 22 194t69 154.5
t128.5 105.5t193.5 37q169 0 257 -75t88 -218zM495 399q-24 3 -56 3q-47 0 -71.5 -24.5t-30.5 -100.5q-3 -38 -3 -74q0 -42 23 -57t83 -15h29z" />
    <glyph glyph-name="A" unicode="A" horiz-adv-x="782" 
d="M275 0h-237v106l50 5l167 521l-52 5v106h291l197 -632l52 -5v-106h-240v105l37 3l-31 101h-238l-32 -101l36 -3v-105zM483 323l-62 205q-19 59 -27 117h-8q-11 -66 -27 -117l-62 -205h186z" />
    <glyph glyph-name="B" unicode="B" horiz-adv-x="697" 
d="M644 215q0 -54 -16.5 -94t-44 -64t-71 -38.5t-90 -19.5t-108.5 -5q-118 0 -266 6v107l51 6v517l-51 6v107q148 6 270 6q80 0 135 -8.5t99.5 -30t66 -62t21.5 -101.5v-9q0 -114 -94 -156q98 -41 98 -157v-10zM507 216v10q0 53 -32 79.5t-113 26.5h-127v-223h87
q99 0 142 21t43 86zM504 533v9q0 59 -40.5 76t-138.5 17q-56 0 -90 -1v-200h126q82 0 112.5 24.5t30.5 74.5z" />
    <glyph glyph-name="C" unicode="C" horiz-adv-x="611" 
d="M557 4q-81 -19 -187 -19q-75 0 -130.5 16t-99 53t-65.5 104t-22 164v100q0 97 22 164t65.5 104t98.5 52.5t131 15.5q106 0 187 -19v-171h-93l-10 66q-48 2 -75 2q-98 0 -141.5 -45.5t-43.5 -168.5v-100q0 -123 43.5 -169.5t141.5 -46.5q27 0 75 2l10 68h93v-172z" />
    <glyph glyph-name="D" unicode="D" horiz-adv-x="731" 
d="M676 326q0 -168 -81 -250t-263 -82q-125 0 -284 7v105l52 8v516l-52 8v105q136 6 284 6q178 0 261 -82t83 -247v-94zM537 326v94q0 118 -48.5 164t-158.5 46h-93v-517h93q110 0 158.5 47.5t48.5 165.5z" />
    <glyph glyph-name="E" unicode="E" horiz-adv-x="625" 
d="M572 0h-524v106l50 5v521l-50 5v106h524v-171h-93l-9 56h-232v-189h312v-112h-312v-212h231l10 58h93v-173z" />
    <glyph glyph-name="F" unicode="F" horiz-adv-x="617" 
d="M551 326h-312v-215l50 -5v-106h-241v106l51 5v521l-51 5v106h524v-172h-92l-10 56h-231v-189h312v-112z" />
    <glyph glyph-name="G" unicode="G" horiz-adv-x="669" 
d="M607 7q-113 -22 -242 -22q-69 0 -121.5 15t-97.5 50.5t-69 103.5t-24 165v105q0 82 18.5 143.5t47.5 97t71.5 57.5t84 29t92.5 7q72 0 142.5 -8.5t96.5 -15.5v-166h-92l-11 64q-58 4 -112 4q-50 0 -83 -7.5t-61 -29t-41.5 -64.5t-13.5 -111v-105q0 -122 43.5 -167.5
t138.5 -45.5q60 0 101 3v185l-93 8v94h225v-389z" />
    <glyph glyph-name="H" unicode="H" horiz-adv-x="803" 
d="M514 743h241v-106l-51 -5v-521l51 -5v-106h-241v106l51 5v217h-326v-217l51 -5v-106h-242v106l51 5v521l-51 5v106h242v-106l-51 -5v-185h326v185l-51 5v106z" />
    <glyph glyph-name="I" unicode="I" horiz-adv-x="342" 
d="M291 0h-241v106l51 5v521l-51 5v106h241v-106l-50 -5v-521l50 -5v-106z" />
    <glyph glyph-name="J" unicode="J" horiz-adv-x="338" 
d="M287 637l-50 -5v-669q0 -95 -40.5 -137t-135.5 -42q-58 0 -87 8v96h61q40 0 51 14.5t11 56.5v673l-50 5v106h240v-106z" />
    <glyph glyph-name="K" unicode="K" horiz-adv-x="717" 
d="M289 0h-241v106l50 5v521l-50 5v106h241v-106l-51 -5v-235l287 346h149v-106l-57 -5l-229 -256l230 -266l56 -4v-106h-159l-277 350v-239l51 -5v-106z" />
    <glyph glyph-name="L" unicode="L" horiz-adv-x="596" 
d="M554 0h-506v106l50 5v521l-50 5v106h241v-106l-51 -5v-514h213l10 64h93v-182z" />
    <glyph glyph-name="M" unicode="M" horiz-adv-x="894" 
d="M284 0h-236v106l50 5v521l-50 5v106h202l145 -254q18 -31 49 -95h2q45 87 49 94l148 255h202v-106l-50 -5v-521l50 -5v-106h-237v106l51 5v301q0 50 4 142h-2l-17.5 -35l-21 -42t-18.5 -34l-103 -172h-111l-102 172q-12 20 -32 60.5t-25 50.5h-2q4 -61 4 -142v-301l51 -5
v-106z" />
    <glyph glyph-name="N" unicode="N" horiz-adv-x="784" 
d="M505 743h231v-106l-51 -5v-632h-162l-243 446q-37 65 -57 110h-3q6 -66 6 -141v-304l51 -5v-106h-229v106l50 5v521l-50 5v106h211l243 -436q36 -67 57 -109h2q-5 78 -5 142v292l-51 5v106z" />
    <glyph glyph-name="O" unicode="O" horiz-adv-x="717" 
d="M664 328q0 -175 -79.5 -259t-226.5 -84q-146 0 -225.5 84t-79.5 259v87q0 175 79.5 259t225.5 84t226 -84t80 -259v-87zM525 328v87q0 118 -43 170t-124 52q-80 0 -123 -52t-43 -170v-87q0 -119 43 -170.5t123 -51.5q81 0 124 51.5t43 170.5z" />
    <glyph glyph-name="P" unicode="P" horiz-adv-x="673" 
d="M286 0h-238v107l51 4v521l-51 5v106q132 6 268 6q75 0 129 -9t101.5 -33t72 -71.5t24.5 -119.5v-11q0 -59 -17 -102t-44.5 -68.5t-70 -41t-86 -20.5t-100.5 -5h-90v-157l51 -5v-106zM506 505v11q0 70 -42 92.5t-141 22.5h-88v-244q28 -1 88 -1q98 0 140.5 24.5t42.5 94.5
z" />
    <glyph glyph-name="Q" unicode="Q" horiz-adv-x="717" 
d="M664 326q0 -150 -63 -234t-178 -101v-43q0 -26 11.5 -33.5t50.5 -7.5h84v-87q-47 -15 -130 -15q-73 0 -110.5 30t-37.5 111v45q-115 18 -176.5 101.5t-61.5 233.5v90q0 175 80 258.5t225 83.5q146 0 226 -83.5t80 -258.5v-90zM525 326v90q0 118 -43.5 169.5t-123.5 51.5
t-123 -51.5t-43 -169.5v-90q0 -220 166 -220q80 0 123.5 51.5t43.5 168.5z" />
    <glyph glyph-name="R" unicode="R" horiz-adv-x="728" 
d="M286 0h-238v106l51 5v521l-51 5v106q140 5 267 5q74 0 128 -9t101.5 -33t72.5 -71.5t25 -118.5v-7q0 -152 -128 -205l120 -194l55 -4v-106h-157l-159 274q-17 -1 -55 -1h-83v-162l51 -5v-106zM505 508v6q0 69 -43 93t-144 24q-54 0 -83 -1v-244q28 -1 85 -1q99 0 142 27
t43 96z" />
    <glyph glyph-name="S" unicode="S" horiz-adv-x="619" 
d="M567 201q0 -108 -67 -162t-195 -54q-151 0 -235 22v165h92l10 -69q86 -4 133 -4q123 0 123 95q0 36 -20.5 58.5t-74.5 47.5l-117 52q-84 38 -124 83.5t-40 126.5q0 101 66.5 148.5t200.5 47.5q127 0 223 -24v-158h-92l-12 66q-54 3 -111 3q-70 0 -104 -17.5t-34 -61.5
q0 -34 20.5 -55.5t74.5 -44.5l116 -51q88 -39 127.5 -86t39.5 -128z" />
    <glyph glyph-name="T" unicode="T" horiz-adv-x="669" 
d="M626 568h-89l-10 59h-123v-518l51 -5v-104h-241v104l50 5v518h-122l-10 -59h-90v175h584v-175z" />
    <glyph glyph-name="U" unicode="U" horiz-adv-x="782" 
d="M494 743h239v-106l-50 -5v-328q0 -159 -75 -239t-217 -80q-143 0 -217.5 80t-74.5 239v328l-51 5v106h240v-106l-51 -5v-321q0 -114 33.5 -160.5t120.5 -46.5t120.5 46.5t33.5 160.5v321l-51 5v106z" />
    <glyph glyph-name="V" unicode="V" horiz-adv-x="777" 
d="M497 743h241v-106l-52 -5l-196 -632h-206l-196 632l-50 5v106h240v-106l-41 -4l119 -405q18 -61 31 -133h2q10 67 30 133l119 405l-41 4v106z" />
    <glyph glyph-name="W" unicode="W" horiz-adv-x="1004" 
d="M735 743h231v-106l-50 -5l-112 -632h-183l-94 363q-20 78 -24 112h-3q-7 -46 -24 -111l-93 -364h-183l-112 632l-51 5v106h232v-106l-41 -4l57 -339q9 -57 20 -144h5q11 83 26 136l84 307h165l84 -309q14 -51 26 -134h4q12 92 21 144l56 339l-41 4v106z" />
    <glyph glyph-name="X" unicode="X" horiz-adv-x="727" 
d="M688 0h-158l-173 257l-170 -257h-149v106l57 5l179 265l-174 255l-56 6v106h155l173 -257l167 257h145v-106l-56 -5l-178 -260l179 -261l59 -5v-106z" />
    <glyph glyph-name="Y" unicode="Y" horiz-adv-x="674" 
d="M635 637l-48 -5l-182 -347v-175l51 -5v-105h-240v105l52 5v174l-183 348l-47 5v106h141l109 -215q26 -54 48 -111h2q17 48 49 111l109 215h139v-106z" />
    <glyph glyph-name="Z" unicode="Z" horiz-adv-x="640" 
d="M588 0h-536v127l366 499h-254l-10 -59h-89v176h511v-127l-365 -499h276l11 64h90v-181z" />
    <glyph glyph-name="bracketleft" unicode="[" horiz-adv-x="425" 
d="M370 -204h-270v947h270v-110h-139v-728h139v-109z" />
    <glyph glyph-name="backslash" unicode="\" horiz-adv-x="480" 
d="M451 0h-131l-291 743h131z" />
    <glyph glyph-name="bracketright" unicode="]" horiz-adv-x="425" 
d="M325 -204h-271v109h139v729h-139v109h271v-947z" />
    <glyph glyph-name="asciicircum" unicode="^" horiz-adv-x="715" 
d="M618 423h-131l-130 263l-130 -263h-131l161 323h200z" />
    <glyph glyph-name="underscore" unicode="_" horiz-adv-x="597" 
d="M593 -126h-589v79h589v-79z" />
    <glyph glyph-name="grave" unicode="`" horiz-adv-x="476" 
d="M337 626h-127l-158 148h154z" />
    <glyph glyph-name="a" unicode="a" horiz-adv-x="609" 
d="M565 0h-172v37q-74 -51 -177 -51q-166 0 -166 160v22q0 44 13 75t34.5 49.5t57 28.5t72.5 13.5t89 3.5h67v34q0 61 -21.5 79t-95.5 18q-36 0 -77 -3l-9 -50h-91v131q26 10 82.5 20t116.5 10q131 0 179.5 -46.5t48.5 -158.5v-262l49 -5v-105zM387 115v141h-71
q-78 0 -108 -16t-30 -68v-25q0 -66 79 -66q71 0 130 34z" />
    <glyph glyph-name="b" unicode="b" horiz-adv-x="614" 
d="M561 250q0 -140 -65 -202t-200 -62q-89 0 -227 15v667l-50 5v104h182v-225q56 26 133 26q117 0 172 -60.5t55 -189.5v-78zM429 250v79q0 77 -24.5 107t-88.5 30q-72 0 -115 -21v-343q88 -4 97 -4q71 0 101 33t30 119z" />
    <glyph glyph-name="c" unicode="c" horiz-adv-x="516" 
d="M466 7q-71 -21 -174 -21q-237 0 -237 260v72q0 259 237 259q111 0 174 -21v-142h-89l-9 49q-17 2 -55 2q-65 0 -95.5 -30.5t-30.5 -116.5v-72q0 -86 30.5 -117t96.5 -31q57 0 152 8v-99z" />
    <glyph glyph-name="d" unicode="d" horiz-adv-x="641" 
d="M597 0h-174v29q-68 -43 -158 -43q-101 0 -155.5 62.5t-54.5 188.5v80q0 141 63 200.5t180 59.5q57 0 117 -11v114l-56 5v92h188v-667l50 -5v-105zM416 122v335q-63 10 -105 10q-66 0 -95 -30t-29 -120v-80q0 -75 26.5 -107.5t87.5 -32.5q57 0 115 25z" />
    <glyph glyph-name="e" unicode="e" horiz-adv-x="610" 
d="M560 240h-376v-9q0 -36 4 -57t18.5 -41t45.5 -29t81 -9q103 0 203 13v-98q-89 -24 -209 -24q-150 0 -212.5 63t-62.5 206v47q0 137 64.5 206t189.5 69q254 0 254 -286v-51zM429 327v8q0 28 -4 49t-16 42.5t-38 33t-65 11.5q-38 0 -63.5 -11.5t-37 -32.5t-16 -42.5
t-4.5 -49.5v-8h244z" />
    <glyph glyph-name="f" unicode="f" horiz-adv-x="450" 
d="M412 458h-144v-348l49 -5v-105h-231v105l50 5v348l-100 8v97h100v54q0 86 33.5 130.5t123.5 44.5q57 0 121 -15v-85q-42 3 -88 3q-39 0 -48.5 -16t-9.5 -64v-52h144v-105z" />
    <glyph glyph-name="g" unicode="g" horiz-adv-x="615" 
d="M566 -38q0 -92 -64.5 -136.5t-199.5 -44.5q-134 0 -195.5 43t-61.5 135q0 67 52 116q-45 29 -45 84q0 58 50 89q-44 44 -44 134q0 45 10.5 78t36.5 61t76 42t124 14h265v-80l-55 -10q33 -41 33 -105q0 -101 -61.5 -148.5t-184.5 -47.5q-74 0 -122 17q-21 -16 -21 -35
q0 -18 10.5 -24t38.5 -6h94q68 0 112 -6.5t81 -24.5t54 -54t17 -91zM438 -40q0 51 -26.5 67t-109.5 16h-101q-30 -26 -30 -83q0 -47 26 -66.5t105 -19.5q77 0 106.5 20.5t29.5 65.5zM420 382q0 51 -24 74.5t-94 23.5q-71 0 -93.5 -24t-22.5 -74q0 -51 23.5 -75t92.5 -24
q70 0 94 24t24 75z" />
    <glyph glyph-name="h" unicode="h" horiz-adv-x="678" 
d="M634 0h-182v355q0 66 -17 88.5t-72 22.5q-56 0 -138 -37v-319l50 -5v-105h-231v105l49 5v558l-49 5v104h181v-248q89 48 175 48q58 0 95.5 -14.5t56.5 -45t25.5 -67.5t6.5 -93v-247l50 -5v-105z" />
    <glyph glyph-name="i" unicode="i" horiz-adv-x="319" 
d="M275 0h-231v105l49 5v343l-49 5v105h182v-453l49 -5v-105zM228 650h-137v127h137v-127z" />
    <glyph glyph-name="j" unicode="j" horiz-adv-x="297" 
d="M229 -46q0 -97 -36 -135t-125 -38q-55 0 -83 7v94q16 -1 58 -1q34 0 44 14.5t10 58.5v499l-50 5v105h182v-609zM231 650h-137v127h137v-127z" />
    <glyph glyph-name="k" unicode="k" horiz-adv-x="614" 
d="M570 0h-146l-199 268v-268h-181v105l49 5v558l-49 5v104h181v-465l200 251h144v-105l-67 -6l-141 -158l150 -183l59 -6v-105z" />
    <glyph glyph-name="l" unicode="l" horiz-adv-x="319" 
d="M275 0h-231v105l49 5v558l-49 5v104h181v-667l50 -5v-105z" />
    <glyph glyph-name="m" unicode="m" horiz-adv-x="954" 
d="M910 0h-182v369q0 23 -0.5 34.5t-4 26.5t-11 21.5t-21 11.5t-34.5 5q-52 0 -117 -35q3 -22 3 -64v-369h-132v369q0 23 -0.5 35t-4 26.5t-10.5 21t-19.5 11.5t-31.5 5q-46 0 -120 -37v-321l50 -5v-105h-231v105l49 5v343l-49 5v105h176v-45q75 59 168 59q91 0 128 -61
q89 61 175 61q46 0 78.5 -12.5t49.5 -30t26.5 -47.5t12 -55t2.5 -61v-261l50 -5v-105z" />
    <glyph glyph-name="n" unicode="n" horiz-adv-x="678" 
d="M634 0h-182v357q0 63 -16 86t-63 23q-55 0 -148 -38v-318l50 -5v-105h-231v105l49 5v343l-49 5v105h176v-45q103 59 185 59q58 0 95 -15.5t54.5 -47.5t23.5 -67.5t6 -89.5v-247l50 -5v-105z" />
    <glyph glyph-name="o" unicode="o" horiz-adv-x="617" 
d="M563 247q0 -261 -255 -261q-254 0 -254 261v69q0 261 254 261q255 0 255 -261v-69zM431 247v69q0 80 -29 114.5t-94 34.5q-64 0 -93 -34.5t-29 -114.5v-69q0 -80 29 -114.5t93 -34.5q65 0 94 34.5t29 114.5z" />
    <glyph glyph-name="p" unicode="p" horiz-adv-x="639" 
d="M586 246q0 -260 -249 -260q-54 0 -112 12v-93l49 -5v-105h-230v105l49 5v548l-49 5v105h173v-37q72 51 165 51q204 0 204 -251v-80zM454 246v80q0 77 -25.5 108t-82.5 31q-52 0 -122 -31v-326q65 -12 105 -12q64 0 94.5 31.5t30.5 118.5z" />
    <glyph glyph-name="q" unicode="q" horiz-adv-x="612" 
d="M357 -101l49 5v111q-69 -29 -146 -29q-111 0 -163 60t-52 191v79q0 147 65 204t206 57q96 0 221 -15v-658l50 -5v-105h-230v105zM405 122v339q-66 3 -92 3q-38 0 -60.5 -5t-41.5 -20t-26.5 -45t-7.5 -78v-79q0 -77 22 -108t80 -31t126 24z" />
    <glyph glyph-name="r" unicode="r" horiz-adv-x="446" 
d="M411 456q-110 0 -186 -33v-313l50 -5v-105h-231v105l49 5v343l-49 5v105h174v-46q70 60 193 60v-121z" />
    <glyph glyph-name="s" unicode="s" horiz-adv-x="525" 
d="M477 153q0 -167 -228 -167q-53 0 -111 7.5t-81 14.5v139h92l9 -56q44 -3 91 -3q54 0 75.5 14t21.5 45q0 28 -18 43t-81 42l-41 17q-84 35 -121 73.5t-37 102.5q0 82 55.5 117t171.5 35q48 0 104 -7t79 -15v-129h-91l-10 47q-39 3 -81 3q-54 0 -76 -10t-22 -38
q0 -26 17 -41t69 -37l45 -19q97 -41 132.5 -77t35.5 -101z" />
    <glyph glyph-name="t" unicode="t" horiz-adv-x="467" 
d="M418 1q-56 -15 -114 -15q-84 0 -119.5 36.5t-35.5 124.5v311l-105 8v97h105v140h132v-140h137v-105h-137v-309q0 -40 8.5 -51t43.5 -11q21 0 85 4v-90z" />
    <glyph glyph-name="u" unicode="u" horiz-adv-x="678" 
d="M634 0h-177v45q-108 -59 -195 -59q-42 0 -73.5 12t-49.5 31t-28.5 49t-14 59.5t-3.5 67.5v248l-49 5v105h181v-358q0 -62 16.5 -85t64.5 -23q53 0 146 38v318l-49 5v105h181v-453l50 -5v-105z" />
    <glyph glyph-name="v" unicode="v" horiz-adv-x="653" 
d="M612 458l-50 -7l-145 -451h-184l-145 451l-49 7v105h155l92 -321q26 -92 40 -153h2q12 51 40 153l91 321h153v-105z" />
    <glyph glyph-name="w" unicode="w" horiz-adv-x="952" 
d="M692 563h217v-105l-49 -6l-100 -452h-168l-91 278q-20 62 -26 107h-3q-8 -52 -26 -107l-92 -278h-167l-100 452l-49 6v105h220v-99l-41 -5l40 -200q14 -68 25 -135h6q0 2 12 53.5t22 80.5l79 236h148l79 -236q3 -9 35 -134h5q3 18 12 62.5t14 72.5l39 200l-41 5v99z" />
    <glyph glyph-name="x" unicode="x" horiz-adv-x="634" 
d="M590 0h-146l-137 184l-129 -184h-135v105l59 6l128 180l-120 161l-61 6v105h148l129 -176l121 176h133v-105l-60 -6l-119 -167l129 -174l60 -6v-105z" />
    <glyph glyph-name="y" unicode="y" horiz-adv-x="671" 
d="M631 458l-58 -5l-163 -473q-38 -109 -80.5 -153.5t-132.5 -44.5q-78 0 -132 13v94q46 -2 103 -2q42 0 59 18t35 74l8 25l-172 449l-59 5v105h168l92 -287q29 -92 41 -150h2q7 49 36 147l84 290h169v-105z" />
    <glyph glyph-name="z" unicode="z" horiz-adv-x="531" 
d="M483 0h-435v118l288 339h-183l-9 -43h-85v149h423v-116l-289 -342h196l10 53h84v-158z" />
    <glyph glyph-name="braceleft" unicode="{" horiz-adv-x="442" 
d="M385 -205h-64q-123 0 -165 37t-42 132v152q0 46 -12.5 67.5t-49.5 43.5v83q37 23 49.5 44.5t12.5 67.5v152q0 96 42 132.5t165 36.5h63v-109h-62q-51 0 -63.5 -10t-12.5 -50v-152q0 -59 -17 -93t-58 -60q41 -27 58 -60.5t17 -92.5v-152q0 -40 12.5 -50t63.5 -10h63v-109z
" />
    <glyph glyph-name="bar" unicode="|" horiz-adv-x="330" 
d="M231 -205h-132v948h132v-948z" />
    <glyph glyph-name="braceright" unicode="}" horiz-adv-x="442" 
d="M390 227q-37 -22 -50 -43.5t-13 -67.5v-152q0 -95 -42 -132t-164 -37h-65v109h63q51 0 64 10.5t13 49.5v152q0 59 17 92.5t58 60.5q-41 26 -58 59.5t-17 93.5v152q0 39 -13 49.5t-64 10.5h-61v109h63q123 0 164.5 -36.5t41.5 -132.5v-152q0 -46 13 -67.5t50 -44.5v-83z
" />
    <glyph glyph-name="asciitilde" unicode="~" horiz-adv-x="703" 
d="M600 485q0 -78 -31 -117t-101 -39q-65 0 -112 35l-58 43q-34 25 -60 25q-24 0 -32 -13.5t-8 -45.5v-37h-96v37q0 157 132 157q54 0 108 -37l59 -42q39 -27 66 -27q23 0 30.5 15t7.5 46v37h95v-37z" />
    <glyph glyph-name="uni00A0" unicode="&#xa0;" horiz-adv-x="196" 
 />
    <glyph glyph-name="exclamdown" unicode="&#xa1;" horiz-adv-x="286" 
d="M215 -213h-145l13 566h120zM210 565v-154h-135v154h135z" />
    <glyph glyph-name="cent" unicode="&#xa2;" horiz-adv-x="541" 
d="M467 7q-48 -14 -122 -18v-109h-112v113q-177 33 -177 257v64q0 223 177 256v112h112v-107q68 -5 122 -19v-141h-88l-9 49q-16 1 -54 1q-67 0 -97.5 -31t-30.5 -120v-64q0 -89 31 -120.5t97 -31.5q61 0 151 7v-98z" />
    <glyph glyph-name="sterling" unicode="&#xa3;" horiz-adv-x="645" 
d="M585 0h-494v95q47 44 47 117v120h-77v104h77v63q0 138 53 199t190 61q112 0 204 -22v-164h-93l-11 66q-33 3 -83 3q-79 0 -101.5 -28t-22.5 -114v-64h229v-104h-229v-120q0 -55 -31 -100h342v-112z" />
    <glyph glyph-name="currency" unicode="&#xa4;" horiz-adv-x="662" 
d="M593 186l-70 -69l-77 75q-54 -31 -114 -31q-62 0 -115 31l-78 -76l-69 69l78 78q-32 52 -32 113q0 65 32 112l-79 78l70 69l78 -77q51 32 115 32q66 0 115 -32l77 76l69 -70l-77 -76q34 -57 34 -112q0 -60 -34 -114zM460 376q0 57 -37 91.5t-91 34.5t-90.5 -34.5
t-36.5 -91.5t37 -91.5t90 -34.5t90.5 34.5t37.5 91.5z" />
    <glyph glyph-name="yen" unicode="&#xa5;" horiz-adv-x="703" 
d="M650 219h-231v-125l50 -5v-89h-239v89l52 5v125h-232v89h222l-51 92h-170v89h125l-82 151l-52 6v97h151l108 -215q34 -67 49 -111h2q18 50 48 111l109 215h152v-97l-54 -6l-82 -151h125v-89h-170l-52 -92h222v-89z" />
    <glyph glyph-name="brokenbar" unicode="&#xa6;" horiz-adv-x="330" 
d="M231 -205h-132v392h132v-392zM231 351h-132v392h132v-392z" />
    <glyph glyph-name="section" unicode="&#xa7;" horiz-adv-x="668" 
d="M591 -8q0 -210 -274 -210q-121 0 -222 22v165h92l9 -70q6 0 51 -2.5t70 -2.5q134 0 134 93q0 42 -22 67.5t-98 56.5l-113 46q-78 32 -110.5 79t-32.5 118q0 63 30 110q-28 40 -28 103q0 97 64 143.5t200 46.5q116 0 224 -24v-157h-93l-9 65q-54 3 -117 3q-74 0 -103 -19
t-29 -62q0 -33 18.5 -55.5t73.5 -44.5l119 -48q93 -37 130 -85t37 -116q0 -69 -32 -114q31 -49 31 -108zM473 167v22q0 50 -16.5 74t-76.5 49l-123 50q-49 20 -70 38v-25q0 -56 12.5 -75t69.5 -43l102 -41q64 -26 102 -49z" />
    <glyph glyph-name="dieresis" unicode="&#xa8;" horiz-adv-x="487" 
d="M420 644h-111v124h111v-124zM179 644v124h-111v-124h111z" />
    <glyph glyph-name="copyright" unicode="&#xa9;" horiz-adv-x="856" 
d="M786 375q0 -176 -99.5 -275.5t-260.5 -99.5t-260.5 99.5t-99.5 275.5t99.5 275.5t260.5 99.5t260.5 -99.5t99.5 -275.5zM705 375q0 139 -77 219t-202 80q-126 0 -202 -79.5t-76 -219.5t76 -220t202 -80q125 0 202 80t77 220zM548 172q-39 -12 -114 -12q-93 0 -140 48.5
t-47 139.5v55q0 187 187 187q72 0 114 -12v-106h-62l-7 35q-13 1 -38 1q-53 0 -73 -23t-20 -82v-55q0 -59 20 -82.5t73 -23.5q24 0 38 1l7 36h62v-107z" />
    <glyph glyph-name="ordfeminine" unicode="&#xaa;" horiz-adv-x="450" 
d="M401 421h-120v24q-51 -33 -118 -33q-50 0 -79.5 26t-29.5 75v12q0 28 9.5 48t24.5 31t40 17.5t48 8t56 1.5h41v17q0 35 -13 45.5t-60 10.5q-14 0 -48 -2l-6 -28h-65v86q57 20 138 20q86 0 119.5 -30t33.5 -102v-149l29 -3v-75zM277 501v74h-44q-49 0 -66.5 -8.5
t-17.5 -37.5v-13q0 -21 12 -27.5t36 -6.5q45 0 80 19z" />
    <glyph glyph-name="guillemotleft" unicode="&#xab;" horiz-adv-x="505" 
d="M466 66h-118l-110 215l110 216h118l-107 -216zM269 66l-106 215l106 216h-118l-110 -216l110 -215h118z" />
    <glyph glyph-name="logicalnot" unicode="&#xac;" horiz-adv-x="690" 
d="M578 206h-105v252h-363v111h468v-363z" />
    <glyph glyph-name="uni00AD" unicode="&#xad;" horiz-adv-x="390" 
d="M322 242h-254v104h254v-104z" />
    <glyph glyph-name="registered" unicode="&#xae;" horiz-adv-x="679" 
d="M610 475q0 -132 -74 -210.5t-198 -78.5t-198 78.5t-74 210.5q0 133 73.5 211t198.5 78q124 0 198 -78.5t74 -210.5zM543 475q0 106 -55 166t-150 60t-150 -60t-55 -166t54.5 -166t150.5 -60t150.5 60t54.5 166zM320 328h-114v47l22 3v208l-22 3v49q40 2 114 2
q68 0 104.5 -20.5t36.5 -77.5v-3q0 -66 -59 -87l50 -72l29 -4v-48h-79l-72 111h-32v-61l22 -3v-47zM390 539v3q0 25 -16 33t-52 8h-24v-91h25q36 0 51.5 10t15.5 37z" />
    <glyph glyph-name="macron" unicode="&#xaf;" horiz-adv-x="484" 
d="M430 654h-376v89h376v-89z" />
    <glyph glyph-name="degree" unicode="&#xb0;" horiz-adv-x="447" 
d="M396 590q0 -70 -50.5 -118.5t-121.5 -48.5q-72 0 -122 48.5t-50 118.5t50 119t122 49q71 0 121.5 -49t50.5 -119zM314 590q0 38 -26.5 63t-64.5 25q-37 0 -63.5 -25t-26.5 -63q0 -37 26.5 -62t63.5 -25q38 0 64.5 25t26.5 62z" />
    <glyph glyph-name="plusminus" unicode="&#xb1;" horiz-adv-x="690" 
d="M598 0h-507v95h507v-95zM601 375h-204v-196h-102v196h-206v110h206v196h102v-196h204v-110z" />
    <glyph glyph-name="two.superior" unicode="&#xb2;" horiz-adv-x="459" 
d="M390 301h-332v56q0 79 30.5 119t113.5 80q59 28 74 43t15 39q0 23 -19.5 32.5t-69.5 9.5q-31 0 -67 -3l-5 -39h-65v101q52 18 152 18q93 0 136.5 -27.5t43.5 -88.5q0 -47 -28.5 -81t-100.5 -67q-70 -32 -88 -49.5t-18 -56.5v-5h157l5 37h66v-118z" />
    <glyph glyph-name="three.superior" unicode="&#xb3;" horiz-adv-x="458" 
d="M393 425q0 -71 -44 -102.5t-137 -31.5q-90 0 -152 20v102h65l5 -42q46 -2 72 -2q47 0 67 12.5t20 48.5v9q0 28 -14 41t-58 13h-131v73h132q43 0 57 14t14 41v6q0 30 -18.5 41t-69.5 11q-48 0 -69 -2l-6 -39h-65v101q17 6 63 12t88 6q91 0 136 -28t45 -95v-6
q0 -70 -55 -98q55 -25 55 -95v-10z" />
    <glyph glyph-name="acute" unicode="&#xb4;" horiz-adv-x="476" 
d="M414 774l-158 -148h-127l132 148h153z" />
    <glyph glyph-name="mu" unicode="&#xb5;" horiz-adv-x="682" 
d="M276 -205h-230v105l49 5v548l-49 5v105h181v-358q0 -62 16.5 -85t64.5 -23q53 0 146 38v318l-49 5v105h181v-453l50 -5v-105h-177v45q-95 -53 -173 -53q-32 0 -59 8v-95l49 -5v-105z" />
    <glyph glyph-name="paragraph" unicode="&#xb6;" horiz-adv-x="749" 
d="M674 -197h-94v846h-61v-846h-191v98l96 5v343h-47q-57 0 -102 6.5t-85.5 23t-67.5 43t-43 69.5t-16 100v10q0 73 23.5 122t69 74.5t99.5 35.5t129 10h290v-940z" />
    <glyph glyph-name="periodcentered" unicode="&#xb7;" horiz-adv-x="281" 
d="M204 291h-128v155h128v-155z" />
    <glyph glyph-name="cedilla" unicode="&#xb8;" horiz-adv-x="460" 
d="M327 -64l-134 -141h-126l111 141h149z" />
    <glyph glyph-name="one.superior" unicode="&#xb9;" horiz-adv-x="420" 
d="M360 300h-291v75l93 4v270l-93 -29v85l122 44h76v-370l93 -4v-75z" />
    <glyph glyph-name="ordmasculine" unicode="&#xba;" horiz-adv-x="455" 
d="M400 580q0 -168 -173 -168t-173 168v32q0 168 173 168t173 -168v-32zM302 580v32q0 48 -17.5 68t-57.5 20t-57.5 -20t-17.5 -68v-32q0 -48 17.5 -68t57.5 -20t57.5 20t17.5 68z" />
    <glyph glyph-name="guillemotright" unicode="&#xbb;" horiz-adv-x="505" 
d="M465 281l-110 -215h-118l106 215l-106 216h118zM268 281l-110 216h-118l107 -216l-107 -215h118z" />
    <glyph glyph-name="onequarter" unicode="&#xbc;" horiz-adv-x="976" 
d="M922 102h-65v-47l31 -3v-52h-167v52l31 3v47h-219v77l232 267h92v-269h65v-75zM757 177v153l-136 -153h136zM817 745l-485 -745h-118l485 745h118zM354 300h-290v75l92 4v270l-93 -29v85l123 44h76v-370l92 -4v-75z" />
    <glyph glyph-name="onehalf" unicode="&#xbd;" horiz-adv-x="1068" 
d="M998 0h-331v56q0 78 30.5 118t112.5 81q56 28 72.5 43t16.5 38t-19.5 32.5t-69.5 9.5q-43 0 -66 -2l-6 -40h-65v102q61 18 153 18q93 0 136 -28t43 -89q0 -46 -28.5 -78t-100.5 -65q-68 -32 -87 -51t-19 -59v-5h157l6 37h65v-118zM817 745l-485 -745h-118l485 745h118z
M354 300h-290v75l92 4v270l-93 -29v85l123 44h76v-370l92 -4v-75z" />
    <glyph glyph-name="threequarters" unicode="&#xbe;" horiz-adv-x="1029" 
d="M969 102h-65v-47l31 -3v-52h-167v52l31 3v47h-219v77l232 267h92v-269h65v-75zM804 177v153l-136 -153h136zM839 745l-485 -745h-119l485 745h119zM390 425q0 -71 -44.5 -102.5t-137.5 -31.5q-87 0 -152 20v102h66l5 -42q44 -2 71 -2q48 0 68 12.5t20 48.5v9q0 28 -14 41
t-58 13h-132v73h132q43 0 57.5 14t14.5 41v6q0 30 -18.5 41t-69.5 11q-48 0 -70 -2l-5 -39h-65v101q17 6 62.5 12t87.5 6q92 0 137 -28t45 -95v-6q0 -71 -56 -98q56 -25 56 -95v-10z" />
    <glyph glyph-name="questiondown" unicode="&#xbf;" horiz-adv-x="539" 
d="M489 -196q-87 -28 -191 -28q-111 0 -167 39.5t-56 126.5v7q0 52 22.5 96.5t80.5 99.5q66 63 83 95t17 82v32h120v-32q0 -69 -16 -110.5t-72 -98.5q-50 -51 -68 -82t-18 -64v-7q0 -38 26 -53t81 -15q32 0 63 2l10 63h85v-153zM404 412h-133v154h133v-154z" />
    <glyph glyph-name="Agrave" unicode="&#xc0;" horiz-adv-x="782" 
d="M275 0h-237v106l50 5l167 521l-52 5v106h291l197 -632l52 -5v-106h-240v105l37 3l-31 101h-238l-32 -101l36 -3v-105zM483 323l-62 205q-19 59 -27 117h-8q-11 -66 -27 -117l-62 -205h186zM487 795h-127l-158 148h154z" />
    <glyph glyph-name="Aacute" unicode="&#xc1;" horiz-adv-x="782" 
d="M275 0h-237v106l50 5l167 521l-52 5v106h291l197 -632l52 -5v-106h-240v105l37 3l-31 101h-238l-32 -101l36 -3v-105zM483 323l-62 205q-19 59 -27 117h-8q-11 -66 -27 -117l-62 -205h186zM570 943l-158 -148h-127l132 148h153z" />
    <glyph glyph-name="Acircumflex" unicode="&#xc2;" horiz-adv-x="782" 
d="M275 0h-237v106l50 5l167 521l-52 5v106h291l197 -632l52 -5v-106h-240v105l37 3l-31 101h-238l-32 -101l36 -3v-105zM483 323l-62 205q-19 59 -27 117h-8q-11 -66 -27 -117l-62 -205h186zM607 795h-121l-96 91l-95 -91h-121l135 148h164z" />
    <glyph glyph-name="Atilde" unicode="&#xc3;" horiz-adv-x="782" 
d="M275 0h-237v106l50 5l167 521l-52 5v106h291l197 -632l52 -5v-106h-240v105l37 3l-31 101h-238l-32 -101l36 -3v-105zM483 323l-62 205q-19 59 -27 117h-8q-11 -66 -27 -117l-62 -205h186zM595 920q0 -133 -109 -133q-52 0 -99 31l-53 35q-31 20 -50 20t-26 -12.5
t-7 -40.5v-28h-84v28q0 135 113 135q48 0 92 -29l53 -35q35 -23 56 -23q18 0 24.5 12t6.5 40v29h83v-29z" />
    <glyph glyph-name="Adieresis" unicode="&#xc4;" horiz-adv-x="782" 
d="M275 0h-237v106l50 5l167 521l-52 5v106h291l197 -632l52 -5v-106h-240v105l37 3l-31 101h-238l-32 -101l36 -3v-105zM483 323l-62 205q-19 59 -27 117h-8q-11 -66 -27 -117l-62 -205h186zM566 802h-111v124h111v-124zM325 802v124h-111v-124h111z" />
    <glyph glyph-name="Aring" unicode="&#xc5;" horiz-adv-x="782" 
d="M275 0h-237v106l50 5l167 521l-52 5v106h291l197 -632l52 -5v-106h-240v105l37 3l-31 101h-238l-32 -101l36 -3v-105zM483 323l-62 205q-19 59 -27 117h-8q-11 -66 -27 -117l-62 -205h186zM519 881q0 -57 -35.5 -87t-92.5 -30q-58 0 -94.5 30t-36.5 87q0 56 36.5 86.5
t94.5 30.5q57 0 92.5 -30t35.5 -87zM446 881q0 51 -55 51q-56 0 -56 -51t56 -51q55 0 55 51z" />
    <glyph glyph-name="AE" unicode="&#xc6;" horiz-adv-x="1023" 
d="M37 0v106l51 6l167 518l-52 5v108h767v-171h-92l-10 56h-232v-189h313v-112h-313v-212h232l10 58h92v-173h-524v106l51 5v97h-226l-31 -98l49 -4v-106h-252zM497 322v320h-108q-24 -95 -29 -110l-63 -210h200z" />
    <glyph glyph-name="Ccedilla" unicode="&#xc7;" horiz-adv-x="611" 
d="M557 4q-81 -19 -187 -19q-75 0 -130.5 16t-99 53t-65.5 104t-22 164v100q0 97 22 164t65.5 104t98.5 52.5t131 15.5q106 0 187 -19v-171h-93l-10 66q-48 2 -75 2q-98 0 -141.5 -45.5t-43.5 -168.5v-100q0 -123 43.5 -169.5t141.5 -46.5q27 0 75 2l10 68h93v-172zM427 -64
l-134 -141h-126l111 141h149z" />
    <glyph glyph-name="Egrave" unicode="&#xc8;" horiz-adv-x="625" 
d="M572 0h-524v106l50 5v521l-50 5v106h524v-171h-93l-9 56h-232v-189h312v-112h-312v-212h231l10 58h93v-173zM424 795h-127l-158 148h154z" />
    <glyph glyph-name="Eacute" unicode="&#xc9;" horiz-adv-x="625" 
d="M572 0h-524v106l50 5v521l-50 5v106h524v-171h-93l-9 56h-232v-189h312v-112h-312v-212h231l10 58h93v-173zM529 943l-158 -148h-127l132 148h153z" />
    <glyph glyph-name="Ecircumflex" unicode="&#xca;" horiz-adv-x="625" 
d="M572 0h-524v106l50 5v521l-50 5v106h524v-171h-93l-9 56h-232v-189h312v-112h-312v-212h231l10 58h93v-173zM541 795h-121l-96 91l-95 -91h-121l135 148h164z" />
    <glyph glyph-name="Edieresis" unicode="&#xcb;" horiz-adv-x="625" 
d="M572 0h-524v106l50 5v521l-50 5v106h524v-171h-93l-9 56h-232v-189h312v-112h-312v-212h231l10 58h93v-173zM508 803h-111v124h111v-124zM267 803v124h-111v-124h111z" />
    <glyph glyph-name="Igrave" unicode="&#xcc;" horiz-adv-x="342" 
d="M291 0h-241v106l51 5v521l-51 5v106h241v-106l-50 -5v-521l50 -5v-106zM267 795h-127l-158 148h154z" />
    <glyph glyph-name="Iacute" unicode="&#xcd;" horiz-adv-x="342" 
d="M291 0h-241v106l51 5v521l-51 5v106h241v-106l-50 -5v-521l50 -5v-106zM360 943l-158 -148h-127l132 148h153z" />
    <glyph glyph-name="Icircumflex" unicode="&#xce;" horiz-adv-x="342" 
d="M291 0h-241v106l51 5v521l-51 5v106h241v-106l-50 -5v-521l50 -5v-106zM387 795h-121l-96 91l-95 -91h-121l135 148h164z" />
    <glyph glyph-name="Idieresis" unicode="&#xcf;" horiz-adv-x="342" 
d="M291 0h-241v106l51 5v521l-51 5v106h241v-106l-50 -5v-521l50 -5v-106zM347 803h-111v124h111v-124zM106 803v124h-111v-124h111z" />
    <glyph glyph-name="Eth" unicode="&#xd0;" horiz-adv-x="731" 
d="M676 326q0 -168 -81 -250t-262 -82q-123 0 -284 7v107l52 7v213h-52v110h52v191l-52 7v107q138 6 284 6q177 0 260 -82t83 -247v-94zM537 326v94q0 118 -48.5 164t-158.5 46h-92v-192h130v-110h-130v-215h92q110 0 158.5 47.5t48.5 165.5z" />
    <glyph glyph-name="Ntilde" unicode="&#xd1;" horiz-adv-x="784" 
d="M505 743h231v-106l-51 -5v-632h-162l-243 446q-37 65 -57 110h-3q6 -66 6 -141v-304l51 -5v-106h-229v106l50 5v521l-50 5v106h211l243 -436q36 -67 57 -109h2q-5 78 -5 142v292l-51 5v106zM612 925q0 -133 -109 -133q-53 0 -99 31l-53 35q-31 20 -50 20t-26 -12.5
t-7 -40.5v-28h-84v28q0 135 113 135q48 0 92 -29l53 -35q35 -23 56 -23q18 0 24.5 12t6.5 40v29h83v-29z" />
    <glyph glyph-name="Ograve" unicode="&#xd2;" horiz-adv-x="717" 
d="M664 328q0 -175 -79.5 -259t-226.5 -84q-146 0 -225.5 84t-79.5 259v87q0 175 79.5 259t225.5 84t226 -84t80 -259v-87zM525 328v87q0 118 -43 170t-124 52q-80 0 -123 -52t-43 -170v-87q0 -119 43 -170.5t123 -51.5q81 0 124 51.5t43 170.5zM459 795h-127l-158 148h154z
" />
    <glyph glyph-name="Oacute" unicode="&#xd3;" horiz-adv-x="717" 
d="M664 328q0 -175 -79.5 -259t-226.5 -84q-146 0 -225.5 84t-79.5 259v87q0 175 79.5 259t225.5 84t226 -84t80 -259v-87zM525 328v87q0 118 -43 170t-124 52q-80 0 -123 -52t-43 -170v-87q0 -119 43 -170.5t123 -51.5q81 0 124 51.5t43 170.5zM545 943l-158 -148h-127
l132 148h153z" />
    <glyph glyph-name="Ocircumflex" unicode="&#xd4;" horiz-adv-x="717" 
d="M664 328q0 -175 -79.5 -259t-226.5 -84q-146 0 -225.5 84t-79.5 259v87q0 175 79.5 259t225.5 84t226 -84t80 -259v-87zM525 328v87q0 118 -43 170t-124 52q-80 0 -123 -52t-43 -170v-87q0 -119 43 -170.5t123 -51.5q81 0 124 51.5t43 170.5zM575 795h-121l-96 91
l-95 -91h-121l135 148h164z" />
    <glyph glyph-name="Otilde" unicode="&#xd5;" horiz-adv-x="717" 
d="M664 328q0 -175 -79.5 -259t-226.5 -84q-146 0 -225.5 84t-79.5 259v87q0 175 79.5 259t225.5 84t226 -84t80 -259v-87zM525 328v87q0 118 -43 170t-124 52q-80 0 -123 -52t-43 -170v-87q0 -119 43 -170.5t123 -51.5q81 0 124 51.5t43 170.5zM572 925q0 -133 -109 -133
q-52 0 -99 31l-53 35q-31 20 -50 20t-26 -12.5t-7 -40.5v-28h-84v28q0 135 113 135q48 0 92 -29l53 -35q35 -23 56 -23q18 0 24.5 12t6.5 40v29h83v-29z" />
    <glyph glyph-name="Odieresis" unicode="&#xd6;" horiz-adv-x="717" 
d="M664 328q0 -175 -79.5 -259t-226.5 -84q-146 0 -225.5 84t-79.5 259v87q0 175 79.5 259t225.5 84t226 -84t80 -259v-87zM525 328v87q0 118 -43 170t-124 52q-80 0 -123 -52t-43 -170v-87q0 -119 43 -170.5t123 -51.5q81 0 124 51.5t43 170.5zM535 803h-111v124h111v-124z
M294 803v124h-111v-124h111z" />
    <glyph glyph-name="multiply" unicode="&#xd7;" horiz-adv-x="690" 
d="M567 241l-71 -74l-149 144l-150 -146l-70 75l150 147l-150 146l70 75l150 -146l150 145l71 -75l-150 -146z" />
    <glyph glyph-name="Oslash" unicode="&#xd8;" horiz-adv-x="717" 
d="M664 328q0 -175 -79.5 -259t-226.5 -84q-117 0 -188 51l-33 -46h-106l78 108q-56 83 -56 230v87q0 175 79.5 259t225.5 84q113 0 188 -51l33 46h106l-78 -109q57 -85 57 -229v-87zM525 328v87q0 56 -11 100l-267 -371q39 -38 111 -38q81 0 124 51.5t43 170.5zM192 328
q0 -60 10 -100l266 371q-41 38 -110 38q-80 0 -123 -52t-43 -170v-87z" />
    <glyph glyph-name="Ugrave" unicode="&#xd9;" horiz-adv-x="782" 
d="M494 743h239v-106l-50 -5v-328q0 -159 -75 -239t-217 -80q-143 0 -217.5 80t-74.5 239v328l-51 5v106h240v-106l-51 -5v-321q0 -114 33.5 -160.5t120.5 -46.5t120.5 46.5t33.5 160.5v321l-51 5v106zM487 795h-127l-158 148h154z" />
    <glyph glyph-name="Uacute" unicode="&#xda;" horiz-adv-x="782" 
d="M494 743h239v-106l-50 -5v-328q0 -159 -75 -239t-217 -80q-143 0 -217.5 80t-74.5 239v328l-51 5v106h240v-106l-51 -5v-321q0 -114 33.5 -160.5t120.5 -46.5t120.5 46.5t33.5 160.5v321l-51 5v106zM590 943l-158 -148h-127l132 148h153z" />
    <glyph glyph-name="Ucircumflex" unicode="&#xdb;" horiz-adv-x="782" 
d="M494 743h239v-106l-50 -5v-328q0 -159 -75 -239t-217 -80q-143 0 -217.5 80t-74.5 239v328l-51 5v106h240v-106l-51 -5v-321q0 -114 33.5 -160.5t120.5 -46.5t120.5 46.5t33.5 160.5v321l-51 5v106zM607 795h-121l-96 91l-95 -91h-121l135 148h164z" />
    <glyph glyph-name="Udieresis" unicode="&#xdc;" horiz-adv-x="782" 
d="M494 743h239v-106l-50 -5v-328q0 -159 -75 -239t-217 -80q-143 0 -217.5 80t-74.5 239v328l-51 5v106h240v-106l-51 -5v-321q0 -114 33.5 -160.5t120.5 -46.5t120.5 46.5t33.5 160.5v321l-51 5v106zM567 803h-111v124h111v-124zM326 803v124h-111v-124h111z" />
    <glyph glyph-name="Yacute" unicode="&#xdd;" horiz-adv-x="674" 
d="M635 637l-48 -5l-182 -347v-175l51 -5v-105h-240v105l52 5v174l-183 348l-47 5v106h141l109 -215q26 -54 48 -111h2q17 48 49 111l109 215h139v-106zM532 943l-158 -148h-127l132 148h153z" />
    <glyph glyph-name="Thorn" unicode="&#xde;" horiz-adv-x="673" 
d="M643 408q0 -72 -24.5 -120t-71 -72.5t-99 -34t-123.5 -9.5q-59 0 -90 1v-173h-187v106l51 5v521l-51 5v106h187v-90q30 1 88 1q72 0 125 -9.5t99.5 -33.5t71 -72t24.5 -119v-12zM506 408v13q-1 69 -43 92t-141 23q-59 0 -87 -1v-244h88q98 0 140.5 24t42.5 93z" />
    <glyph glyph-name="germandbls" unicode="&#xdf;" horiz-adv-x="676" 
d="M624 224q0 -109 -59 -171t-176 -62q-35 0 -88 5v103h55q72 0 105 31t33 98v9q0 117 -147 117h-46v96h46q73 0 103.5 29.5t30.5 84.5v6q0 51 -27.5 78t-97.5 27q-74 0 -104 -37.5t-30 -133.5v-504h-182v106l50 5v393q0 141 61.5 212t204.5 71q132 0 192.5 -59.5
t60.5 -153.5v-6q0 -51 -23.5 -94.5t-69.5 -67.5q53 -23 80.5 -69t27.5 -103v-10z" />
    <glyph glyph-name="agrave" unicode="&#xe0;" horiz-adv-x="609" 
d="M565 0h-172v37q-74 -51 -177 -51q-166 0 -166 160v22q0 44 13 75t34.5 49.5t57 28.5t72.5 13.5t89 3.5h67v34q0 61 -21.5 79t-95.5 18q-36 0 -77 -3l-9 -50h-91v131q26 10 82.5 20t116.5 10q131 0 179.5 -46.5t48.5 -158.5v-262l49 -5v-105zM387 115v141h-71
q-78 0 -108 -16t-30 -68v-25q0 -66 79 -66q71 0 130 34zM397 626h-127l-158 148h154z" />
    <glyph glyph-name="aacute" unicode="&#xe1;" horiz-adv-x="609" 
d="M565 0h-172v37q-74 -51 -177 -51q-166 0 -166 160v22q0 44 13 75t34.5 49.5t57 28.5t72.5 13.5t89 3.5h67v34q0 61 -21.5 79t-95.5 18q-36 0 -77 -3l-9 -50h-91v131q26 10 82.5 20t116.5 10q131 0 179.5 -46.5t48.5 -158.5v-262l49 -5v-105zM387 115v141h-71
q-78 0 -108 -16t-30 -68v-25q0 -66 79 -66q71 0 130 34zM504 774l-158 -148h-127l132 148h153z" />
    <glyph glyph-name="acircumflex" unicode="&#xe2;" horiz-adv-x="609" 
d="M565 0h-172v37q-74 -51 -177 -51q-166 0 -166 160v22q0 44 13 75t34.5 49.5t57 28.5t72.5 13.5t89 3.5h67v34q0 61 -21.5 79t-95.5 18q-36 0 -77 -3l-9 -50h-91v131q26 10 82.5 20t116.5 10q131 0 179.5 -46.5t48.5 -158.5v-262l49 -5v-105zM387 115v141h-71
q-78 0 -108 -16t-30 -68v-25q0 -66 79 -66q71 0 130 34zM510 626h-121l-96 91l-95 -91h-121l135 148h164z" />
    <glyph glyph-name="atilde" unicode="&#xe3;" horiz-adv-x="609" 
d="M565 0h-172v37q-74 -51 -177 -51q-166 0 -166 160v22q0 44 13 75t34.5 49.5t57 28.5t72.5 13.5t89 3.5h67v34q0 61 -21.5 79t-95.5 18q-36 0 -77 -3l-9 -50h-91v131q26 10 82.5 20t116.5 10q131 0 179.5 -46.5t48.5 -158.5v-262l49 -5v-105zM387 115v141h-71
q-78 0 -108 -16t-30 -68v-25q0 -66 79 -66q71 0 130 34zM518 754q0 -133 -109 -133q-53 0 -99 31l-53 35q-31 20 -50 20t-26 -12.5t-7 -40.5v-28h-84v28q0 135 113 135q48 0 92 -29l53 -35q35 -23 56 -23q18 0 24.5 12t6.5 40v29h83v-29z" />
    <glyph glyph-name="adieresis" unicode="&#xe4;" horiz-adv-x="609" 
d="M565 0h-172v37q-74 -51 -177 -51q-166 0 -166 160v22q0 44 13 75t34.5 49.5t57 28.5t72.5 13.5t89 3.5h67v34q0 61 -21.5 79t-95.5 18q-36 0 -77 -3l-9 -50h-91v131q26 10 82.5 20t116.5 10q131 0 179.5 -46.5t48.5 -158.5v-262l49 -5v-105zM387 115v141h-71
q-78 0 -108 -16t-30 -68v-25q0 -66 79 -66q71 0 130 34zM468 644h-111v124h111v-124zM227 644v124h-111v-124h111z" />
    <glyph glyph-name="aring" unicode="&#xe5;" horiz-adv-x="609" 
d="M565 0h-172v37q-74 -51 -177 -51q-166 0 -166 160v22q0 44 13 75t34.5 49.5t57 28.5t72.5 13.5t89 3.5h67v34q0 61 -21.5 79t-95.5 18q-36 0 -77 -3l-9 -50h-91v131q26 10 82.5 20t116.5 10q131 0 179.5 -46.5t48.5 -158.5v-262l49 -5v-105zM387 115v141h-71
q-78 0 -108 -16t-30 -68v-25q0 -66 79 -66q71 0 130 34zM433 727q0 -57 -35.5 -87t-92.5 -30q-58 0 -94.5 30t-36.5 87q0 56 36.5 86.5t94.5 30.5q57 0 92.5 -30t35.5 -87zM360 727q0 51 -55 51q-56 0 -56 -51t56 -51q55 0 55 51z" />
    <glyph glyph-name="ae" unicode="&#xe6;" horiz-adv-x="938" 
d="M894 240h-377v-9q0 -36 4 -57.5t18 -42.5t45.5 -30.5t81.5 -9.5q102 0 204 14v-96q-97 -23 -213 -23q-152 0 -213 68q-97 -68 -226 -68q-165 0 -165 160v22q0 44 13 75t34 49.5t57 28.5t72.5 13.5t88.5 3.5h68v34q0 60 -23 78.5t-93 18.5q-54 0 -79 -3l-9 -50h-91v131
q26 10 82.5 20t116.5 10q130 0 180 -55q65 55 170 55q132 0 193 -76.5t61 -203.5v-57zM762 327v8q0 28 -4 49t-16 42.5t-37.5 33t-64.5 11.5q-38 0 -63.5 -11.5t-37.5 -32.5t-16.5 -42.5t-4.5 -49.5v-8h244zM388 115v141h-70q-78 0 -107.5 -16t-29.5 -68v-25q0 -66 78 -66
q72 0 129 34z" />
    <glyph glyph-name="ccedilla" unicode="&#xe7;" horiz-adv-x="516" 
d="M466 7q-71 -21 -174 -21q-237 0 -237 260v72q0 259 237 259q111 0 174 -21v-142h-89l-9 49q-17 2 -55 2q-65 0 -95.5 -30.5t-30.5 -116.5v-72q0 -86 30.5 -117t96.5 -31q57 0 152 8v-99zM376 -64l-134 -141h-126l111 141h149z" />
    <glyph glyph-name="egrave" unicode="&#xe8;" horiz-adv-x="610" 
d="M562 240h-376v-9q0 -36 4 -57t18.5 -41t45.5 -29t81 -9q103 0 203 13v-98q-89 -24 -209 -24q-150 0 -212.5 63t-62.5 206v47q0 137 64.5 206t189.5 69q254 0 254 -286v-51zM431 327v8q0 28 -4 49t-16 42.5t-38 33t-65 11.5q-38 0 -63.5 -11.5t-37 -32.5t-16 -42.5
t-4.5 -49.5v-8h244zM411 626h-127l-158 148h154z" />
    <glyph glyph-name="eacute" unicode="&#xe9;" horiz-adv-x="610" 
d="M562 240h-376v-9q0 -36 4 -57t18.5 -41t45.5 -29t81 -9q103 0 203 13v-98q-89 -24 -209 -24q-150 0 -212.5 63t-62.5 206v47q0 137 64.5 206t189.5 69q254 0 254 -286v-51zM431 327v8q0 28 -4 49t-16 42.5t-38 33t-65 11.5q-38 0 -63.5 -11.5t-37 -32.5t-16 -42.5
t-4.5 -49.5v-8h244zM502 774l-158 -148h-127l132 148h153z" />
    <glyph glyph-name="ecircumflex" unicode="&#xea;" horiz-adv-x="610" 
d="M562 240h-376v-9q0 -36 4 -57t18.5 -41t45.5 -29t81 -9q103 0 203 13v-98q-89 -24 -209 -24q-150 0 -212.5 63t-62.5 206v47q0 137 64.5 206t189.5 69q254 0 254 -286v-51zM431 327v8q0 28 -4 49t-16 42.5t-38 33t-65 11.5q-38 0 -63.5 -11.5t-37 -32.5t-16 -42.5
t-4.5 -49.5v-8h244zM529 626h-121l-96 91l-95 -91h-121l135 148h164z" />
    <glyph glyph-name="edieresis" unicode="&#xeb;" horiz-adv-x="610" 
d="M562 240h-376v-9q0 -36 4 -57t18.5 -41t45.5 -29t81 -9q103 0 203 13v-98q-89 -24 -209 -24q-150 0 -212.5 63t-62.5 206v47q0 137 64.5 206t189.5 69q254 0 254 -286v-51zM431 327v8q0 28 -4 49t-16 42.5t-38 33t-65 11.5q-38 0 -63.5 -11.5t-37 -32.5t-16 -42.5
t-4.5 -49.5v-8h244zM480 644h-111v124h111v-124zM239 644v124h-111v-124h111z" />
    <glyph glyph-name="igrave" unicode="&#xec;" horiz-adv-x="319" 
d="M241 626h-127l-158 148h154zM275 0h-231v105l49 5v343l-49 5v105h182v-453l49 -5v-105z" />
    <glyph glyph-name="iacute" unicode="&#xed;" horiz-adv-x="319" 
d="M338 774l-158 -148h-127l132 148h153zM275 0h-231v105l49 5v343l-49 5v105h182v-453l49 -5v-105z" />
    <glyph glyph-name="icircumflex" unicode="&#xee;" horiz-adv-x="319" 
d="M275 0h-231v105l49 5v343l-49 5v105h182v-453l49 -5v-105zM367 626h-121l-96 91l-95 -91h-121l135 148h164z" />
    <glyph glyph-name="idieresis" unicode="&#xef;" horiz-adv-x="319" 
d="M327 644h-111v124h111v-124zM86 644v124h-111v-124h111zM275 0h-231v105l49 5v343l-49 5v105h182v-453l49 -5v-105z" />
    <glyph glyph-name="eth" unicode="&#xf0;" horiz-adv-x="617" 
d="M562 257q0 -270 -254 -270t-254 258v55q0 260 253 260q52 0 96 -21q-37 84 -120 120l-125 -83l-40 47l90 62q-50 11 -104 11h-27v89q30 2 66 2q74 0 155 -27l77 54l41 -47l-50 -36q99 -53 147.5 -161t48.5 -254v-59zM430 245v61q0 76 -29 109t-93 33q-65 0 -94 -33.5
t-29 -112.5v-57q0 -79 29 -113t94 -34q64 0 93 34t29 113z" />
    <glyph glyph-name="ntilde" unicode="&#xf1;" horiz-adv-x="678" 
d="M633 0h-182v357q0 63 -16 86t-63 23q-55 0 -148 -38v-318l50 -5v-105h-231v105l49 5v343l-49 5v105h176v-45q103 59 185 59q58 0 95 -15.5t54.5 -47.5t23.5 -67.5t6 -89.5v-247l50 -5v-105zM544 756q0 -133 -109 -133q-53 0 -99 31l-53 35q-31 20 -50 20t-26 -12.5
t-7 -40.5v-28h-84v28q0 135 113 135q48 0 92 -29l53 -35q35 -23 56 -23q18 0 24.5 12t6.5 40v29h83v-29z" />
    <glyph glyph-name="ograve" unicode="&#xf2;" horiz-adv-x="617" 
d="M563 247q0 -261 -255 -261q-254 0 -254 261v69q0 261 254 261q255 0 255 -261v-69zM431 247v69q0 80 -29 114.5t-94 34.5q-64 0 -93 -34.5t-29 -114.5v-69q0 -80 29 -114.5t93 -34.5q65 0 94 34.5t29 114.5zM407 626h-127l-158 148h154z" />
    <glyph glyph-name="oacute" unicode="&#xf3;" horiz-adv-x="617" 
d="M563 247q0 -261 -255 -261q-254 0 -254 261v69q0 261 254 261q255 0 255 -261v-69zM431 247v69q0 80 -29 114.5t-94 34.5q-64 0 -93 -34.5t-29 -114.5v-69q0 -80 29 -114.5t93 -34.5q65 0 94 34.5t29 114.5zM491 774l-158 -148h-127l132 148h153z" />
    <glyph glyph-name="ocircumflex" unicode="&#xf4;" horiz-adv-x="617" 
d="M563 247q0 -261 -255 -261q-254 0 -254 261v69q0 261 254 261q255 0 255 -261v-69zM431 247v69q0 80 -29 114.5t-94 34.5q-64 0 -93 -34.5t-29 -114.5v-69q0 -80 29 -114.5t93 -34.5q65 0 94 34.5t29 114.5zM524 626h-121l-96 91l-95 -91h-121l135 148h164z" />
    <glyph glyph-name="otilde" unicode="&#xf5;" horiz-adv-x="617" 
d="M563 247q0 -261 -255 -261q-254 0 -254 261v69q0 261 254 261q255 0 255 -261v-69zM431 247v69q0 80 -29 114.5t-94 34.5q-64 0 -93 -34.5t-29 -114.5v-69q0 -80 29 -114.5t93 -34.5q65 0 94 34.5t29 114.5zM523 755q0 -133 -109 -133q-52 0 -99 31l-53 35q-31 20 -50 20
t-26 -12.5t-7 -40.5v-28h-84v28q0 135 113 135q48 0 92 -29l53 -35q35 -23 56 -23q18 0 24.5 12t6.5 40v29h83v-29z" />
    <glyph glyph-name="odieresis" unicode="&#xf6;" horiz-adv-x="617" 
d="M563 247q0 -261 -255 -261q-254 0 -254 261v69q0 261 254 261q255 0 255 -261v-69zM431 247v69q0 80 -29 114.5t-94 34.5q-64 0 -93 -34.5t-29 -114.5v-69q0 -80 29 -114.5t93 -34.5q65 0 94 34.5t29 114.5zM486 644h-111v124h111v-124zM245 644v124h-111v-124h111z" />
    <glyph glyph-name="divide" unicode="&#xf7;" horiz-adv-x="690" 
d="M410 91h-131v146h131v-146zM590 333v110h-492v-110h492zM410 537h-131v145h131v-145z" />
    <glyph glyph-name="oslash" unicode="&#xf8;" horiz-adv-x="617" 
d="M601 589l-80 -105q42 -63 42 -168v-69q0 -261 -255 -261q-85 0 -142 30l-32 -42h-113l77 101q-44 64 -44 172v69q0 261 254 261q87 0 146 -32l34 44h113zM186 247q0 -29 3 -51l192 252q-27 17 -73 17q-64 0 -93 -34.5t-29 -114.5v-69zM431 247v69q0 26 -3 45l-189 -249
q25 -14 69 -14q65 0 94 34.5t29 114.5z" />
    <glyph glyph-name="ugrave" unicode="&#xf9;" horiz-adv-x="678" 
d="M634 0h-177v45q-108 -59 -195 -59q-42 0 -73.5 12t-49.5 31t-28.5 49t-14 59.5t-3.5 67.5v248l-49 5v105h181v-358q0 -62 16.5 -85t64.5 -23q53 0 146 38v318l-49 5v105h181v-453l50 -5v-105zM423 626h-127l-158 148h154z" />
    <glyph glyph-name="uacute" unicode="&#xfa;" horiz-adv-x="678" 
d="M634 0h-177v45q-108 -59 -195 -59q-42 0 -73.5 12t-49.5 31t-28.5 49t-14 59.5t-3.5 67.5v248l-49 5v105h181v-358q0 -62 16.5 -85t64.5 -23q53 0 146 38v318l-49 5v105h181v-453l50 -5v-105zM528 774l-158 -148h-127l132 148h153z" />
    <glyph glyph-name="ucircumflex" unicode="&#xfb;" horiz-adv-x="678" 
d="M634 0h-177v45q-108 -59 -195 -59q-42 0 -73.5 12t-49.5 31t-28.5 49t-14 59.5t-3.5 67.5v248l-49 5v105h181v-358q0 -62 16.5 -85t64.5 -23q53 0 146 38v318l-49 5v105h181v-453l50 -5v-105zM551 626h-121l-96 91l-95 -91h-121l135 148h164z" />
    <glyph glyph-name="udieresis" unicode="&#xfc;" horiz-adv-x="678" 
d="M634 0h-177v45q-108 -59 -195 -59q-42 0 -73.5 12t-49.5 31t-28.5 49t-14 59.5t-3.5 67.5v248l-49 5v105h181v-358q0 -62 16.5 -85t64.5 -23q53 0 146 38v318l-49 5v105h181v-453l50 -5v-105zM509 644h-111v124h111v-124zM268 644v124h-111v-124h111z" />
    <glyph glyph-name="yacute" unicode="&#xfd;" horiz-adv-x="671" 
d="M631 458l-58 -5l-163 -473q-38 -109 -80.5 -153.5t-132.5 -44.5q-78 0 -132 13v94q46 -2 103 -2q42 0 59 18t35 74l8 25l-172 449l-59 5v105h168l92 -287q29 -92 41 -150h2q7 49 36 147l84 290h169v-105zM536 774l-158 -148h-127l132 148h153z" />
    <glyph glyph-name="thorn" unicode="&#xfe;" horiz-adv-x="639" 
d="M586 248q0 -262 -248 -262q-49 0 -112 12v-93l50 -5v-105h-232v105l50 5v762l-50 5v105h173v-250q77 50 162 50q207 0 207 -255v-74zM454 248v74q0 77 -25.5 110t-82.5 33q-53 0 -121 -31v-327q68 -11 104 -11q64 0 94.5 32.5t30.5 119.5z" />
    <glyph glyph-name="ydieresis" unicode="&#xff;" horiz-adv-x="671" 
d="M631 458l-58 -5l-163 -473q-38 -109 -80.5 -153.5t-132.5 -44.5q-78 0 -132 13v94q46 -2 103 -2q42 0 59 18t35 74l8 25l-172 449l-59 5v105h168l92 -287q29 -92 41 -150h2q7 49 36 147l84 290h169v-105zM518 644h-111v124h111v-124zM277 644v124h-111v-124h111z" />
    <glyph glyph-name="dotlessi" unicode="&#x131;" horiz-adv-x="319" 
d="M275 0h-231v105l49 5v343l-49 5v105h182v-453l49 -5v-105z" />
    <glyph glyph-name="Lslash" unicode="&#x141;" horiz-adv-x="596" 
d="M554 0h-505v106l50 5v162l-75 -61v108l75 61v252l-50 5v105h240v-105l-50 -5v-148l100 86v-108l-100 -86v-258h213l10 64h92v-183z" />
    <glyph glyph-name="lslash" unicode="&#x142;" horiz-adv-x="319" 
d="M266 0h-221v95l50 5v192l-61 -57v112l61 56v272l-50 4v96h171v-256l59 56v-111l-59 -56v-308l50 -5v-95z" />
    <glyph glyph-name="OE" unicode="&#x152;" horiz-adv-x="1020" 
d="M948 0h-432q-97 -15 -151 -15q-305 0 -305 341v90q0 342 304 342q69 0 152 -15h432v-171h-93l-10 56h-231v-189h312v-112h-312v-212h231l10 58h93v-173zM477 113v515q-69 9 -107 9q-84 0 -128 -51t-44 -170v-90q0 -119 44 -170t128 -51q50 0 107 8z" />
    <glyph glyph-name="oe" unicode="&#x153;" horiz-adv-x="990" 
d="M937 240h-376v-9q0 -36 4 -57.5t18 -42.5t45.5 -30.5t81.5 -9.5q102 0 204 14v-96q-97 -23 -214 -23q-146 0 -206 67q-62 -67 -187 -67q-254 0 -254 261v69q0 261 254 261q128 0 189 -69q61 69 188 69q132 0 192.5 -76.5t60.5 -203.5v-57zM806 327v8q0 28 -4 49t-16 42.5
t-37.5 33t-64.5 11.5q-122 0 -122 -124v-20h244zM430 247v69q0 80 -29.5 115t-93.5 35t-93.5 -35t-29.5 -115v-69q0 -80 29 -115t94 -35q64 0 93.5 35t29.5 115z" />
    <glyph glyph-name="Scaron" unicode="&#x160;" horiz-adv-x="619" 
d="M567 201q0 -108 -67 -162t-195 -54q-151 0 -235 22v165h92l10 -69q86 -4 133 -4q123 0 123 95q0 36 -20.5 58.5t-74.5 47.5l-117 52q-84 38 -124 83.5t-40 126.5q0 101 66.5 148.5t200.5 47.5q127 0 223 -24v-158h-92l-12 66q-54 3 -111 3q-70 0 -104 -17.5t-34 -61.5
q0 -34 20.5 -55.5t74.5 -44.5l116 -51q88 -39 127.5 -86t39.5 -128zM522 943l-134 -148h-164l-135 148h121l95 -90l96 90h121z" />
    <glyph glyph-name="scaron" unicode="&#x161;" horiz-adv-x="525" 
d="M477 153q0 -167 -228 -167q-53 0 -111 7.5t-81 14.5v139h92l9 -56q44 -3 91 -3q54 0 75.5 14t21.5 45q0 28 -18 43t-81 42l-41 17q-84 35 -121 73.5t-37 102.5q0 82 55.5 117t171.5 35q48 0 104 -7t79 -15v-129h-91l-10 47q-39 3 -81 3q-54 0 -76 -10t-22 -38
q0 -26 17 -41t69 -37l45 -19q97 -41 132.5 -77t35.5 -101zM479 774l-134 -148h-164l-135 148h121l95 -90l96 90h121z" />
    <glyph glyph-name="Ydieresis" unicode="&#x178;" horiz-adv-x="674" 
d="M635 637l-48 -5l-182 -347v-175l51 -5v-105h-240v105l52 5v174l-183 348l-47 5v106h141l109 -215q26 -54 48 -111h2q17 48 49 111l109 215h139v-106zM513 808h-111v124h111v-124zM272 808v124h-111v-124h111z" />
    <glyph glyph-name="Zcaron" unicode="&#x17d;" horiz-adv-x="640" 
d="M588 0h-536v127l366 499h-254l-10 -59h-89v176h511v-127l-365 -499h276l11 64h90v-181zM552 943l-134 -148h-164l-135 148h121l95 -90l96 90h121z" />
    <glyph glyph-name="zcaron" unicode="&#x17e;" horiz-adv-x="531" 
d="M483 0h-435v118l288 339h-183l-9 -43h-85v149h423v-116l-289 -342h196l10 53h84v-158zM491 774l-134 -148h-164l-135 148h121l95 -90l96 90h121z" />
    <glyph glyph-name="longs" unicode="&#x17f;" horiz-adv-x="400" 
d="M272 0h-232v105l50 5v505q0 89 33.5 132.5t124.5 43.5q62 0 120 -14v-85q-40 3 -87 3q-39 0 -49 -16.5t-10 -63.5v-505l50 -5v-105z" />
    <glyph glyph-name="florin" unicode="&#x192;" horiz-adv-x="654" 
d="M598 744l-10 -86q-50 3 -73 3q-39 0 -56.5 -14t-24.5 -60l-21 -143h161l-14 -104h-162l-45 -327q-13 -92 -58 -128.5t-120 -36.5q-58 0 -118 14l10 86q41 -4 77 -4t53.5 14t24.5 61l45 321h-145l14 104h145l21 148q13 93 58.5 129.5t124.5 36.5q53 0 113 -14z" />
    <glyph glyph-name="circumflex" unicode="&#x2c6;" horiz-adv-x="505" 
d="M469 626h-121l-96 91l-95 -91h-121l135 148h164z" />
    <glyph glyph-name="caron" unicode="&#x2c7;" horiz-adv-x="505" 
d="M469 774l-134 -148h-164l-135 148h121l95 -90l96 90h121z" />
    <glyph glyph-name="uni02C9" unicode="&#x2c9;" horiz-adv-x="484" 
d="M430 654h-376v89h376v-89z" />
    <glyph glyph-name="breve" unicode="&#x2d8;" horiz-adv-x="490" 
d="M433 781q-7 -77 -55.5 -117t-132.5 -40t-133 40t-56 117h85q6 -46 31.5 -64.5t72.5 -18.5t72.5 18.5t31.5 64.5h84z" />
    <glyph glyph-name="dotaccent" unicode="&#x2d9;" horiz-adv-x="446" 
d="M290 651h-134v125h134v-125z" />
    <glyph glyph-name="ring" unicode="&#x2da;" horiz-adv-x="456" 
d="M357 730q0 -57 -35.5 -87t-92.5 -30q-58 0 -94.5 30t-36.5 87q0 56 36.5 86.5t94.5 30.5q57 0 92.5 -30t35.5 -87zM284 730q0 51 -55 51q-56 0 -56 -51t56 -51q55 0 55 51z" />
    <glyph glyph-name="ogonek" unicode="&#x2db;" horiz-adv-x="462" 
d="M366 -203q-48 -14 -110 -14q-67 0 -103 25.5t-36 73.5q0 40 30.5 72t104.5 61h118q-84 -39 -112.5 -65t-28.5 -48q0 -39 57 -39q12 0 80 5v-71z" />
    <glyph glyph-name="tilde" unicode="&#x2dc;" horiz-adv-x="491" 
d="M462 755q0 -133 -109 -133q-53 0 -99 31l-53 35q-31 20 -50 20t-26 -12.5t-7 -40.5v-28h-84v28q0 135 113 135q48 0 92 -29l53 -35q35 -23 56 -23q18 0 24.5 12t6.5 40v29h83v-29z" />
    <glyph glyph-name="hungarumlaut" unicode="&#x2dd;" horiz-adv-x="543" 
d="M560 772l-158 -148h-120l131 148h147zM316 772h-147l-132 -148h121z" />
    <glyph glyph-name="uni037E" unicode="&#x37e;" horiz-adv-x="264" 
d="M198 255h-128v154h128v-154z" />
    <glyph glyph-name="dieresisacute" unicode="&#x385;" horiz-adv-x="546" 
d="M1 715h106v124h-106v-124zM149 694l103 163h148l-129 -163h-122zM438 715h106v124h-106v-124z" />
    <glyph glyph-name="middot" unicode="&#x387;" horiz-adv-x="296" 
d="M212 291h-128v155h128v-155z" />
    <glyph glyph-name="uni03A9" unicode="&#x3a9;" horiz-adv-x="718" 
d="M666 399q0 -201 -163 -262v-38h154v-99h-262v193q134 32 134 198v64q0 182 -170 182t-170 -182v-64q0 -166 134 -198v-193h-262v99h154v38q-163 61 -163 262v64q0 146 80.5 220.5t226.5 74.5q145 0 226 -74.5t81 -220.5v-64z" />
    <glyph glyph-name="uni03BC" unicode="&#x3bc;" horiz-adv-x="682" 
d="M276 -205h-230v105l49 5v548l-49 5v105h181v-358q0 -62 16.5 -85t64.5 -23q53 0 146 38v318l-49 5v105h181v-453l50 -5v-105h-177v45q-95 -53 -173 -53q-32 0 -59 8v-95l49 -5v-105z" />
    <glyph glyph-name="pi" unicode="&#x3c0;" horiz-adv-x="686" 
d="M639 -7q-35 -7 -79 -7q-77 0 -108 36t-31 119v298h-160v-439h-133v439h-87v124h599v-124h-87v-299q0 -31 7.5 -41.5t32.5 -10.5h46v-95z" />
    <glyph glyph-name="dieresisgrave" unicode="&#x1fed;" horiz-adv-x="546" 
d="M544 715h-106v124h106v-124zM293 857l103 -163h-122l-129 163h148zM107 715h-106v124h106v-124z" />
    <glyph glyph-name="figuredash" unicode="&#x2012;" horiz-adv-x="724" 
d="M656 237h-588v98h588v-98z" />
    <glyph glyph-name="endash" unicode="&#x2013;" horiz-adv-x="494" 
d="M426 242h-358v104h358v-104z" />
    <glyph glyph-name="emdash" unicode="&#x2014;" horiz-adv-x="651" 
d="M583 242h-515v104h515v-104z" />
    <glyph glyph-name="threequartersemdash" unicode="&#x2015;" horiz-adv-x="839" 
d="M771 237h-703v98h703v-98z" />
    <glyph glyph-name="quoteleft" unicode="&#x2018;" horiz-adv-x="220" 
d="M200 777l-54 -245h-126l85 245h95z" />
    <glyph glyph-name="quoteright" unicode="&#x2019;" horiz-adv-x="220" 
d="M200 777l-84 -245h-96l55 245h125z" />
    <glyph glyph-name="quotesinglbase" unicode="&#x201a;" horiz-adv-x="220" 
d="M200 148l-84 -245h-96l55 245h125z" />
    <glyph glyph-name="quotedblleft" unicode="&#x201c;" horiz-adv-x="430" 
d="M410 777l-54 -245h-126l85 245h95zM200 777l-54 -245h-126l85 245h95z" />
    <glyph glyph-name="quotedblright" unicode="&#x201d;" horiz-adv-x="430" 
d="M410 777l-85 -245h-95l54 245h126zM200 777l-84 -245h-96l55 245h125z" />
    <glyph glyph-name="quotedblbase" unicode="&#x201e;" horiz-adv-x="430" 
d="M410 148l-85 -245h-95l54 245h126zM200 148h-125l-55 -245h96z" />
    <glyph glyph-name="dagger" unicode="&#x2020;" horiz-adv-x="528" 
d="M458 463h-133v-593h-131v593h-124v112h124v202h131v-202h133v-112z" />
    <glyph glyph-name="daggerdbl" unicode="&#x2021;" horiz-adv-x="528" 
d="M458 235h-133v-365h-131v365h-124v111h124v122h-124v112h124v194h131v-194h133v-112h-133v-122h133v-111z" />
    <glyph glyph-name="bullet" unicode="&#x2022;" horiz-adv-x="527" 
d="M448 368q0 -76 -54 -129t-131 -53q-76 0 -130 53t-54 129t54 129.5t130 53.5q77 0 131 -53.5t54 -129.5z" />
    <glyph glyph-name="onedotenleader" unicode="&#x2024;" horiz-adv-x="275" 
d="M204 0h-133v154h133v-154z" />
    <glyph glyph-name="twodotenleader" unicode="&#x2025;" horiz-adv-x="522" 
d="M451 0h-133v154h133v-154zM204 0v154h-133v-154h133z" />
    <glyph glyph-name="ellipsis" unicode="&#x2026;" horiz-adv-x="886" 
d="M811 0h-133v154h133v-154zM510 0v154h-133v-154h133zM208 0h-133v154h133v-154z" />
    <glyph glyph-name="perthousand" unicode="&#x2030;" horiz-adv-x="1542" 
d="M1487 198q0 -103 -47.5 -156t-138.5 -53q-92 0 -139.5 53t-47.5 156v44q0 209 187 209q186 0 186 -209v-44zM1382 198v45q0 70 -21 96.5t-61 26.5q-39 0 -60 -26.5t-21 -96.5v-45q0 -70 21 -97t60 -27q40 0 61 27t21 97zM1056 198q0 -209 -186 -209q-92 0 -139.5 53
t-47.5 156v44q0 209 187 209q186 0 186 -209v-44zM951 198v45q0 70 -21 96.5t-60 26.5t-60 -26.5t-21 -96.5v-45q0 -70 21 -97t60 -27t60 27t21 97zM855 745l-485 -745h-118l485 745h118zM426 504q0 -209 -185 -209q-186 0 -186 209v44q0 209 186 209q185 0 185 -209v-44z
M322 504v44q0 71 -19 98t-62 27t-62 -28.5t-19 -96.5v-44q0 -71 19 -98t62 -27t62 27t19 98z" />
    <glyph glyph-name="guilsinglleft" unicode="&#x2039;" horiz-adv-x="308" 
d="M267 66h-118l-109 215l109 216h118l-105 -216z" />
    <glyph glyph-name="guilsinglright" unicode="&#x203a;" horiz-adv-x="308" 
d="M267 281l-109 -215h-118l106 215l-106 216h118z" />
    <glyph glyph-name="exclamdbl" unicode="&#x203c;" horiz-adv-x="541" 
d="M460 0h-135v154h135v-154zM320 777h145l-13 -565h-119zM216 154v-154h-135v154h135zM221 777l-12 -565h-120l-13 565h145z" />
    <glyph glyph-name="overscore" unicode="&#x203e;" horiz-adv-x="615" 
d="M610 818h-606v78h606v-78z" />
    <glyph glyph-name="fraction" unicode="&#x2044;" horiz-adv-x="489" 
d="M546 745l-485 -745h-119l486 745h118z" />
    <glyph glyph-name="zero.superior" unicode="&#x2070;" horiz-adv-x="472" 
d="M423 502q0 -212 -187 -212q-188 0 -188 212v43q0 212 188 212q187 0 187 -212v-43zM318 502v43q0 72 -19 99.5t-63 27.5t-63 -28t-19 -99v-43q0 -73 19 -100t63 -27t63 27.5t19 99.5z" />
    <glyph glyph-name="i.superior" unicode="&#x2071;" horiz-adv-x="254" 
d="M207 310h-160v74l30 3v190l-30 3v74h130v-267l30 -3v-74zM179 702h-104v80h104v-80z" />
    <glyph glyph-name="four.superior" unicode="&#x2074;" horiz-adv-x="471" 
d="M428 403h-65v-47l31 -3v-53h-167v53l31 3v47h-219v76l232 267h92v-268h65v-75zM263 478v153l-136 -153h136z" />
    <glyph glyph-name="five.superior" unicode="&#x2075;" horiz-adv-x="455" 
d="M395 432q0 -143 -185 -143q-90 0 -152 17v105h64l6 -42q32 -3 63 -3q55 0 76.5 14.5t21.5 50.5v11q0 34 -19.5 46t-76.5 12h-130l22 246h294v-112h-64l-5 33h-140l-9 -92h51q100 0 141.5 -30t41.5 -102v-11z" />
    <glyph glyph-name="six.superior" unicode="&#x2076;" horiz-adv-x="464" 
d="M413 439q0 -79 -52 -114t-128 -35q-94 0 -139.5 44t-45.5 146v91q0 94 41 139.5t148 45.5q85 0 153 -17v-102h-65l-6 39q-31 3 -71 3q-61 0 -79 -21t-18 -71v-13q42 10 91 10q81 0 126 -26.5t45 -101.5v-17zM309 439v15q0 38 -18.5 50.5t-58.5 12.5q-42 0 -81 -8v-46
q0 -57 20.5 -78t62.5 -21q33 0 54 18.5t21 56.5z" />
    <glyph glyph-name="seven.superior" unicode="&#x2077;" horiz-adv-x="461" 
d="M400 658l-206 -359h-113l215 368h-163l-5 -34h-64v113h336v-88z" />
    <glyph glyph-name="eight.superior" unicode="&#x2078;" horiz-adv-x="471" 
d="M422 428q0 -37 -10.5 -63t-26.5 -40.5t-42.5 -22.5t-50 -10t-57.5 -2h-3q-34 0 -57.5 2t-50 10t-42.5 22.5t-26.5 40.5t-10.5 63v5q0 65 50 97q-49 32 -49 95v6q0 38 14.5 64t42 38.5t58 17.5t71.5 5h3q41 0 71 -5t57.5 -17.5t42 -38.5t14.5 -64v-6q0 -63 -49 -95
q51 -32 51 -97v-5zM319 430v4q0 34 -11.5 48t-41.5 14h-65q-30 0 -41.5 -14t-11.5 -48v-4q0 -41 20.5 -54.5t63.5 -13.5h3q43 0 63.5 13.5t20.5 54.5zM317 622v5q0 33 -21 44.5t-61 11.5h-3q-41 0 -62 -11.5t-21 -44.5v-5q0 -29 11 -43t41 -14h65q28 0 39.5 14.5t11.5 42.5z
" />
    <glyph glyph-name="nine.superior" unicode="&#x2079;" horiz-adv-x="464" 
d="M413 475q0 -93 -41.5 -139t-148.5 -46q-89 0 -153 16v103h65l5 -39q44 -2 74 -2q60 0 77.5 20.5t17.5 69.5v15q-39 -11 -91 -11q-81 0 -125.5 27t-44.5 102v16q0 79 51.5 114t127.5 35q94 0 140 -44t46 -146v-91zM309 537v47q0 57 -20 77.5t-62 20.5q-76 0 -76 -74v-16
q0 -37 18.5 -50t58.5 -13q42 0 81 8z" />
    <glyph glyph-name="parenleft.superior" unicode="&#x207d;" horiz-adv-x="289" 
d="M243 226h-95q-86 111 -86 262v5q0 149 86 264h95q-80 -117 -80 -264v-5q0 -148 80 -262z" />
    <glyph glyph-name="parenright.superior" unicode="&#x207e;" horiz-adv-x="289" 
d="M228 488q0 -152 -85 -262h-95q80 114 80 262v5q0 147 -80 264h95q85 -114 85 -264v-5z" />
    <glyph glyph-name="n.superior" unicode="&#x207f;" horiz-adv-x="488" 
d="M441 310h-130v213q0 35 -9.5 48.5t-38.5 13.5q-31 0 -85 -21v-177l29 -3v-74h-160v74l30 3v191l-30 3v73h127v-26q62 35 118 35q39 0 63.5 -10.5t36 -31.5t15.5 -43t4 -54v-137l30 -3v-74z" />
    <glyph glyph-name="zero.inferior" unicode="&#x2080;" horiz-adv-x="473" 
d="M422 201q0 -104 -47.5 -158t-140.5 -54t-141 54t-48 158v44q0 211 189 211q93 0 140.5 -53.5t47.5 -157.5v-44zM316 200v45q0 72 -21.5 99t-61.5 27q-39 0 -60.5 -27t-21.5 -99v-45q0 -71 21.5 -98.5t60.5 -27.5q40 0 61.5 27.5t21.5 98.5z" />
    <glyph glyph-name="one.inferior" unicode="&#x2081;" horiz-adv-x="420" 
d="M360 0h-291v75l93 4v269l-93 -28v85l122 43h76v-369l93 -4v-75z" />
    <glyph glyph-name="two.inferior" unicode="&#x2082;" horiz-adv-x="459" 
d="M390 0h-332v56q0 79 31.5 121t112.5 81q60 29 74.5 42t14.5 36t-19.5 32.5t-69.5 9.5q-43 0 -67 -2l-5 -40h-65v102q58 18 152 18q93 0 136.5 -28t43.5 -89q0 -47 -28.5 -79t-100.5 -66q-70 -32 -88 -50.5t-18 -57.5v-5h157l5 37h66v-118z" />
    <glyph glyph-name="three.inferior" unicode="&#x2083;" horiz-adv-x="458" 
d="M393 124q0 -71 -44 -103t-137 -32q-90 0 -152 20v103h65l5 -42q66 -3 72 -3q47 0 67 12.5t20 49.5v9q0 27 -14 40t-58 13h-131v73h132q43 0 57 14t14 42v5q0 30 -18.5 41.5t-69.5 11.5q-27 0 -69 -2l-6 -40h-65v101q18 6 63.5 12.5t87.5 6.5q91 0 136 -28t45 -95v-7
q0 -69 -55 -98q55 -25 55 -94v-10z" />
    <glyph glyph-name="four.inferior" unicode="&#x2084;" horiz-adv-x="471" 
d="M428 102h-65v-47l31 -3v-52h-167v52l31 3v47h-219v77l232 267h92v-269h65v-75zM263 177v153l-136 -153h136z" />
    <glyph glyph-name="five.inferior" unicode="&#x2085;" horiz-adv-x="455" 
d="M395 133q0 -144 -185 -144q-86 0 -152 18v104h64l6 -42q21 -2 63 -2q55 0 76.5 14t21.5 51v11q0 33 -20 45.5t-76 12.5h-130l22 245h294v-111h-64l-5 33h-140l-9 -92h51q100 0 141.5 -30.5t41.5 -102.5v-10z" />
    <glyph glyph-name="six.inferior" unicode="&#x2086;" horiz-adv-x="464" 
d="M413 138q0 -79 -52 -114t-128 -35q-94 0 -139.5 44t-45.5 146v91q0 94 41 140t148 46q85 0 153 -17v-102h-65l-6 39q-42 2 -71 2q-61 0 -79 -21t-18 -70v-13q42 10 91 10q39 0 67 -5t53 -18t38 -39.5t13 -66.5v-17zM309 138v15q0 39 -18 51t-59 12q-48 0 -81 -8v-46
q0 -57 20.5 -78t62.5 -21q33 0 54 18.5t21 56.5z" />
    <glyph glyph-name="seven.inferior" unicode="&#x2087;" horiz-adv-x="461" 
d="M400 359l-206 -359h-113l215 368h-163l-5 -35h-64v113h336v-87z" />
    <glyph glyph-name="eight.inferior" unicode="&#x2088;" horiz-adv-x="471" 
d="M422 127q0 -45 -14.5 -74t-43.5 -42t-57.5 -17.5t-71.5 -4.5h-3q-43 0 -71.5 4.5t-57.5 17.5t-43.5 42t-14.5 74v5q0 65 50 98q-49 32 -49 95v6q0 50 27.5 79t65 37.5t93.5 8.5h3q86 0 135.5 -26.5t49.5 -98.5v-6q0 -63 -49 -95q51 -33 51 -98v-5zM319 129v4
q0 34 -12 48.5t-41 14.5h-65q-30 0 -41.5 -14.5t-11.5 -48.5v-4q0 -41 20.5 -54.5t63.5 -13.5h3q43 0 63.5 13.5t20.5 54.5zM317 322v5q0 32 -21 44t-61 12h-3q-41 0 -62 -12t-21 -44v-5q0 -29 11 -43t41 -14h65q29 0 40 14t11 43z" />
    <glyph glyph-name="nine.inferior" unicode="&#x2089;" horiz-adv-x="464" 
d="M413 175q0 -93 -41.5 -139t-148.5 -46q-89 0 -153 16v103h65l5 -40q44 -2 74 -2q60 0 77.5 21t17.5 70v14q-42 -10 -91 -10q-81 0 -125.5 26.5t-44.5 101.5v17q0 79 51.5 114t127.5 35q94 0 140 -44t46 -146v-91zM309 237v46q0 57 -20 78t-62 21q-34 0 -55 -18.5
t-21 -56.5v-15q0 -38 18.5 -50.5t58.5 -12.5q42 0 81 8z" />
    <glyph glyph-name="parenleft.inferior" unicode="&#x208d;" horiz-adv-x="289" 
d="M243 -79h-95q-86 113 -86 262v5q0 149 86 264h95q-80 -116 -80 -264v-5q0 -146 80 -262z" />
    <glyph glyph-name="parenright.inferior" unicode="&#x208e;" horiz-adv-x="289" 
d="M228 183q0 -150 -85 -262h-95q80 116 80 262v5q0 148 -80 264h95q85 -114 85 -264v-5z" />
    <glyph glyph-name="colonmonetary" unicode="&#x20a1;" horiz-adv-x="512" 
d="M470 7q-19 -6 -60 -12v-109h-84v100h-26q-18 0 -42 2v-102h-84v126q-114 56 -114 234v72q2 176 114 233v129h84v-105q24 2 42 2q16 0 26 -1v104h84v-112q40 -5 60 -12v-142h-88l-9 49q-16 2 -54 2q-66 0 -97 -30.5t-31 -116.5v-72q0 -85 31.5 -116.5t96.5 -31.5
q63 0 151 7v-98z" />
    <glyph glyph-name="franc" unicode="&#x20a3;" horiz-adv-x="619" 
d="M549 325h-317v-90h184v-93h-184v-142h-140v142h-50v93h50v398l-50 5v105h524v-172h-93l-10 56h-231v-189h317v-113z" />
    <glyph glyph-name="lira" unicode="&#x20a4;" horiz-adv-x="664" 
d="M591 0h-493v95q46 46 46 115v31h-77v77h77v72h-77v77h77v33q0 138 53 198.5t190 60.5q114 0 204 -22v-163h-90l-10 65q-32 3 -86 3q-81 0 -102.5 -27.5t-21.5 -114.5v-33h228v-77h-228v-72h228v-77h-228v-31q0 -58 -31 -98h341v-112z" />
    <glyph glyph-name="peseta" unicode="&#x20a7;" horiz-adv-x="733" 
d="M701 461h-57q-6 -47 -25.5 -82t-47.5 -56.5t-68 -34t-81 -17t-93 -4.5q-15 0 -44.5 0.5t-45.5 0.5v-157l51 -5v-106h-238v106l51 5v350h-63v101h63v87l-51 5v89q109 5 268 5q54 0 95.5 -4t82.5 -16t69.5 -32.5t48.5 -54t27 -79.5h58v-101zM510 504v11q-1 70 -43 93
t-141 23q-59 0 -87 -1v-244h88q98 0 140.5 24t42.5 94z" />
    <glyph glyph-name="Euro" unicode="&#x20ac;" horiz-adv-x="681" 
d="M616 4q-68 -19 -181 -19q-48 0 -86.5 6.5t-77.5 24.5t-66.5 47t-48.5 77.5t-29 113.5h-69v71h63q-3 40 -1 92h-62v71h68q8 66 28 114.5t47 78t65 47t76.5 24t86.5 6.5q113 0 187 -19v-160h-91l-10 56q-44 2 -71 2q-77 0 -119 -28.5t-56 -120.5h313l-19 -71h-301
q-3 -38 1 -92h272l-19 -71h-245q8 -49 23.5 -80t41 -45.5t50.5 -19t63 -4.5q59 0 167 10v-111z" />
    <glyph glyph-name="afii61289" unicode="&#x2113;" horiz-adv-x="518" 
d="M470 43q-81 -61 -164 -61q-81 0 -120 41.5t-39 130.5v71l-56 -48l-37 53l94 85v287q0 96 39 141.5t125 45.5q148 0 148 -134q0 -81 -46 -156t-134 -158v-178q0 -51 14 -69t49 -18q37 0 82 33zM387 654q0 62 -52 62q-35 0 -45 -25.5t-10 -88.5v-169q107 115 107 221z" />
    <glyph glyph-name="afii61352" unicode="&#x2116;" horiz-adv-x="1252" 
d="M1204 124h-433v86h433v-86zM1204 499q0 -242 -217 -242q-216 0 -216 242v16q0 243 216 243q217 0 217 -242v-17zM1087 499v16q0 75 -22.5 109t-77.5 34q-54 0 -76.5 -34t-22.5 -109v-16q0 -75 22.5 -108.5t76.5 -33.5q55 0 77.5 33.5t22.5 108.5zM505 743h231v-106
l-51 -5v-632h-162l-243 446q-37 65 -57 110h-3q6 -66 6 -141v-304l51 -5v-106h-229v106l50 5v521l-50 5v106h211l243 -436q36 -67 57 -109h2q-5 78 -5 142v292l-51 5v106z" />
    <glyph glyph-name="trademark" unicode="&#x2122;" horiz-adv-x="935" 
d="M727 406l32 4v133q0 39 3 73h-1q-25 -47 -31 -56l-55 -81h-59l-53 81q-11 17 -32 56h-1q2 -46 2 -73v-133l32 -4v-65h-158v65l32 4v268l-32 3v66h133l81 -130q10 -16 25 -46h1q3 5 11 21t14 25l82 130h134v-66l-33 -3v-268l33 -4v-65h-160v65zM377 639h-56l-7 33h-55
v-262l32 -4v-65h-162v65l32 4v262h-55l-7 -33h-56v108h334v-108z" />
    <glyph glyph-name="Omega" unicode="&#x2126;" horiz-adv-x="718" 
d="M666 399q0 -201 -163 -262v-38h154v-99h-262v193q134 32 134 198v64q0 182 -170 182t-170 -182v-64q0 -166 134 -198v-193h-262v99h154v38q-163 61 -163 262v64q0 146 80.5 220.5t226.5 74.5q145 0 226 -74.5t81 -220.5v-64z" />
    <glyph glyph-name="estimated" unicode="&#x212e;" horiz-adv-x="656" 
d="M607 282h-436v-193q66 -63 154 -63q78 0 125.5 33t87.5 94l32 -19q-45 -69 -101 -105t-144 -36q-122 0 -198.5 84.5t-76.5 205.5q0 123 76 206.5t203 83.5q126 0 202 -84.5t76 -206.5zM485 315v163q-70 62 -156 62q-98 0 -158 -62v-163h314z" />
    <glyph glyph-name="onethird" unicode="&#x2153;" horiz-adv-x="1063" 
d="M1004 124q0 -72 -44.5 -103.5t-137.5 -31.5q-87 0 -152 20v103h66l5 -42q66 -3 72 -3q47 0 67 12.5t20 49.5v9q0 27 -14 40t-58 13h-132v73h132q43 0 57.5 14t14.5 42v5q0 30 -18.5 41.5t-69.5 11.5q-26 0 -70 -2l-5 -40h-65v101q18 6 63.5 12.5t86.5 6.5q92 0 137 -28
t45 -95v-7q0 -69 -56 -98q56 -25 56 -94v-10zM805 745l-485 -745h-118l485 745h118zM354 300h-290v75l92 4v270l-93 -29v85l123 44h76v-370l92 -4v-75z" />
    <glyph glyph-name="twothirds" unicode="&#x2154;" horiz-adv-x="1130" 
d="M1069 124q0 -71 -44 -103t-137 -32q-90 0 -152 20v103h65l6 -42q66 -3 71 -3q47 0 67 12.5t20 49.5v9q0 27 -14 40t-58 13h-131v73h132q43 0 57 14t14 42v5q0 30 -18.5 41.5t-69.5 11.5q-27 0 -69 -2l-6 -40h-65v101q18 6 63.5 12.5t87.5 6.5q91 0 136 -28t45 -95v-7
q0 -69 -55 -98q55 -25 55 -94v-10zM860 745l-485 -745h-119l485 745h119zM390 301h-331v56q0 80 31 121.5t112 80.5q60 29 75 42t15 37q0 23 -20 32.5t-69 9.5q-31 0 -67 -3l-5 -39h-65v101q52 18 152 18q93 0 136.5 -27.5t43.5 -88.5q0 -47 -28.5 -80t-100.5 -66
q-70 -32 -88 -50t-18 -58v-5h157l5 37h65v-118z" />
    <glyph glyph-name="oneeighth" unicode="&#x215b;" horiz-adv-x="1075" 
d="M1017 127q0 -45 -14.5 -74t-43.5 -42t-57.5 -17.5t-71.5 -4.5h-3q-34 0 -58 2t-50 10.5t-42.5 23t-27 40.5t-10.5 62v5q0 64 51 98q-49 32 -49 95v6q0 50 27.5 79t65 37.5t93.5 8.5h3q86 0 135.5 -26.5t49.5 -98.5v-6q0 -63 -49 -95q51 -33 51 -98v-5zM913 129v4
q0 34 -11.5 48.5t-41.5 14.5h-64q-31 0 -42 -14.5t-11 -48.5v-4q0 -41 20.5 -54.5t63.5 -13.5h3q42 0 62.5 13.5t20.5 54.5zM912 322v5q0 32 -21 44t-61 12h-3q-41 0 -62 -12t-21 -44v-5q0 -29 11 -43t41 -14h64q29 0 40.5 14t11.5 43zM805 745l-485 -745h-118l485 745h118z
M354 300h-290v75l92 4v270l-93 -29v85l123 44h76v-370l92 -4v-75z" />
    <glyph glyph-name="threeeighths" unicode="&#x215c;" horiz-adv-x="1110" 
d="M1049 127q0 -45 -14.5 -74t-43.5 -42t-57.5 -17.5t-71.5 -4.5h-3q-43 0 -71.5 4.5t-57.5 17.5t-43.5 42t-14.5 74v5q0 65 50 98q-49 32 -49 95v6q0 50 27.5 79t65 37.5t93.5 8.5h3q86 0 136 -26.5t50 -98.5v-6q0 -63 -50 -95q51 -33 51 -98v-5zM946 129v4
q0 34 -11.5 48.5t-41.5 14.5h-65q-30 0 -41.5 -14.5t-11.5 -48.5v-4q0 -41 20.5 -54.5t63.5 -13.5h3q43 0 63.5 13.5t20.5 54.5zM944 322v5q0 32 -21 44t-61 12h-3q-41 0 -62 -12t-21 -44v-5q0 -29 11.5 -43t40.5 -14h65q29 0 40 14t11 43zM832 745l-485 -745h-119l485 745
h119zM390 425q0 -71 -44.5 -102.5t-137.5 -31.5q-87 0 -152 20v102h66l5 -42q44 -2 72 -2q47 0 67 12.5t20 48.5v9q0 28 -14 41t-58 13h-132v73h132q43 0 57.5 14t14.5 41v6q0 30 -18.5 41t-69.5 11q-48 0 -70 -2l-5 -39h-65v101q17 6 62.5 12t87.5 6q92 0 137 -28t45 -95
v-6q0 -71 -56 -98q56 -25 56 -95v-10z" />
    <glyph glyph-name="fiveeighths" unicode="&#x215d;" horiz-adv-x="1112" 
d="M1053 127q0 -45 -14.5 -74t-43.5 -42t-57.5 -17.5t-71.5 -4.5h-4q-43 0 -71.5 4.5t-57.5 17.5t-43.5 42t-14.5 74v5q0 65 51 98q-49 32 -49 95v6q0 72 49.5 98.5t135.5 26.5h4q86 0 135.5 -26.5t49.5 -98.5v-6q0 -63 -49 -95q51 -33 51 -98v-5zM949 129v4
q0 34 -11.5 48.5t-41.5 14.5h-64q-31 0 -42 -14.5t-11 -48.5v-4q0 -41 20.5 -54.5t62.5 -13.5h4q42 0 62.5 13.5t20.5 54.5zM948 322v5q0 32 -21 44t-61 12h-4q-40 0 -61 -12t-21 -44v-5q0 -29 11 -43t41 -14h64q29 0 40.5 14t11.5 43zM834 745l-485 -745h-119l485 745h119z
M396 432q0 -143 -186 -143q-89 0 -151 17v105h64l6 -42q30 -3 62 -3q55 0 77 14.5t22 50.5v11q0 34 -20 46t-77 12h-129l22 246h294v-112h-64l-5 33h-140l-9 -92h51q100 0 141.5 -30t41.5 -102v-11z" />
    <glyph glyph-name="seveneighths" unicode="&#x215e;" horiz-adv-x="1022" 
d="M961 127q0 -45 -14.5 -74t-43.5 -42t-57.5 -17.5t-71.5 -4.5h-3q-43 0 -71.5 4.5t-57.5 17.5t-43.5 42t-14.5 74v5q0 65 50 98q-49 32 -49 95v6q0 50 27.5 79t65 37.5t93.5 8.5h3q86 0 136 -26.5t50 -98.5v-6q0 -63 -50 -95q51 -33 51 -98v-5zM858 129v4q0 34 -12 48.5
t-41 14.5h-65q-30 0 -41.5 -14.5t-11.5 -48.5v-4q0 -41 20.5 -54.5t63.5 -13.5h3q43 0 63.5 13.5t20.5 54.5zM856 322v5q0 32 -21 44t-61 12h-3q-41 0 -62 -12t-21 -44v-5q0 -29 11.5 -43t40.5 -14h65q29 0 40 14t11 43zM744 745l-485 -745h-119l485 745h119zM396 658
l-206 -359h-113l215 368h-163l-5 -34h-64v113h336v-88z" />
    <glyph glyph-name="partialdiff" unicode="&#x2202;" horiz-adv-x="649" 
d="M589 455q0 -468 -304 -468q-225 0 -225 223q0 61 15.5 113.5t47.5 95.5t88 68t130 25q71 0 122 -35q0 31 -3 55q-9 74 -51 117t-138 43q-70 0 -133 -14l3 92q71 17 145 17q152 0 227.5 -88t75.5 -244zM446 310q0 90 -106 90q-35 0 -62 -12t-43.5 -30.5t-27 -44t-14 -50.5
t-3.5 -53q0 -62 25 -87t82 -25q42 0 72.5 18t46.5 50t23 67t7 77z" />
    <glyph glyph-name="Delta" unicode="&#x2206;" horiz-adv-x="743" 
d="M703 0h-663l226 743h209zM529 112l-127 416q-21 68 -30 123h-2q-10 -65 -29 -123l-128 -416h316z" />
    <glyph glyph-name="product" unicode="&#x220f;" horiz-adv-x="760" 
d="M718 619h-86v-688h-135v687h-235v-687h-135v688h-86v124h677v-124z" />
    <glyph glyph-name="summation" unicode="&#x2211;" horiz-adv-x="620" 
d="M548 -69h-474v117l214 285l-214 293v117h474v-117h-317l191 -263v-63l-191 -252h317v-117z" />
    <glyph glyph-name="minus" unicode="&#x2212;" horiz-adv-x="690" 
d="M590 333h-492v110h492v-110z" />
    <glyph glyph-name="uni2215" unicode="&#x2215;" horiz-adv-x="489" 
d="M546 745l-485 -745h-119l486 745h118z" />
    <glyph glyph-name="uni2219" unicode="&#x2219;" horiz-adv-x="281" 
d="M204 291h-128v155h128v-155z" />
    <glyph glyph-name="radical" unicode="&#x221a;" horiz-adv-x="821" 
d="M768 872l-302 -943h-147l-145 454h-120v111h200l138 -446l262 824h114z" />
    <glyph glyph-name="infinity" unicode="&#x221e;" horiz-adv-x="758" 
d="M644 364q0 -237 -153 -237h-7q-65 0 -112 52q-37 -54 -101 -54h-7q-154 0 -154 238v24q0 237 154 237h7q65 0 110 -53q34 54 104 54h6q153 0 153 -237v-24zM552 364v24q0 33 -1.5 54t-7 44t-19 34.5t-34.5 11.5h-5q-31 -1 -42 -34t-21 -127q-8 -68 -15 -107
q33 -46 76 -46h6q21 0 35 11.5t19.5 35.5t7 45t1.5 54zM347 484q-35 49 -75 49h-6q-22 0 -35.5 -12.5t-19.5 -36.5t-7.5 -44.5t-1.5 -52.5v-24q0 -33 1.5 -53t7 -44t19 -35.5t35.5 -11.5h6q28 0 40 34t22 123q7 70 14 108z" />
    <glyph glyph-name="integral" unicode="&#x222b;" horiz-adv-x="542" 
d="M483 675q-60 3 -89 3q-38 0 -47.5 -13.5t-9.5 -59.5v-640q0 -84 -32.5 -126t-122.5 -42q-66 0 -123 15v85q80 -4 89 -4q39 0 48 14t9 60v639q0 84 32.5 126t122.5 42q59 0 123 -14v-85z" />
    <glyph glyph-name="approxequal" unicode="&#x2248;" horiz-adv-x="690" 
d="M588 578q0 -151 -123 -151q-64 0 -120 38l-47 32q-40 27 -67 27q-21 0 -29 -14t-8 -44v-31h-93v31q0 151 127 151q57 0 114 -39l49 -33q37 -25 68 -25q21 0 28 13.5t7 44.5v31h94v-31zM588 316q0 -151 -123 -151q-64 0 -120 38l-47 32q-40 27 -67 27q-21 0 -29 -14
t-8 -44v-31h-93v31q0 151 127 151q57 0 114 -39l49 -33q37 -25 68 -25q21 0 28 13.5t7 44.5v31h94v-31z" />
    <glyph glyph-name="notequal" unicode="&#x2260;" horiz-adv-x="690" 
d="M583 206h-236l-79 -209h-119l78 209h-117v110h152l50 142h-202v111h237l67 177h120l-68 -177h117v-111h-152l-49 -142h201v-110z" />
    <glyph glyph-name="lessequal" unicode="&#x2264;" horiz-adv-x="690" 
d="M600 0h-507v95h507v-95zM548 158h-157l-285 245l285 245h157l-284 -245z" />
    <glyph glyph-name="greaterequal" unicode="&#x2265;" horiz-adv-x="690" 
d="M598 0h-506v95h506v-95zM586 403l-285 -245h-157l284 245l-284 245h157z" />
    <glyph glyph-name="lozenge" unicode="&#x25ca;" horiz-adv-x="703" 
d="M612 363l-262 -313l-259 311l261 317zM496 363l-144 176l-145 -178l143 -175z" />
    <glyph glyph-name="A.sc" unicode="&#xe000;" horiz-adv-x="652" 
d="M246 0h-206v93l41 4l119 372l-38 3v96h261l146 -471l42 -4v-93h-207v91l26 3l-16 54h-177l-17 -55l26 -2v-91zM393 246l-45 153q-15 56 -20 88h-5q-10 -55 -20 -88l-46 -153h136z" />
    <glyph glyph-name="AE.sc" unicode="&#xe001;" horiz-adv-x="835" 
d="M781 568v-139h-80l-8 40h-168v-130h241v-95h-241v-145h168l8 41h80v-140h-422v93l38 3v52h-159l-46 -148h-151v93l40 4l120 372l-39 3v96h619zM397 482h-75q-11 -50 -18 -76l-46 -161h139v237z" />
    <glyph glyph-name="Aacute.sc" unicode="&#xe002;" horiz-adv-x="652" 
d="M246 0h-206v93l41 4l119 372l-38 3v96h261l146 -471l42 -4v-93h-207v91l26 3l-16 54h-177l-17 -55l26 -2v-91zM393 246l-45 153q-15 56 -20 88h-5q-10 -55 -20 -88l-46 -153h136zM525 778l-158 -148h-127l132 148h153z" />
    <glyph glyph-name="Acircumflex.sc" unicode="&#xe003;" horiz-adv-x="652" 
d="M246 0h-206v93l41 4l119 372l-38 3v96h261l146 -471l42 -4v-93h-207v91l26 3l-16 54h-177l-17 -55l26 -2v-91zM393 246l-45 153q-15 56 -20 88h-5q-10 -55 -20 -88l-46 -153h136zM539 630h-121l-96 91l-95 -91h-121l135 148h164z" />
    <glyph glyph-name="Adieresis.sc" unicode="&#xe004;" horiz-adv-x="652" 
d="M246 0h-206v93l41 4l119 372l-38 3v96h261l146 -471l42 -4v-93h-207v91l26 3l-16 54h-177l-17 -55l26 -2v-91zM393 246l-45 153q-15 56 -20 88h-5q-10 -55 -20 -88l-46 -153h136zM499 646h-111v124h111v-124zM258 646v124h-111v-124h111z" />
    <glyph glyph-name="Agrave.sc" unicode="&#xe005;" horiz-adv-x="652" 
d="M246 0h-206v93l41 4l119 372l-38 3v96h261l146 -471l42 -4v-93h-207v91l26 3l-16 54h-177l-17 -55l26 -2v-91zM393 246l-45 153q-15 56 -20 88h-5q-10 -55 -20 -88l-46 -153h136zM407 630h-127l-158 148h154z" />
    <glyph glyph-name="Aring.sc" unicode="&#xe006;" horiz-adv-x="652" 
d="M246 0h-206v93l41 4l119 372l-38 3v96h261l146 -471l42 -4v-93h-207v91l26 3l-16 54h-177l-17 -55l26 -2v-91zM393 246l-45 153q-15 56 -20 88h-5q-10 -55 -20 -88l-46 -153h136zM452 733q0 -57 -35.5 -87t-92.5 -30q-58 0 -94.5 30t-36.5 87q0 56 36.5 86.5t94.5 30.5
q57 0 92.5 -30t35.5 -87zM379 733q0 51 -55 51q-56 0 -56 -51t56 -51q55 0 55 51z" />
    <glyph glyph-name="Atilde.sc" unicode="&#xe007;" horiz-adv-x="652" 
d="M246 0h-206v93l41 4l119 372l-38 3v96h261l146 -471l42 -4v-93h-207v91l26 3l-16 54h-177l-17 -55l26 -2v-91zM393 246l-45 153q-15 56 -20 88h-5q-10 -55 -20 -88l-46 -153h136zM539 760q0 -133 -109 -133q-52 0 -99 31l-53 35q-31 20 -50 20t-26 -12.5t-7 -40.5v-28
h-84v28q0 135 113 135q48 0 92 -29l53 -35q35 -23 56 -23q18 0 24.5 12t6.5 40v29h83v-29z" />
    <glyph glyph-name="B.sc" unicode="&#xe008;" horiz-adv-x="590" 
d="M543 168q0 -52 -19 -87.5t-57 -54t-83.5 -25.5t-109.5 -7q-112 0 -228 7v92l38 5v372l-38 5v93q104 6 231 6q134 0 198 -33t64 -125v-6q0 -85 -72 -118q38 -16 57 -48t19 -70v-6zM418 169v6q0 37 -23.5 55.5t-82.5 18.5h-103v-156q26 -1 65 -1q78 0 111 16t33 61z
M416 405v6q0 41 -30.5 53t-108.5 12h-68v-142h103q59 0 81.5 17.5t22.5 53.5z" />
    <glyph glyph-name="C.sc" unicode="&#xe009;" horiz-adv-x="512" 
d="M458 2q-60 -15 -152 -15q-127 0 -191.5 59t-64.5 203v71q0 143 64.5 201.5t191.5 58.5q82 0 152 -15v-140h-81l-8 48q-32 2 -52 2q-73 0 -105 -33.5t-32 -121.5v-71q0 -90 32 -123t105 -33q36 0 52 1l8 50h81v-142z" />
    <glyph glyph-name="Ccedilla.sc" unicode="&#xe00a;" horiz-adv-x="512" 
d="M458 2q-60 -15 -152 -15q-127 0 -191.5 59t-64.5 203v71q0 143 64.5 201.5t191.5 58.5q82 0 152 -15v-140h-81l-8 48q-32 2 -52 2q-73 0 -105 -33.5t-32 -121.5v-71q0 -90 32 -123t105 -33q36 0 52 1l8 50h81v-142zM387 -64l-134 -141h-126l111 141h149z" />
    <glyph glyph-name="D.sc" unicode="&#xe00b;" horiz-adv-x="604" 
d="M554 252q0 -131 -66 -194.5t-212 -63.5q-128 0 -230 7v94l40 5v368l-40 6v94q114 6 230 6q147 0 212.5 -61t65.5 -193v-68zM427 250v72q0 85 -34.5 115.5t-112.5 30.5h-69v-369h69q81 0 114 32.5t33 118.5z" />
    <glyph glyph-name="Eth.sc" unicode="&#xe00c;" horiz-adv-x="604" 
d="M558 252q0 -132 -66 -195t-210 -63q-129 0 -231 7v94l39 6v140h-44v97h44v130l-39 6v94q114 6 231 6q142 0 209 -61.5t67 -192.5v-68zM431 252v68q0 85 -34.5 116.5t-113.5 31.5h-67v-130h95v-97h-95v-142h68q80 0 113.5 33.5t33.5 119.5z" />
    <glyph glyph-name="E.sc" unicode="&#xe00d;" horiz-adv-x="523" 
d="M468 0h-422v93l38 3v376l-38 4v92h422v-139h-81l-6 40h-169v-130h241v-95h-241v-145h169l6 41h81v-140z" />
    <glyph glyph-name="Eacute.sc" unicode="&#xe00e;" horiz-adv-x="523" 
d="M468 0h-422v93l38 3v376l-38 4v92h422v-139h-81l-6 40h-169v-130h241v-95h-241v-145h169l6 41h81v-140zM486 779l-158 -148h-127l132 148h153z" />
    <glyph glyph-name="Ecircumflex.sc" unicode="&#xe00f;" horiz-adv-x="523" 
d="M468 0h-422v93l38 3v376l-38 4v92h422v-139h-81l-6 40h-169v-130h241v-95h-241v-145h169l6 41h81v-140zM497 631h-121l-96 91l-95 -91h-121l135 148h164z" />
    <glyph glyph-name="Edieresis.sc" unicode="&#xe010;" horiz-adv-x="523" 
d="M468 0h-422v93l38 3v376l-38 4v92h422v-139h-81l-6 40h-169v-130h241v-95h-241v-145h169l6 41h81v-140zM451 646h-111v124h111v-124zM210 646v124h-111v-124h111z" />
    <glyph glyph-name="Egrave.sc" unicode="&#xe011;" horiz-adv-x="523" 
d="M468 0h-422v93l38 3v376l-38 4v92h422v-139h-81l-6 40h-169v-130h241v-95h-241v-145h169l6 41h81v-140zM362 631h-127l-158 148h154z" />
    <glyph glyph-name="F.sc" unicode="&#xe012;" horiz-adv-x="514" 
d="M455 242h-242v-145l37 -4v-93h-204v93l38 4v375l-38 4v92h423v-140h-81l-6 40h-169v-130h242v-96z" />
    <glyph glyph-name="G.sc" unicode="&#xe013;" horiz-adv-x="557" 
d="M502 5q-95 -18 -200 -18q-55 0 -97.5 11.5t-79 39.5t-56 80.5t-19.5 128.5v75q0 64 15 111.5t39 75t59.5 44t69.5 22t77 5.5q114 0 191 -20v-135h-81l-7 45q-69 3 -82 3q-81 0 -117 -29t-36 -123v-74q0 -87 30.5 -120t99.5 -33q32 0 74 2v124l-67 6v80h187v-301z" />
    <glyph glyph-name="H.sc" unicode="&#xe014;" horiz-adv-x="666" 
d="M413 568h207v-93l-39 -4v-373l39 -4v-94h-207v94l38 4v144h-236v-144l38 -4v-94h-207v94l38 4v373l-38 4v93h207v-94l-38 -4v-124h236v124l-38 4v94z" />
    <glyph glyph-name="I.sc" unicode="&#xe015;" horiz-adv-x="299" 
d="M252 0h-205v93l38 4v375l-38 4v92h205v-92l-38 -4v-375l38 -4v-93z" />
    <glyph glyph-name="Iacute.sc" unicode="&#xe016;" horiz-adv-x="299" 
d="M252 0h-205v93l38 4v375l-38 4v92h205v-92l-38 -4v-375l38 -4v-93zM346 779l-158 -148h-127l132 148h153z" />
    <glyph glyph-name="Icircumflex.sc" unicode="&#xe017;" horiz-adv-x="299" 
d="M252 0h-205v93l38 4v375l-38 4v92h205v-92l-38 -4v-375l38 -4v-93zM365 631h-121l-96 91l-95 -91h-121l135 148h164z" />
    <glyph glyph-name="Idieresis.sc" unicode="&#xe018;" horiz-adv-x="299" 
d="M252 0h-205v93l38 4v375l-38 4v92h205v-92l-38 -4v-375l38 -4v-93zM325 646h-111v124h111v-124zM84 646v124h-111v-124h111z" />
    <glyph glyph-name="Igrave.sc" unicode="&#xe019;" horiz-adv-x="299" 
d="M252 0h-205v93l38 4v375l-38 4v92h205v-92l-38 -4v-375l38 -4v-93zM245 631h-127l-158 148h154z" />
    <glyph glyph-name="J.sc" unicode="&#xe01a;" horiz-adv-x="298" 
d="M251 476l-38 -4v-491q0 -78 -34.5 -112.5t-113.5 -34.5q-39 0 -71 6v87h44q30 0 38.5 11t8.5 43v491l-38 4v92h204v-92z" />
    <glyph glyph-name="K.sc" unicode="&#xe01b;" horiz-adv-x="603" 
d="M251 0h-205v93l38 3v376l-38 4v92h205v-94l-38 -4v-166l212 264h134v-92l-45 -4l-166 -185l167 -191l43 -3v-93h-141l-204 265v-167l38 -4v-94z" />
    <glyph glyph-name="L.sc" unicode="&#xe01c;" horiz-adv-x="495" 
d="M451 0h-405v93l38 3v376l-38 4v92h204v-92l-38 -4v-368h150l7 47h82v-151z" />
    <glyph glyph-name="Lslash.sc" unicode="&#xe01d;" horiz-adv-x="495" 
d="M451 0h-404v93l37 3v86l-40 -29v93l40 29v197l-37 4v92h203v-92l-38 -4v-112l108 74v-93l-108 -74v-163h151l7 47h81v-151z" />
    <glyph glyph-name="M.sc" unicode="&#xe01e;" horiz-adv-x="735" 
d="M244 0h-198v93l37 3v376l-37 4v92h170l115 -186q15 -25 34 -67h2q20 48 33 67l116 186h173v-92l-38 -4v-375l38 -4v-93h-201v94l38 4v195q0 15 0.5 31.5t1.5 36.5t1 32h-1q-30 -57 -43 -77l-77 -119h-84l-76 119q-7 11 -14 24t-15.5 29t-13.5 24h-1q2 -68 2 -100v-195
l38 -4v-94z" />
    <glyph glyph-name="N.sc" unicode="&#xe01f;" horiz-adv-x="656" 
d="M416 568h194v-92l-39 -4v-472h-139l-190 312q-25 41 -43 77h-1q2 -60 2 -100v-191l38 -4v-94h-192v93l38 3v376l-38 4v92h175l190 -307q16 -24 44 -79h2q-3 48 -3 103v185l-38 4v94z" />
    <glyph glyph-name="Ntilde.sc" unicode="&#xe020;" horiz-adv-x="656" 
d="M416 568h194v-92l-39 -4v-472h-139l-190 312q-25 41 -43 77h-1q2 -60 2 -100v-191l38 -4v-94h-192v93l38 3v376l-38 4v92h175l190 -307q16 -24 44 -79h2q-3 48 -3 103v185l-38 4v94zM545 758q0 -133 -109 -133q-52 0 -99 31l-53 35q-31 20 -50 20t-26 -12.5t-7 -40.5v-28
h-84v28q0 135 113 135q48 0 92 -29l53 -35q35 -23 56 -23q18 0 24.5 12t6.5 40v29h83v-29z" />
    <glyph glyph-name="O.sc" unicode="&#xe021;" horiz-adv-x="594" 
d="M544 253q0 -266 -247 -266q-115 0 -181 64.5t-66 201.5v62q0 137 66 201t181 64q247 0 247 -265v-62zM417 254v60q0 88 -30.5 123t-89.5 35q-58 0 -89 -36t-31 -122v-60q0 -159 120 -159q59 0 89.5 35.5t30.5 123.5z" />
    <glyph glyph-name="OE.sc" unicode="&#xe022;" horiz-adv-x="833" 
d="M779 0h-352q-67 -12 -124 -12q-119 0 -186 64t-67 201v62q0 265 253 265q53 0 124 -12h352v-139h-80l-8 40h-168v-130h244v-95h-244v-145h168l8 41h80v-140zM396 101v366q-58 5 -86 5q-66 0 -99.5 -36t-33.5 -122v-61q0 -86 31.5 -122t95.5 -36q52 0 92 6z" />
    <glyph glyph-name="Oacute.sc" unicode="&#xe023;" horiz-adv-x="594" 
d="M544 253q0 -266 -247 -266q-115 0 -181 64.5t-66 201.5v62q0 137 66 201t181 64q247 0 247 -265v-62zM417 254v60q0 88 -30.5 123t-89.5 35q-58 0 -89 -36t-31 -122v-60q0 -159 120 -159q59 0 89.5 35.5t30.5 123.5zM504 779l-158 -148h-127l132 148h153z" />
    <glyph glyph-name="Ocircumflex.sc" unicode="&#xe024;" horiz-adv-x="594" 
d="M544 253q0 -266 -247 -266q-115 0 -181 64.5t-66 201.5v62q0 137 66 201t181 64q247 0 247 -265v-62zM417 254v60q0 88 -30.5 123t-89.5 35q-58 0 -89 -36t-31 -122v-60q0 -159 120 -159q59 0 89.5 35.5t30.5 123.5zM515 631h-121l-96 91l-95 -91h-121l135 148h164z" />
    <glyph glyph-name="Odieresis.sc" unicode="&#xe025;" horiz-adv-x="594" 
d="M544 253q0 -266 -247 -266q-115 0 -181 64.5t-66 201.5v62q0 137 66 201t181 64q247 0 247 -265v-62zM417 254v60q0 88 -30.5 123t-89.5 35q-58 0 -89 -36t-31 -122v-60q0 -159 120 -159q59 0 89.5 35.5t30.5 123.5zM474 646h-111v124h111v-124zM233 646v124h-111v-124
h111z" />
    <glyph glyph-name="Ograve.sc" unicode="&#xe026;" horiz-adv-x="594" 
d="M544 253q0 -266 -247 -266q-115 0 -181 64.5t-66 201.5v62q0 137 66 201t181 64q247 0 247 -265v-62zM417 254v60q0 88 -30.5 123t-89.5 35q-58 0 -89 -36t-31 -122v-60q0 -159 120 -159q59 0 89.5 35.5t30.5 123.5zM393 630h-127l-158 148h154z" />
    <glyph glyph-name="Oslash.sc" unicode="&#xe027;" horiz-adv-x="594" 
d="M540 253q0 -266 -247 -266q-86 0 -144 35l-22 -31h-89l58 79q-50 66 -50 183v62q0 137 66 201t181 64q91 0 148 -37l25 34h89l-61 -84q46 -65 46 -178v-62zM173 254q0 -42 7 -69l192 263q-28 24 -79 24q-58 0 -89 -36t-31 -122v-60zM413 254v60q0 33 -5 61l-189 -258
q26 -22 74 -22q59 0 89.5 35.5t30.5 123.5z" />
    <glyph glyph-name="Otilde.sc" unicode="&#xe028;" horiz-adv-x="594" 
d="M544 253q0 -266 -247 -266q-115 0 -181 64.5t-66 201.5v62q0 137 66 201t181 64q247 0 247 -265v-62zM417 254v60q0 88 -30.5 123t-89.5 35q-58 0 -89 -36t-31 -122v-60q0 -159 120 -159q59 0 89.5 35.5t30.5 123.5zM516 758q0 -133 -109 -133q-53 0 -99 31l-53 35
q-31 20 -50 20t-26 -12.5t-7 -40.5v-28h-84v28q0 135 113 135q48 0 92 -29l53 -35q35 -23 56 -23q18 0 24.5 12t6.5 40v29h83v-29z" />
    <glyph glyph-name="P.sc" unicode="&#xe029;" horiz-adv-x="574" 
d="M246 0h-200v93l38 4v375l-38 4v92q138 6 220 6q48 0 84.5 -4t72 -16t58.5 -31.5t37 -53t14 -78.5v-10q0 -56 -20 -94t-57.5 -56.5t-79.5 -26t-98 -7.5h-69v-99l38 -4v-94zM406 382v9q0 48 -30.5 64.5t-101.5 16.5q-11 0 -33.5 -0.5t-32.5 -0.5v-171h66q71 0 101.5 17
t30.5 65z" />
    <glyph glyph-name="Thorn.sc" unicode="&#xe02a;" horiz-adv-x="574" 
d="M531 295q0 -45 -14 -78.5t-36 -53.5t-56 -32t-69 -16t-79 -4t-69 1v-112h-162v93l38 4v374l-38 3v93h162v-81q22 1 63 1q59 0 101.5 -7t80.5 -26t58 -56.5t20 -93.5v-9zM406 296v9q0 48 -30 63.5t-102 15.5q-44 0 -66 -1v-168h66q71 0 101.5 16.5t30.5 64.5z" />
    <glyph glyph-name="Q.sc" unicode="&#xe02b;" horiz-adv-x="594" 
d="M544 253q0 -231 -191 -261v-27q0 -18 7 -23.5t27 -5.5h78v-74q-44 -12 -109 -12q-61 0 -91.5 24t-30.5 88v32q-184 33 -184 259v62q0 137 66 201t181 64q247 0 247 -265v-62zM417 254v60q0 88 -30.5 123t-89.5 35q-58 0 -89 -36t-31 -122v-60q0 -159 120 -159
q59 0 89.5 35.5t30.5 123.5z" />
    <glyph glyph-name="R.sc" unicode="&#xe02c;" horiz-adv-x="606" 
d="M246 0h-200v93l38 4v375l-38 4v92q110 5 222 5q46 0 82.5 -4t71.5 -16t58 -32t37 -53t14 -77v-7q0 -114 -97 -154l85 -133l44 -4v-93h-128l-123 205q-13 -1 -43 -1h-61v-106l38 -4v-94zM406 385v5q0 49 -30.5 65.5t-104.5 16.5q-11 0 -32 -0.5t-31 -0.5v-171q22 -1 65 -1
q71 0 102 19t31 67z" />
    <glyph glyph-name="S.sc" unicode="&#xe02d;" horiz-adv-x="508" 
d="M464 158q0 -171 -212 -171q-110 0 -193 17v135h80l7 -50q34 -1 92 -1q52 0 75 14.5t23 49.5q0 25 -15 41t-56 33l-89 36q-68 27 -100 62t-32 102q0 81 54 117.5t164 36.5q107 0 183 -19v-129h-81l-8 47q-29 1 -86 1q-51 0 -75 -11t-24 -41q0 -23 14.5 -37.5t54.5 -30.5
l87 -36q73 -30 105 -66t32 -100z" />
    <glyph glyph-name="Scaron.sc" unicode="&#xe02e;" horiz-adv-x="508" 
d="M464 158q0 -171 -212 -171q-110 0 -193 17v135h80l7 -50q34 -1 92 -1q52 0 75 14.5t23 49.5q0 25 -15 41t-56 33l-89 36q-68 27 -100 62t-32 102q0 81 54 117.5t164 36.5q107 0 183 -19v-129h-81l-8 47q-29 1 -86 1q-51 0 -75 -11t-24 -41q0 -23 14.5 -37.5t54.5 -30.5
l87 -36q73 -30 105 -66t32 -100zM482 778l-134 -148h-164l-135 148h121l95 -90l96 90h121z" />
    <glyph glyph-name="T.sc" unicode="&#xe02f;" horiz-adv-x="561" 
d="M516 424h-77l-7 44h-87v-373l38 -4v-91h-205v91l38 4v373h-86l-8 -44h-78v144h472v-144z" />
    <glyph glyph-name="U.sc" unicode="&#xe030;" horiz-adv-x="645" 
d="M396 568h202v-92l-38 -4v-238q0 -125 -61.5 -186.5t-176.5 -61.5q-114 0 -175.5 61.5t-61.5 186.5v238l-39 4v92h203v-94l-38 -4v-232q0 -82 24 -115t87 -33t87.5 33.5t24.5 114.5v232l-38 4v94z" />
    <glyph glyph-name="Uacute.sc" unicode="&#xe031;" horiz-adv-x="645" 
d="M396 568h202v-92l-38 -4v-238q0 -125 -61.5 -186.5t-176.5 -61.5q-114 0 -175.5 61.5t-61.5 186.5v238l-39 4v92h203v-94l-38 -4v-232q0 -82 24 -115t87 -33t87.5 33.5t24.5 114.5v232l-38 4v94zM519 774l-158 -148h-127l132 148h153z" />
    <glyph glyph-name="Ucircumflex.sc" unicode="&#xe032;" horiz-adv-x="645" 
d="M396 568h202v-92l-38 -4v-238q0 -125 -61.5 -186.5t-176.5 -61.5q-114 0 -175.5 61.5t-61.5 186.5v238l-39 4v92h203v-94l-38 -4v-232q0 -82 24 -115t87 -33t87.5 33.5t24.5 114.5v232l-38 4v94zM539 626h-121l-96 91l-95 -91h-121l135 148h164z" />
    <glyph glyph-name="Udieresis.sc" unicode="&#xe033;" horiz-adv-x="645" 
d="M396 568h202v-92l-38 -4v-238q0 -125 -61.5 -186.5t-176.5 -61.5q-114 0 -175.5 61.5t-61.5 186.5v238l-39 4v92h203v-94l-38 -4v-232q0 -82 24 -115t87 -33t87.5 33.5t24.5 114.5v232l-38 4v94zM496 646h-111v124h111v-124zM255 646v124h-111v-124h111z" />
    <glyph glyph-name="Ugrave.sc" unicode="&#xe034;" horiz-adv-x="645" 
d="M396 568h202v-92l-38 -4v-238q0 -125 -61.5 -186.5t-176.5 -61.5q-114 0 -175.5 61.5t-61.5 186.5v238l-39 4v92h203v-94l-38 -4v-232q0 -82 24 -115t87 -33t87.5 33.5t24.5 114.5v232l-38 4v94zM425 626h-127l-158 148h154z" />
    <glyph glyph-name="V.sc" unicode="&#xe035;" horiz-adv-x="638" 
d="M387 568h211v-92l-40 -5l-144 -471h-193l-143 471l-40 5v92h213v-94l-38 -4l82 -288q12 -44 22 -102h2q14 70 23 102l82 288l-37 4v94z" />
    <glyph glyph-name="W.sc" unicode="&#xe036;" horiz-adv-x="829" 
d="M787 476l-38 -4l-84 -472h-165l-70 266q-11 43 -17 90h-2q-7 -56 -16 -90l-69 -266h-165l-84 472l-38 4v92h194v-91l-28 -3l38 -227q9 -57 13 -109h5q7 56 20 103l60 216h146l60 -217q10 -39 20 -102h5q3 43 14 109l38 227l-29 3v91h192v-92z" />
    <glyph glyph-name="X.sc" unicode="&#xe037;" horiz-adv-x="597" 
d="M558 0h-135l-130 183l-125 -183h-130v93l46 5l133 195l-130 178l-44 5v92h138l128 -177l122 177h124v-92l-44 -5l-130 -189l129 -184l48 -5v-93z" />
    <glyph glyph-name="Y.sc" unicode="&#xe038;" horiz-adv-x="564" 
d="M525 476l-41 -5l-140 -258v-118l38 -5v-90h-202v90l39 5v118l-139 258l-42 5v92h128l78 -156q24 -46 37 -84h2q11 32 37 84l80 156h125v-92z" />
    <glyph glyph-name="Yacute.sc" unicode="&#xe039;" horiz-adv-x="564" 
d="M525 476l-41 -5l-140 -258v-118l38 -5v-90h-202v90l39 5v118l-139 258l-42 5v92h128l78 -156q24 -46 37 -84h2q11 32 37 84l80 156h125v-92zM487 779l-158 -148h-127l132 148h153z" />
    <glyph glyph-name="Ydieresis.sc" unicode="&#xe03a;" horiz-adv-x="564" 
d="M525 476l-41 -5l-140 -258v-118l38 -5v-90h-202v90l39 5v118l-139 258l-42 5v92h128l78 -156q24 -46 37 -84h2q11 32 37 84l80 156h125v-92zM459 646h-111v124h111v-124zM218 646v124h-111v-124h111z" />
    <glyph glyph-name="Z.sc" unicode="&#xe03b;" horiz-adv-x="521" 
d="M474 0h-428v104l273 362h-179l-8 -43h-76v145h410v-107l-270 -360h194l7 46h77v-147z" />
    <glyph glyph-name="Zcaron.sc" unicode="&#xe03c;" horiz-adv-x="521" 
d="M474 0h-428v104l273 362h-179l-8 -43h-76v145h410v-107l-270 -360h194l7 46h77v-147zM490 779l-134 -148h-164l-135 148h121l95 -90l96 90h121z" />
    <glyph glyph-name="Breve.sc" unicode="&#xe082;" horiz-adv-x="490" 
d="M433 781q-7 -77 -55.5 -117t-132.5 -40t-133 40t-56 117h85q6 -46 31.5 -64.5t72.5 -18.5t72.5 18.5t31.5 64.5h84z" />
    <glyph glyph-name="Caron.sc" unicode="&#xe083;" horiz-adv-x="505" 
d="M469 774l-134 -148h-164l-135 148h121l95 -90l96 90h121z" />
    <glyph glyph-name="Circumflex.sc" unicode="&#xe084;" horiz-adv-x="505" 
d="M469 626h-121l-96 91l-95 -91h-121l135 148h164z" />
    <glyph glyph-name="Dotaccent.sc" unicode="&#xe085;" horiz-adv-x="446" 
d="M290 651h-134v125h134v-125z" />
    <glyph glyph-name="Hungarumlaut.sc" unicode="&#xe086;" horiz-adv-x="543" 
d="M560 772l-158 -148h-120l131 148h147zM316 772h-147l-132 -148h121z" />
    <glyph glyph-name="Ogonek.sc" unicode="&#xe087;" horiz-adv-x="462" 
d="M366 -203q-48 -14 -110 -14q-67 0 -103 25.5t-36 73.5q0 40 30.5 72t104.5 61h118q-84 -39 -112.5 -65t-28.5 -48q0 -39 57 -39q12 0 80 5v-71z" />
    <glyph glyph-name="Ring.sc" unicode="&#xe088;" horiz-adv-x="456" 
d="M357 730q0 -57 -35.5 -87t-92.5 -30q-58 0 -94.5 30t-36.5 87q0 56 36.5 86.5t94.5 30.5q57 0 92.5 -30t35.5 -87zM284 730q0 51 -55 51q-56 0 -56 -51t56 -51q55 0 55 51z" />
    <glyph glyph-name="Tilde.sc" unicode="&#xe089;" horiz-adv-x="491" 
d="M462 755q0 -133 -109 -133q-53 0 -99 31l-53 35q-31 20 -50 20t-26 -12.5t-7 -40.5v-28h-84v28q0 135 113 135q48 0 92 -29l53 -35q35 -23 56 -23q18 0 24.5 12t6.5 40v29h83v-29z" />
    <glyph glyph-name="exclam.sc" unicode="&#xe08b;" horiz-adv-x="254" 
d="M188 0h-122v124h122v-124zM191 593l-10 -425h-108l-11 425h129z" />
    <glyph glyph-name="ampersand.sc" unicode="&#xe08c;" horiz-adv-x="682" 
d="M626 0h-126l-34 32q-71 -43 -188 -43q-221 0 -221 158v6q0 98 115 150l-8 8q-80 80 -80 150v5q0 139 207 139q122 0 195 -20v-134h-83l-9 54h-112q-38 0 -56 -10.5t-18 -35.5v-4q0 -25 12.5 -45t47.5 -52l201 -186q24 48 24 117l-40 7v66h181v-66l-40 -7q0 -109 -52 -184
l84 -78v-27zM396 97l-152 140q-58 -29 -58 -85v-5q0 -37 29.5 -54t74.5 -17q68 0 106 21z" />
    <glyph glyph-name="question.sc" unicode="&#xe08d;" horiz-adv-x="439" 
d="M237 0h-119v124h119v-124zM383 470q0 -40 -17 -75t-62 -78q-51 -49 -63.5 -70t-12.5 -58v-21h-103v21q0 53 11 85t52 75q36 38 48.5 58.5t12.5 42.5v4q0 27 -18.5 37t-60.5 10q-9 0 -23.5 -0.5t-17.5 -0.5l-8 -47h-70v127q68 22 158 22q174 0 174 -127v-5z" />
    <glyph glyph-name="Grave.sc" unicode="&#xe08e;" horiz-adv-x="476" 
d="M337 626h-127l-158 148h154z" />
    <glyph glyph-name="exclamdown.sc" unicode="&#xe08f;" horiz-adv-x="254" 
d="M191 -26h-129l11 426h108zM188 568v-124h-122v124h122z" />
    <glyph glyph-name="Dieresis.sc" unicode="&#xe090;" horiz-adv-x="487" 
d="M420 644h-111v124h111v-124zM179 644v124h-111v-124h111z" />
    <glyph glyph-name="Macron.sc" unicode="&#xe091;" horiz-adv-x="484" 
d="M430 654h-376v89h376v-89z" />
    <glyph glyph-name="Acute.sc" unicode="&#xe092;" horiz-adv-x="476" 
d="M414 774l-158 -148h-127l132 148h153z" />
    <glyph glyph-name="Cedilla.sc" unicode="&#xe093;" horiz-adv-x="460" 
d="M327 -64l-134 -141h-126l111 141h149z" />
    <glyph glyph-name="questiondown.sc" unicode="&#xe094;" horiz-adv-x="442" 
d="M197 568h119v-124h-119v124zM51 98q0 40 17 75t62 78q51 49 63.5 70t12.5 58v21h103v-21q0 -53 -11 -85t-52 -75q-36 -38 -48.5 -58.5t-12.5 -42.5v-4q0 -27 18.5 -37t60.5 -10q9 0 23.5 0.5t17.5 0.5l8 47h70v-127q-68 -22 -158 -22q-174 0 -174 127v5z" />
    <glyph glyph-name="zero.fitted" unicode="&#xe097;" 
d="M628 316q0 -163 -71.5 -247t-211.5 -84t-211 84t-71 247v110q0 164 71 248t211 84t211.5 -84t71.5 -248v-110zM488 316v110q0 118 -37 166.5t-106 48.5q-68 0 -105 -48.5t-37 -166.5v-110q0 -118 37 -166.5t105 -48.5q69 0 106 48.5t37 166.5z" />
    <glyph glyph-name="two.fitted" unicode="&#xe098;" 
d="M590 0h-499v93q0 87 23.5 144t69 96t133.5 86q94 49 118.5 76t24.5 70q0 46 -33.5 63.5t-117.5 17.5q-34 0 -108 -4l-9 -68h-92v156q25 9 95 18.5t132 9.5q141 0 207 -45t66 -142q0 -74 -42.5 -126.5t-155.5 -113.5q-112 -61 -143 -96.5t-31 -107.5v-10h260l10 64h92
v-181z" />
    <glyph glyph-name="three.fitted" unicode="&#xe099;" 
d="M597 204q0 -118 -68.5 -168.5t-209.5 -50.5q-62 0 -128.5 10t-96.5 20v159h91l10 -73q70 -4 113 -4q81 0 115.5 23t34.5 89v20q0 51 -23 75t-95 24h-208v106h208q72 0 95 25.5t23 76.5v12q0 57 -31.5 77t-118.5 20q-60 0 -111 -3l-9 -68h-92v156q22 8 91.5 18t131.5 10
q142 0 210 -45.5t68 -156.5v-12q0 -116 -90 -162q90 -43 90 -158v-20z" />
    <glyph glyph-name="four.fitted" unicode="&#xe09a;" 
d="M641 179h-106v-95l50 -5v-79h-240v79l51 5v95h-347v116l354 448h132v-454h106v-110zM400 289v285l-231 -285h231z" />
    <glyph glyph-name="five.fitted" unicode="&#xe09b;" 
d="M601 215q0 -122 -72 -176t-213 -54q-125 0 -226 26v162h91l10 -73q70 -4 105 -4q92 0 128.5 26t36.5 93v22q0 64 -33.5 87.5t-130.5 23.5h-196l34 395h441v-171h-91l-9 57h-227l-16 -173h85q154 0 218.5 -51t64.5 -167v-23z" />
    <glyph glyph-name="six.fitted" unicode="&#xe09c;" 
d="M621 226q0 -56 -17 -99.5t-43.5 -69.5t-63.5 -43t-72 -23t-74 -6q-138 0 -210 66.5t-72 234.5v177q0 74 13.5 126t46 91.5t90 58.5t142.5 19q115 0 225 -26v-158h-91l-10 68q-51 3 -112 3q-56 0 -90 -10t-50 -34t-21 -50t-5 -71v-29q69 18 153 18q58 0 101 -8t81.5 -29.5
t58.5 -64t20 -105.5v-36zM483 226v32q0 67 -32 89.5t-103 22.5q-76 0 -141 -14v-89q0 -100 35.5 -137t108.5 -37q58 0 95 33.5t37 99.5z" />
    <glyph glyph-name="seven.fitted" unicode="&#xe09d;" 
d="M605 614l-329 -614h-151l345 629h-284l-9 -60h-91v174h519v-129z" />
    <glyph glyph-name="eight.fitted" unicode="&#xe09e;" 
d="M630 213q0 -61 -16.5 -104.5t-40.5 -67t-64.5 -36.5t-75.5 -16.5t-86 -3.5h-4q-51 0 -86 3.5t-75.5 16.5t-64.5 36.5t-40.5 67t-16.5 104.5v8q0 110 82 163q-79 50 -79 157v11q0 62 22 104.5t63.5 63.5t87.5 29.5t107 8.5h4q61 0 107 -8.5t87.5 -29.5t64 -63.5
t22.5 -104.5v-11q0 -106 -79 -157q81 -52 81 -163v-8zM493 215v7q0 60 -20.5 86t-72.5 26h-110q-52 0 -72 -26t-20 -86v-7q0 -76 35.5 -100t109.5 -24h4q74 0 110 24.5t36 99.5zM491 538v10q0 60 -36.5 81.5t-107.5 21.5h-4q-71 0 -107.5 -21.5t-36.5 -81.5v-10
q0 -51 20 -76.5t71 -25.5h110q51 0 71 25.5t20 76.5z" />
    <glyph glyph-name="nine.fitted" unicode="&#xe09f;" 
d="M621 280q0 -149 -64 -222t-228 -73q-128 0 -226 26v158h91l10 -68q70 -4 115 -4q55 0 88.5 10.5t49.5 34t21 50t5 71.5v28q-71 -17 -153 -17q-58 0 -101 8t-81.5 29.5t-58.5 64t-20 105.5v35q0 56 17 99.5t43.5 70t63 43t72 23t74.5 6.5q138 0 210 -67t72 -235v-176z
M483 387v89q0 99 -35.5 136.5t-108.5 37.5q-59 0 -95.5 -33t-36.5 -100v-33q0 -67 31.5 -89.5t102.5 -22.5t142 15z" />
    <glyph glyph-name="zero.taboldstyle" unicode="&#xe100;" 
d="M627 274q0 -141 -72 -215t-210 -74t-210 74t-72 215v38q0 141 72 214.5t210 73.5q139 0 210.5 -73.5t71.5 -214.5v-38zM488 274v38q0 172 -143 172q-142 0 -142 -172v-38q0 -172 142 -172q143 0 143 172z" />
    <glyph glyph-name="one.taboldstyle" unicode="&#xe101;" 
d="M575 0h-459v108l163 9v335l-164 -52v121l202 71h101v-475l157 -9v-108z" />
    <glyph glyph-name="two.taboldstyle" unicode="&#xe102;" 
d="M594 0h-505v117l178 106q118 70 155.5 110t37.5 85q0 39 -34.5 55t-117.5 16q-37 0 -107 -4l-10 -69h-92v157q124 27 228 27q149 0 211.5 -42t62.5 -129q0 -78 -46.5 -132.5t-179.5 -130.5l-85 -49h304v-117z" />
    <glyph glyph-name="three.taboldstyle" unicode="&#xe103;" 
d="M597 46q0 -117 -68.5 -168t-209.5 -51q-61 0 -127 10t-98 21v159h92l10 -73q70 -4 113 -4q80 0 115 23t35 89v19q0 51 -23 75.5t-95 24.5h-209v106h209q71 0 94.5 26t23.5 76v12q0 56 -31.5 76.5t-119.5 20.5q-65 0 -110 -4l-10 -68h-91v157q22 8 91.5 18t130.5 10
q142 0 210 -45.5t68 -156.5v-12q0 -117 -89 -162q89 -43 89 -158v-21z" />
    <glyph glyph-name="four.taboldstyle" unicode="&#xe104;" 
d="M641 23h-106v-94l51 -5v-79h-240v79l50 5v94h-346v117l354 448h131v-454h106v-111zM401 134v284l-231 -284h231z" />
    <glyph glyph-name="five.taboldstyle" unicode="&#xe105;" 
d="M601 60q0 -123 -72.5 -177t-213.5 -54q-132 0 -225 27v162h91l10 -73q85 -5 105 -5q91 0 127.5 26t36.5 93v23q0 63 -33 86.5t-130 23.5h-196l33 395h442v-171h-91l-10 57h-226l-17 -172h86q154 0 218.5 -51t64.5 -167v-23z" />
    <glyph glyph-name="six.taboldstyle" unicode="&#xe106;" 
d="M621 226q0 -56 -17 -99.5t-43.5 -69.5t-63.5 -43t-72.5 -23t-74.5 -6q-137 0 -209 67t-72 235v176q0 150 63.5 222.5t227.5 72.5q115 0 225 -26v-158h-90l-11 68q-50 3 -112 3q-55 0 -89 -10t-50 -34t-21 -50t-5 -71v-29q69 18 153 18q58 0 101 -8t81.5 -29.5t58.5 -64
t20 -105.5v-36zM483 226v32q0 67 -32 89.5t-103 22.5q-76 0 -141 -14v-89q0 -100 35.5 -137t108.5 -37q58 0 95 33.5t37 99.5z" />
    <glyph glyph-name="seven.taboldstyle" unicode="&#xe107;" 
d="M605 458l-329 -614h-151l345 629h-284l-9 -59h-91v173h519v-129z" />
    <glyph glyph-name="eight.taboldstyle" unicode="&#xe108;" 
d="M630 213q0 -61 -16.5 -104.5t-41 -67t-64.5 -36.5t-75.5 -16.5t-85.5 -3.5h-4q-51 0 -86 3.5t-75.5 16.5t-64.5 36.5t-40.5 67t-16.5 104.5v8q0 111 81 163q-79 51 -79 157v11q0 62 22 104.5t64 63.5t88 29.5t107 8.5h4q61 0 107 -8.5t87.5 -29.5t63.5 -63.5t22 -104.5
v-11q0 -107 -79 -157q82 -53 82 -163v-8zM492 215v7q0 60 -20 86t-73 26h-109q-52 0 -72.5 -26t-20.5 -86v-7q0 -75 36 -99.5t110 -24.5h4q74 0 109.5 24t35.5 100zM490 538v10q0 60 -36 81.5t-107 21.5h-4q-71 0 -107.5 -21.5t-36.5 -81.5v-10q0 -51 20 -76.5t71 -25.5h109
q51 0 71 25.5t20 76.5z" />
    <glyph glyph-name="nine.taboldstyle" unicode="&#xe109;" 
d="M621 123q0 -149 -64 -222.5t-228 -73.5q-115 0 -226 26v159h91l10 -69q51 -3 115 -3q55 0 88.5 10.5t49.5 34t20.5 50t4.5 70.5v29q-67 -18 -153 -18q-58 0 -100.5 8t-81 29.5t-58.5 64t-20 105.5v36q0 69 24.5 118.5t66 75t86 37t93.5 11.5q138 0 210 -67t72 -235v-176z
M482 230v88q0 100 -35.5 137t-108.5 37q-58 0 -95 -33.5t-37 -99.5v-32q0 -67 32 -89.5t103 -22.5q77 0 141 15z" />
    <glyph glyph-name="zero.denominator" unicode="&#xe10a;" horiz-adv-x="483" 
d="M430 201q0 -103 -48 -157t-141 -54t-140.5 54t-47.5 157v44q0 103 47.5 157t140.5 54t141 -54t48 -157v-44zM324 201v44q0 72 -21.5 99t-61.5 27q-39 0 -60.5 -27t-21.5 -99v-44q0 -72 21.5 -99t60.5 -27q40 0 61.5 27t21.5 99z" />
    <glyph glyph-name="one.denominator" unicode="&#xe10b;" horiz-adv-x="411" 
d="M351 0h-291v75l93 4v269l-93 -28v85l123 43h76v-369l92 -4v-75z" />
    <glyph glyph-name="two.denominator" unicode="&#xe10c;" horiz-adv-x="453" 
d="M389 0h-331v56q0 79 31 120.5t112 80.5q59 29 74 42.5t15 36.5t-19.5 32.5t-69.5 9.5q-43 0 -67 -2l-5 -40h-65v102q61 18 152 18q94 0 137 -28t43 -89q0 -47 -28.5 -80.5t-100.5 -66.5q-70 -32 -88 -49.5t-18 -56.5v-5h157l6 37h65v-118z" />
    <glyph glyph-name="three.denominator" unicode="&#xe10d;" horiz-adv-x="449" 
d="M391 124q0 -71 -44 -103t-137 -32q-90 0 -152 20v103h65l5 -42q66 -3 72 -3q47 0 67 12.5t20 49.5v9q0 27 -14 40t-58 13h-131v73h132q43 0 57 14t14 42v5q0 30 -18.5 41.5t-69.5 11.5q-27 0 -69 -2l-6 -40h-65v101q18 6 63.5 12.5t87.5 6.5q91 0 136 -28t45 -95v-7
q0 -69 -55 -98q55 -25 55 -94v-10z" />
    <glyph glyph-name="four.denominator" unicode="&#xe10e;" horiz-adv-x="473" 
d="M431 102h-65v-47l31 -3v-52h-167v52l31 3v47h-219v76l232 268h92v-269h65v-75zM265 177v153l-135 -153h135z" />
    <glyph glyph-name="five.denominator" unicode="&#xe10f;" horiz-adv-x="452" 
d="M395 132q0 -144 -185 -144q-86 0 -152 18v104h64l6 -42q42 -2 63 -2q55 0 76.5 14t21.5 51v11q0 33 -20 45.5t-76 12.5h-130l22 245h294v-111h-64l-5 33h-140l-9 -92h51q100 0 141.5 -30.5t41.5 -102.5v-10z" />
    <glyph glyph-name="six.denominator" unicode="&#xe110;" horiz-adv-x="472" 
d="M419 138q0 -79 -52 -114t-128 -35q-94 0 -139.5 44t-45.5 147v91q0 93 41 139t148 46q85 0 153 -17v-102h-65l-6 39q-42 2 -71 2q-61 0 -79 -21t-18 -70v-13q42 10 91 10q39 0 67 -5t53 -18t38 -39.5t13 -66.5v-17zM315 138v15q0 39 -18 51.5t-59 12.5q-42 0 -81 -8v-46
q0 -58 20.5 -78.5t62.5 -20.5q33 0 54 18t21 56z" />
    <glyph glyph-name="seven.denominator" unicode="&#xe111;" horiz-adv-x="449" 
d="M398 358l-207 -359h-112l215 368h-163l-5 -35h-65v113h337v-87z" />
    <glyph glyph-name="eight.denominator" unicode="&#xe112;" horiz-adv-x="483" 
d="M430 127q0 -45 -14.5 -74t-43.5 -42t-57.5 -17.5t-71.5 -4.5h-3q-43 0 -71.5 4.5t-57.5 17.5t-43.5 42t-14.5 74v5q0 65 50 98q-49 32 -49 95v6q0 50 27.5 79t65 37.5t93.5 8.5h3q56 0 93.5 -8.5t65 -37.5t27.5 -79v-6q0 -64 -50 -95q51 -33 51 -98v-5zM327 129v4
q0 34 -11.5 48.5t-41.5 14.5h-65q-30 0 -41.5 -14.5t-11.5 -48.5v-4q0 -41 20.5 -54.5t63.5 -13.5h3q43 0 63.5 13.5t20.5 54.5zM326 322v5q0 32 -21 44t-62 12h-3q-40 0 -61.5 -12t-21.5 -44v-5q0 -29 11.5 -43t40.5 -14h65q29 0 40.5 14t11.5 43z" />
    <glyph glyph-name="nine.denominator" unicode="&#xe113;" horiz-adv-x="472" 
d="M419 175q0 -93 -41.5 -139t-148.5 -46q-89 0 -153 16v103h65l5 -40q46 -2 74 -2q60 0 77.5 21t17.5 70v14q-42 -10 -91 -10q-81 0 -125.5 26.5t-44.5 101.5v17q0 79 51.5 114t127.5 35q94 0 140 -44t46 -146v-91zM315 237v46q0 57 -20 78t-62 21q-34 0 -55 -18.5
t-21 -56.5v-15q0 -38 18.5 -50.5t58.5 -12.5q42 0 81 8z" />
    <glyph glyph-name="parenleft.denominator" unicode="&#xe117;" horiz-adv-x="289" 
d="M243 -79h-95q-86 113 -86 262v5q0 149 86 264h95q-80 -116 -80 -264v-5q0 -146 80 -262z" />
    <glyph glyph-name="parenright.denominator" unicode="&#xe118;" horiz-adv-x="289" 
d="M228 183q0 -150 -85 -262h-95q80 116 80 262v5q0 148 -80 264h95q85 -114 85 -264v-5z" />
    <glyph glyph-name="cent.denominator" unicode="&#xe119;" horiz-adv-x="399" 
d="M352 1q-34 -9 -85 -11v-77h-89v82q-132 29 -132 204v45q0 177 132 204v78h89v-72q46 -3 85 -12v-115h-67l-6 36q-4 0 -13 0.5t-18 0.5q-53 0 -74 -27.5t-21 -92.5v-45q0 -66 20.5 -92.5t78.5 -26.5q50 0 100 4v-83z" />
    <glyph glyph-name="comma.denominator" unicode="&#xe11a;" horiz-adv-x="258" 
d="M203 95l-73 -154h-80l53 154h100z" />
    <glyph glyph-name="dollar.denominator" unicode="&#xe11b;" horiz-adv-x="432" 
d="M383 126q0 -56 -32 -90t-90 -43v-80h-92v77q-63 3 -112 13v114h70l7 -44q10 0 32 -0.5t33 -0.5q78 0 78 47q0 18 -12 29t-45 25l-68 29q-54 23 -80.5 50.5t-26.5 77.5q0 103 124 120v79h92v-76q59 -2 108 -14v-108h-69l-7 38q-33 3 -66 3q-78 0 -78 -40q0 -16 12 -26.5
t43 -22.5l66 -27q58 -23 85.5 -52.5t27.5 -77.5z" />
    <glyph glyph-name="hyphen.denominator" unicode="&#xe11c;" horiz-adv-x="258" 
d="M203 161h-149v78h149v-78z" />
    <glyph glyph-name="period.denominator" unicode="&#xe11d;" horiz-adv-x="215" 
d="M157 0h-99v95h99v-95z" />
    <glyph glyph-name="zero.numerator" unicode="&#xe11e;" horiz-adv-x="472" 
d="M423 502q0 -212 -187 -212q-188 0 -188 212v43q0 212 188 212q187 0 187 -212v-43zM318 502v43q0 72 -19 99.5t-63 27.5t-63 -28t-19 -99v-43q0 -73 19 -100t63 -27t63 27.5t19 99.5z" />
    <glyph glyph-name="one.numerator" unicode="&#xe11f;" horiz-adv-x="420" 
d="M360 300h-291v75l93 4v270l-93 -29v85l122 44h76v-370l93 -4v-75z" />
    <glyph glyph-name="two.numerator" unicode="&#xe120;" horiz-adv-x="459" 
d="M390 301h-332v56q0 79 31 120t113 81q59 29 74 42.5t15 37.5q0 23 -19.5 32.5t-69.5 9.5q-31 0 -67 -3l-5 -39h-65v101q52 18 152 18q93 0 136.5 -27.5t43.5 -88.5q0 -47 -28.5 -79.5t-100.5 -65.5q-69 -32 -87.5 -51t-18.5 -58v-5h157l5 37h66v-118z" />
    <glyph glyph-name="three.numerator" unicode="&#xe121;" horiz-adv-x="458" 
d="M393 425q0 -71 -44 -102.5t-137 -31.5q-90 0 -152 20v102h65l5 -42q44 -2 72 -2q47 0 67 12.5t20 48.5v9q0 28 -14 41t-58 13h-131v73h132q43 0 57 14t14 41v6q0 30 -18.5 41t-69.5 11q-48 0 -69 -2l-6 -39h-65v101q17 6 63 12t88 6q91 0 136 -28t45 -95v-6
q0 -70 -55 -98q55 -25 55 -95v-10z" />
    <glyph glyph-name="four.numerator" unicode="&#xe122;" horiz-adv-x="471" 
d="M428 403h-65v-47l31 -3v-53h-167v53l31 3v47h-219v76l232 267h92v-268h65v-75zM263 478v153l-136 -153h136z" />
    <glyph glyph-name="five.numerator" unicode="&#xe123;" horiz-adv-x="455" 
d="M395 432q0 -143 -185 -143q-90 0 -152 17v105h64l6 -42q32 -3 63 -3q55 0 76.5 14.5t21.5 50.5v11q0 34 -19.5 46t-76.5 12h-130l22 246h294v-112h-64l-5 33h-140l-9 -92h51q100 0 141.5 -30t41.5 -102v-11z" />
    <glyph glyph-name="six.numerator" unicode="&#xe124;" horiz-adv-x="464" 
d="M413 439q0 -79 -52 -114t-128 -35q-94 0 -139.5 44t-45.5 146v91q0 94 41 139.5t148 45.5q85 0 153 -17v-102h-65l-6 39q-31 3 -71 3q-61 0 -79 -21t-18 -71v-13q42 10 91 10q81 0 126 -26.5t45 -101.5v-17zM309 439v15q0 38 -18.5 50.5t-58.5 12.5q-42 0 -81 -8v-46
q0 -57 20.5 -78t62.5 -21q33 0 54 18.5t21 56.5z" />
    <glyph glyph-name="seven.numerator" unicode="&#xe125;" horiz-adv-x="461" 
d="M400 658l-206 -359h-113l215 368h-163l-5 -34h-64v113h336v-88z" />
    <glyph glyph-name="eight.numerator" unicode="&#xe126;" horiz-adv-x="471" 
d="M422 428q0 -37 -10.5 -63t-26.5 -40.5t-42.5 -22.5t-50 -10t-57.5 -2h-3q-34 0 -57.5 2t-50 10t-42.5 22.5t-26.5 40.5t-10.5 63v5q0 65 50 97q-49 32 -49 95v6q0 38 14.5 64t42 38.5t58 17.5t71.5 5h3q41 0 71 -5t57.5 -17.5t42 -38.5t14.5 -64v-6q0 -63 -49 -95
q51 -32 51 -97v-5zM319 430v4q0 34 -11.5 48t-41.5 14h-65q-30 0 -41.5 -14t-11.5 -48v-4q0 -41 20.5 -54.5t63.5 -13.5h3q43 0 63.5 13.5t20.5 54.5zM317 622v5q0 33 -21 44.5t-61 11.5h-3q-41 0 -62 -11.5t-21 -44.5v-5q0 -29 11 -43t41 -14h65q28 0 39.5 14.5t11.5 42.5z
" />
    <glyph glyph-name="nine.numerator" unicode="&#xe127;" horiz-adv-x="464" 
d="M413 475q0 -93 -41.5 -139t-148.5 -46q-89 0 -153 16v103h65l5 -39q44 -2 74 -2q60 0 77.5 20.5t17.5 69.5v15q-39 -11 -91 -11q-81 0 -125.5 27t-44.5 102v16q0 79 51.5 114t127.5 35q94 0 140 -44t46 -146v-91zM309 537v47q0 57 -20 77.5t-62 20.5q-76 0 -76 -74v-16
q0 -37 18.5 -50t58.5 -13q42 0 81 8z" />
    <glyph glyph-name="parenleft.numerator" unicode="&#xe12b;" horiz-adv-x="289" 
d="M243 226h-95q-86 111 -86 262v5q0 149 86 264h95q-80 -117 -80 -264v-5q0 -148 80 -262z" />
    <glyph glyph-name="parenright.numerator" unicode="&#xe12c;" horiz-adv-x="289" 
d="M228 488q0 -152 -85 -262h-95q80 114 80 262v5q0 147 -80 264h95q85 -114 85 -264v-5z" />
    <glyph glyph-name="cent.numerator" unicode="&#xe12d;" horiz-adv-x="399" 
d="M352 306q-34 -9 -85 -11v-77h-89v82q-132 31 -132 204v45q0 177 132 204v78h89v-72q46 -3 85 -12v-114h-67l-6 35q-4 0 -13 0.5t-18 0.5q-53 0 -74 -27.5t-21 -92.5v-45q0 -66 20.5 -92.5t78.5 -26.5q52 0 100 4v-83z" />
    <glyph glyph-name="comma.numerator" unicode="&#xe130;" horiz-adv-x="258" 
d="M203 400l-73 -155h-80l53 155h100z" />
    <glyph glyph-name="dollar.numerator" unicode="&#xe131;" horiz-adv-x="432" 
d="M383 430q0 -55 -32 -89t-90 -43v-81h-92v78q-56 1 -112 13v114h70l7 -44q8 0 33.5 -0.5t44.5 -0.5q67 0 67 45q0 18 -13 29.5t-46 25.5l-68 30q-55 24 -81 51t-26 77q0 103 124 120v78h92v-75q66 -4 108 -14v-108h-69l-7 38q-33 3 -66 3q-78 0 -78 -41q0 -16 12 -27
t42 -23l66 -26q59 -24 86.5 -52.5t27.5 -77.5z" />
    <glyph glyph-name="hyphen.numerator" unicode="&#xe132;" horiz-adv-x="258" 
d="M203 466h-149v78h149v-78z" />
    <glyph glyph-name="period.numerator" unicode="&#xe133;" horiz-adv-x="215" 
d="M157 305h-99v95h99v-95z" />
    <glyph glyph-name="guillemotleft.cap" unicode="&#xe134;" horiz-adv-x="713" 
d="M661 167h-141l-159 217l159 216h141l-154 -216zM353 167l-154 217l154 216h-141l-159 -216l159 -217h141z" />
    <glyph glyph-name="guillemotright.cap" unicode="&#xe135;" horiz-adv-x="713" 
d="M662 384l-160 -217h-140l154 217l-154 216h140zM353 384l-159 216h-141l154 -216l-154 -217h141z" />
    <glyph glyph-name="guilsinglleft.cap" unicode="&#xe136;" horiz-adv-x="406" 
d="M351 167h-140l-159 217l159 216h140l-153 -216z" />
    <glyph glyph-name="guilsinglright.cap" unicode="&#xe137;" horiz-adv-x="406" 
d="M353 384l-158 -217h-141l153 217l-153 216h141z" />
    <glyph glyph-name="at.cap" unicode="&#xe138;" horiz-adv-x="863" 
d="M810 463q0 -320 -368 -320q-112 0 -163 37t-51 119q0 8 3 74q7 115 61 164t147 49q81 0 173 -22l-33 -321q148 36 148 221q0 223 -262 223q-331 0 -331 -423q0 -110 59.5 -164t200.5 -54q39 0 183 9v-55q-79 -17 -183 -17q-342 0 -342 282q0 108 22 194t69 154.5
t128.5 105.5t193.5 37q169 0 257 -75t88 -218zM495 494q-24 3 -56 3q-47 0 -71.5 -24.5t-30.5 -100.5q-3 -38 -3 -74q0 -42 23 -57t83 -15h29z" />
    <glyph glyph-name="braceleft.cap" unicode="&#xe139;" horiz-adv-x="371" 
d="M322 0h-51q-106 0 -142 33t-36 117v92q0 40 -10 57.5t-40 36.5v70q30 20 40 37.5t10 57.5v91q0 85 36 118t142 33h51v-98h-50q-40 0 -50.5 -9t-10.5 -44v-91q0 -51 -13.5 -79.5t-45.5 -50.5q33 -23 46.5 -51t13.5 -78v-92q0 -34 10 -43t50 -9h50v-98z" />
    <glyph glyph-name="braceright.cap" unicode="&#xe13a;" horiz-adv-x="370" 
d="M322 336q-29 -19 -39 -36.5t-10 -57.5v-92q0 -84 -36 -117t-142 -33h-52v98h51q40 0 50 9t10 43v92q0 50 13.5 78t45.5 51q-32 22 -45.5 50.5t-13.5 79.5v91q0 35 -10 44t-50 9h-51v98h52q106 0 142 -33t36 -118v-91q0 -40 10 -57.5t39 -37.5v-70z" />
    <glyph glyph-name="bracketleft.cap" unicode="&#xe13b;" horiz-adv-x="351" 
d="M300 0h-219v743h219v-97h-102v-550h102v-96z" />
    <glyph glyph-name="bracketright.cap" unicode="&#xe13c;" horiz-adv-x="351" 
d="M270 0h-220v96h103v550h-103v97h220v-743z" />
    <glyph glyph-name="emdash.cap" unicode="&#xe13d;" horiz-adv-x="665" 
d="M597 340h-529v97h529v-97z" />
    <glyph glyph-name="endash.cap" unicode="&#xe13e;" horiz-adv-x="489" 
d="M421 340h-353v97h353v-97z" />
    <glyph glyph-name="hyphen.cap" unicode="&#xe13f;" horiz-adv-x="381" 
d="M313 341h-245v95h245v-95z" />
    <glyph glyph-name="parenleft.cap" unicode="&#xe140;" horiz-adv-x="322" 
d="M283 0h-108q-46 60 -81.5 159.5t-35.5 210.5v5q0 110 35.5 207.5t81.5 160.5h108q-108 -163 -108 -368v-5q0 -206 108 -370z" />
    <glyph glyph-name="parenright.cap" unicode="&#xe141;" horiz-adv-x="322" 
d="M277 370q0 -112 -35.5 -211.5t-81.5 -158.5h-107q108 164 108 370v5q0 205 -108 368h108q46 -62 81 -160t35 -208v-5z" />
    <glyph glyph-name="exclamdown.cap" unicode="&#xe142;" horiz-adv-x="286" 
d="M215 -34h-145l13 566h120zM210 743v-153h-135v153h135z" />
    <glyph glyph-name="questiondown.cap" unicode="&#xe143;" horiz-adv-x="539" 
d="M490 -19q-87 -28 -191 -28q-112 0 -168 39.5t-56 126.5v7q0 51 23.5 97t80.5 102q67 66 83.5 95.5t16.5 78.5v32h120v-32q0 -71 -15.5 -114.5t-72.5 -100.5q-52 -53 -69.5 -81t-17.5 -60v-6q0 -39 26 -53.5t81 -14.5q43 0 64 1l10 64h85v-153zM405 743v-154h-133v154h133
z" />
    <glyph glyph-name="i.dot" unicode="&#xe19a;" horiz-adv-x="319" 
d="M275 0h-231v105l49 5v343l-49 5v105h182v-453l49 -5v-105zM228 650h-137v127h137v-127z" />
    <glyph glyph-name="periodcentered.cap" unicode="&#xe22b;" horiz-adv-x="281" 
d="M200 315h-119v145h119v-145z" />
    <glyph glyph-name="Q.alt" unicode="&#xe23c;" horiz-adv-x="721" 
d="M425 -180h-132v172q-115 18 -176.5 101.5t-61.5 231.5v93q0 172 80 256t225 84t225.5 -84t80.5 -256v-93q0 -149 -62.5 -232.5t-178.5 -101.5v-171zM360 106q81 0 124 51t43 168v93q0 117 -43 168t-124 51q-80 0 -123 -51t-43 -168v-93q0 -117 43 -168t123 -51z" />
    <glyph glyph-name="a.alt" unicode="&#xe245;" horiz-adv-x="640" 
d="M597 0h-174v29q-69 -43 -158 -43q-102 0 -156.5 62.5t-54.5 188.5v80q0 145 65 202.5t200 57.5q117 0 228 -14v-453l50 -5v-105zM415 122v340q-45 5 -101 5q-68 0 -98 -30t-30 -120v-80q0 -75 26.5 -107.5t88.5 -32.5q57 0 114 25z" />
    <glyph glyph-name="e.alt" unicode="&#xe249;" horiz-adv-x="607" 
d="M560 240h-376v-10q0 -34 4 -54.5t18 -41.5t45.5 -30.5t81.5 -9.5q59 0 104 5l9 54h91v-140q-125 -27 -214 -27q-83 0 -138 19.5t-83.5 58.5t-39 84t-10.5 108v46q0 137 65 206t190 69q253 0 253 -275v-62zM429 327v8q0 21 -1.5 37t-9 36t-20 32.5t-36 21.5t-55.5 9
q-40 0 -66 -12.5t-37.5 -35t-15 -42t-3.5 -46.5v-8h244z" />
    <glyph glyph-name="g.alt" unicode="&#xe24b;" horiz-adv-x="615" 
d="M86 -190v89q149 -9 209 -9q75 0 96.5 21t21.5 74v17q-54 -9 -101 -9q-127 0 -192.5 61.5t-65.5 199.5v62q0 134 65 197.5t204 63.5q84 0 188 -14h83v-105l-49 -5v-468q0 -98 -52 -147.5t-188 -49.5q-115 0 -219 22zM414 110v352q-55 5 -93 5q-78 0 -107 -35.5t-29 -116.5
v-61q0 -85 30.5 -118t104.5 -33q48 0 94 7z" />
    <glyph glyph-name="s.alt" unicode="&#xe257;" horiz-adv-x="525" 
d="M477 153q0 -167 -228 -167q-53 0 -111 7.5t-81 14.5v97q124 -10 185 -10q60 0 82 12t22 42q0 28 -16.5 40.5t-82.5 39.5l-41 17q-83 35 -120.5 75t-37.5 104q0 82 53.5 117t163.5 35q55 0 112 -7t81 -15v-129h-92l-10 47q-39 3 -80 3q-54 0 -76 -10t-22 -38
q0 -26 17 -41.5t69 -37.5l45 -19q98 -41 133 -76.5t35 -100.5z" />
    <glyph glyph-name="u.alt" unicode="&#xe259;" horiz-adv-x="644" 
d="M584 252q0 -137 -58.5 -201.5t-187.5 -64.5q-126 0 -185.5 64.5t-59.5 201.5v201l-49 5v105h181v-311q0 -85 25 -119.5t88 -34.5q64 0 89 34.5t25 119.5v201l-49 5v105h181v-311z" />
    <glyph glyph-name="scaron.alt" unicode="&#xe265;" horiz-adv-x="525" 
d="M477 774l-134 -148h-164l-135 148h121l95 -90l96 90h121zM477 153q0 -167 -228 -167q-53 0 -111 7.5t-81 14.5v97q124 -10 185 -10q60 0 82 12t22 42q0 28 -16.5 40.5t-82.5 39.5l-41 17q-83 35 -120.5 75t-37.5 104q0 82 53.5 117t163.5 35q55 0 112 -7t81 -15v-129h-92
l-10 47q-39 3 -80 3q-54 0 -76 -10t-22 -38q0 -26 17 -41.5t69 -37.5l45 -19q98 -41 133 -76.5t35 -100.5z" />
    <glyph glyph-name="aacute.alt" unicode="&#xe281;" horiz-adv-x="640" 
d="M597 0h-174v29q-69 -43 -158 -43q-102 0 -156.5 62.5t-54.5 188.5v80q0 145 65 202.5t200 57.5q117 0 228 -14v-453l50 -5v-105zM415 122v340q-45 5 -101 5q-68 0 -98 -30t-30 -120v-80q0 -75 26.5 -107.5t88.5 -32.5q57 0 114 25zM526 774l-158 -148h-127l132 148h153z
" />
    <glyph glyph-name="agrave.alt" unicode="&#xe282;" horiz-adv-x="640" 
d="M597 0h-174v29q-69 -43 -158 -43q-102 0 -156.5 62.5t-54.5 188.5v80q0 145 65 202.5t200 57.5q117 0 228 -14v-453l50 -5v-105zM415 122v340q-45 5 -101 5q-68 0 -98 -30t-30 -120v-80q0 -75 26.5 -107.5t88.5 -32.5q57 0 114 25zM400 626h-127l-158 148h154z" />
    <glyph glyph-name="acircumflex.alt" unicode="&#xe283;" horiz-adv-x="640" 
d="M597 0h-174v29q-69 -43 -158 -43q-102 0 -156.5 62.5t-54.5 188.5v80q0 145 65 202.5t200 57.5q117 0 228 -14v-453l50 -5v-105zM415 122v340q-45 5 -101 5q-68 0 -98 -30t-30 -120v-80q0 -75 26.5 -107.5t88.5 -32.5q57 0 114 25zM518 626h-121l-96 91l-95 -91h-121
l135 148h164z" />
    <glyph glyph-name="adieresis.alt" unicode="&#xe284;" horiz-adv-x="640" 
d="M597 0h-174v29q-69 -43 -158 -43q-102 0 -156.5 62.5t-54.5 188.5v80q0 145 65 202.5t200 57.5q117 0 228 -14v-453l50 -5v-105zM415 122v340q-45 5 -101 5q-68 0 -98 -30t-30 -120v-80q0 -75 26.5 -107.5t88.5 -32.5q57 0 114 25zM478 644h-111v124h111v-124zM237 644
v124h-111v-124h111z" />
    <glyph glyph-name="atilde.alt" unicode="&#xe285;" horiz-adv-x="640" 
d="M597 0h-174v29q-69 -43 -158 -43q-102 0 -156.5 62.5t-54.5 188.5v80q0 145 65 202.5t200 57.5q117 0 228 -14v-453l50 -5v-105zM415 122v340q-45 5 -101 5q-68 0 -98 -30t-30 -120v-80q0 -75 26.5 -107.5t88.5 -32.5q57 0 114 25zM532 755q0 -133 -109 -133
q-53 0 -99 31l-53 35q-31 20 -50 20t-26 -12.5t-7 -40.5v-28h-84v28q0 135 113 135q48 0 92 -29l53 -35q35 -23 56 -23q18 0 24.5 12t6.5 40v29h83v-29z" />
    <glyph glyph-name="aring.alt" unicode="&#xe286;" horiz-adv-x="640" 
d="M450 725q0 -57 -35.5 -87t-92.5 -30q-58 0 -94.5 30t-36.5 87q0 56 36.5 86.5t94.5 30.5q57 0 92.5 -30t35.5 -87zM377 725q0 51 -55 51q-56 0 -56 -51t56 -51q55 0 55 51zM597 0h-174v29q-69 -43 -158 -43q-102 0 -156.5 62.5t-54.5 188.5v80q0 145 65 202.5t200 57.5
q117 0 228 -14v-453l50 -5v-105zM415 122v340q-45 5 -101 5q-68 0 -98 -30t-30 -120v-80q0 -75 26.5 -107.5t88.5 -32.5q57 0 114 25z" />
    <glyph glyph-name="eacute.alt" unicode="&#xe288;" horiz-adv-x="607" 
d="M507 774l-158 -148h-127l132 148h153zM560 240h-376v-10q0 -34 4 -54.5t18 -41.5t45.5 -30.5t81.5 -9.5q59 0 104 5l9 54h91v-140q-125 -27 -214 -27q-83 0 -138 19.5t-83.5 58.5t-39 84t-10.5 108v46q0 137 65 206t190 69q253 0 253 -275v-62zM429 327v8q0 21 -1.5 37
t-9 36t-20 32.5t-36 21.5t-55.5 9q-40 0 -66 -12.5t-37.5 -35t-15 -42t-3.5 -46.5v-8h244z" />
    <glyph glyph-name="egrave.alt" unicode="&#xe289;" horiz-adv-x="607" 
d="M560 240h-376v-10q0 -34 4 -54.5t18 -41.5t45.5 -30.5t81.5 -9.5q59 0 104 5l9 54h91v-140q-125 -27 -214 -27q-83 0 -138 19.5t-83.5 58.5t-39 84t-10.5 108v46q0 137 65 206t190 69q253 0 253 -275v-62zM429 327v8q0 21 -1.5 37t-9 36t-20 32.5t-36 21.5t-55.5 9
q-40 0 -66 -12.5t-37.5 -35t-15 -42t-3.5 -46.5v-8h244zM406 626h-127l-158 148h154z" />
    <glyph glyph-name="ecircumflex.alt" unicode="&#xe28a;" horiz-adv-x="607" 
d="M560 240h-376v-10q0 -34 4 -54.5t18 -41.5t45.5 -30.5t81.5 -9.5q59 0 104 5l9 54h91v-140q-125 -27 -214 -27q-83 0 -138 19.5t-83.5 58.5t-39 84t-10.5 108v46q0 137 65 206t190 69q253 0 253 -275v-62zM429 327v8q0 21 -1.5 37t-9 36t-20 32.5t-36 21.5t-55.5 9
q-40 0 -66 -12.5t-37.5 -35t-15 -42t-3.5 -46.5v-8h244zM527 626h-121l-96 91l-95 -91h-121l135 148h164z" />
    <glyph glyph-name="edieresis.alt" unicode="&#xe28b;" horiz-adv-x="607" 
d="M560 240h-376v-10q0 -34 4 -54.5t18 -41.5t45.5 -30.5t81.5 -9.5q59 0 104 5l9 54h91v-140q-125 -27 -214 -27q-83 0 -138 19.5t-83.5 58.5t-39 84t-10.5 108v46q0 137 65 206t190 69q253 0 253 -275v-62zM429 327v8q0 21 -1.5 37t-9 36t-20 32.5t-36 21.5t-55.5 9
q-40 0 -66 -12.5t-37.5 -35t-15 -42t-3.5 -46.5v-8h244zM476 644h-111v124h111v-124zM235 644v124h-111v-124h111z" />
    <glyph glyph-name="uacute.alt" unicode="&#xe296;" horiz-adv-x="644" 
d="M558 775l-158 -148h-127l132 148h153zM584 252q0 -137 -58.5 -201.5t-187.5 -64.5q-126 0 -185.5 64.5t-59.5 201.5v201l-49 5v105h181v-311q0 -85 25 -119.5t88 -34.5q64 0 89 34.5t25 119.5v201l-49 5v105h181v-311z" />
    <glyph glyph-name="ugrave.alt" unicode="&#xe297;" horiz-adv-x="644" 
d="M424 626h-127l-158 148h154zM584 252q0 -137 -58.5 -201.5t-187.5 -64.5q-126 0 -185.5 64.5t-59.5 201.5v201l-49 5v105h181v-311q0 -85 25 -119.5t88 -34.5q64 0 89 34.5t25 119.5v201l-49 5v105h181v-311z" />
    <glyph glyph-name="ucircumflex.alt" unicode="&#xe298;" horiz-adv-x="644" 
d="M584 252q0 -137 -58.5 -201.5t-187.5 -64.5q-126 0 -185.5 64.5t-59.5 201.5v201l-49 5v105h181v-311q0 -85 25 -119.5t88 -34.5q64 0 89 34.5t25 119.5v201l-49 5v105h181v-311zM555 627h-121l-96 91l-95 -91h-121l135 148h164z" />
    <glyph glyph-name="udieresis.alt" unicode="&#xe299;" horiz-adv-x="644" 
d="M584 252q0 -137 -58.5 -201.5t-187.5 -64.5q-126 0 -185.5 64.5t-59.5 201.5v201l-49 5v105h181v-311q0 -85 25 -119.5t88 -34.5q64 0 89 34.5t25 119.5v201l-49 5v105h181v-311zM513 645h-111v124h111v-124zM272 645v124h-111v-124h111z" />
    <glyph glyph-name="dollar.taboldstyle" unicode="&#xe42f;" horiz-adv-x="627" 
d="M531 163q0 -146 -161 -171v-97h-110v94q-90 3 -148 17v143h84l9 -52q56 -2 91 -2q101 0 101 67q0 21 -18 36t-68 35l-72 29q-72 29 -107 69t-35 108q0 137 163 158v90h110v-87q89 -4 143 -19v-135h-84l-9 47q-28 2 -90 2q-51 0 -76 -10.5t-25 -39.5q0 -23 17 -39.5
t62 -35.5l75 -31q80 -33 114 -70.5t34 -105.5z" />
    <glyph glyph-name="Euro.taboldstyle" unicode="&#xe430;" horiz-adv-x="636" 
d="M541 1q-60 -16 -155 -16q-121 0 -183 46.5t-74 162.5h-51v65h49v63h-49v65h51q10 121 72 168t185 47q93 0 155 -16v-140h-80l-8 43q-16 1 -53 1q-66 0 -96.5 -20.5t-37.5 -82.5h246l-17 -65h-232v-63h215l-16 -65h-196q5 -56 36.5 -77.5t97.5 -21.5q69 0 141 6v-100z" />
    <glyph glyph-name="franc.taboldstyle" unicode="&#xe431;" horiz-adv-x="635" 
d="M531 250h-250v-68h129v-79h-129v-103h-139v103h-50v79h50v302l-38 7v103h439v-155h-86l-7 41h-169v-123h250v-107z" />
    <glyph glyph-name="sterling.taboldstyle" unicode="&#xe432;" horiz-adv-x="625" 
d="M529 0h-411v88q38 38 38 87v79h-61v97h61v46q0 109 47.5 157t159.5 48q74 0 166 -17v-138h-79l-9 43q-36 2 -53 2q-63 0 -83 -18.5t-20 -76.5v-46h172v-97h-172v-79q0 -38 -20 -67h264v-108z" />
    <glyph glyph-name="yen.taboldstyle" unicode="&#xe433;" horiz-adv-x="671" 
d="M605 154h-205v-154h-130v154h-203v80h195l-42 77h-153v80h114l-55 101l-60 9v88h153l78 -158q0 -1 37 -84h2q37 83 37 84l79 158h154v-88l-63 -9l-54 -101h116v-80h-156l-41 -77h197v-80z" />
    <glyph glyph-name="lira.taboldstyle" unicode="&#xe434;" horiz-adv-x="626" 
d="M529 0h-411v88q37 37 37 86v11h-60v66h60v57h-60v66h60v19q0 109 47.5 157t160.5 48q88 0 166 -16v-135h-77l-7 38q-36 2 -54 2q-65 0 -85 -18t-20 -76v-19h171v-66h-171v-57h171v-66h-171v-12q0 -38 -21 -65h264v-108z" />
    <glyph glyph-name="florin.taboldstyle" unicode="&#xe435;" horiz-adv-x="622" 
d="M530 589l-9 -83q-35 3 -63 3q-27 0 -39 -9.5t-17 -42.5l-15 -99h123l-13 -94h-122l-28 -219q-10 -79 -47 -110.5t-105 -31.5q-53 0 -103 11l11 84q40 -3 65 -3q27 0 37.5 12t16.5 44l27 213h-109l12 94h110l15 105q11 78 49.5 108.5t104.5 30.5q49 0 99 -13z" />
    <glyph glyph-name="numbersign.taboldstyle" unicode="&#xe436;" horiz-adv-x="685" 
d="M593 141h-107l-16 -141h-105l16 141h-115l-16 -141h-105l16 141h-69v87h78l15 124h-93v87h102l18 150h105l-17 -150h113l18 150h105l-17 -150h74v-87h-84l-14 -124h98v-87zM404 352h-114l-14 -124h114z" />
    <glyph glyph-name="colonmonetary.taboldstyle" unicode="&#xe437;" horiz-adv-x="615" 
d="M516 4q-25 -7 -62 -10v-99h-80v92h-14q-30 0 -55 3v-95h-80v118q-125 54 -125 243v77q0 186 125 243v111h80v-89q20 4 55 4h14v85h80v-92q35 -4 62 -11v-145h-84l-9 46q-15 1 -47 1q-75 0 -107 -33t-32 -120v-77q0 -87 32 -120.5t107 -33.5q72 0 140 7v-105z" />
    <glyph glyph-name="currency.taboldstyle" unicode="&#xe438;" horiz-adv-x="651" 
d="M594 108l-71 -72l-80 78q-55 -32 -117 -32q-64 0 -118 32l-81 -79l-71 71l81 80q-34 54 -34 116q0 65 34 115l-81 80l71 70l81 -78q54 33 118 33q66 0 118 -33l79 77l71 -70l-79 -79q34 -56 34 -115q0 -64 -34 -117zM458 302q0 61 -38 95.5t-94 34.5q-57 0 -94.5 -34.5
t-37.5 -95.5q0 -63 37.5 -96.5t94.5 -33.5t94.5 33.5t37.5 96.5z" />
    <glyph glyph-name="peseta.taboldstyle" unicode="&#xe439;" horiz-adv-x="624" 
d="M252 0h-208v96l40 5v255h-49v93h49v53l-40 7v79q129 11 238 11q74 0 124 -11.5t87 -46t46 -92.5h50v-93h-50q-15 -84 -80 -118.5t-173 -34.5q-40 0 -74 3v-105l40 -5v-96zM412 399v11q0 47 -31 63.5t-96 16.5q-31 0 -73 -3v-171q45 -3 71 -3q64 0 96.5 19.5t32.5 66.5z
" />
    <glyph glyph-name="percent.oldstyle" unicode="&#xe43a;" horiz-adv-x="921" 
d="M858 166q0 -177 -152 -177t-152 177v8q0 177 152 177t152 -177v-8zM762 166v8q0 56 -14 77.5t-42 21.5t-41.5 -21.5t-13.5 -77.5v-8q0 -56 13.5 -77.5t41.5 -21.5t42 21.5t14 77.5zM706 579l-384 -579h-106l384 579h106zM367 406q0 -176 -152 -176q-153 0 -153 176v8
q0 176 153 176q152 0 152 -176v-8zM271 405v9q0 56 -14 77.5t-42 21.5t-42 -21.5t-14 -77.5v-9q0 -55 14 -76t42 -21t42 21t14 76z" />
    <glyph glyph-name="perthousand.oldstyle" unicode="&#xe43b;" horiz-adv-x="1276" 
d="M1214 166q0 -177 -152 -177t-152 177v8q0 177 152 177t152 -177v-8zM1118 166v8q0 56 -14 77.5t-42 21.5t-42 -21.5t-14 -77.5v-8q0 -56 14 -77.5t42 -21.5t42 21.5t14 77.5zM858 166q0 -177 -152 -177t-152 177v8q0 177 152 177t152 -177v-8zM762 166v8q0 56 -14 77.5
t-42 21.5t-41.5 -21.5t-13.5 -77.5v-8q0 -56 13.5 -77.5t41.5 -21.5t42 21.5t14 77.5zM706 579l-384 -579h-106l384 579h106zM367 406q0 -176 -152 -176q-153 0 -153 176v8q0 176 153 176q152 0 152 -176v-8zM271 405v9q0 56 -14 77.5t-42 21.5t-42 -21.5t-14 -77.5v-9
q0 -55 14 -76t42 -21t42 21t14 76z" />
    <glyph glyph-name="ampersand.alt" unicode="&#xe43d;" horiz-adv-x="780" 
d="M732 0h-152l-41 40q-33 -25 -90.5 -40t-122.5 -15q-270 0 -270 194v5q0 66 28.5 111.5t106.5 86.5l-9 9q-50 50 -72 90.5t-22 93.5v4q0 90 62.5 134.5t178.5 44.5q118 0 176.5 -40.5t58.5 -130.5v-5q0 -66 -35.5 -114t-141.5 -103l162 -160q28 62 28 176v6h108v-6
q0 -167 -57 -253l104 -102v-26zM465 113l-191 188q-46 -22 -63.5 -50t-17.5 -68v-4q0 -49 37 -71.5t96 -22.5q92 0 139 28zM429 575v5q0 39 -25 54.5t-75 15.5q-106 0 -106 -71v-4q0 -29 16 -54.5t66 -75.5l5 -5q72 40 95.5 68.5t23.5 66.5z" />
    <glyph glyph-name="a.alt2" unicode="&#xe43e;" horiz-adv-x="605" 
d="M563 0h-172v37q-74 -51 -177 -51q-80 0 -123 41t-43 120v19q0 44 13.5 75.5t35 50t57 29t72 14t88.5 3.5h67v34q0 60 -21.5 78t-96.5 18q-62 0 -176 -14v93q99 30 199 30q131 0 179.5 -46.5t48.5 -158.5v-262l49 -5v-105zM385 115v141h-71q-78 0 -108 -16t-30 -70v-22
q0 -36 20 -51t59 -15q72 0 130 33z" />
    <glyph glyph-name="ampersandalt.sc" unicode="&#xe451;" horiz-adv-x="682" 
d="M626 0h-128l-34 33q-28 -19 -79.5 -31.5t-106.5 -12.5q-221 0 -221 158v4q0 51 26.5 86.5t87.5 66.5l-12 12q-38 38 -54.5 70.5t-16.5 73.5v4q0 142 206 142q203 0 203 -140v-5q0 -48 -30.5 -90.5t-122.5 -83.5l128 -118q21 43 21 132v4h101v-5q0 -71 -11.5 -115
t-39.5 -83l83 -75v-27zM396 96l-153 142q-32 -21 -44.5 -38.5t-12.5 -49.5v-4q0 -70 103 -70q70 0 107 20zM373 454v4q0 50 -79 50q-86 0 -86 -50v-5q0 -17 7.5 -32.5t16 -25t31.5 -32.5l14 -14q56 31 76 54t20 51z" />
    <glyph glyph-name="aacute.alt2" unicode="&#xe456;" horiz-adv-x="605" 
d="M511 774l-158 -148h-127l132 148h153zM563 0h-172v37q-74 -51 -177 -51q-80 0 -123 41t-43 120v19q0 44 13.5 75.5t35 50t57 29t72 14t88.5 3.5h67v34q0 60 -21.5 78t-96.5 18q-62 0 -176 -14v93q99 30 199 30q131 0 179.5 -46.5t48.5 -158.5v-262l49 -5v-105zM385 115
v141h-71q-78 0 -108 -16t-30 -70v-22q0 -36 20 -51t59 -15q72 0 130 33z" />
    <glyph glyph-name="acircumflex.alt2" unicode="&#xe458;" horiz-adv-x="605" 
d="M563 0h-172v37q-74 -51 -177 -51q-80 0 -123 41t-43 120v19q0 44 13.5 75.5t35 50t57 29t72 14t88.5 3.5h67v34q0 60 -21.5 78t-96.5 18q-62 0 -176 -14v93q99 30 199 30q131 0 179.5 -46.5t48.5 -158.5v-262l49 -5v-105zM385 115v141h-71q-78 0 -108 -16t-30 -70v-22
q0 -36 20 -51t59 -15q72 0 130 33zM518 626h-121l-96 91l-95 -91h-121l135 148h164z" />
    <glyph glyph-name="adieresis.alt2" unicode="&#xe459;" horiz-adv-x="605" 
d="M563 0h-172v37q-74 -51 -177 -51q-80 0 -123 41t-43 120v19q0 44 13.5 75.5t35 50t57 29t72 14t88.5 3.5h67v34q0 60 -21.5 78t-96.5 18q-62 0 -176 -14v93q99 30 199 30q131 0 179.5 -46.5t48.5 -158.5v-262l49 -5v-105zM385 115v141h-71q-78 0 -108 -16t-30 -70v-22
q0 -36 20 -51t59 -15q72 0 130 33zM484 644h-111v124h111v-124zM243 644v124h-111v-124h111z" />
    <glyph glyph-name="agrave.alt2" unicode="&#xe45a;" horiz-adv-x="605" 
d="M405 626h-127l-158 148h154zM563 0h-172v37q-74 -51 -177 -51q-80 0 -123 41t-43 120v19q0 44 13.5 75.5t35 50t57 29t72 14t88.5 3.5h67v34q0 60 -21.5 78t-96.5 18q-62 0 -176 -14v93q99 30 199 30q131 0 179.5 -46.5t48.5 -158.5v-262l49 -5v-105zM385 115v141h-71
q-78 0 -108 -16t-30 -70v-22q0 -36 20 -51t59 -15q72 0 130 33z" />
    <glyph glyph-name="aring.alt2" unicode="&#xe45d;" horiz-adv-x="605" 
d="M440 733q0 -57 -35.5 -87t-92.5 -30q-58 0 -94.5 30t-36.5 87q0 56 36.5 86.5t94.5 30.5q57 0 92.5 -30t35.5 -87zM367 733q0 51 -55 51q-56 0 -56 -51t56 -51q55 0 55 51zM563 0h-172v37q-74 -51 -177 -51q-80 0 -123 41t-43 120v19q0 44 13.5 75.5t35 50t57 29t72 14
t88.5 3.5h67v34q0 60 -21.5 78t-96.5 18q-62 0 -176 -14v93q99 30 199 30q131 0 179.5 -46.5t48.5 -158.5v-262l49 -5v-105zM385 115v141h-71q-78 0 -108 -16t-30 -70v-22q0 -36 20 -51t59 -15q72 0 130 33z" />
    <glyph glyph-name="atilde.alt2" unicode="&#xe460;" horiz-adv-x="605" 
d="M563 0h-172v37q-74 -51 -177 -51q-80 0 -123 41t-43 120v19q0 44 13.5 75.5t35 50t57 29t72 14t88.5 3.5h67v34q0 60 -21.5 78t-96.5 18q-62 0 -176 -14v93q99 30 199 30q131 0 179.5 -46.5t48.5 -158.5v-262l49 -5v-105zM385 115v141h-71q-78 0 -108 -16t-30 -70v-22
q0 -36 20 -51t59 -15q72 0 130 33zM522 755q0 -133 -109 -133q-53 0 -99 31l-53 35q-31 20 -50 20t-26 -12.5t-7 -40.5v-28h-84v28q0 135 113 135q48 0 92 -29l53 -35q35 -23 56 -23q18 0 24.5 12t6.5 40v29h83v-29z" />
    <glyph glyph-name="g.alt2" unicode="&#xe461;" horiz-adv-x="610" 
d="M545 -15q0 -98 -52 -147.5t-188 -49.5q-115 0 -219 22v131h93l7 -48q99 -3 109 -3q75 0 96.5 21t21.5 74v17q-54 -9 -101 -9q-127 0 -192.5 61.5t-65.5 199.5v62q0 134 65 197.5t204 63.5q133 0 222 -23v-569zM414 110v352q-55 5 -93 5q-78 0 -107 -35.5t-29 -116.5v-61
q0 -85 30.5 -118t104.5 -33q48 0 94 7z" />
    <glyph glyph-name="zero.slash" unicode="&#xe466;" 
d="M627 316q0 -162 -71.5 -246.5t-210.5 -84.5q-109 0 -178 52l-34 -50h-111l84 121q-44 80 -44 208v110q0 163 71.5 247.5t211.5 84.5q109 0 177 -53l35 50h111l-85 -122q44 -80 44 -207v-110zM202 316q0 -36 3 -66l242 347q-34 44 -103 44q-68 0 -105 -48.5t-37 -166.5
v-110zM487 316v110q0 39 -4 64l-241 -346q34 -43 102 -43q69 0 106 48.5t37 166.5z" />
    <glyph glyph-name="DieresisAcute.sc" unicode="&#xe467;" horiz-adv-x="546" 
d="M1 715h106v124h-106v-124zM149 694l103 163h148l-129 -163h-122zM438 715h106v124h-106v-124z" />
    <glyph glyph-name="DieresisGrave.sc" unicode="&#xe468;" horiz-adv-x="546" 
d="M544 715h-106v124h106v-124zM293 857l103 -163h-122l-129 163h148zM107 715h-106v124h106v-124z" />
    <glyph glyph-name="commaaccent.sc" unicode="&#xe469;" horiz-adv-x="459" 
d="M314 -64l-92 -141h-117l67 141h142z" />
    <glyph glyph-name="dblGrave.sc" unicode="&#xe46a;" horiz-adv-x="547" 
d="M364 626l-158 149h147l132 -149h-121zM139 626l-158 149h147l131 -149h-120z" />
    <glyph glyph-name="commaaccent.cap" unicode="&#xe46b;" horiz-adv-x="518" 
d="M344 -64l-92 -141h-117l67 141h142z" />
    <glyph glyph-name="Ogonek" unicode="&#xe46c;" horiz-adv-x="462" 
d="M366 -203q-48 -14 -110 -14q-67 0 -103 25.5t-36 73.5q0 40 30.5 72t104.5 61h118q-84 -39 -112.5 -65t-28.5 -48q0 -39 57 -39q12 0 80 5v-71z" />
    <glyph glyph-name="cent.taboldstyle" unicode="&#xe500;" horiz-adv-x="616" 
d="M516 4q-41 -11 -117 -15v-104h-111v109q-189 34 -189 262v77q0 227 189 261v103h111v-97q80 -6 117 -16v-145h-84l-9 48q-7 0 -23 0.5t-25 0.5q-76 0 -108 -34t-32 -121v-77q0 -87 32 -121t108 -34q61 0 141 6v-103z" />
    <glyph glyph-name="commaaccent.alt" unicode="&#xe504;" horiz-adv-x="518" 
d="M378 771l-68 -141h-142l93 141h117z" />
    <glyph glyph-name="Qalt.sc" unicode="&#xe595;" horiz-adv-x="594" 
d="M544 253q0 -231 -191 -261v-134h-119v136q-184 33 -184 259v62q0 137 66 201t181 64q247 0 247 -265v-62zM417 254v60q0 88 -30.5 123t-89.5 35q-58 0 -89 -36t-31 -122v-60q0 -159 120 -159q59 0 89.5 35.5t30.5 123.5z" />
    <glyph glyph-name="undercommaaccent" unicode="&#xf005;" horiz-adv-x="519" 
d="M346 -64l-94 -141h-117l69 141h142z" />
    <glyph glyph-name="dotlessj" unicode="&#xf6be;" horiz-adv-x="313" 
d="M231 -45q0 -95 -36 -134t-123 -39q-53 0 -85 8v93q15 -1 57 -1q34 0 44.5 14.5t10.5 58.5v496l-50 5v107h182v-608z" />
    <glyph glyph-name="commaaccent" unicode="&#xf6c3;" horiz-adv-x="518" 
d="M344 -64l-92 -141h-117l67 141h142z" />
    <glyph glyph-name="Acute" unicode="&#xf6c9;" horiz-adv-x="476" 
d="M414 944l-158 -149h-127l132 149h153z" />
    <glyph glyph-name="Caron" unicode="&#xf6ca;" horiz-adv-x="505" 
d="M469 944l-134 -149h-164l-135 149h121l95 -91l96 91h121z" />
    <glyph glyph-name="Dieresis" unicode="&#xf6cb;" horiz-adv-x="495" 
d="M428 814h-111v123h111v-123zM179 814v123h-111v-123h111z" />
    <glyph glyph-name="DieresisAcute" unicode="&#xf6cc;" horiz-adv-x="546" 
d="M544 815h-105v124h105v-124zM252 957h149l-130 -163h-122zM107 815h-106v124h106v-124z" />
    <glyph glyph-name="DieresisGrave" unicode="&#xf6cd;" horiz-adv-x="546" 
d="M544 815h-106v124h106v-124zM293 957l103 -163h-122l-129 163h148zM107 815h-106v124h106v-124z" />
    <glyph glyph-name="Grave" unicode="&#xf6ce;" horiz-adv-x="476" 
d="M337 795h-127l-158 149h154z" />
    <glyph glyph-name="Hungarumlaut" unicode="&#xf6cf;" horiz-adv-x="543" 
d="M367 942l-158 -149h-121l132 149h147zM592 942l-158 -149h-120l131 149h147z" />
    <glyph glyph-name="Macron" unicode="&#xf6d0;" horiz-adv-x="484" 
d="M430 823h-376v89h376v-89z" />
    <glyph glyph-name="cyrBreve" unicode="&#xf6d1;" horiz-adv-x="490" 
d="M433 781q-7 -77 -55.5 -117t-132.5 -40t-133 40t-56 117h85q6 -46 31.5 -64.5t72.5 -18.5t72.5 18.5t31.5 64.5h84z" />
    <glyph glyph-name="cyrFlex" unicode="&#xf6d2;" horiz-adv-x="490" 
d="M433 625h-84q-6 46 -31.5 64.5t-72.5 18.5t-72.5 -18.5t-31.5 -64.5h-85q7 77 56 117.5t133 40.5t132.5 -40t55.5 -118z" />
    <glyph glyph-name="dblGrave" unicode="&#xf6d3;" horiz-adv-x="543" 
d="M492 626h-121l-158 148h147zM246 626l-132 148h-147l159 -148h120z" />
    <glyph glyph-name="cyrbreve" unicode="&#xf6d4;" horiz-adv-x="490" 
d="M433 781q-7 -77 -55.5 -117t-132.5 -40t-133 40t-56 117h85q6 -46 31.5 -64.5t72.5 -18.5t72.5 18.5t31.5 64.5h84z" />
    <glyph glyph-name="cyrflex" unicode="&#xf6d5;" horiz-adv-x="490" 
d="M433 625h-84q-6 46 -31.5 64.5t-72.5 18.5t-72.5 -18.5t-31.5 -64.5h-85q7 77 56 117.5t133 40.5t132.5 -40t55.5 -118z" />
    <glyph glyph-name="dblgrave" unicode="&#xf6d6;" horiz-adv-x="543" 
d="M492 626h-121l-158 148h147zM246 626l-132 148h-147l159 -148h120z" />
    <glyph glyph-name="one.fitted" unicode="&#xf6dc;" 
d="M601 0h-511v108l187 6v498l-187 -48v112l224 71h101v-633l186 -6v-108z" />
    <glyph glyph-name="rupiah" unicode="&#xf6dd;" horiz-adv-x="1313" 
d="M286 0h-238v106l51 5v521l-51 5v106q140 5 267 5q74 0 128 -9t101.5 -33t72.5 -71.5t25 -118.5v-7q0 -152 -128 -205l120 -194l55 -4v-106h-157l-159 274q-17 -1 -55 -1h-83v-162l51 -5v-106zM505 508v6q0 69 -43 93t-144 24q-54 0 -83 -1v-244q28 -1 85 -1q99 0 142 27
t43 96zM1249 246q0 -260 -249 -260q-54 0 -112 12v-93l49 -5v-105h-230v105l49 5v548l-49 5v105h173v-37q72 51 165 51q204 0 204 -251v-80zM1117 246v80q0 77 -25.5 108t-82.5 31q-52 0 -122 -31v-326q65 -12 105 -12q64 0 94.5 31.5t30.5 118.5z" />
    <glyph glyph-name="cent.inferior" unicode="&#xf6df;" horiz-adv-x="399" 
d="M352 1q-34 -9 -85 -11v-77h-89v82q-132 31 -132 204v45q0 177 132 204v78h89v-72q35 -2 85 -11v-115h-67l-6 35q-9 1 -31 1q-53 0 -74 -27.5t-21 -92.5v-45q0 -66 20.5 -92.5t78.5 -26.5q60 0 100 5v-84z" />
    <glyph glyph-name="cent.superior" unicode="&#xf6e0;" horiz-adv-x="399" 
d="M354 305q-34 -9 -85 -11v-77h-89v82q-132 31 -132 204v45q0 177 132 204v78h89v-72q56 -3 85 -12v-114h-67l-6 35q-4 0 -13 0.5t-18 0.5q-53 0 -74 -27.5t-21 -92.5v-45q0 -66 20.5 -92.5t78.5 -26.5q44 0 100 4v-83z" />
    <glyph glyph-name="comma.inferior" unicode="&#xf6e1;" horiz-adv-x="258" 
d="M203 95l-73 -154h-80l53 154h100z" />
    <glyph glyph-name="comma.superior" unicode="&#xf6e2;" horiz-adv-x="258" 
d="M203 400l-72 -155h-81l53 155h100z" />
    <glyph glyph-name="dollar.inferior" unicode="&#xf6e3;" horiz-adv-x="432" 
d="M383 127q0 -56 -32 -89.5t-90 -42.5v-81h-92v77q-57 3 -112 14v114h70l7 -44q40 -2 65 -2q78 0 78 48q0 18 -12.5 28.5t-44.5 23.5l-68 27q-53 21 -80 51t-27 81q0 102 124 120v78h92v-76q64 -3 108 -13v-108h-69l-7 38q-33 3 -66 3q-78 0 -78 -41q0 -16 12.5 -27.5
t42.5 -23.5l66 -26q58 -22 85.5 -51.5t27.5 -77.5z" />
    <glyph glyph-name="dollar.superior" unicode="&#xf6e4;" horiz-adv-x="432" 
d="M385 429q0 -55 -32 -89t-90 -43v-81h-92v78q-56 1 -112 13v114h70l7 -44q10 0 32 -0.5t33 -0.5q78 0 78 47q0 18 -11.5 27t-45.5 24l-68 30q-54 24 -80.5 52t-26.5 78q0 103 124 120v78h92v-75q66 -4 108 -14v-108h-69l-7 38q-33 3 -66 3q-78 0 -78 -40q0 -16 11.5 -25.5
t43.5 -22.5l66 -26q58 -23 85.5 -53.5t27.5 -79.5z" />
    <glyph glyph-name="hyphen.inferior" unicode="&#xf6e5;" horiz-adv-x="258" 
d="M203 161h-149v78h149v-78z" />
    <glyph glyph-name="hyphen.superior" unicode="&#xf6e6;" horiz-adv-x="258" 
d="M203 466h-149v78h149v-78z" />
    <glyph glyph-name="period.inferior" unicode="&#xf6e7;" horiz-adv-x="215" 
d="M157 0h-99v95h99v-95z" />
    <glyph glyph-name="period.superior" unicode="&#xf6e8;" horiz-adv-x="215" 
d="M157 305h-99v95h99v-95z" />
    <glyph glyph-name="a.superior" unicode="&#xf6e9;" horiz-adv-x="438" 
d="M391 310h-122v24q-50 -32 -115 -32q-107 0 -107 99v12q0 28 9 47.5t23 30t38.5 16.5t47 7.5t57.5 1.5h39v19q0 33 -13 43.5t-57 10.5q-12 0 -46 -2l-6 -28h-65v84q57 20 136 20q85 0 118 -29.5t33 -100.5v-146l30 -3v-74zM265 385v78h-42q-45 0 -62.5 -8.5t-17.5 -38.5
v-12q0 -38 46 -38q43 0 76 19z" />
    <glyph glyph-name="b.superior" unicode="&#xf6ea;" horiz-adv-x="442" 
d="M395 469q0 -89 -44 -128t-134 -39q-70 0 -156 10v395l-30 3v73h130v-132q34 14 79 14q79 0 117 -39t38 -122v-35zM295 469v36q0 46 -15 63.5t-53 17.5q-42 0 -66 -11v-192q4 0 24 -1.5t34 -1.5q41 0 58.5 19.5t17.5 69.5z" />
    <glyph glyph-name="d.superior" unicode="&#xf6eb;" horiz-adv-x="459" 
d="M412 310h-123v20q-45 -29 -103 -29q-66 0 -102.5 40.5t-36.5 121.5v36q0 88 42 126t120 38q39 0 72 -6v61l-32 3v61h132v-395l31 -3v-74zM282 393v187q-42 6 -61 6q-39 0 -56.5 -17.5t-17.5 -69.5v-36q0 -46 15.5 -65t53.5 -19q33 0 66 14z" />
    <glyph glyph-name="e.superior" unicode="&#xf6ec;" horiz-adv-x="436" 
d="M389 454h-243v-4q0 -18 2.5 -29t10.5 -23.5t27.5 -18t50.5 -5.5q61 0 135 9v-67q-60 -15 -144 -15q-102 0 -141.5 43t-39.5 123v28q0 84 44 126t127 42q90 0 130.5 -48.5t40.5 -123.5v-37zM290 510v5q0 22 -4 37t-21 27.5t-46 12.5q-72 0 -72 -77v-5h143z" />
    <glyph glyph-name="l.superior" unicode="&#xf6ee;" horiz-adv-x="254" 
d="M207 310h-160v74l30 3v318l-30 3v74h130v-395l30 -3v-74z" />
    <glyph glyph-name="m.superior" unicode="&#xf6ef;" horiz-adv-x="672" 
d="M625 310h-130v220q0 21 -1.5 31t-11 17.5t-29.5 7.5q-33 0 -69 -19q2 -13 2 -36v-221h-100v221q0 21 -1.5 30.5t-10 17t-27.5 7.5q-26 0 -70 -20v-179l30 -3v-74h-160v74l30 3v190l-30 3v74h125v-29q48 38 110 38q61 0 85 -39q59 39 116 39q68 0 90 -34t22 -97v-145
l30 -3v-74z" />
    <glyph glyph-name="o.superior" unicode="&#xf6f0;" horiz-adv-x="436" 
d="M389 466q0 -165 -171 -165t-171 165v33q0 164 171 164t171 -164v-33zM289 466v33q0 46 -16.5 66t-54.5 20t-55 -20t-17 -66v-33q0 -47 17 -67t55 -20t54.5 20t16.5 67z" />
    <glyph glyph-name="r.superior" unicode="&#xf6f1;" horiz-adv-x="334" 
d="M291 578q-61 0 -114 -19v-172l30 -3v-74h-161v74l30 3v190l-30 3v74h124v-29q44 38 121 38v-85z" />
    <glyph glyph-name="s.superior" unicode="&#xf6f2;" horiz-adv-x="383" 
d="M120 404l5 -33q36 -2 52 -2q34 0 47 8t13 25q0 15 -10 22.5t-48 21.5l-27 10q-55 20 -80 44t-25 66q0 54 36 75.5t110 21.5q91 0 131 -14v-84h-67l-5 29q-17 1 -50 1q-32 0 -44.5 -5.5t-12.5 -20.5q0 -14 10 -21.5t41 -18.5l31 -11q61 -22 85 -46t24 -66
q0 -105 -154 -105q-70 0 -129 13v90h67z" />
    <glyph glyph-name="t.superior" unicode="&#xf6f3;" horiz-adv-x="336" 
d="M293 311q-30 -10 -77 -10q-58 0 -82.5 24.5t-24.5 82.5v175l-67 6v65h67v85h100v-85h85v-71h-85v-174q0 -25 5 -32t26 -7q23 0 53 3v-62z" />
    <glyph glyph-name="h.superior" unicode="&#xf700;" horiz-adv-x="488" 
d="M441 310h-131v213q0 36 -11.5 49t-41.5 13q-40 0 -81 -17v-181l30 -3v-74h-160v74l31 3v318l-31 3v74h130v-144q52 25 112 25q68 0 95.5 -35t27.5 -104v-137l30 -3v-74z" />
    <glyph glyph-name="Dotaccent" unicode="&#xf71a;" horiz-adv-x="446" 
d="M290 821h-134v124h134v-124z" />
    <glyph glyph-name="Ring" unicode="&#xf71b;" horiz-adv-x="456" 
d="M357 892q0 -57 -35.5 -87t-92.5 -30q-58 0 -94.5 30t-36.5 87q0 56 36.5 86.5t94.5 30.5q57 0 92.5 -30t35.5 -87zM284 892q0 51 -55 51q-56 0 -56 -51t56 -51q55 0 55 51z" />
    <glyph glyph-name="Tilde" unicode="&#xf71c;" horiz-adv-x="491" 
d="M462 924q0 -133 -109 -133q-53 0 -99 31l-53 35q-31 20 -50 20t-26 -12.5t-7 -40.5v-28h-84v28q0 135 113 135q48 0 92 -29l53 -35q35 -23 56 -23q18 0 24.5 12t6.5 40v29h83v-29z" />
    <glyph glyph-name="Breve" unicode="&#xf71d;" horiz-adv-x="490" 
d="M433 951q-7 -78 -55.5 -118t-132.5 -40t-133 40.5t-56 117.5h85q6 -46 31.5 -64.5t72.5 -18.5t72.5 18.5t31.5 64.5h84z" />
    <glyph glyph-name="Circumflex" unicode="&#xf71e;" horiz-adv-x="505" 
d="M469 795h-121l-96 91l-95 -91h-121l135 149h164z" />
    <glyph glyph-name="Cedilla" unicode="&#xf722;" horiz-adv-x="460" 
d="M327 -64l-134 -141h-126l111 141h149z" />
    <glyph glyph-name="dollar.oldstyle" unicode="&#xf724;" horiz-adv-x="547" 
d="M491 163q0 -147 -162 -171v-97h-109v94q-90 3 -148 17v143h84l9 -52q54 -2 106 -2q86 0 86 62q0 22 -17.5 37t-67.5 37l-76 33q-73 32 -106 69.5t-33 105.5q0 137 163 158v90h109v-87q90 -4 144 -19v-135h-84l-9 47q-28 2 -106 2q-85 0 -85 -50q0 -23 15.5 -39t60.5 -36
l78 -35q83 -37 115.5 -71t32.5 -101z" />
    <glyph glyph-name="zero.oldstyle" unicode="&#xf730;" horiz-adv-x="676" 
d="M620 274q0 -141 -72 -215t-210 -74t-210 74t-72 215v38q0 141 71.5 214.5t210.5 73.5q138 0 210 -73.5t72 -214.5v-38zM481 274v38q0 172 -143 172q-142 0 -142 -172v-38q0 -172 142 -172q143 0 143 172z" />
    <glyph glyph-name="one.oldstyle" unicode="&#xf731;" horiz-adv-x="552" 
d="M502 0h-452v111l160 5v335l-160 -53v123l197 71h101v-476l154 -5v-111z" />
    <glyph glyph-name="two.oldstyle" unicode="&#xf732;" horiz-adv-x="624" 
d="M563 0h-504v117l177 106q118 72 155.5 111t37.5 84q0 39 -34.5 55t-117.5 16q-48 0 -107 -4l-9 -69h-92v157q124 27 227 27q149 0 211.5 -42t62.5 -129q0 -76 -49.5 -130t-185.5 -133l-80 -49h308v-117z" />
    <glyph glyph-name="three.oldstyle" unicode="&#xf733;" horiz-adv-x="628" 
d="M555 46q0 -117 -68.5 -168t-209.5 -51q-61 0 -127 10t-98 21v159h92l9 -73q72 -4 114 -4q80 0 114.5 23t34.5 89v19q0 51 -22.5 75.5t-94.5 24.5h-209v106h209q71 0 94 25.5t23 76.5v12q0 56 -31.5 76.5t-118.5 20.5q-65 0 -110 -4l-10 -68h-91v157q22 8 91.5 18
t130.5 10q142 0 210 -45.5t68 -156.5v-12q0 -117 -89 -162q89 -43 89 -158v-21z" />
    <glyph glyph-name="four.oldstyle" unicode="&#xf734;" horiz-adv-x="688" 
d="M635 23h-105v-94l50 -5v-79h-240v79l50 5v94h-346v117l354 448h132v-454h105v-111zM395 134v284l-231 -284h231z" />
    <glyph glyph-name="five.oldstyle" unicode="&#xf735;" horiz-adv-x="617" 
d="M531 60q0 -123 -72.5 -177t-213.5 -54q-135 0 -225 27v162h91l10 -73q85 -5 105 -5q91 0 127.5 26t36.5 93v23q0 63 -33 86.5t-130 23.5h-196l33 395h442v-171h-92l-9 57h-227l-16 -172h86q154 0 218.5 -51t64.5 -167v-23z" />
    <glyph glyph-name="six.oldstyle" unicode="&#xf736;" horiz-adv-x="664" 
d="M599 226q0 -56 -17 -99.5t-43.5 -69.5t-63.5 -43t-72.5 -23t-74.5 -6q-137 0 -209 67.5t-72 234.5v176q0 150 63.5 222.5t227.5 72.5q115 0 225 -26v-158h-91l-9 68q-51 3 -112 3q-56 0 -90 -10t-50 -34t-21 -50t-5 -71v-29q69 18 153 18q58 0 101 -8t81.5 -29.5
t58.5 -64t20 -105.5v-36zM461 226v32q0 67 -32 89.5t-103 22.5q-76 0 -141 -14v-89q0 -100 35.5 -137t108.5 -37q58 0 95 33.5t37 99.5z" />
    <glyph glyph-name="seven.oldstyle" unicode="&#xf737;" horiz-adv-x="618" 
d="M549 458l-329 -614h-151l345 629h-284l-9 -59h-91v173h519v-129z" />
    <glyph glyph-name="eight.oldstyle" unicode="&#xf738;" horiz-adv-x="689" 
d="M629 213q0 -61 -16.5 -104.5t-40.5 -67t-64.5 -36.5t-75.5 -16.5t-86 -3.5h-4q-51 0 -86 3.5t-75 16.5t-64.5 37t-40.5 67t-16 104v8q0 111 81 163q-79 50 -79 157v11q0 62 22 104.5t63.5 63.5t87.5 29.5t107 8.5h4q61 0 107 -8.5t88 -29.5t64 -63.5t22 -104.5v-11
q0 -106 -79 -157q81 -52 81 -163v-8zM492 215v7q0 60 -20.5 86t-72.5 26h-109q-52 0 -72.5 -26t-20.5 -86v-7q0 -76 35.5 -100t109.5 -24h4q74 0 110 24.5t36 99.5zM490 538v10q0 60 -36.5 81.5t-107.5 21.5h-4q-71 0 -107 -21.5t-36 -81.5v-10q0 -51 20 -76.5t71 -25.5h109
q51 0 71 25.5t20 76.5z" />
    <glyph glyph-name="nine.oldstyle" unicode="&#xf739;" horiz-adv-x="664" 
d="M599 123q0 -149 -64 -222.5t-228 -73.5q-115 0 -226 26v159h91l10 -69q53 -3 115 -3q55 0 88.5 10.5t49.5 34t20.5 50t4.5 70.5v29q-69 -18 -153 -18q-58 0 -100.5 8t-81 29.5t-58.5 64t-20 105.5v36q0 69 24.5 118.5t66 75t86 37t93.5 11.5q67 0 116 -14t88 -47.5
t58.5 -93.5t19.5 -146v-177zM460 230v88q0 99 -35 136.5t-108 37.5q-59 0 -96 -33.5t-37 -99.5v-32q0 -67 32 -89.5t103 -22.5q77 0 141 15z" />
    <glyph glyph-name="cent.oldstyle" unicode="&#xf7a2;" horiz-adv-x="543" 
d="M480 4q-43 -11 -118 -15v-104h-110v109q-189 34 -189 262v77q0 227 189 261v103h111v-97q80 -6 117 -16v-145h-85l-8 48q-7 0 -23 0.5t-25 0.5q-76 0 -108 -34t-32 -121v-77q0 -87 32 -121t108 -34q61 0 141 6v-103z" />
    <glyph glyph-name="longs_t" unicode="&#xfb05;" horiz-adv-x="718" 
d="M674 2q-48 -16 -114 -16q-84 0 -119.5 36.5t-35.5 124.5v313l-105 10v93h105v129q-36 3 -123 3q-40 0 -50 -16.5t-10 -63.5v-505l50 -5v-105h-232v105l50 5v505q0 89 33.5 132.5t124.5 43.5q107 0 163 -15h126v-213h137v-103h-137v-310q0 -42 8.5 -53t43.5 -11q21 0 85 4
v-88z" />
    <glyph glyph-name="T_h" unicode="&#xfb10;" horiz-adv-x="1197" 
d="M1152 0h-184v355q0 63 -19.5 86t-69.5 23q-73 0 -137 -30v-322l50 -5v-107h-234v107l50 5v513h-199v-515l50 -5v-105h-243v105l51 5v515h-123l-9 -59h-91v177h698v-207q80 42 175 42q101 0 143 -56t42 -165v-245l50 -5v-107z" />
    <glyph glyph-name="longs_h" unicode="&#xfb13;" horiz-adv-x="957" 
d="M272 0h-232v105l50 5v505q0 89 33.5 132.5t124.5 43.5q71 0 122 -14h137v-242q78 42 175 42q100 0 142.5 -56t42.5 -164v-247l49 -5v-105h-182v355q0 64 -19.5 87.5t-69.5 23.5q-69 0 -138 -31v-325l50 -5v-105h-231v105l50 5v581q-56 4 -95 4t-49 -16.5t-10 -63.5v-505
l50 -5v-105z" />
    <glyph glyph-name="longs_l" unicode="&#xfb14;" horiz-adv-x="600" 
d="M557 0h-231v105l49 5v580q-12 0 -44.5 2.5t-48.5 2.5q-40 0 -50 -16.5t-10 -63.5v-505l50 -5v-105h-232v105l50 5v505q0 89 33.5 132.5t124.5 43.5q58 0 124 -14h135v-667l50 -5v-105z" />
    <glyph glyph-name="longs_i" unicode="&#xfb15;" horiz-adv-x="630" 
d="M587 0h-232v105l50 5v343l-50 5v105h182v-453l50 -5v-105zM540 650h-137v127h137v-127zM368 692q-37 3 -87 3q-39 0 -49 -16.5t-10 -63.5v-505l50 -5v-105h-232v105l50 5v505q0 89 33.5 132.5t124.5 43.5q62 0 120 -14v-85z" />
    <glyph glyph-name="longs_longs" unicode="&#xfb16;" horiz-adv-x="645" 
d="M702 692q-40 3 -87 3q-39 0 -49 -16.5t-10 -63.5v-505l50 -5v-105h-232v105l50 5v505q0 89 33.5 132.5t124.5 43.5q62 0 120 -14v-85zM368 777v-85q-40 3 -87 3q-39 0 -49 -16.5t-10 -63.5v-505l49 -5v-105h-231v105l50 5v505q0 89 33.5 132.5t124.5 43.5q60 0 120 -14z
" />
    </font>
</defs>
</svg>
