<?xml version="1.0" standalone="no"?>
<!DOCTYPE svg PUBLIC "-//W3C//DTD SVG 1.1//EN" "http://www.w3.org/Graphics/SVG/1.1/DTD/svg11.dtd" >
<svg>
<metadata>
Created by FontForge 20110222 at Sat Sep 21 14:22:24 2013
 By Orthosie Webhosting
Copyright (c) 2007 Monotype Imaging Inc. Soho is designed by Sebastian Lester. All rights reserved.
</metadata>
<defs>
<font id="SohoGothicStdLight" horiz-adv-x="641" >
  <font-face 
    font-family="SohoGothicStdLight"
    font-weight="300"
    font-stretch="normal"
    units-per-em="1000"
    panose-1="2 11 3 3 3 5 4 2 2 4"
    ascent="782"
    descent="-218"
    x-height="543"
    cap-height="743"
    bbox="-76 -292 1358 998"
    underline-thickness="50"
    underline-position="-50"
    unicode-range="U+0020-FE6A"
  />
<missing-glyph horiz-adv-x="500" 
d="M12 0v665h475v-665h-475zM88 618l162 -243l161 243h-323zM60 575v-484l40 61l80 120l41 61zM440 575l-162 -242l162 -243v485zM411 48l-161 242l-162 -242h323z" />
    <glyph glyph-name="f_f" unicode="ff" horiz-adv-x="708" 
d="M509 0h-65v488h-251v-488h-66v488l-107 6v49h107v74q0 83 27 124.5t110 41.5q50 0 99 -11v-46q-43 5 -92 5t-63.5 -24t-14.5 -90v-74h251v74q0 40 4.5 66.5t18 51t42 36.5t71.5 12q50 0 99 -11v-46q-43 5 -92 5t-63.5 -23.5t-14.5 -90.5v-74h166v-55h-166v-488z" />
    <glyph glyph-name="f_i" unicode="fi" horiz-adv-x="587" 
d="M192 0h-65v488l-108 6v49h108v74q0 85 26.5 125.5t110.5 40.5q48 0 98 -11v-46q-42 5 -92 5q-49 0 -63.5 -23.5t-14.5 -90.5v-74h309v-543h-65v488h-244v-488zM502 649h-67v124h67v-124z" />
    <glyph glyph-name="f_l" unicode="fl" horiz-adv-x="600" 
d="M192 0h-65v488l-108 6v49h108v74q0 97 38.5 132t132.5 35q56 0 151 -11h66v-773h-66v724q-58 7 -144 7q-68 0 -90.5 -20.5t-22.5 -93.5v-74h167v-55h-167v-488z" />
    <glyph glyph-name="f_f_i" unicode="ffi" horiz-adv-x="912" 
d="M827 0h-66v488h-252v-488h-65v488h-251v-488h-66v488l-107 6v49h107v74q0 41 4.5 67.5t18.5 51t42 36t72 11.5q50 0 99 -11v-46q-43 5 -92 5t-63.5 -24t-14.5 -90v-74h251v74q0 84 26.5 125t109.5 41q50 0 99 -11v-46q-43 5 -92 5t-63.5 -24t-14.5 -90v-74h318v-543z
M828 649h-67v124h67v-124z" />
    <glyph glyph-name="f_f_l" unicode="ffl" horiz-adv-x="916" 
d="M831 0h-66v724q-73 7 -142 7t-91.5 -21t-22.5 -93v-74h167v-55h-167v-488h-65v488h-251v-488h-66v488l-107 6v49h107v74q0 84 27.5 125t110.5 41q54 0 98 -11v-46q-43 5 -91 5q-50 0 -64.5 -23t-14.5 -91v-74h251v74q0 96 38 131.5t133 35.5q24 0 150 -11h66v-773z" />
    <glyph glyph-name="f_b" unicode="fb" horiz-adv-x="913" 
d="M192 0h-65v488l-108 6v49h108v74q0 93 36.5 130t121.5 37q39 0 149 -11h64v-248q70 33 150 33q109 0 159.5 -58.5t50.5 -185.5v-70q0 -135 -57 -196t-180 -61q-81 0 -187 12v725q-77 7 -142 7q-59 0 -79.5 -21t-20.5 -93v-74h165v-55h-165v-488zM499 51q60 -6 124 -6
q90 0 129.5 44.5t39.5 154.5v70q0 101 -35 143.5t-116 42.5q-82 0 -142 -28v-421z" />
    <glyph glyph-name="f_f_b" unicode="ffb" horiz-adv-x="1231" 
d="M510 0h-65v488h-252v-488h-66v488l-110 5v50h110v74q0 83 26.5 124.5t110.5 41.5q46 0 97 -11v-46q-55 5 -89 5q-50 0 -64.5 -23.5t-14.5 -90.5v-74h252v74q0 93 36.5 130t121.5 37q39 0 149 -11h65v-248q67 33 150 33q109 0 159.5 -58.5t50.5 -185.5v-70
q0 -135 -57.5 -196t-179.5 -61q-81 0 -188 12v725q-82 7 -142 7q-59 0 -79.5 -21t-20.5 -93v-74h166v-55h-166v-488zM1111 244v70q0 101 -35 143.5t-117 42.5t-141 -28v-421q56 -6 124 -6q90 0 129.5 44.5t39.5 154.5z" />
    <glyph glyph-name="f_h" unicode="fh" horiz-adv-x="937" 
d="M860 0h-65v342q0 90 -27 124t-94 34q-81 0 -173 -46v-454h-65v724q-79 7 -140 7q-62 0 -82.5 -21t-20.5 -93v-74h165v-55h-165v-488h-66v488l-110 6v49h110v74q0 95 37.5 131t125.5 36q55 0 146 -11h65v-266q98 50 185 50q92 0 133 -51.5t41 -161.5v-344z" />
    <glyph glyph-name="f_f_h" unicode="ffh" horiz-adv-x="1251" 
d="M1175 0h-66v342q0 90 -27 124t-93 34q-81 0 -173 -46v-454h-65v724q-75 7 -140 7q-62 0 -82.5 -21t-20.5 -93v-74h165v-55h-165v-488h-65v488h-250v-488h-66v488l-110 6v49h110v74q0 83 26.5 124.5t110.5 41.5q48 0 97 -11v-46q-40 5 -90 5q-49 0 -63.5 -23.5
t-14.5 -90.5v-74h250v74q0 95 37.5 131t124.5 36q53 0 146 -11h65v-266q98 50 185 50q92 0 133 -51.5t41 -161.5v-344z" />
    <glyph glyph-name="f_j" unicode="fj" horiz-adv-x="599" 
d="M193 0h-66v488l-110 6v49h110v74q0 82 27 124t110 42q48 0 97 -11v-46q-40 5 -90 5q-49 0 -63.5 -23.5t-14.5 -90.5v-74h320v-617q0 -78 -26.5 -111.5t-94.5 -33.5q-32 0 -66 6v48q29 -3 58 -3q39 0 51.5 19.5t12.5 74.5v562h-255v-488zM514 648h-68v125h68v-125z" />
    <glyph glyph-name="f_f_j" unicode="ffj" horiz-adv-x="917" 
d="M511 0h-65v488h-254v-488h-65v488l-110 6v49h110v74q0 82 27 124t109 42q49 0 99 -11v-46q-42 5 -92 5q-49 0 -63.5 -24.5t-14.5 -89.5v-74h254v74q0 83 27 124.5t110 41.5q47 0 96 -11v-46q-40 5 -90 5q-49 0 -63.5 -23.5t-14.5 -90.5v-74h321v-617q0 -78 -26.5 -111.5
t-94.5 -33.5q-35 0 -67 6v48q28 -3 59 -3q38 0 50.5 20t12.5 74v562h-255v-488zM832 648h-67v125h67v-125z" />
    <glyph glyph-name="f_k" unicode="fk" horiz-adv-x="852" 
d="M838 0h-87l-241 275v-275h-65v724q-86 7 -149 7q-62 0 -82.5 -21t-20.5 -93v-74h165v-55h-165v-488h-66v488l-110 6v49h110v74q0 95 37.5 131t125.5 36q48 0 155 -11h65v-478l240 248h86l-253 -257z" />
    <glyph glyph-name="f_f_k" unicode="ffk" horiz-adv-x="1168" 
d="M1155 0h-88l-241 275v-275h-65v724q-86 7 -147 7t-82 -21t-21 -93v-74h166v-55h-166v-488h-65v488h-253v-488h-66v488l-110 6v49h110v74q0 83 27 124.5t110 41.5q48 0 97 -11v-46q-40 5 -90 5q-49 0 -63.5 -23.5t-14.5 -90.5v-74h253v74q0 95 37.5 131t123.5 36
q49 0 154 -11h65v-478l240 248h86l-252 -257z" />
    <glyph glyph-name=".notdef" horiz-adv-x="500" 
d="M12 0v665h475v-665h-475zM88 618l162 -243l161 243h-323zM60 575v-484l40 61l80 120l41 61zM440 575l-162 -242l162 -243v485zM411 48l-161 242l-162 -242h323z" />
    <glyph glyph-name=".null" horiz-adv-x="0" 
 />
    <glyph glyph-name="nonmarkingreturn" horiz-adv-x="333" 
 />
    <glyph glyph-name="space" unicode=" " horiz-adv-x="201" 
 />
    <glyph glyph-name="exclam" unicode="!" horiz-adv-x="231" 
d="M149 0h-67v127h67v-127zM151 765l-6 -574h-58l-7 574h71z" />
    <glyph glyph-name="quotedbl" unicode="&#x22;" horiz-adv-x="314" 
d="M20 519l19 240h66l-35 -240h-50zM294 759l-35 -240h-50l19 240h66z" />
    <glyph glyph-name="numbersign" unicode="#" horiz-adv-x="729" 
d="M651 205h-153l-23 -205h-59l22 205h-189l-22 -205h-60l23 205h-107v57h113l23 212h-136v57h142l24 212h59l-23 -212h189l24 212h59l-23 -212h117v-57h-123l-23 -212h146v-57zM468 474h-189l-23 -212h189z" />
    <glyph glyph-name="dollar" unicode="$" horiz-adv-x="592" 
d="M264 -119v106q-104 3 -181 18v53q108 -13 206 -13q85 0 128.5 32.5t43.5 105.5q0 54 -28.5 86.5t-103.5 67.5l-101 47q-81 37 -121 82t-40 117q0 156 197 170v102h64v-101q89 -1 176 -17v-54q-112 13 -199 13q-84 0 -127.5 -25.5t-43.5 -87.5q0 -50 28.5 -81.5
t95.5 -61.5l101 -46q91 -42 130.5 -88t39.5 -123q0 -179 -201 -194v-108h-64z" />
    <glyph glyph-name="percent" unicode="%" horiz-adv-x="1015" 
d="M959 189q0 -100 -43.5 -150t-122.5 -50q-80 0 -123.5 50t-43.5 150v58q0 100 43.5 149.5t123.5 49.5q79 0 122.5 -49.5t43.5 -149.5v-58zM900 189v58q0 149 -107 149q-108 0 -108 -149v-58q0 -149 108 -149q107 0 107 149zM779 743l-474 -743h-67l474 743h67zM391 497
q0 -201 -166 -201q-84 0 -125 52.5t-41 148.5v56q0 201 166 201t166 -201v-56zM332 497v56q0 82 -26.5 116.5t-80.5 34.5q-53 0 -80 -35.5t-27 -115.5v-56q0 -82 26.5 -116t80.5 -34t80.5 34t26.5 116z" />
    <glyph glyph-name="ampersand" unicode="&#x26;" horiz-adv-x="728" 
d="M659 0h-78l-64 64q-79 -77 -220 -77q-106 0 -171.5 46t-65.5 145v6q1 64 33.5 110t107.5 87l-6 7q-58 59 -84 102t-26 105q0 160 213 160q111 0 203 -18v-53q-110 12 -200 12q-72 0 -110 -22t-38 -82q0 -46 20.5 -79.5t77.5 -91.5l265 -267q43 73 43 226l-62 4v51h186
v-51l-62 -4q0 -174 -62 -268l100 -100v-12zM477 104l-234 236q-64 -33 -89.5 -67t-25.5 -89v-6q0 -69 46 -101.5t123 -32.5q118 0 180 60z" />
    <glyph glyph-name="quotesingle" unicode="'" horiz-adv-x="125" 
d="M105 759l-35 -240h-50l19 240h66z" />
    <glyph glyph-name="parenleft" unicode="(" horiz-adv-x="331" 
d="M292 -207h-63q-67 78 -115 199t-48 272v7q0 151 48 272t115 200h63q-160 -207 -160 -472v-7q0 -264 160 -471z" />
    <glyph glyph-name="parenright" unicode=")" horiz-adv-x="331" 
d="M264 264q0 -151 -48 -272t-114 -199h-65q162 208 162 471v7q0 264 -162 472h65q66 -79 114 -200t48 -272v-7z" />
    <glyph glyph-name="asterisk" unicode="*" horiz-adv-x="515" 
d="M451 611l-87 -28q-46 -15 -66 -18q18 -18 44 -52l53 -73l-47 -34l-53 73q-18 23 -38 57q-16 -28 -36 -56l-53 -74l-47 34l53 74q21 29 42 52q-26 5 -64 17l-86 28l17 55l86 -27q16 -5 64 -24q-4 42 -4 66v92h58v-92q0 -37 -4 -68q30 13 63 25l87 29z" />
    <glyph glyph-name="plus" unicode="+" horiz-adv-x="696" 
d="M598 364h-222v-223h-55v223h-224v55h224v223h55v-223h222v-55z" />
    <glyph glyph-name="comma" unicode="," horiz-adv-x="243" 
d="M189 136l-98 -223h-60l82 223h76z" />
    <glyph glyph-name="hyphen" unicode="-" horiz-adv-x="395" 
d="M320 262h-245v56h245v-56z" />
    <glyph glyph-name="period" unicode="." horiz-adv-x="213" 
d="M139 0h-65v136h65v-136z" />
    <glyph glyph-name="slash" unicode="/" horiz-adv-x="405" 
d="M382 743l-299 -743h-63l299 743h63z" />
    <glyph glyph-name="zero" unicode="0" horiz-adv-x="627" 
d="M567 313q0 -165 -65.5 -245.5t-187.5 -80.5q-253 0 -253 326v116q0 326 253 326q122 0 187.5 -80.5t65.5 -245.5v-116zM500 313v116q0 268 -186 268t-186 -268v-116q0 -269 186 -269t186 269z" />
    <glyph glyph-name="one" unicode="1" horiz-adv-x="498" 
d="M442 0h-383v55l159 4v620l-160 -54v59l176 64h50v-689l158 -4v-55z" />
    <glyph glyph-name="two" unicode="2" horiz-adv-x="584" 
d="M516 0h-450v72q0 66 11 111t41 82.5t69 65t108 65.5q99 54 130.5 90.5t31.5 94.5q0 63 -43.5 89.5t-144.5 26.5q-91 0 -189 -16v53q99 21 192 21q129 0 190.5 -42t61.5 -132q0 -73 -40.5 -124t-151.5 -111q-125 -68 -162.5 -117.5t-37.5 -155.5v-14h384v-59z" />
    <glyph glyph-name="three" unicode="3" horiz-adv-x="584" 
d="M522 196q0 -109 -62.5 -159t-191.5 -50q-99 0 -196 20v51q14 -1 56.5 -5.5t74.5 -6.5t64 -2q101 0 144.5 34.5t43.5 117.5v29q0 62 -26.5 97.5t-109.5 35.5h-220v57h220q44 0 72.5 10.5t41.5 31.5t17.5 42t4.5 51v14q0 73 -40.5 103t-147.5 30q-76 0 -193 -13v52
q86 19 194 19q135 0 194.5 -44t59.5 -147v-14q0 -128 -100 -164q100 -35 100 -161v-29z" />
    <glyph glyph-name="four" unicode="4" horiz-adv-x="638" 
d="M591 207h-119v-207h-67v207h-360v68l350 469h77v-479h119v-58zM405 265v390l-292 -390h292z" />
    <glyph glyph-name="five" unicode="5" horiz-adv-x="581" 
d="M520 206q0 -114 -63 -166.5t-199 -52.5q-110 0 -202 22v53q139 -17 201 -17q110 0 153.5 37t43.5 124v27q0 85 -45.5 117.5t-159.5 32.5h-177l32 360h387v-60h-330l-22 -242h113q138 0 203 -48t65 -160v-27z" />
    <glyph glyph-name="six" unicode="6" horiz-adv-x="626" 
d="M564 221q0 -54 -15.5 -96.5t-40 -68t-58 -41.5t-65.5 -22t-67 -6q-57 0 -99.5 12t-80 42.5t-57.5 91.5t-20 151v192q0 141 61 210t210 69q104 0 202 -21v-52q-117 15 -201 15q-65 0 -106.5 -14.5t-62.5 -45.5t-28.5 -67.5t-7.5 -92.5v-47q96 26 191 26q51 0 90.5 -8
t77 -28t57.5 -61t20 -102v-36zM497 221v34q0 86 -46 116t-134 30q-102 0 -189 -23v-99q0 -130 48.5 -182t141.5 -52q81 0 130 43.5t49 132.5z" />
    <glyph glyph-name="seven" unicode="7" horiz-adv-x="562" 
d="M520 672l-328 -672h-75l340 683h-403v60h466v-71z" />
    <glyph glyph-name="eight" unicode="8" horiz-adv-x="644" 
d="M580 211q0 -57 -13.5 -98.5t-35 -65.5t-56 -37.5t-69 -18t-82.5 -4.5h-5q-48 0 -82.5 4.5t-69 18.5t-56 38t-35 65.5t-13.5 98.5v7q0 129 94 168q-91 37 -91 160v10q0 110 67 153.5t186 43.5h5q119 0 186 -43.5t67 -153.5v-10q0 -123 -91 -160q94 -39 94 -167v-9z
M513 211v9q-1 69 -27 103.5t-93 34.5h-143q-67 0 -93.5 -35t-26.5 -104v-7q0 -99 45.5 -133.5t143.5 -34.5h5q98 0 143.5 34.5t45.5 132.5zM511 547v10q0 80 -46 110t-141 30h-5q-95 0 -141 -30t-46 -110v-10q0 -62 26 -96.5t92 -34.5h143q66 0 92 34.5t26 96.5z" />
    <glyph glyph-name="nine" unicode="9" horiz-adv-x="626" 
d="M564 265q0 -141 -61 -210t-210 -69q-104 0 -202 21v53q125 -16 200 -16q65 0 107 14.5t63 45.5t28.5 67.5t7.5 92.5v47q-92 -25 -192 -25q-40 0 -72.5 4t-65.5 17t-55.5 34t-36.5 57.5t-14 85.5v37q0 54 15.5 96t40 67.5t58 42t65.5 22.5t67 6q57 0 99 -12t80 -42.5
t58 -91.5t20 -151v-193zM497 363v99q0 130 -48.5 182.5t-141.5 52.5q-81 0 -130.5 -43.5t-49.5 -132.5v-35q0 -86 46 -116t135 -30q96 0 189 23z" />
    <glyph glyph-name="colon" unicode=":" horiz-adv-x="217" 
d="M143 0h-66v136h66v-136zM143 410h-66v136h66v-136z" />
    <glyph glyph-name="semicolon" unicode=";" horiz-adv-x="236" 
d="M168 136l-99 -223h-59l82 223h76zM160 410h-66v136h66v-136z" />
    <glyph glyph-name="less" unicode="&#x3c;" horiz-adv-x="696" 
d="M536 139h-91l-286 252l286 251h91l-287 -251z" />
    <glyph glyph-name="equal" unicode="=" horiz-adv-x="696" 
d="M571 307v-55h-447v55h447zM571 477h-447v55h447v-55z" />
    <glyph glyph-name="greater" unicode="&#x3e;" horiz-adv-x="696" 
d="M535 391l-286 -252h-90l286 252l-286 251h90z" />
    <glyph glyph-name="question" unicode="?" horiz-adv-x="453" 
d="M188 0h-66v129h66v-129zM390 616q0 -52 -21.5 -94t-81.5 -101q-67 -66 -84 -100t-17 -90v-39h-64v39q0 66 19.5 109.5t86.5 107.5q57 55 76 89t19 79v6q0 59 -34.5 81t-105.5 22q-62 0 -151 -12v51q83 19 156 19q98 0 150 -37t52 -124v-6z" />
    <glyph glyph-name="at" unicode="@" horiz-adv-x="823" 
d="M771 377q0 -319 -349 -319q-102 0 -147.5 36.5t-45.5 116.5q0 79 13.5 133.5t40.5 84t61 41.5t81 12q73 0 146 -17l-35 -343q183 37 183 256q0 230 -268 230q-147 0 -227 -72t-105 -230q-10 -65 -10 -128q0 -243 272 -243q104 0 167 10v-38q-81 -15 -167 -15
q-163 0 -243.5 74t-80.5 212q0 62 11 133q28 175 120 258.5t263 83.5q161 0 240.5 -72.5t79.5 -203.5zM504 422q-40 6 -78 6q-33 0 -55.5 -8t-42.5 -30.5t-29.5 -66.5t-9.5 -112q0 -57 30 -79.5t102 -22.5q18 0 52 2z" />
    <glyph glyph-name="A" unicode="A" horiz-adv-x="643" 
d="M619 0h-71l-87 263h-282l-88 -263h-68l252 743h93zM440 324l-84 249q-19 55 -32 115h-7q-15 -60 -32 -115l-86 -249h241z" />
    <glyph glyph-name="B" unicode="B" horiz-adv-x="624" 
d="M569 202q0 -116 -74.5 -161t-220.5 -45q-45 0 -189 4v743q22 0 55 1t64.5 1.5t71.5 0.5q149 0 219 -40t70 -148v-9q0 -55 -28 -100t-90 -63q122 -35 122 -170v-14zM502 202v14q-1 66 -39.5 104t-142.5 38h-168v-299q76 -4 122 -4q120 0 174 31.5t54 115.5zM498 549v9
q0 78 -51 103t-171 25q-42 0 -124 -2v-268h168q102 0 140 36t38 97z" />
    <glyph glyph-name="C" unicode="C" horiz-adv-x="550" 
d="M520 2q-94 -15 -173 -15q-142 0 -217 77.5t-75 264.5v85q0 186 75 263.5t217 77.5q80 0 173 -16v-55q-88 11 -173 11q-117 0 -171 -64.5t-54 -216.5v-85q0 -152 54 -217t171 -65q94 0 173 11v-56z" />
    <glyph glyph-name="D" unicode="D" horiz-adv-x="659" 
d="M604 328q0 -166 -76 -249t-243 -83q-54 0 -200 4v743q120 3 200 3q164 0 241.5 -83t77.5 -247v-88zM537 328v88q0 146 -63 208t-194 62q-50 0 -128 -2v-625q76 -4 128 -4q131 0 194 63t63 210z" />
    <glyph glyph-name="E" unicode="E" horiz-adv-x="568" 
d="M513 0h-428v743h428v-60h-361v-265h337v-61h-337v-298h361v-59z" />
    <glyph glyph-name="F" unicode="F" horiz-adv-x="558" 
d="M513 683h-361v-265h337v-61h-337v-357h-67v743h428v-60z" />
    <glyph glyph-name="G" unicode="G" horiz-adv-x="619" 
d="M554 5q-113 -18 -206 -18q-293 0 -293 339v91q0 338 293 338q87 0 206 -17v-55q-129 12 -197 12q-57 0 -97.5 -12.5t-73 -42.5t-48.5 -85.5t-16 -137.5v-91q0 -153 58.5 -215.5t175.5 -62.5q82 0 131 5v330h67v-378z" />
    <glyph glyph-name="H" unicode="H" horiz-adv-x="708" 
d="M623 0h-67v365h-404v-365h-67v743h67v-317h404v317h67v-743z" />
    <glyph glyph-name="I" unicode="I" horiz-adv-x="240" 
d="M154 0h-67v743h67v-743z" />
    <glyph glyph-name="J" unicode="J" horiz-adv-x="240" 
d="M153 -56q0 -81 -29.5 -119t-109.5 -38q-36 0 -69 7v51q22 -1 65 -1q50 0 63.5 22t13.5 78v799h66v-799z" />
    <glyph glyph-name="K" unicode="K" horiz-adv-x="601" 
d="M586 0h-92l-337 364v-364h-67v743h67v-353l341 353h87l-353 -365z" />
    <glyph glyph-name="L" unicode="L" horiz-adv-x="531" 
d="M506 0h-421v743h67v-684h354v-59z" />
    <glyph glyph-name="M" unicode="M" horiz-adv-x="791" 
d="M706 0h-66v539q0 32 4 116h-2q-8 -17 -50 -99l-155 -292h-84l-153 292q-16 33 -50 99h-2q3 -63 3 -116v-539h-66v743h88l177 -341q16 -30 44 -89h2q8 17 23.5 48.5t20.5 41.5l179 340h87v-743z" />
    <glyph glyph-name="N" unicode="N" horiz-adv-x="692" 
d="M607 -1h-95l-313 577q-35 66 -53 104h-1q3 -62 3 -128v-552h-63v743h95l314 -571q17 -32 51 -102h1q-3 70 -3 130v543h64v-744z" />
    <glyph glyph-name="O" unicode="O" horiz-adv-x="671" 
d="M616 332q0 -173 -72.5 -259t-207.5 -86q-136 0 -208.5 86t-72.5 259v78q0 173 72.5 259t208.5 86q135 0 207.5 -86t72.5 -259v-78zM549 332v78q0 285 -213 285q-214 0 -214 -285v-78q0 -285 214 -285q213 0 213 285z" />
    <glyph glyph-name="P" unicode="P" horiz-adv-x="590" 
d="M550 520q0 -121 -74 -169.5t-216 -48.5q-71 0 -110 1v-303h-67v744q20 0 55.5 1t65.5 1.5t58 0.5q142 0 214.5 -47t73.5 -167v-13zM483 520v13q-1 89 -52 121.5t-169 32.5q-19 0 -112 -3v-322q40 -1 110 -1q118 0 170.5 35t52.5 124z" />
    <glyph glyph-name="Q" unicode="Q" horiz-adv-x="671" 
d="M616 332q0 -162 -64 -247t-183 -96v-58q0 -40 13.5 -54.5t60.5 -14.5h85v-46q-43 -8 -102 -8q-65 0 -94 27t-29 96v58q-248 22 -248 343v78q0 173 72.5 259t208.5 86q135 0 207.5 -86t72.5 -259v-78zM549 332v78q0 285 -213 285q-214 0 -214 -285v-78q0 -285 214 -285
q213 0 213 285z" />
    <glyph glyph-name="R" unicode="R" horiz-adv-x="622" 
d="M595 0h-79l-185 303q-22 -1 -70 -1q-79 0 -109 1v-303h-67v743q95 4 174 4q69 0 120 -10t91.5 -34t61 -66.5t20.5 -104.5v-8q0 -88 -37.5 -137t-112.5 -70zM484 524v8q0 88 -53 121.5t-172 33.5q-5 0 -107 -3v-322q33 -1 109 -1q118 0 170.5 36.5t52.5 126.5z" />
    <glyph glyph-name="S" unicode="S" horiz-adv-x="572" 
d="M517 183q0 -196 -240 -196q-121 0 -206 18v53q108 -13 206 -13q85 0 128.5 32.5t43.5 105.5q0 54 -28.5 86.5t-103.5 67.5l-101 47q-81 37 -121 82t-40 117q0 172 236 172q111 0 201 -18v-54q-112 13 -199 13q-84 0 -127.5 -25.5t-43.5 -87.5q0 -49 28.5 -81t95.5 -62
l101 -46q91 -42 130.5 -88t39.5 -123z" />
    <glyph glyph-name="T" unicode="T" horiz-adv-x="608" 
d="M578 683h-241v-683h-67v683h-240v60h548v-60z" />
    <glyph glyph-name="U" unicode="U" horiz-adv-x="683" 
d="M603 319q0 -167 -63.5 -249t-197.5 -82q-135 0 -198.5 82t-63.5 249v424h67v-417q0 -150 42.5 -214t152.5 -64q108 0 151.5 64.5t43.5 213.5v417h66v-424z" />
    <glyph glyph-name="V" unicode="V" horiz-adv-x="657" 
d="M627 743l-254 -743h-90l-253 743h71l199 -588q5 -15 10 -33t10.5 -39t8.5 -32h2q17 70 29 104l198 588h69z" />
    <glyph glyph-name="W" unicode="W" horiz-adv-x="884" 
d="M839 743l-146 -743h-107l-123 492q-3 14 -9.5 41t-9.5 41h-3q-3 -14 -10 -41t-10 -41l-122 -492h-108l-146 743h71l109 -572q4 -22 11.5 -63.5t9.5 -54.5h3q5 20 14 59.5t13 58.5l114 460h106l115 -463q18 -76 26 -115h4q8 56 20 118l109 572h69z" />
    <glyph glyph-name="X" unicode="X" horiz-adv-x="654" 
d="M622 0h-82l-219 324l-214 -324h-75l252 377l-250 366h81l215 -318l212 318h75l-251 -369z" />
    <glyph glyph-name="Y" unicode="Y" horiz-adv-x="601" 
d="M574 743l-240 -443v-300h-67v300l-240 443h73l150 -277q40 -77 50 -102h4q3 7 52 102l149 277h69z" />
    <glyph glyph-name="Z" unicode="Z" horiz-adv-x="604" 
d="M557 0h-510v73l423 610h-407v60h479v-73l-422 -611h437v-59z" />
    <glyph glyph-name="bracketleft" unicode="[" horiz-adv-x="381" 
d="M328 -208h-218v951h218v-57h-153v-839h153v-55z" />
    <glyph glyph-name="backslash" unicode="\" horiz-adv-x="429" 
d="M397 0h-64l-304 743h63z" />
    <glyph glyph-name="bracketright" unicode="]" horiz-adv-x="381" 
d="M270 -208h-218v55h153v840h-153v56h218v-951z" />
    <glyph glyph-name="asciicircum" unicode="^" horiz-adv-x="696" 
d="M587 406h-72l-168 276l-166 -276h-74l186 310h109z" />
    <glyph glyph-name="underscore" unicode="_" horiz-adv-x="575" 
d="M576 -99h-585v45h585v-45z" />
    <glyph glyph-name="grave" unicode="`" horiz-adv-x="431" 
d="M276 616h-67l-148 154h80z" />
    <glyph glyph-name="a" unicode="a" horiz-adv-x="531" 
d="M458 0h-63v39q-86 -52 -181 -52q-162 0 -162 156v15q0 98 59.5 132t188.5 34h92v46q0 80 -27 105.5t-117 25.5q-63 0 -159 -11v48q108 19 164 19q64 0 105 -10.5t62.5 -35.5t29.5 -57.5t8 -83.5v-370zM392 87v186h-92q-103 0 -143 -22.5t-40 -92.5v-19q0 -101 110 -101
q88 0 165 49z" />
    <glyph glyph-name="b" unicode="b" horiz-adv-x="559" 
d="M504 244q0 -137 -57 -197t-180 -60q-81 0 -187 12v774h65v-248q70 33 149 33q109 0 159.5 -57.5t50.5 -186.5v-70zM438 244v70q0 104 -34.5 145t-116.5 41q-83 0 -142 -28v-421q59 -6 123 -6q91 0 130.5 43.5t39.5 155.5z" />
    <glyph glyph-name="c" unicode="c" horiz-adv-x="466" 
d="M421 4q-77 -17 -149 -17q-112 0 -164.5 61.5t-52.5 193.5v60q0 131 53 193t164 62q69 0 149 -17v-50q-94 10 -140 10q-83 0 -121.5 -42.5t-38.5 -155.5v-60q0 -115 38 -157t122 -42q47 0 140 11v-50z" />
    <glyph glyph-name="d" unicode="d" horiz-adv-x="559" 
d="M479 0h-63v31q-80 -44 -161 -44q-100 0 -150 59.5t-50 187.5v67q0 140 57.5 198t168.5 58q61 0 133 -12v228h65v-773zM414 83v407q-82 11 -129 11q-86 0 -125 -42t-39 -158v-67q0 -102 34 -146.5t111 -44.5q66 0 148 40z" />
    <glyph glyph-name="e" unicode="e" horiz-adv-x="559" 
d="M506 249h-386v-12q0 -100 38.5 -146.5t143.5 -46.5q92 0 186 15v-52q-87 -20 -188 -20q-136 0 -190.5 62.5t-54.5 201.5v38q0 268 225 268q226 0 226 -275v-33zM438 304v9q0 40 -6.5 71t-23 58.5t-49 42.5t-79.5 15q-159 0 -159 -187l-1 -9h318z" />
    <glyph glyph-name="f" unicode="f" horiz-adv-x="392" 
d="M359 488h-166v-488h-66v488l-107 5v50h107v74q0 83 27 124.5t110 41.5q54 0 98 -11v-46q-57 5 -90 5q-50 0 -64.5 -23.5t-14.5 -90.5v-74h166v-55z" />
    <glyph glyph-name="g" unicode="g" horiz-adv-x="560" 
d="M480 -20q0 -103 -45 -151t-164 -48q-90 0 -189 17v48q106 -9 189 -9q86 0 115 31.5t29 111.5v27q-69 -20 -130 -20q-117 0 -173 58t-56 192v70q0 129 57 189.5t184 60.5q76 0 183 -14v-563zM415 62v430q-59 9 -118 9q-97 0 -136.5 -45t-39.5 -149v-70q0 -108 37.5 -151
t127.5 -43q67 0 129 19z" />
    <glyph glyph-name="h" unicode="h" horiz-adv-x="580" 
d="M504 0h-66v342q0 90 -27 124t-93 34q-81 0 -173 -46v-454h-65v773h65v-266q98 50 185 50q91 0 132.5 -51.5t41.5 -161.5v-344z" />
    <glyph glyph-name="i" unicode="i" horiz-adv-x="236" 
d="M151 0h-66v543h66v-543zM152 649h-67v124h67v-124z" />
    <glyph glyph-name="j" unicode="j" horiz-adv-x="236" 
d="M151 -74q0 -80 -26.5 -112.5t-96.5 -32.5q-33 0 -65 4v49q40 -2 59 -2q39 0 51 19.5t12 74.5v617h66v-617zM152 648h-67v125h67v-125z" />
    <glyph glyph-name="k" unicode="k" horiz-adv-x="487" 
d="M473 0h-87l-241 275v-275h-65v773h65v-478l240 248h86l-253 -257z" />
    <glyph glyph-name="l" unicode="l" horiz-adv-x="232" 
d="M149 0h-65v773h65v-773z" />
    <glyph glyph-name="m" unicode="m" horiz-adv-x="835" 
d="M759 0h-66v363q0 74 -17 105.5t-78 31.5q-68 0 -153 -51q7 -35 7 -86v-363h-66v363q0 76 -15.5 106.5t-74.5 30.5q-64 0 -151 -51v-449h-65v543h65v-43q83 57 165 57q89 0 121 -61q91 61 175 61q35 0 62 -7.5t43 -23t26 -32t14.5 -41.5t6 -43.5t1.5 -46.5v-363z" />
    <glyph glyph-name="n" unicode="n" horiz-adv-x="580" 
d="M504 0h-66v344q0 88 -23.5 122t-88.5 34q-70 0 -181 -52v-448h-65v543h65v-44q109 58 187 58q100 0 136 -51t36 -162v-344z" />
    <glyph glyph-name="o" unicode="o" horiz-adv-x="564" 
d="M508 243q0 -256 -226 -256t-226 256v58q0 256 226 256t226 -256v-58zM443 243v58q0 104 -38 151t-123 47q-84 0 -122.5 -47t-38.5 -151v-58q0 -104 38 -151.5t123 -47.5t123 47.5t38 151.5z" />
    <glyph glyph-name="p" unicode="p" horiz-adv-x="560" 
d="M504 256q0 -146 -59 -207.5t-172 -61.5q-51 0 -129 13v-209h-64v752h62v-39q81 53 169 53q99 0 146 -61t47 -200v-40zM439 256v40q0 112 -31.5 157.5t-105.5 45.5q-64 0 -158 -46v-398q80 -12 129 -12q85 0 125.5 46t40.5 167z" />
    <glyph glyph-name="q" unicode="q" horiz-adv-x="559" 
d="M479 -209h-65v230q-75 -34 -161 -34q-104 0 -151 59.5t-47 201.5v40q0 153 56.5 211t184.5 58q83 0 183 -13v-753zM414 75v419q-63 5 -119 5q-48 0 -78.5 -8t-53.5 -30.5t-33 -64.5t-10 -108v-40q0 -114 32 -158.5t111 -44.5q75 0 151 30z" />
    <glyph glyph-name="r" unicode="r" horiz-adv-x="361" 
d="M348 498q-121 0 -204 -50v-448h-64v543h64v-44q81 58 204 58v-59z" />
    <glyph glyph-name="s" unicode="s" horiz-adv-x="472" 
d="M428 134q0 -147 -197 -147q-100 0 -174 20v51q127 -15 172 -15q73 0 103.5 23t30.5 67q0 40 -24 62.5t-98 52.5l-39 15q-80 33 -116 69.5t-36 92.5q0 132 194 132q97 0 159 -19v-50q-87 12 -156 12q-70 0 -100.5 -16t-30.5 -59q0 -37 23.5 -59t88.5 -48l39 -16
q93 -39 127 -73.5t34 -94.5z" />
    <glyph glyph-name="t" unicode="t" horiz-adv-x="390" 
d="M362 -1q-53 -12 -98 -12q-69 0 -96 30t-27 105v366l-118 5v50h118v146h65v-146h156v-55h-156v-363q0 -53 12 -69t53 -16q51 0 91 5v-46z" />
    <glyph glyph-name="u" unicode="u" horiz-adv-x="580" 
d="M500 0h-65v44q-111 -57 -193 -57q-94 0 -129.5 53t-35.5 159v344h64v-344q0 -88 24 -122t89 -34q70 0 181 53v447h65v-543z" />
    <glyph glyph-name="v" unicode="v" horiz-adv-x="505" 
d="M485 543l-187 -543h-91l-187 543h71l122 -367q17 -52 39 -131h2q4 12 17 58t22 73l121 367h71z" />
    <glyph glyph-name="w" unicode="w" horiz-adv-x="810" 
d="M780 543l-129 -543h-94l-121 358q-18 55 -29 96h-3q-2 -7 -7 -24t-10.5 -35t-11.5 -37l-121 -358h-94l-130 543h67l86 -369q15 -70 22 -123h4q4 14 17 57.5t20 65.5l109 328h101l109 -328q7 -22 20 -65.5t17 -57.5h4q7 53 22 123l85 369h67z" />
    <glyph glyph-name="x" unicode="x" horiz-adv-x="513" 
d="M489 0h-79l-158 223l-155 -223h-77l195 278l-185 265h77l157 -222l150 222h75l-191 -273z" />
    <glyph glyph-name="y" unicode="y" horiz-adv-x="520" 
d="M495 543l-207 -586q-18 -50 -31.5 -78.5t-34.5 -53t-49 -34.5t-68 -10q-44 0 -95 7v52q52 -4 93 -4q48 0 69.5 24.5t50.5 103.5l13 37l-210 542h72l130 -348q4 -10 41 -122q15 56 37 123l119 347h70z" />
    <glyph glyph-name="z" unicode="z" horiz-adv-x="479" 
d="M433 0h-391v72l319 416h-307v55h378v-67l-323 -422h324v-54z" />
    <glyph glyph-name="braceleft" unicode="{" horiz-adv-x="401" 
d="M347 -209h-55q-95 0 -127 33t-32 103v182q0 52 -14 78.5t-56 55.5v48q42 29 56 55.5t14 78.5v182q0 71 31.5 103.5t127.5 32.5h54v-56h-54q-61 0 -77.5 -16.5t-16.5 -63.5v-182q0 -58 -17 -94t-58 -64q41 -29 58 -65t17 -93v-182q0 -48 16.5 -64.5t77.5 -16.5h55v-55z
" />
    <glyph glyph-name="bar" unicode="|" horiz-adv-x="282" 
d="M173 -209h-65v952h65v-952z" />
    <glyph glyph-name="braceright" unicode="}" horiz-adv-x="401" 
d="M338 243q-42 -29 -56 -55.5t-14 -78.5v-182q0 -70 -32 -103t-127 -33h-55v55h55q61 0 77.5 16.5t16.5 64.5v182q0 57 17 93t58 65q-41 28 -58 64t-17 94v182q0 47 -16.5 63.5t-77.5 16.5h-54v56h54q96 0 127.5 -32.5t31.5 -103.5v-182q0 -52 14 -78.5t56 -55.5v-48z" />
    <glyph glyph-name="asciitilde" unicode="~" horiz-adv-x="696" 
d="M572 481q0 -69 -21.5 -104t-79.5 -35q-59 0 -113 48l-58 51q-23 22 -37.5 31t-34.5 9q-31 0 -41 -21t-10 -67v-42h-54v42q0 69 24 104.5t82 35.5q28 0 50 -12t53 -39l56 -48q43 -40 80 -40q32 0 41 20.5t9 66.5v43h54v-43z" />
    <glyph glyph-name="uni00A0" unicode="&#xa0;" horiz-adv-x="201" 
 />
    <glyph glyph-name="exclamdown" unicode="&#xa1;" horiz-adv-x="231" 
d="M151 -219h-71l7 570h58zM149 415h-67v127h67v-127z" />
    <glyph glyph-name="cent" unicode="&#xa2;" horiz-adv-x="478" 
d="M424 540v-50q-93 10 -140 10q-81 0 -120.5 -42t-39.5 -146v-80q0 -106 39 -147.5t121 -41.5q48 0 140 11v-50q-61 -13 -122 -17v-109h-60v111q-184 18 -184 243v80q0 224 184 243v111h60v-110q60 -2 122 -16z" />
    <glyph glyph-name="sterling" unicode="&#xa3;" horiz-adv-x="619" 
d="M552 735v-53q-91 11 -177 11q-99 0 -129 -38.5t-30 -149.5v-89h260v-56h-260v-166q0 -80 -44 -137h380v-57h-454v52q51 55 51 142v166h-82v56h82v89q0 133 46 190t176 57q94 0 181 -17z" />
    <glyph glyph-name="currency" unicode="&#xa4;" 
d="M562 183l-46 -46l-76 76q-54 -40 -120 -40q-70 0 -120 40l-77 -75l-45 45l76 76q-40 52 -40 120t40 120l-76 76l46 45l76 -75q51 39 120 39t121 -39l75 75l46 -45l-76 -75q40 -56 40 -121q0 -67 -39 -121zM471 379q0 62 -44 107.5t-107 45.5q-61 0 -105.5 -44.5
t-44.5 -108.5q0 -62 44.5 -107.5t105.5 -45.5t105.5 45t45.5 108z" />
    <glyph glyph-name="yen" unicode="&#xa5;" horiz-adv-x="650" 
d="M583 259h-226v-259h-67v259h-227v53h220l-62 116h-158v53h128l-141 262h73l150 -277q40 -77 50 -102h4q3 7 52 102l149 277h69l-142 -262h128v-53h-157l-63 -116h220v-53z" />
    <glyph glyph-name="brokenbar" unicode="&#xa6;" horiz-adv-x="282" 
d="M173 -209h-65v392h65v-392zM173 743v-392h-65v392h65z" />
    <glyph glyph-name="section" unicode="&#xa7;" horiz-adv-x="629" 
d="M101 -205v56q114 -13 201 -13q172 0 172 135q0 55 -27 86t-116 77l-101 51q-74 38 -110 82t-36 108q0 62 30 106q-31 46 -31 102q0 170 237 170q105 0 200 -18v-56q-127 13 -198 13q-89 0 -129 -25t-40 -84q0 -49 27 -81t99 -67l97 -48q94 -46 131.5 -90.5t37.5 -111.5
q0 -59 -29 -107q29 -48 29 -107q0 -90 -61 -143t-179 -53q-111 0 -204 18zM469 125q8 19 8 50q0 58 -24.5 87t-105.5 69l-97 48q-57 28 -92 60q-12 -24 -12 -54q0 -58 23.5 -84t93.5 -61l98 -49q67 -33 108 -66z" />
    <glyph glyph-name="dieresis" unicode="&#xa8;" horiz-adv-x="441" 
d="M365 642h-59v119h59v-119zM136 761v-119h-60v119h60z" />
    <glyph glyph-name="copyright" unicode="&#xa9;" horiz-adv-x="837" 
d="M767 377q0 -169 -97.5 -266t-252.5 -97t-253 97t-98 266t98 266t253 97t252.5 -97t97.5 -266zM714 377q0 145 -82 229t-215 84q-132 0 -214 -84t-82 -229t82 -229.5t214 -84.5q133 0 215 84.5t82 229.5zM423 162q-88 0 -134 48t-46 139v55q0 93 46 140t134 47
q71 0 109 -9v-48q-65 7 -107 7q-66 0 -94 -31.5t-28 -105.5v-55q0 -74 28 -105.5t94 -31.5q55 0 107 7v-48q-31 -9 -109 -9z" />
    <glyph glyph-name="ordfeminine" unicode="&#xaa;" horiz-adv-x="395" 
d="M320 437h-52v24q-54 -32 -114 -32q-49 0 -76.5 23.5t-27.5 70.5v10q0 60 39.5 79.5t121.5 19.5h55v22q0 45 -16.5 59.5t-71.5 14.5q-40 0 -103 -6v36q54 12 111 12q80 0 107 -26t27 -90v-217zM266 499v96h-55q-62 0 -85 -11.5t-23 -49.5v-13q0 -29 16.5 -39.5t48.5 -10.5
q55 0 98 28z" />
    <glyph glyph-name="guillemotleft" unicode="&#xab;" horiz-adv-x="613" 
d="M215 78l-159 207l159 206h78l-156 -206l156 -207h-78zM318 285l161 206h78l-158 -206l158 -207h-78z" />
    <glyph glyph-name="logicalnot" unicode="&#xac;" horiz-adv-x="696" 
d="M571 252h-56v225h-391v55h447v-280z" />
    <glyph glyph-name="uni00AD" unicode="&#xad;" horiz-adv-x="395" 
d="M320 262h-245v56h245v-56z" />
    <glyph glyph-name="registered" unicode="&#xae;" horiz-adv-x="674" 
d="M603 478q0 -126 -73.5 -204t-194.5 -78q-120 0 -193.5 78t-73.5 204q0 127 73 204.5t194 77.5t194.5 -77.5t73.5 -204.5zM557 478q0 110 -59.5 174.5t-162.5 64.5t-162.5 -64.5t-59.5 -174.5t59.5 -175t162.5 -65t162.5 65t59.5 175zM466 329h-56l-80 124h-51v-124h-46
v317q70 2 82 2q64 0 97.5 -21t33.5 -73v-3q0 -72 -67 -90zM398 551v3q0 33 -19.5 44t-63.5 11h-36v-119h41q40 0 59 13.5t19 47.5z" />
    <glyph glyph-name="macron" unicode="&#xaf;" horiz-adv-x="451" 
d="M397 664h-343v52h343v-52z" />
    <glyph glyph-name="degree" unicode="&#xb0;" horiz-adv-x="447" 
d="M398 581q0 -73 -50.5 -122.5t-123.5 -49.5q-72 0 -122.5 50t-50.5 122q0 73 50.5 123t122.5 50q73 0 123.5 -50t50.5 -123zM342 581q0 52 -34 85.5t-84 33.5t-84 -33.5t-34 -85.5q0 -51 34.5 -84.5t83.5 -33.5t83.5 33.5t34.5 84.5z" />
    <glyph glyph-name="plusminus" unicode="&#xb1;" horiz-adv-x="696" 
d="M593 0h-492v55h492v-55zM598 384h-222v-223h-55v223h-224v55h224v223h55v-223h222v-55z" />
    <glyph glyph-name="two.superior" unicode="&#xb2;" horiz-adv-x="421" 
d="M65 729v41q57 13 137 13q82 0 121 -25t39 -81q0 -45 -26 -76t-98 -66q-77 -38 -98.5 -64.5t-21.5 -82.5v-5h238v-48h-298v44q0 76 29 114t115 80q64 31 82 51t18 52q0 35 -24.5 48.5t-81.5 13.5q-47 0 -131 -9z" />
    <glyph glyph-name="three.superior" unicode="&#xb3;" horiz-adv-x="417" 
d="M191 326q-71 0 -131 12v42q96 -8 126 -8q60 0 86 18.5t26 66.5v8q0 37 -16.5 56t-67.5 19h-135v45h135q51 0 67.5 20.5t16.5 56.5v5q0 39 -24.5 54.5t-87.5 15.5q-26 0 -126 -8v41q55 13 131 13q87 0 127 -25.5t40 -87.5v-6q0 -78 -63 -102q63 -21 63 -98v-8
q0 -68 -40.5 -99t-126.5 -31z" />
    <glyph glyph-name="acute" unicode="&#xb4;" horiz-adv-x="443" 
d="M371 770l-148 -154h-66l134 154h80z" />
    <glyph glyph-name="mu" unicode="&#xb5;" horiz-adv-x="627" 
d="M525 0h-65v44q-111 -57 -194 -57q-71 0 -99 38v-234h-66v752h65v-344q0 -88 24 -122t89 -34q70 0 181 53v447h65v-543z" />
    <glyph glyph-name="paragraph" unicode="&#xb6;" horiz-adv-x="712" 
d="M635 -201h-61v888h-75v-888h-61v464h-57q-73 0 -127 10.5t-98 35.5t-67 72.5t-23 116.5v10q0 58 16 100.5t42.5 68.5t69 41t87.5 20.5t106 5.5h248v-945z" />
    <glyph glyph-name="periodcentered" unicode="&#xb7;" horiz-adv-x="213" 
d="M140 300h-67v138h67v-138z" />
    <glyph glyph-name="cedilla" unicode="&#xb8;" horiz-adv-x="435" 
d="M279 -68l-134 -141h-69l121 141h82z" />
    <glyph glyph-name="one.superior" unicode="&#xb9;" horiz-adv-x="387" 
d="M334 335h-273v44l106 2v340l-107 -34v49l122 42h45v-397l107 -2v-44z" />
    <glyph glyph-name="ordmasculine" unicode="&#xba;" horiz-adv-x="398" 
d="M348 584q0 -75 -37.5 -116t-111.5 -41t-111.5 41t-37.5 116v31q0 75 37.5 115t111.5 40t111.5 -40t37.5 -115v-31zM294 584v31q0 56 -22.5 83t-72.5 27q-95 0 -95 -110v-31q0 -56 22.5 -83.5t72.5 -27.5t72.5 27.5t22.5 83.5z" />
    <glyph glyph-name="guillemotright" unicode="&#xbb;" horiz-adv-x="613" 
d="M557 285l-159 -207h-78l156 207l-156 206h78zM134 491l161 -206l-161 -207h-78l158 207l-158 206h78z" />
    <glyph glyph-name="onequarter" unicode="&#xbc;" horiz-adv-x="888" 
d="M745 743l-474 -743h-66l473 743h67zM335 307h-273v44l106 2v340l-107 -34v49l122 42h45v-397l107 -2v-44zM762 0h-60v117h-225v49l226 275h59v-279h72v-45h-72v-117zM704 162v210l-170 -210h170z" />
    <glyph glyph-name="onehalf" unicode="&#xbd;" horiz-adv-x="970" 
d="M745 743l-474 -743h-66l473 743h67zM335 307h-273v44l106 2v340l-107 -34v49l122 42h45v-397l107 -2v-44zM625 394v41q57 13 137 13q82 0 121 -25t39 -81q0 -45 -26 -76t-98 -66q-77 -38 -98.5 -64.5t-21.5 -82.5v-5h238v-48h-298v44q0 76 29 114t115 80q64 31 82 51
t18 52q0 35 -24.5 48.5t-81.5 13.5q-47 0 -131 -9z" />
    <glyph glyph-name="threequarters" unicode="&#xbe;" horiz-adv-x="917" 
d="M748 743l-473 -743h-67l474 743h66zM58 701v41q55 13 130 13q87 0 127.5 -25.5t40.5 -87.5v-6q0 -78 -63 -102q63 -22 63 -98v-8q0 -68 -40.5 -99t-127.5 -31q-70 0 -130 12v42q96 -8 125 -8q61 0 87 18.5t26 66.5v8q0 36 -17 55.5t-68 19.5h-135v45h136q51 0 67.5 20.5
t16.5 56.5v5q0 39 -24.5 54.5t-87.5 15.5q-26 0 -126 -8zM786 0h-60v117h-225v49l226 275h59v-279h72v-45h-72v-117zM728 162v210l-170 -210h170z" />
    <glyph glyph-name="questiondown" unicode="&#xbf;" horiz-adv-x="453" 
d="M424 -213q-82 -20 -157 -20q-98 0 -150 35.5t-52 118.5v6q0 52 21.5 94t81.5 100q67 66 84 100t17 90v39h64v-39q0 -66 -19 -109.5t-86 -107.5q-58 -55 -77 -89t-19 -78v-6q0 -55 34.5 -75.5t105.5 -20.5q48 0 152 12v-50zM333 413h-66v130h66v-130z" />
    <glyph glyph-name="Agrave" unicode="&#xc0;" horiz-adv-x="643" 
d="M619 0h-71l-87 263h-282l-88 -263h-68l252 743h93zM440 324l-84 249q-19 55 -32 115h-7q-15 -60 -32 -115l-86 -249h241zM399 789h-67l-147 154h80z" />
    <glyph glyph-name="Aacute" unicode="&#xc1;" horiz-adv-x="643" 
d="M619 0h-71l-87 263h-282l-88 -263h-68l252 743h93zM440 324l-84 249q-19 55 -32 115h-7q-15 -60 -32 -115l-86 -249h241zM475 943l-147 -154h-67l134 154h80z" />
    <glyph glyph-name="Acircumflex" unicode="&#xc2;" horiz-adv-x="643" 
d="M619 0h-71l-87 263h-282l-88 -263h-68l252 743h93zM440 324l-84 249q-19 55 -32 115h-7q-15 -60 -32 -115l-86 -249h241zM500 789h-67l-113 116l-113 -116h-67l138 154h84z" />
    <glyph glyph-name="Atilde" unicode="&#xc3;" horiz-adv-x="643" 
d="M619 0h-71l-87 263h-282l-88 -263h-68l252 743h93zM440 324l-84 249q-19 55 -32 115h-7q-15 -60 -32 -115l-86 -249h241zM511 908q0 -61 -20.5 -92.5t-69.5 -31.5q-46 0 -96 44l-41 39q-34 33 -62 33q-26 0 -34.5 -19t-8.5 -57v-34h-48v34q0 123 91 123q27 0 46.5 -9
t45.5 -32l42 -39q37 -35 64 -35q26 0 34.5 19t8.5 57v34h48v-34z" />
    <glyph glyph-name="Adieresis" unicode="&#xc4;" horiz-adv-x="643" 
d="M619 0h-71l-87 263h-282l-88 -263h-68l252 743h93zM440 324l-84 249q-19 55 -32 115h-7q-15 -60 -32 -115l-86 -249h241zM465 809h-60v119h60v-119zM236 928v-119h-60v119h60z" />
    <glyph glyph-name="Aring" unicode="&#xc5;" horiz-adv-x="643" 
d="M619 0h-71l-87 263h-282l-88 -263h-68l252 743h93zM440 324l-84 249q-19 55 -32 115h-7q-15 -60 -32 -115l-86 -249h241zM436 879q0 -54 -31.5 -81t-82.5 -27q-52 0 -84 27t-32 81t32 81t84 27q51 0 82.5 -27t31.5 -81zM391 879q0 67 -69 67t-69 -67t69 -67q30 0 49.5 16
t19.5 51z" />
    <glyph glyph-name="AE" unicode="&#xc6;" horiz-adv-x="942" 
d="M887 0h-427v263h-275l-87 -263h-68l249 743h608v-60h-361v-265h338v-61h-338v-298h361v-59zM460 323v361h-135q-17 -55 -34 -108l-86 -253h255z" />
    <glyph glyph-name="Ccedilla" unicode="&#xc7;" horiz-adv-x="550" 
d="M520 2q-94 -15 -173 -15q-142 0 -217 77.5t-75 264.5v85q0 186 75 263.5t217 77.5q80 0 173 -16v-55q-113 11 -173 11q-117 0 -171 -64.5t-54 -216.5v-85q0 -152 54 -217t171 -65q60 0 173 11v-56zM376 -68l-135 -141h-68l121 141h82z" />
    <glyph glyph-name="Egrave" unicode="&#xc8;" horiz-adv-x="568" 
d="M513 0h-428v743h428v-60h-361v-265h337v-61h-337v-298h361v-59zM352 789h-67l-147 154h79z" />
    <glyph glyph-name="Eacute" unicode="&#xc9;" horiz-adv-x="568" 
d="M513 0h-428v743h428v-60h-361v-265h337v-61h-337v-298h361v-59zM466 943l-148 -154h-66l134 154h80z" />
    <glyph glyph-name="Ecircumflex" unicode="&#xca;" horiz-adv-x="568" 
d="M513 0h-428v743h428v-60h-361v-265h337v-61h-337v-298h361v-59zM481 789h-67l-113 116l-113 -116h-67l138 154h84z" />
    <glyph glyph-name="Edieresis" unicode="&#xcb;" horiz-adv-x="568" 
d="M513 0h-428v743h428v-60h-361v-265h337v-61h-337v-298h361v-59zM445 808h-59v119h59v-119zM216 927v-119h-60v119h60z" />
    <glyph glyph-name="Igrave" unicode="&#xcc;" horiz-adv-x="240" 
d="M154 0h-67v743h67v-743zM201 789h-67l-148 154h80z" />
    <glyph glyph-name="Iacute" unicode="&#xcd;" horiz-adv-x="240" 
d="M154 0h-67v743h67v-743zM271 942l-147 -154h-67l134 154h80z" />
    <glyph glyph-name="Icircumflex" unicode="&#xce;" horiz-adv-x="240" 
d="M154 0h-67v743h67v-743zM300 789h-67l-113 116l-113 -116h-67l138 154h84z" />
    <glyph glyph-name="Idieresis" unicode="&#xcf;" horiz-adv-x="240" 
d="M154 0h-67v743h67v-743zM265 809h-59v119h59v-119zM36 928v-119h-60v119h60z" />
    <glyph glyph-name="Eth" unicode="&#xd0;" horiz-adv-x="659" 
d="M604 328q0 -166 -76 -249t-243 -83q-76 0 -200 4v357h-57v59h57v327q103 3 200 3q164 0 241.5 -83t77.5 -247v-88zM537 328v88q0 146 -63 208t-194 62q-50 0 -128 -2v-268h166v-59h-166v-298q76 -4 128 -4q131 0 194 63t63 210z" />
    <glyph glyph-name="Ntilde" unicode="&#xd1;" horiz-adv-x="692" 
d="M607 -1h-95l-313 577q-35 66 -53 104h-1q3 -62 3 -128v-552h-63v743h95l314 -571q17 -32 51 -102h1q-3 70 -3 130v543h64v-744zM536 907q0 -61 -20 -92.5t-69 -31.5q-48 0 -96 44l-41 38q-35 34 -62 34q-26 0 -34.5 -19t-8.5 -58v-34h-49v34q0 124 92 124q46 0 92 -42
l42 -39q37 -34 64 -34q26 0 34 18.5t8 57.5v33h48v-33z" />
    <glyph glyph-name="Ograve" unicode="&#xd2;" horiz-adv-x="671" 
d="M616 332q0 -173 -72.5 -259t-207.5 -86q-136 0 -208.5 86t-72.5 259v78q0 173 72.5 259t208.5 86q135 0 207.5 -86t72.5 -259v-78zM549 332v78q0 285 -213 285q-214 0 -214 -285v-78q0 -285 214 -285q213 0 213 285zM403 789h-67l-147 154h79z" />
    <glyph glyph-name="Oacute" unicode="&#xd3;" horiz-adv-x="671" 
d="M616 332q0 -173 -72.5 -259t-207.5 -86q-136 0 -208.5 86t-72.5 259v78q0 173 72.5 259t208.5 86q135 0 207.5 -86t72.5 -259v-78zM549 332v78q0 285 -213 285q-214 0 -214 -285v-78q0 -285 214 -285q213 0 213 285zM485 943l-147 -154h-67l135 154h79z" />
    <glyph glyph-name="Ocircumflex" unicode="&#xd4;" horiz-adv-x="671" 
d="M616 332q0 -173 -72.5 -259t-207.5 -86q-136 0 -208.5 86t-72.5 259v78q0 173 72.5 259t208.5 86q135 0 207.5 -86t72.5 -259v-78zM549 332v78q0 285 -213 285q-214 0 -214 -285v-78q0 -285 214 -285q213 0 213 285zM515 788h-67l-113 117l-113 -117h-67l138 154h84z" />
    <glyph glyph-name="Otilde" unicode="&#xd5;" horiz-adv-x="671" 
d="M616 332q0 -173 -72.5 -259t-207.5 -86q-136 0 -208.5 86t-72.5 259v78q0 173 72.5 259t208.5 86q135 0 207.5 -86t72.5 -259v-78zM549 332v78q0 285 -213 285q-214 0 -214 -285v-78q0 -285 214 -285q213 0 213 285zM525 908q0 -61 -20 -92.5t-69 -31.5q-48 0 -96 44
l-41 38q-35 34 -62 34q-26 0 -34.5 -19t-8.5 -58v-34h-49v34q0 124 92 124q46 0 92 -42l42 -39q37 -34 64 -34q26 0 34 18.5t8 57.5v33h48v-33z" />
    <glyph glyph-name="Odieresis" unicode="&#xd6;" horiz-adv-x="671" 
d="M616 332q0 -173 -72.5 -259t-207.5 -86q-136 0 -208.5 86t-72.5 259v78q0 173 72.5 259t208.5 86q135 0 207.5 -86t72.5 -259v-78zM549 332v78q0 285 -213 285q-214 0 -214 -285v-78q0 -285 214 -285q213 0 213 285zM480 810h-59v119h59v-119zM251 929v-119h-60v119h60z
" />
    <glyph glyph-name="multiply" unicode="&#xd7;" horiz-adv-x="696" 
d="M550 227l-39 -38l-163 163l-165 -165l-38 38l165 166l-166 165l38 38l166 -165l164 165l39 -39l-165 -165z" />
    <glyph glyph-name="Oslash" unicode="&#xd8;" horiz-adv-x="671" 
d="M616 332q0 -173 -72.5 -259t-207.5 -86q-120 0 -189 66l-37 -53h-70l69 98q-54 85 -54 234v78q0 173 72.5 259t208.5 86q121 0 190 -69l40 57h69l-71 -101q52 -86 52 -232v-78zM488 633q-54 62 -152 62q-214 0 -214 -285v-78q0 -111 32 -173zM549 332v78q0 105 -30 170
l-334 -474q52 -59 151 -59q213 0 213 285z" />
    <glyph glyph-name="Ugrave" unicode="&#xd9;" horiz-adv-x="683" 
d="M603 319q0 -167 -63.5 -249t-197.5 -82q-135 0 -198.5 82t-63.5 249v424h67v-417q0 -150 42.5 -214t152.5 -64q108 0 151.5 64.5t43.5 213.5v417h66v-424zM398 789h-67l-147 154h79z" />
    <glyph glyph-name="Uacute" unicode="&#xda;" horiz-adv-x="683" 
d="M603 319q0 -167 -63.5 -249t-197.5 -82q-135 0 -198.5 82t-63.5 249v424h67v-417q0 -150 42.5 -214t152.5 -64q108 0 151.5 64.5t43.5 213.5v417h66v-424zM503 944l-147 -154h-67l134 154h80z" />
    <glyph glyph-name="Ucircumflex" unicode="&#xdb;" horiz-adv-x="683" 
d="M603 319q0 -167 -63.5 -249t-197.5 -82q-135 0 -198.5 82t-63.5 249v424h67v-417q0 -150 42.5 -214t152.5 -64q108 0 151.5 64.5t43.5 213.5v417h66v-424zM522 789h-67l-113 116l-113 -116h-67l138 154h84z" />
    <glyph glyph-name="Udieresis" unicode="&#xdc;" horiz-adv-x="683" 
d="M603 319q0 -167 -63.5 -249t-197.5 -82q-135 0 -198.5 82t-63.5 249v424h67v-417q0 -150 42.5 -214t152.5 -64q108 0 151.5 64.5t43.5 213.5v417h66v-424zM485 809h-60v119h60v-119zM256 928v-119h-60v119h60z" />
    <glyph glyph-name="Yacute" unicode="&#xdd;" horiz-adv-x="601" 
d="M574 743l-240 -443v-300h-67v300l-240 443h73l150 -277q40 -77 50 -102h4q3 7 52 102l149 277h69zM473 943l-147 -154h-67l134 154h80z" />
    <glyph glyph-name="Thorn" unicode="&#xde;" horiz-adv-x="590" 
d="M550 390q0 -121 -74 -169.5t-216 -48.5q-71 0 -110 1v-173h-67v744h67v-129q72 2 112 2q142 0 214.5 -47t73.5 -167v-13zM483 390v13q-1 89 -52 121.5t-169 32.5q-19 0 -112 -3v-322q40 -1 110 -1q118 0 170.5 35t52.5 124z" />
    <glyph glyph-name="germandbls" unicode="&#xdf;" horiz-adv-x="611" 
d="M154 0h-66v511q0 138 53.5 207t176.5 69q114 0 168 -54t54 -146v-9q0 -134 -115 -171q61 -16 96 -61.5t35 -113.5v-21q0 -105 -58 -162.5t-178 -57.5q-29 0 -58 3v52q29 -2 56 -2q89 0 131.5 40.5t42.5 127.5v20q0 146 -184 146h-46v52h46q168 0 168 148v9
q0 70 -35.5 106.5t-122.5 36.5q-91 0 -127.5 -49.5t-36.5 -169.5v-511z" />
    <glyph glyph-name="agrave" unicode="&#xe0;" horiz-adv-x="531" 
d="M458 0h-63v39q-86 -52 -181 -52q-162 0 -162 156v15q0 98 59.5 132t188.5 34h92v46q0 80 -27 105.5t-117 25.5q-63 0 -159 -11v48q98 19 164 19q64 0 105 -10.5t62.5 -35.5t29.5 -57.5t8 -83.5v-370zM392 87v186h-92q-103 0 -143 -22.5t-40 -92.5v-19q0 -101 110 -101
q88 0 165 49zM328 616h-67l-147 154h80z" />
    <glyph glyph-name="aacute" unicode="&#xe1;" horiz-adv-x="531" 
d="M458 0h-63v39q-86 -52 -181 -52q-162 0 -162 156v15q0 98 59.5 132t188.5 34h92v46q0 80 -27 105.5t-117 25.5q-63 0 -159 -11v48q98 19 164 19q64 0 105 -10.5t62.5 -35.5t29.5 -57.5t8 -83.5v-370zM392 87v186h-92q-103 0 -143 -22.5t-40 -92.5v-19q0 -101 110 -101
q88 0 165 49zM432 770l-148 -154h-66l134 154h80z" />
    <glyph glyph-name="acircumflex" unicode="&#xe2;" horiz-adv-x="531" 
d="M458 0h-63v39q-86 -52 -181 -52q-162 0 -162 156v15q0 98 59.5 132t188.5 34h92v46q0 80 -27 105.5t-117 25.5q-63 0 -159 -11v48q98 19 164 19q64 0 105 -10.5t62.5 -35.5t29.5 -57.5t8 -83.5v-370zM392 87v186h-92q-103 0 -143 -22.5t-40 -92.5v-19q0 -101 110 -101
q88 0 165 49zM447 616h-67l-114 116l-112 -116h-67l138 154h84z" />
    <glyph glyph-name="atilde" unicode="&#xe3;" horiz-adv-x="531" 
d="M458 0h-63v39q-86 -52 -181 -52q-162 0 -162 156v15q0 98 59.5 132t188.5 34h92v46q0 80 -27 105.5t-117 25.5q-63 0 -159 -11v48q98 19 164 19q64 0 105 -10.5t62.5 -35.5t29.5 -57.5t8 -83.5v-370zM392 87v186h-92q-103 0 -143 -22.5t-40 -92.5v-19q0 -101 110 -101
q88 0 165 49zM457 737q0 -60 -20.5 -91.5t-69.5 -31.5q-48 0 -96 44l-41 38q-34 34 -62 34q-26 0 -34.5 -19.5t-8.5 -57.5v-34h-48v34q0 124 91 124q27 0 46.5 -9.5t45.5 -32.5l42 -39q37 -35 64 -35q26 0 34.5 19t8.5 57v34h48v-34z" />
    <glyph glyph-name="adieresis" unicode="&#xe4;" horiz-adv-x="531" 
d="M458 0h-63v39q-86 -52 -181 -52q-162 0 -162 156v15q0 98 59.5 132t188.5 34h92v46q0 80 -27 105.5t-117 25.5q-63 0 -159 -11v48q98 19 164 19q64 0 105 -10.5t62.5 -35.5t29.5 -57.5t8 -83.5v-370zM392 87v186h-92q-103 0 -143 -22.5t-40 -92.5v-19q0 -101 110 -101
q88 0 165 49zM412 642h-60v119h60v-119zM183 761v-119h-61v119h61z" />
    <glyph glyph-name="aring" unicode="&#xe5;" horiz-adv-x="531" 
d="M458 0h-63v39q-86 -52 -181 -52q-162 0 -162 156v15q0 98 59.5 132t188.5 34h92v46q0 80 -27 105.5t-117 25.5q-63 0 -159 -11v48q98 19 164 19q64 0 105 -10.5t62.5 -35.5t29.5 -57.5t8 -83.5v-370zM392 87v186h-92q-103 0 -143 -22.5t-40 -92.5v-19q0 -101 110 -101
q88 0 165 49zM388 708q0 -54 -31 -81t-82 -27q-52 0 -84 27t-32 81q0 53 32 80t84 27q51 0 82 -27t31 -80zM343 708q0 66 -68 66q-70 0 -70 -66q0 -67 70 -67q68 0 68 67z" />
    <glyph glyph-name="ae" unicode="&#xe6;" horiz-adv-x="896" 
d="M827 7q-89 -20 -188 -20q-163 0 -211 72q-97 -72 -217 -72q-160 0 -160 153v21q0 96 59.5 129.5t188.5 33.5h93v46q0 80 -27 105.5t-117 25.5q-70 0 -161 -11v48q95 19 165 19q90 0 130 -20t56 -64q52 83 181 83q226 0 226 -261v-46h-387v-55q0 -78 39.5 -115t142.5 -37
q83 0 187 18v-53zM778 304v15q0 181 -159 181q-47 0 -80 -15.5t-49.5 -42t-23.5 -54.5t-7 -61v-23h319zM392 93v180h-93q-103 0 -142.5 -22t-39.5 -90v-26q0 -97 106 -97q92 0 169 55z" />
    <glyph glyph-name="ccedilla" unicode="&#xe7;" horiz-adv-x="466" 
d="M421 4q-77 -17 -149 -17q-112 0 -164.5 61.5t-52.5 193.5v60q0 131 53 193t164 62q69 0 149 -17v-50q-94 10 -140 10q-83 0 -121.5 -42.5t-38.5 -155.5v-60q0 -115 38 -157t122 -42q47 0 140 11v-50zM321 -68l-135 -141h-68l121 141h82z" />
    <glyph glyph-name="egrave" unicode="&#xe8;" horiz-adv-x="559" 
d="M506 249h-386v-12q0 -100 38.5 -146.5t143.5 -46.5q92 0 186 15v-52q-87 -20 -188 -20q-136 0 -190.5 62.5t-54.5 201.5v38q0 268 225 268q226 0 226 -275v-33zM438 304v9q0 40 -6.5 71t-23 58.5t-49 42.5t-79.5 15q-159 0 -159 -187v-9h317zM352 616h-67l-148 154h80z
" />
    <glyph glyph-name="eacute" unicode="&#xe9;" horiz-adv-x="559" 
d="M506 249h-386v-12q0 -100 38.5 -146.5t143.5 -46.5q92 0 186 15v-52q-87 -20 -188 -20q-136 0 -190.5 62.5t-54.5 201.5v38q0 268 225 268q226 0 226 -275v-33zM438 304v9q0 40 -6.5 71t-23 58.5t-49 42.5t-79.5 15q-159 0 -159 -187v-9h317zM454 770l-148 -154h-66
l134 154h80z" />
    <glyph glyph-name="ecircumflex" unicode="&#xea;" horiz-adv-x="559" 
d="M506 249h-386v-12q0 -100 38.5 -146.5t143.5 -46.5q92 0 186 15v-52q-87 -20 -188 -20q-136 0 -190.5 62.5t-54.5 201.5v38q0 268 225 268q226 0 226 -275v-33zM438 304v9q0 40 -6.5 71t-23 58.5t-49 42.5t-79.5 15q-159 0 -159 -187v-9h317zM462 616h-67l-113 116
l-113 -116h-67l138 154h84z" />
    <glyph glyph-name="edieresis" unicode="&#xeb;" horiz-adv-x="559" 
d="M506 249h-386v-12q0 -100 38.5 -146.5t143.5 -46.5q92 0 186 15v-52q-87 -20 -188 -20q-136 0 -190.5 62.5t-54.5 201.5v38q0 268 225 268q226 0 226 -275v-33zM438 304v9q0 40 -6.5 71t-23 58.5t-49 42.5t-79.5 15q-159 0 -159 -187v-9h317zM424 642h-59v119h59v-119z
M195 761v-119h-60v119h60z" />
    <glyph glyph-name="igrave" unicode="&#xec;" horiz-adv-x="236" 
d="M151 0h-66v543h66v-543zM186 616h-67l-148 154h80z" />
    <glyph glyph-name="iacute" unicode="&#xed;" horiz-adv-x="236" 
d="M151 0h-66v543h66v-543zM265 770l-147 -154h-67l135 154h79z" />
    <glyph glyph-name="icircumflex" unicode="&#xee;" horiz-adv-x="236" 
d="M151 0h-66v543h66v-543zM299 616h-67l-114 116l-112 -116h-67l138 154h84z" />
    <glyph glyph-name="idieresis" unicode="&#xef;" horiz-adv-x="236" 
d="M151 0h-66v543h66v-543zM263 642h-59v119h59v-119zM34 761v-119h-60v119h60z" />
    <glyph glyph-name="eth" unicode="&#xf0;" horiz-adv-x="564" 
d="M508 236q0 -120 -56.5 -184.5t-169.5 -64.5t-169.5 64.5t-56.5 184.5v64q0 120 56.5 184.5t169.5 64.5q88 0 137 -54q-35 133 -132 185l-137 -90l-26 35l113 78q-58 20 -133 22q-10 2 -26 0v53h30q104 -2 183 -36l83 53l28 -35l-64 -43q170 -108 170 -417v-64zM443 236
v64q0 98 -38.5 145t-122.5 47q-83 0 -122 -47t-39 -145v-64q0 -98 38.5 -145t122.5 -47t122.5 47t38.5 145z" />
    <glyph glyph-name="ntilde" unicode="&#xf1;" horiz-adv-x="580" 
d="M504 0h-66v344q0 88 -23.5 122t-88.5 34q-70 0 -181 -52v-448h-65v543h65v-44q109 58 187 58q100 0 136 -51t36 -162v-344zM480 737q0 -60 -20 -91.5t-69 -31.5t-96 44l-42 38q-34 34 -62 34q-25 0 -33.5 -19.5t-8.5 -57.5v-34h-49v34q0 124 91 124q46 0 92 -42l43 -39
q37 -35 63 -35t34.5 19t8.5 57v34h48v-34z" />
    <glyph glyph-name="ograve" unicode="&#xf2;" horiz-adv-x="564" 
d="M508 243q0 -256 -226 -256t-226 256v58q0 256 226 256t226 -256v-58zM443 243v58q0 104 -38 151t-123 47q-84 0 -122.5 -47t-38.5 -151v-58q0 -104 38 -151.5t123 -47.5t123 47.5t38 151.5zM345 616h-67l-148 154h80z" />
    <glyph glyph-name="oacute" unicode="&#xf3;" horiz-adv-x="564" 
d="M508 243q0 -256 -226 -256t-226 256v58q0 256 226 256t226 -256v-58zM443 243v58q0 104 -38 151t-123 47q-84 0 -122.5 -47t-38.5 -151v-58q0 -104 38 -151.5t123 -47.5t123 47.5t38 151.5zM439 770l-147 -154h-67l135 154h79z" />
    <glyph glyph-name="ocircumflex" unicode="&#xf4;" horiz-adv-x="564" 
d="M508 243q0 -256 -226 -256t-226 256v58q0 256 226 256t226 -256v-58zM443 243v58q0 104 -38 151t-123 47q-84 0 -122.5 -47t-38.5 -151v-58q0 -104 38 -151.5t123 -47.5t123 47.5t38 151.5zM462 616h-67l-113 116l-113 -116h-67l138 154h84z" />
    <glyph glyph-name="otilde" unicode="&#xf5;" horiz-adv-x="564" 
d="M508 243q0 -256 -226 -256t-226 256v58q0 256 226 256t226 -256v-58zM443 243v58q0 104 -38 151t-123 47q-84 0 -122.5 -47t-38.5 -151v-58q0 -104 38 -151.5t123 -47.5t123 47.5t38 151.5zM472 737q0 -60 -20 -91.5t-69 -31.5t-96 44l-42 38q-34 34 -62 34
q-25 0 -33.5 -19.5t-8.5 -57.5v-34h-49v34q0 124 91 124q46 0 92 -42l43 -39q37 -35 63 -35t34.5 19t8.5 57v34h48v-34z" />
    <glyph glyph-name="odieresis" unicode="&#xf6;" horiz-adv-x="564" 
d="M508 243q0 -256 -226 -256t-226 256v58q0 256 226 256t226 -256v-58zM443 243v58q0 104 -38 151t-123 47q-84 0 -122.5 -47t-38.5 -151v-58q0 -104 38 -151.5t123 -47.5t123 47.5t38 151.5zM427 642h-59v119h59v-119zM198 761v-119h-60v119h60z" />
    <glyph glyph-name="divide" unicode="&#xf7;" horiz-adv-x="696" 
d="M381 109h-67v132h67v-132zM590 418v-55h-485v55h485zM381 530h-67v131h67v-131z" />
    <glyph glyph-name="oslash" unicode="&#xf8;" horiz-adv-x="564" 
d="M508 243q0 -256 -226 -256q-89 0 -144 41l-39 -53h-69l69 92q-43 62 -43 176v58q0 256 226 256q95 0 152 -48l44 59h69l-77 -101q38 -61 38 -166v-58zM443 243v58q0 67 -18 107l-250 -331q39 -33 107 -33q84 0 122.5 47.5t38.5 151.5zM396 460q-38 39 -114 39
q-85 0 -123 -47t-38 -151v-58q0 -77 21 -120z" />
    <glyph glyph-name="ugrave" unicode="&#xf9;" horiz-adv-x="580" 
d="M500 0h-65v44q-111 -57 -193 -57q-94 0 -129.5 53t-35.5 159v344h64v-344q0 -88 24 -122t89 -34q70 0 181 53v447h65v-543zM346 616h-67l-148 154h80z" />
    <glyph glyph-name="uacute" unicode="&#xfa;" horiz-adv-x="580" 
d="M500 0h-65v44q-111 -57 -193 -57q-94 0 -129.5 53t-35.5 159v344h64v-344q0 -88 24 -122t89 -34q70 0 181 53v447h65v-543zM460 770l-148 -154h-66l134 154h80z" />
    <glyph glyph-name="ucircumflex" unicode="&#xfb;" horiz-adv-x="580" 
d="M500 0h-65v44q-111 -57 -193 -57q-94 0 -129.5 53t-35.5 159v344h64v-344q0 -88 24 -122t89 -34q70 0 181 53v447h65v-543zM471 616h-67l-113 116l-113 -116h-67l138 154h84z" />
    <glyph glyph-name="udieresis" unicode="&#xfc;" horiz-adv-x="580" 
d="M500 0h-65v44q-111 -57 -193 -57q-94 0 -129.5 53t-35.5 159v344h64v-344q0 -88 24 -122t89 -34q70 0 181 53v447h65v-543zM435 642h-59v119h59v-119zM206 761v-119h-60v119h60z" />
    <glyph glyph-name="yacute" unicode="&#xfd;" horiz-adv-x="520" 
d="M495 543l-207 -586q-18 -50 -31.5 -78.5t-34.5 -53t-49 -34.5t-68 -10q-44 0 -95 7v52q52 -4 93 -4q48 0 69.5 24.5t50.5 103.5l13 37l-210 542h72l130 -348q23 -69 39 -122h2q15 56 37 123l119 347h70zM434 770l-147 -154h-67l135 154h79z" />
    <glyph glyph-name="thorn" unicode="&#xfe;" horiz-adv-x="560" 
d="M145 -209h-65v982h65v-268q83 52 164 52q100 0 147.5 -61t47.5 -191v-60q0 -137 -59.5 -197.5t-170.5 -60.5q-41 0 -129 13v-209zM439 245v60q0 104 -32 149t-105 45q-65 0 -157 -46v-398q89 -12 128 -12q85 0 125.5 45t40.5 157z" />
    <glyph glyph-name="ydieresis" unicode="&#xff;" horiz-adv-x="520" 
d="M495 543l-207 -586q-18 -50 -31.5 -78.5t-34.5 -53t-49 -34.5t-68 -10q-44 0 -95 7v52q52 -4 93 -4q48 0 69.5 24.5t50.5 103.5l13 37l-210 542h72l130 -348q23 -69 39 -122h2q15 56 37 123l119 347h70zM413 642h-60v119h60v-119zM184 761v-119h-60v119h60z" />
    <glyph glyph-name="dotlessi" unicode="&#x131;" horiz-adv-x="236" 
d="M151 0h-66v543h66v-543z" />
    <glyph glyph-name="Lslash" unicode="&#x141;" horiz-adv-x="531" 
d="M-3 229v80l89 85v349h66v-282l119 118v-80l-119 -118v-322h354v-59h-420v315z" />
    <glyph glyph-name="lslash" unicode="&#x142;" horiz-adv-x="232" 
d="M150 0h-66v328l-72 -70v80l72 70v365h66v-298l71 68v-80l-71 -69v-394z" />
    <glyph glyph-name="OE" unicode="&#x152;" horiz-adv-x="961" 
d="M903 59v-59h-407q-94 -14 -154 -14q-138 0 -212.5 85.5t-74.5 252.5v94q0 167 74.5 252t212.5 85q63 0 149 -12h412v-60h-361v-265h337v-61h-337v-298h361zM475 56v628q-74 11 -133 11q-219 0 -219 -277v-94q0 -278 219 -278q63 0 133 10z" />
    <glyph glyph-name="oe" unicode="&#x153;" horiz-adv-x="945" 
d="M893 249h-387v-17q0 -96 40 -143t142 -47q81 0 187 18v-53q-87 -20 -189 -20q-165 0 -215 105q-52 -106 -192 -106q-113 0 -169.5 65t-56.5 184v73q0 119 56.5 184t169.5 65q141 0 194 -106q52 106 193 106q115 0 171 -69t56 -194v-45zM825 304v14q0 182 -159 182
q-158 0 -160 -172v-24h319zM440 235v73q0 98 -39 145t-122 47t-121.5 -47.5t-39.5 -144.5v-73q1 -97 39.5 -144.5t121.5 -47.5q84 0 122.5 47.5t38.5 144.5z" />
    <glyph glyph-name="Scaron" unicode="&#x160;" horiz-adv-x="572" 
d="M517 183q0 -196 -240 -196q-121 0 -206 18v53q108 -13 206 -13q85 0 128.5 32.5t43.5 105.5q0 54 -28 86t-104 68l-101 47q-82 38 -121.5 83t-39.5 116q0 172 236 172q111 0 201 -18v-54q-112 13 -199 13q-84 0 -127.5 -25.5t-43.5 -87.5q0 -49 28 -80t96 -63l101 -46
q91 -44 130.5 -89.5t39.5 -121.5zM105 943h67l112 -117l114 117h67l-138 -154h-84z" />
    <glyph glyph-name="scaron" unicode="&#x161;" horiz-adv-x="472" 
d="M428 134q0 -147 -197 -147q-100 0 -174 20v51q127 -15 172 -15q73 0 103.5 23t30.5 67q0 40 -24 62.5t-98 52.5l-39 15q-80 33 -116 69.5t-36 92.5q0 132 194 132q97 0 159 -19v-50q-87 12 -156 12q-70 0 -100.5 -16t-30.5 -59q0 -37 23.5 -59t88.5 -48l39 -16
q93 -39 127 -73.5t34 -94.5zM59 770h67l112 -117l114 117h67l-138 -154h-84z" />
    <glyph glyph-name="Ydieresis" unicode="&#x178;" horiz-adv-x="601" 
d="M574 743l-240 -443v-300h-67v300l-240 443h73l150 -277q40 -77 50 -102h4q3 7 52 102l149 277h69zM447 809h-60v119h60v-119zM218 928v-119h-60v119h60z" />
    <glyph glyph-name="Zcaron" unicode="&#x17d;" horiz-adv-x="604" 
d="M557 0h-510v73l423 610h-407v60h479v-73l-422 -611h437v-59zM132 943h67l112 -117l114 117h67l-138 -154h-84z" />
    <glyph glyph-name="zcaron" unicode="&#x17e;" horiz-adv-x="479" 
d="M433 0h-391v72l319 416h-307v55h378v-67l-323 -422h324v-54zM69 770h67l113 -117l113 117h67l-138 -154h-84z" />
    <glyph glyph-name="florin" unicode="&#x192;" horiz-adv-x="628" 
d="M572 745l-6 -47q-43 5 -76 5q-51 0 -73 -21t-30 -87l-24 -175h178l-8 -55h-179l-47 -356q-11 -87 -49 -121t-109 -34q-51 0 -93 10l7 47q42 -5 78 -5q48 0 70 21t31 86l47 352h-156l8 55h157l24 179q12 88 49.5 122t111.5 34q49 0 89 -10z" />
    <glyph glyph-name="circumflex" unicode="&#x2c6;" horiz-adv-x="453" 
d="M407 616h-67l-114 116l-112 -116h-67l138 154h84z" />
    <glyph glyph-name="caron" unicode="&#x2c7;" horiz-adv-x="453" 
d="M47 770h67l112 -117l114 117h67l-138 -154h-84z" />
    <glyph glyph-name="uni02C9" unicode="&#x2c9;" horiz-adv-x="451" 
d="M397 664h-343v52h343v-52z" />
    <glyph glyph-name="breve" unicode="&#x2d8;" horiz-adv-x="445" 
d="M385 771q-14 -156 -162 -156q-82 0 -119 41.5t-43 114.5h50q5 -57 30.5 -84t81.5 -27q55 0 80.5 27t31.5 84h50z" />
    <glyph glyph-name="dotaccent" unicode="&#x2d9;" horiz-adv-x="431" 
d="M253 649h-65v121h65v-121z" />
    <glyph glyph-name="ring" unicode="&#x2da;" horiz-adv-x="445" 
d="M338 711q0 -54 -31.5 -81t-82.5 -27q-52 0 -84 27t-32 81t32 81t84 27q51 0 82.5 -27t31.5 -81zM292 711q0 67 -68 67q-69 0 -69 -67t69 -67q68 0 68 67z" />
    <glyph glyph-name="ogonek" unicode="&#x2db;" horiz-adv-x="445" 
d="M338 -207q-30 -10 -85 -10q-121 0 -121 94q0 74 135 132l71 -9q-83 -37 -116.5 -64t-33.5 -56q0 -54 71 -54q10 0 79 6v-39z" />
    <glyph glyph-name="tilde" unicode="&#x2dc;" horiz-adv-x="448" 
d="M414 737q0 -60 -20 -91.5t-69 -31.5q-48 0 -96 44l-41 38q-35 34 -62 34q-26 0 -34.5 -19.5t-8.5 -57.5v-34h-49v34q0 124 92 124q27 0 46.5 -9.5t45.5 -32.5l42 -39q37 -35 64 -35q26 0 34 18.5t8 57.5v34h48v-34z" />
    <glyph glyph-name="hungarumlaut" unicode="&#x2dd;" horiz-adv-x="449" 
d="M477 768l-147 -154h-67l135 154h79zM209 768h80l-147 -154h-68z" />
    <glyph glyph-name="uni037E" unicode="&#x37e;" horiz-adv-x="236" 
d="M153 266h-66v138h66v-138z" />
    <glyph glyph-name="uni03A9" unicode="&#x3a9;" horiz-adv-x="663" 
d="M611 389q0 -209 -173 -278v-55h164v-56h-226v144q168 51 168 245v59q0 131 -57 189.5t-155 58.5t-155 -58.5t-57 -189.5v-59q0 -194 168 -245v-144h-226v56h164v55q-173 69 -173 278v59q0 150 74.5 228.5t204.5 78.5q131 0 205 -78.5t74 -228.5v-59z" />
    <glyph glyph-name="uni03BC" unicode="&#x3bc;" horiz-adv-x="627" 
d="M525 0h-65v44q-111 -57 -194 -57q-71 0 -99 38v-234h-66v752h65v-344q0 -88 24 -122t89 -34q70 0 181 53v447h65v-543z" />
    <glyph glyph-name="pi" unicode="&#x3c0;" horiz-adv-x="614" 
d="M577 -9q-25 -5 -53 -5q-61 0 -83 32t-22 104v360h-214v-482h-66v482h-94v61h532v-61h-93v-360q0 -48 10 -64.5t44 -16.5h39v-50z" />
    <glyph glyph-name="figuredash" unicode="&#x2012;" horiz-adv-x="653" 
d="M588 264h-513v56h513v-56z" />
    <glyph glyph-name="endash" unicode="&#x2013;" horiz-adv-x="498" 
d="M427 262h-356v57h356v-57z" />
    <glyph glyph-name="emdash" unicode="&#x2014;" horiz-adv-x="637" 
d="M566 262h-495v57h495v-57z" />
    <glyph glyph-name="quoteleft" unicode="&#x2018;" horiz-adv-x="162" 
d="M142 773l-52 -229h-70l71 229h51z" />
    <glyph glyph-name="quoteright" unicode="&#x2019;" horiz-adv-x="162" 
d="M142 773l-70 -229h-52l52 229h70z" />
    <glyph glyph-name="quotesinglbase" unicode="&#x201a;" horiz-adv-x="162" 
d="M142 134l-70 -228h-52l52 228h70z" />
    <glyph glyph-name="quotedblleft" unicode="&#x201c;" horiz-adv-x="346" 
d="M326 773l-53 -229h-70l71 229h52zM91 773h51l-52 -229h-70z" />
    <glyph glyph-name="quotedblright" unicode="&#x201d;" horiz-adv-x="346" 
d="M20 544l53 229h70l-71 -229h-52zM255 544h-51l52 229h70z" />
    <glyph glyph-name="quotedblbase" unicode="&#x201e;" horiz-adv-x="346" 
d="M20 -95l53 229h70l-71 -229h-52zM255 -95h-51l52 229h70z" />
    <glyph glyph-name="dagger" unicode="&#x2020;" horiz-adv-x="494" 
d="M419 495h-144v-615h-65v615h-132v58h132v220h65v-220h144v-58z" />
    <glyph glyph-name="daggerdbl" unicode="&#x2021;" horiz-adv-x="494" 
d="M421 277h-146v-397h-65v397h-134v58h134v156h-134v58h134v221h65v-221h146v-58h-146v-156h146v-58z" />
    <glyph glyph-name="bullet" unicode="&#x2022;" horiz-adv-x="533" 
d="M398 369q0 -54 -38.5 -93t-93.5 -39q-54 0 -93 39t-39 93q0 55 39 93.5t93 38.5q55 0 93.5 -38.5t38.5 -93.5z" />
    <glyph glyph-name="onedotenleader" unicode="&#x2024;" horiz-adv-x="210" 
d="M138 0h-66v136h66v-136z" />
    <glyph glyph-name="twodotenleader" unicode="&#x2025;" horiz-adv-x="428" 
d="M138 0h-66v136h66v-136zM356 0h-66v136h66v-136z" />
    <glyph glyph-name="ellipsis" unicode="&#x2026;" horiz-adv-x="768" 
d="M142 0h-66v136h66v-136zM417 0h-66v136h66v-136zM691 0h-65v136h65v-136z" />
    <glyph glyph-name="perthousand" unicode="&#x2030;" horiz-adv-x="1414" 
d="M1358 189q0 -100 -43 -150t-123 -50t-123 50t-43 150v58q0 100 43 149.5t123 49.5t123 -49.5t43 -149.5v-58zM1299 189v58q0 82 -28.5 115.5t-78.5 33.5t-78.5 -33.5t-28.5 -115.5v-58q0 -82 28.5 -115.5t78.5 -33.5t78.5 33.5t28.5 115.5zM959 189q0 -100 -43.5 -150
t-122.5 -50q-80 0 -123.5 50t-43.5 150v58q0 100 43.5 149.5t123.5 49.5q79 0 122.5 -49.5t43.5 -149.5v-58zM900 189v58q0 149 -107 149q-108 0 -108 -149v-58q0 -149 108 -149q107 0 107 149zM779 743l-474 -743h-67l474 743h67zM391 497q0 -201 -166 -201
q-84 0 -125 52.5t-41 148.5v56q0 201 166 201t166 -201v-56zM332 497v56q0 82 -26.5 116.5t-80.5 34.5q-53 0 -80 -35.5t-27 -115.5v-56q0 -82 26.5 -116t80.5 -34t80.5 34t26.5 116z" />
    <glyph glyph-name="guilsinglleft" unicode="&#x2039;" horiz-adv-x="350" 
d="M294 78h-78l-160 207l160 206h78l-157 -206z" />
    <glyph glyph-name="guilsinglright" unicode="&#x203a;" horiz-adv-x="350" 
d="M295 285l-161 -207h-78l158 207l-158 206h78z" />
    <glyph glyph-name="exclamdbl" unicode="&#x203c;" horiz-adv-x="431" 
d="M149 0h-67v127h67v-127zM151 765l-6 -574h-58l-7 574h71zM349 0h-67v127h67v-127zM351 765l-6 -574h-58l-7 574h71z" />
    <glyph glyph-name="fraction" unicode="&#x2044;" horiz-adv-x="396" 
d="M470 743l-473 -743h-67l473 743h67z" />
    <glyph glyph-name="zero.superior" unicode="&#x2070;" horiz-adv-x="438" 
d="M387 525q0 -100 -44 -149.5t-125 -49.5t-124.5 49.5t-43.5 149.5v58q0 101 43.5 150.5t124.5 49.5t125 -50t44 -150v-58zM326 525v58q0 151 -108 151q-51 0 -79.5 -34t-28.5 -117v-58q0 -82 28.5 -115.5t79.5 -33.5q108 0 108 149z" />
    <glyph glyph-name="i.superior" unicode="&#x2071;" horiz-adv-x="190" 
d="M66 635h58v-333h-58v333zM125 696h-60v77h60v-77z" />
    <glyph glyph-name="four.superior" unicode="&#x2074;" horiz-adv-x="449" 
d="M331 335h-60v117h-225v49l227 275h58v-279h72v-45h-72v-117zM273 497v210l-170 -210h170z" />
    <glyph glyph-name="five.superior" unicode="&#x2075;" horiz-adv-x="422" 
d="M346 729h-209l-13 -129h69q90 0 130.5 -28.5t40.5 -98.5v-9q0 -72 -43 -105t-131 -33q-73 0 -132 14v42q74 -10 126 -10q66 0 92.5 21t26.5 70v10q0 48 -25.5 65t-92.5 17h-119l21 221h259v-47z" />
    <glyph glyph-name="six.superior" unicode="&#x2076;" horiz-adv-x="447" 
d="M366 770v-43q-72 9 -131 9q-72 0 -96 -29t-25 -92v-22q58 14 113 14q35 0 61 -4.5t50 -17t36.5 -37t12.5 -61.5v-21q0 -74 -46.5 -107t-115.5 -33q-83 0 -126.5 40t-43.5 140v104q0 88 39.5 130.5t136.5 42.5q70 0 135 -13zM327 466v20q0 47 -26.5 63t-77.5 16
q-59 0 -109 -12v-53q0 -73 28.5 -101t82.5 -28q46 0 74 23t28 72z" />
    <glyph glyph-name="seven.superior" unicode="&#x2077;" horiz-adv-x="414" 
d="M59 729v47h303v-54l-208 -387h-66l215 394h-244z" />
    <glyph glyph-name="eight.superior" unicode="&#x2078;" horiz-adv-x="462" 
d="M401 458q0 -79 -45 -105.5t-130 -26.5q-83 0 -127.5 26.5t-44.5 105.5v7q0 73 59 99q-57 26 -57 97v6q0 66 45.5 91t127.5 25q80 0 125 -25t45 -91v-6q0 -71 -56 -97q58 -27 58 -99v-7zM341 459v6q0 78 -71 78h-84q-39 0 -55.5 -20t-16.5 -58v-6q0 -52 28 -70.5t87 -18.5
q56 0 84 18.5t28 70.5zM340 660v6q0 42 -28.5 57.5t-85.5 15.5q-55 0 -83 -15.5t-28 -57.5v-6q0 -74 71 -74h84q70 0 70 74z" />
    <glyph glyph-name="nine.superior" unicode="&#x2079;" horiz-adv-x="447" 
d="M75 339v43q75 -9 132 -9q71 0 95.5 29.5t24.5 91.5v23q-56 -14 -112 -14q-35 0 -61 4.5t-50 17t-37 37t-13 61.5v21q0 74 47 106.5t117 32.5q82 0 125.5 -39.5t43.5 -139.5v-104q0 -87 -40 -130.5t-136 -43.5q-55 0 -136 13zM327 557v53q0 73 -28 101t-82 28
q-47 0 -75 -23.5t-28 -71.5v-20q0 -47 26.5 -63t77.5 -16q60 0 109 12z" />
    <glyph glyph-name="parenleft.superior" unicode="&#x207d;" horiz-adv-x="250" 
d="M205 262h-59q-87 108 -87 260v5q0 154 88 263h59q-86 -120 -86 -263v-5q0 -144 85 -260z" />
    <glyph glyph-name="parenright.superior" unicode="&#x207e;" horiz-adv-x="250" 
d="M190 522q0 -83 -26 -150.5t-61 -109.5h-58q84 115 84 260v5q0 146 -86 263h59q88 -109 88 -263v-5z" />
    <glyph glyph-name="n.superior" unicode="&#x207f;" horiz-adv-x="399" 
d="M340 302h-58v208q0 51 -13.5 70t-49.5 19q-41 0 -102 -29v-268h-59v333h57v-23q68 33 115 33q65 0 87.5 -32.5t22.5 -100.5v-210z" />
    <glyph glyph-name="zero.inferior" unicode="&#x2080;" horiz-adv-x="447" 
d="M392 -19q0 -100 -44 -150t-125 -50t-124.5 50t-43.5 150v58q0 100 43.5 149.5t124.5 49.5t125 -49.5t44 -149.5v-58zM332 -20v59q0 83 -29 116.5t-80 33.5q-108 0 -108 -150v-59q0 -149 108 -149q51 0 80 33.5t29 115.5z" />
    <glyph glyph-name="one.inferior" unicode="&#x2081;" horiz-adv-x="379" 
d="M326 -210h-272v44l105 2v340l-106 -34v49l122 42h44v-397l107 -2v-44z" />
    <glyph glyph-name="two.inferior" unicode="&#x2082;" horiz-adv-x="421" 
d="M65 184v41q57 13 137 13q82 0 121 -25t39 -81q0 -45 -26 -76t-98 -66q-77 -38 -98.5 -64.5t-21.5 -82.5v-5h238v-48h-298v44q0 76 29 114t115 80q64 31 82 51t18 52q0 35 -24.5 48.5t-81.5 13.5q-47 0 -131 -9z" />
    <glyph glyph-name="three.inferior" unicode="&#x2083;" horiz-adv-x="416" 
d="M190 -219q-84 0 -130 13v41q92 -8 125 -8q61 0 87 18.5t26 67.5v8q0 36 -17 55t-68 19h-135v45h136q50 0 67 20.5t17 56.5v6q0 38 -24.5 53.5t-87.5 15.5q-30 0 -126 -8v42q68 12 130 12q87 0 127.5 -25.5t40.5 -87.5v-6q0 -78 -64 -102q64 -20 64 -98v-8q0 -68 -41 -99
t-127 -31z" />
    <glyph glyph-name="four.inferior" unicode="&#x2084;" horiz-adv-x="447" 
d="M329 -210h-60v117h-225v49l227 275h58v-279h72v-45h-72v-117zM271 -48v210l-170 -210h170z" />
    <glyph glyph-name="five.inferior" unicode="&#x2085;" horiz-adv-x="422" 
d="M346 184h-209l-13 -129h69q90 0 130.5 -28.5t40.5 -98.5v-9q0 -72 -43 -105t-131 -33q-73 0 -132 14v42q74 -10 126 -10q66 0 92.5 21t26.5 70v10q0 48 -25.5 65t-92.5 17h-119l21 221h259v-47z" />
    <glyph glyph-name="six.inferior" unicode="&#x2086;" horiz-adv-x="443" 
d="M366 225v-43q-72 9 -131 9q-72 0 -96 -29t-25 -92v-22q58 14 113 14q35 0 61 -4.5t50 -17t36.5 -37t12.5 -61.5v-21q0 -74 -46.5 -107t-115.5 -33q-83 0 -126.5 40t-43.5 140v104q0 88 39.5 130.5t136.5 42.5q70 0 135 -13zM327 -79v20q0 47 -26.5 63t-77.5 16
q-59 0 -109 -12v-53q0 -73 28.5 -101t82.5 -28q46 0 74 23t28 72z" />
    <glyph glyph-name="seven.inferior" unicode="&#x2087;" horiz-adv-x="412" 
d="M57 184v47h303v-54l-208 -387h-66l215 394h-244z" />
    <glyph glyph-name="eight.inferior" unicode="&#x2088;" horiz-adv-x="455" 
d="M401 -87q0 -79 -44.5 -105.5t-127.5 -26.5h-3q-83 0 -127.5 26.5t-44.5 105.5v7q0 73 59 99q-57 26 -57 97v6q0 66 45 91t125 25h3q80 0 125 -25t45 -91v-6q0 -71 -56 -97q58 -27 58 -99v-7zM341 -86v6q0 78 -71 78h-84q-39 0 -55.5 -20t-16.5 -58v-6q0 -52 28 -70.5
t84 -18.5h3q56 0 84 18.5t28 70.5zM340 115v6q0 42 -28 57.5t-83 15.5h-3q-55 0 -83 -15.5t-28 -57.5v-6q0 -74 71 -74h84q70 0 70 74z" />
    <glyph glyph-name="nine.inferior" unicode="&#x2089;" horiz-adv-x="443" 
d="M76 -206v43q75 -9 131 -9q72 0 96.5 29.5t24.5 91.5v23q-56 -14 -113 -14q-34 0 -60 4.5t-50 17t-37 37t-13 61.5v21q0 74 47 106.5t117 32.5q81 0 124.5 -39.5t43.5 -139.5v-104q0 -88 -39.5 -131t-136.5 -43q-57 0 -135 13zM328 12v53q0 73 -28 101t-82 28
q-47 0 -75 -23.5t-28 -71.5v-20q0 -47 26.5 -63t77.5 -16q60 0 109 12z" />
    <glyph glyph-name="parenleft.inferior" unicode="&#x208d;" horiz-adv-x="250" 
d="M204 -242h-58q-35 42 -61 109.5t-26 151.5v4q0 154 88 263h59q-86 -115 -86 -263v-4q0 -146 84 -261z" />
    <glyph glyph-name="parenright.inferior" unicode="&#x208e;" horiz-adv-x="250" 
d="M190 19q0 -153 -87 -261h-59q85 114 85 261v4q0 148 -86 263h59q88 -109 88 -263v-4z" />
    <glyph glyph-name="colonmonetary" unicode="&#x20a1;" horiz-adv-x="467" 
d="M425 540v-50q-68 10 -139 10q-81 0 -121 -42t-40 -145v-81q0 -104 39 -146.5t120 -42.5q49 0 141 11v-50q-36 -7 -66 -11v-106h-55v100h-25q-26 0 -46 3v-103h-54v119q-120 46 -120 226v81q0 176 120 225v125h54v-110q20 4 51 4h20v106h55v-112q38 -4 66 -11z" />
    <glyph glyph-name="franc" unicode="&#x20a3;" horiz-adv-x="576" 
d="M165 0h-66v176h-58v61h58v506h428v-60h-362v-265h338v-61h-338v-120h193v-61h-193v-176z" />
    <glyph glyph-name="lira" unicode="&#x20a4;" horiz-adv-x="613" 
d="M545 736v-55q-95 13 -177 13q-100 0 -130 -38.5t-30 -148.5v-55h260v-56h-260v-91h260v-56h-260v-55q0 -81 -44 -137h381v-57h-455v52q51 55 51 142v55h-82v56h82v91h-82v56h82v55q0 133 46 189.5t177 56.5q94 0 181 -17z" />
    <glyph glyph-name="peseta" unicode="&#x20a7;" horiz-adv-x="654" 
d="M107 558v185q9 0 77 2t108 2q134 0 205.5 -42t81.5 -147h61v-59h-61q-8 -108 -80.5 -152.5t-207.5 -44.5q-75 0 -117 1v-303h-67v499h-69v59h69zM513 520v13q0 89 -51 121.5t-170 32.5q-19 0 -118 -3v-322q42 -1 117 -1q117 0 169.5 35t52.5 124z" />
    <glyph glyph-name="Euro" unicode="&#x20ac;" horiz-adv-x="637" 
d="M404 695q-95 0 -148.5 -45t-69.5 -164h343l-15 -53h-335q-4 -51 1 -123h299l-14 -52h-278q17 -120 70.5 -165.5t146.5 -45.5q58 0 171 12v-56q-88 -16 -174 -16q-117 0 -191 60.5t-93 210.5h-68v52h63q-5 71 -1 123h-62v53h68q9 78 34.5 132.5t65 83.5t83.5 41t101 12
q94 0 174 -17v-55q-141 12 -171 12z" />
    <glyph glyph-name="litre" unicode="&#x2113;" horiz-adv-x="460" 
d="M411 39q-68 -56 -135 -56q-66 0 -97 37.5t-31 115.5v129q-10 -9 -36 -32.5t-40 -36.5l-30 35q54 49 106 99v267q0 95 30 142t101 47q65 0 93.5 -35.5t28.5 -92.5q0 -84 -45.5 -158.5t-141.5 -171.5v-184q0 -61 16.5 -84t57.5 -23q44 0 92 40zM348 658q0 78 -64 78
q-44 0 -57 -32.5t-13 -106.5v-200q72 78 103 136t31 125z" />
    <glyph glyph-name="trademark" unicode="&#x2122;" horiz-adv-x="867" 
d="M791 349h-55v249q0 27 2 81h-1q-22 -41 -38 -65l-70 -110h-45l-69 109q-15 22 -39 66h-1q2 -54 2 -81v-249h-54v394h66l88 -143q14 -22 29 -50h1q15 28 29 50l88 143h67v-394zM355 698h-129v-349h-55v349h-129v45h313v-45z" />
    <glyph glyph-name="Omega" unicode="&#x2126;" horiz-adv-x="663" 
d="M611 389q0 -209 -173 -278v-55h164v-56h-226v144q168 51 168 245v59q0 131 -57 189.5t-155 58.5t-155 -58.5t-57 -189.5v-59q0 -194 168 -245v-144h-226v56h164v55q-173 69 -173 278v59q0 150 74.5 228.5t204.5 78.5q131 0 205 -78.5t74 -228.5v-59z" />
    <glyph glyph-name="estimated" unicode="&#x212e;" horiz-adv-x="646" 
d="M613 282h-452v-193q71 -63 160 -63q81 0 130 33t91 94l33 -19q-47 -69 -104.5 -105t-149.5 -36q-126 0 -206 84.5t-80 205.5q0 123 79.5 206.5t210.5 83.5q130 0 209 -84.5t79 -206.5zM487 315v163q-30 26 -74 44t-88 18q-100 0 -164 -62v-163h326z" />
    <glyph glyph-name="onethird" unicode="&#x2153;" horiz-adv-x="963" 
d="M727 743l-473 -743h-67l474 743h66zM335 307h-273v44l106 2v340l-107 -34v49l122 42h45v-397l107 -2v-44zM620 394v42q68 12 130 12q87 0 127.5 -25.5t40.5 -87.5v-6q0 -78 -64 -102q64 -20 64 -98v-8q0 -68 -41 -99t-127 -31q-84 0 -130 13v41q92 -8 125 -8
q61 0 87 18.5t26 67.5v8q0 36 -17 55t-68 19h-135v45h136q50 0 67 20.5t17 56.5v6q0 38 -24.5 53.5t-87.5 15.5q-30 0 -126 -8z" />
    <glyph glyph-name="twothirds" unicode="&#x2154;" horiz-adv-x="1012" 
d="M766 743l-474 -743h-66l474 743h66zM64 701v41q57 13 137 13q82 0 121 -25t39 -81q0 -45 -26 -76t-98 -66q-77 -38 -98.5 -64.5t-21.5 -82.5v-5h238v-48h-298v44q0 76 29 114t115 80q64 31 82 51t18 52q0 35 -24.5 48.5t-81.5 13.5q-47 0 -131 -9zM651 394v42
q68 12 130 12q87 0 127.5 -25.5t40.5 -87.5v-6q0 -78 -63 -102q63 -21 63 -98v-8q0 -68 -40.5 -99t-127.5 -31q-81 0 -130 13v41q96 -8 125 -8q61 0 87 18.5t26 67.5v8q0 36 -17 55t-68 19h-135v45h136q51 0 67.5 20.5t16.5 56.5v6q0 39 -24.5 54t-87.5 15q-26 0 -126 -8z
" />
    <glyph glyph-name="oneeighth" unicode="&#x215b;" horiz-adv-x="980" 
d="M727 743l-473 -743h-67l474 743h66zM335 307h-273v46h106v340l-107 -34v49l122 42h45v-399h107v-44zM922 123q0 -79 -45 -105.5t-130 -26.5q-83 0 -127.5 26.5t-44.5 105.5v7q0 73 59 99q-57 26 -57 97v6q0 66 45.5 91t127.5 25q80 0 125 -25t45 -91v-6q0 -71 -56 -97
q58 -27 58 -99v-7zM862 124v6q0 78 -71 78h-84q-39 0 -55.5 -20t-16.5 -58v-6q0 -52 28 -70.5t87 -18.5q56 0 84 18.5t28 70.5zM861 325v6q0 42 -28.5 57.5t-85.5 15.5q-55 0 -83 -15.5t-28 -57.5v-6q0 -74 71 -74h84q70 0 70 74z" />
    <glyph glyph-name="threeeighths" unicode="&#x215c;" horiz-adv-x="1011" 
d="M749 743l-473 -743h-67l473 743h67zM60 701v41q55 13 130 13q87 0 127.5 -25.5t40.5 -87.5v-6q0 -78 -64 -102q64 -22 64 -98v-8q0 -68 -41 -99t-127 -31q-74 0 -130 12v42q92 -8 125 -8q60 0 86.5 18.5t26.5 66.5v8q0 36 -17 55.5t-68 19.5h-135v45h136q50 0 67 20.5
t17 56.5v5q0 39 -24.5 54.5t-87.5 15.5q-30 0 -126 -8zM922 123q0 -79 -45 -105.5t-130 -26.5q-83 0 -127.5 26.5t-44.5 105.5v7q0 73 59 99q-57 26 -57 97v6q0 66 45.5 91t127.5 25q80 0 125 -25t45 -91v-6q0 -71 -56 -97q58 -27 58 -99v-7zM862 124v6q0 78 -71 78h-84
q-39 0 -55.5 -20t-16.5 -58v-6q0 -52 28 -70.5t87 -18.5q56 0 84 18.5t28 70.5zM861 325v6q0 42 -28.5 57.5t-85.5 15.5q-55 0 -83 -15.5t-28 -57.5v-6q0 -74 71 -74h84q70 0 70 74z" />
    <glyph glyph-name="fiveeighths" unicode="&#x215d;" horiz-adv-x="1016" 
d="M754 743l-474 -743h-67l474 743h67zM959 123q0 -79 -45 -105.5t-130 -26.5q-83 0 -127.5 26.5t-44.5 105.5v7q0 73 59 99q-57 26 -57 97v6q0 66 45.5 91t127.5 25q80 0 125 -25t45 -91v-6q0 -71 -56 -97q58 -27 58 -99v-7zM899 124v6q0 78 -71 78h-84q-39 0 -55.5 -20
t-16.5 -58v-6q0 -52 28 -70.5t87 -18.5q56 0 84 18.5t28 70.5zM898 325v6q0 42 -28.5 57.5t-85.5 15.5q-55 0 -83 -15.5t-28 -57.5v-6q0 -74 71 -74h84q70 0 70 74zM347 701h-209l-12 -129h68q90 0 130.5 -28.5t40.5 -98.5v-9q0 -72 -42.5 -105t-130.5 -33q-76 0 -132 14v42
q74 -10 125 -10q66 0 92.5 21t26.5 70v10q0 48 -25.5 65t-91.5 17h-119l20 221h259v-47z" />
    <glyph glyph-name="seveneighths" unicode="&#x215e;" horiz-adv-x="933" 
d="M671 743l-474 -743h-66l474 743h66zM56 701v47h302v-54l-208 -387h-65l214 394h-243zM875 123q0 -79 -45 -105.5t-130 -26.5q-83 0 -127.5 26.5t-44.5 105.5v7q0 73 59 99q-57 26 -57 97v6q0 66 45.5 91t127.5 25q80 0 125 -25t45 -91v-6q0 -71 -56 -97q58 -27 58 -99v-7
zM815 124v6q0 78 -71 78h-84q-39 0 -55.5 -20t-16.5 -58v-6q0 -52 28 -70.5t87 -18.5q56 0 84 18.5t28 70.5zM814 325v6q0 42 -28.5 57.5t-85.5 15.5q-55 0 -83 -15.5t-28 -57.5v-6q0 -74 71 -74h84q70 0 70 74z" />
    <glyph glyph-name="partialdiff" unicode="&#x2202;" horiz-adv-x="604" 
d="M543 460q0 -100 -21 -220q-24 -129 -88 -191.5t-172 -62.5q-200 0 -200 195q0 68 14 113q18 92 79 143t162 51q59 0 103 -23t55 -64q4 43 2 90q-3 113 -50.5 172.5t-160.5 59.5q-68 0 -136 -15v53q65 17 138 17q275 0 275 -318zM462 300q0 131 -145 131q-147 0 -177 -148
q-14 -43 -14 -102q0 -71 34 -104t108 -33q162 0 189 194q5 40 5 62z" />
    <glyph glyph-name="Delta" unicode="&#x2206;" horiz-adv-x="674" 
d="M637 0h-600l252 743h94zM545 59l-166 497q-20 59 -41 139h-2q-4 -15 -12 -42.5t-15 -51.5t-14 -45l-167 -497h417z" />
    <glyph glyph-name="product" unicode="&#x220f;" horiz-adv-x="713" 
d="M677 682h-104v-748h-67v748h-297v-748h-67v748h-104v61h639v-61z" />
    <glyph glyph-name="summation" unicode="&#x2211;" horiz-adv-x="588" 
d="M513 -66h-434v60l238 339l-238 350v60h434v-61h-352l225 -332v-36l-225 -319h352v-61z" />
    <glyph glyph-name="minus" unicode="&#x2212;" horiz-adv-x="696" 
d="M585 364h-476v55h476v-55z" />
    <glyph glyph-name="uni2215" unicode="&#x2215;" horiz-adv-x="391" 
d="M464 743l-473 -743h-67l474 743h66z" />
    <glyph glyph-name="uni2219" unicode="&#x2219;" horiz-adv-x="213" 
d="M140 300h-67v138h67v-138z" />
    <glyph glyph-name="radical" unicode="&#x221a;" horiz-adv-x="789" 
d="M738 873l-313 -947h-83l-166 495h-119v60h165l162 -496q48 147 144.5 443.5t144.5 444.5h65z" />
    <glyph glyph-name="infinity" unicode="&#x221e;" horiz-adv-x="757" 
d="M633 364q0 -229 -141 -229h-6q-69 0 -119 63q-34 -64 -99 -64h-7q-141 0 -141 230v19q0 229 142 229h6q68 0 117 -65q32 65 102 65h6q140 0 140 -230v-18zM576 364v18q0 26 -1 46t-6 46t-13 42.5t-24.5 28.5t-38.5 12h-6q-42 -1 -57 -42t-25 -145q-9 -85 -18 -118
q43 -63 99 -63h6q28 0 46 16t25.5 46t10 55t2.5 58zM367 492q-44 65 -99 65h-6q-28 0 -46.5 -16t-26 -45.5t-10 -54.5t-2.5 -58v-19q0 -34 2.5 -58.5t10 -54.5t25.5 -46t46 -16h7q39 0 55.5 43t27.5 144q7 72 16 116z" />
    <glyph glyph-name="integral" unicode="&#x222b;" horiz-adv-x="515" 
d="M459 703q-64 4 -90 4q-50 0 -64 -21t-14 -86v-646q0 -81 -26 -120t-110 -39q-47 0 -97 11v46q64 -4 91 -4q49 0 63 20.5t14 85.5v646q0 82 26.5 121t110.5 39q49 0 96 -11v-46z" />
    <glyph glyph-name="approxequal" unicode="&#x2248;" horiz-adv-x="696" 
d="M573 567q0 -72 -23 -108.5t-82 -36.5q-58 0 -115 49l-53 46q-46 40 -72 40q-30 0 -39.5 -21t-9.5 -68v-36h-57v36q0 145 106 145q29 0 51.5 -12t54.5 -40l52 -45q17 -15 25 -21.5t20.5 -12t24.5 -5.5q39 0 49.5 18.5t10.5 71.5v36h57v-36zM573 312q0 -72 -23 -108.5
t-82 -36.5t-115 49l-53 47q-18 16 -26.5 22.5t-21 12t-24.5 5.5q-30 0 -39.5 -21t-9.5 -69v-36h-57v36q0 145 106 145q47 0 106 -51l52 -46q43 -39 82 -39q29 0 38.5 21.5t9.5 68.5v36h57v-36z" />
    <glyph glyph-name="notequal" unicode="&#x2260;" horiz-adv-x="696" 
d="M568 252h-239l-89 -252h-58l89 252h-141v55h162l60 169h-222v56h242l76 213h57l-75 -213h138v-56h-159l-59 -169h218v-55z" />
    <glyph glyph-name="lessequal" unicode="&#x2264;" horiz-adv-x="696" 
d="M588 0h-482v55h482v-55zM505 149h-89l-279 246l279 246h89l-278 -246z" />
    <glyph glyph-name="greaterequal" unicode="&#x2265;" horiz-adv-x="696" 
d="M588 0h-482v55h482v-55zM557 395l-278 -246h-90l279 246l-279 246h90z" />
    <glyph glyph-name="lozenge" unicode="&#x25ca;" horiz-adv-x="685" 
d="M584 360l-245 -298l-240 295l243 300zM515 360l-173 212l-174 -215l171 -210z" />
    <glyph glyph-name="percent.oldstyle" unicode="&#xfe6a;" horiz-adv-x="872" 
d="M812 164q0 -175 -140 -175q-139 0 -139 175v10q0 175 139 175q140 0 140 -175v-10zM755 164v10q0 70 -21.5 99t-61.5 29t-61.5 -29t-21.5 -99v-10q0 -70 21.5 -98.5t61.5 -28.5t61.5 28.5t21.5 98.5zM642 555l-347 -555h-61l347 555h61zM343 381q0 -175 -139 -175
q-140 0 -140 175v10q0 176 140 176q139 0 139 -176v-10zM288 381v10q0 70 -21.5 99t-62.5 29q-40 0 -61.5 -29t-21.5 -99v-10q0 -70 21.5 -98.5t61.5 -28.5q41 0 62.5 28.5t21.5 98.5z" />
    <glyph glyph-name="dollar.oldstyle" horiz-adv-x="483" 
d="M71 6v49q90 -9 166 -9q128 0 128 93q0 37 -21.5 58.5t-85.5 49.5l-65 29q-71 32 -102.5 66t-31.5 90q0 116 158 130v102h59v-99q84 -4 136 -17v-50q-80 11 -158 11q-129 0 -129 -76q0 -35 21 -56.5t78 -46.5l66 -29q78 -35 109 -68t31 -93q0 -63 -39 -102t-117 -46v-102
h-59v99q-83 3 -144 17z" />
    <glyph glyph-name="dollar.superior" horiz-adv-x="393" 
d="M58 340v46q108 -8 130 -8q99 0 99 70q0 27 -16 43t-59 34l-62 27q-53 23 -78.5 49.5t-25.5 72.5q0 96 125 108v75h54v-74q69 -1 109 -11v-47q-76 9 -129 9q-98 0 -98 -59q0 -25 16.5 -41t53.5 -32l63 -24q56 -23 82 -51.5t26 -75.5q0 -55 -33 -85t-90 -36v-77h-54v74
q-57 1 -113 13z" />
    <glyph glyph-name="zero.oldstyle" horiz-adv-x="630" 
d="M566 257q0 -130 -66.5 -200t-185.5 -70q-120 0 -186.5 70t-66.5 200v41q0 129 66.5 199t186.5 70q119 0 185.5 -69.5t66.5 -199.5v-41zM500 257v41q0 110 -50 160.5t-136 50.5t-136 -50.5t-50 -160.5v-41q0 -109 50 -160.5t136 -51.5t136 51.5t50 160.5z" />
    <glyph glyph-name="one.oldstyle" horiz-adv-x="488" 
d="M439 0h-386v56l162 3v433l-163 -56v64l179 63h50v-504l158 -3v-56z" />
    <glyph glyph-name="two.oldstyle" horiz-adv-x="580" 
d="M75 493v53q82 21 199 21q134 0 191.5 -38t57.5 -119q0 -74 -52.5 -132.5t-200.5 -153.5l-100 -64h348v-60h-454v60l166 105q133 85 180 135.5t47 109.5q0 54 -44 76.5t-143 22.5q-93 0 -195 -16z" />
    <glyph glyph-name="three.oldstyle" horiz-adv-x="579" 
d="M506 9q0 -110 -62 -160t-192 -50q-94 0 -196 21v51q101 -14 196 -14q101 0 144.5 34.5t43.5 117.5v28q0 62 -27 98t-110 36h-219v56h219q83 0 110 36.5t27 99.5v14q0 73 -40.5 102.5t-148.5 29.5q-85 0 -193 -12v52q21 5 82.5 11.5t111.5 6.5q135 0 195 -44t60 -146v-14
q0 -127 -101 -164q100 -37 100 -162v-28z" />
    <glyph glyph-name="four.oldstyle" horiz-adv-x="637" 
d="M587 20h-119v-207h-66v207h-361v68l350 469h77v-479h119v-58zM402 78v390l-293 -390h293z" />
    <glyph glyph-name="five.oldstyle" horiz-adv-x="576" 
d="M518 12q0 -114 -63.5 -166.5t-198.5 -52.5q-97 0 -202 21v54q136 -17 200 -17q110 0 153.5 37t43.5 124v26q0 86 -45 118.5t-159 32.5h-177l31 360h388v-60h-330l-22 -242h113q138 0 203 -48t65 -161v-26z" />
    <glyph glyph-name="six.oldstyle" horiz-adv-x="624" 
d="M565 221q0 -54 -15.5 -96.5t-40 -68t-58 -41.5t-65.5 -22t-67 -6q-57 0 -99.5 12t-80 42.5t-57.5 91.5t-20 151v192q0 141 61 210t210 69q104 0 202 -21v-52q-117 15 -201 15q-65 0 -106.5 -14.5t-62.5 -45.5t-28.5 -67.5t-7.5 -92.5v-47q96 26 191 26q51 0 90.5 -8
t77 -28t57.5 -61t20 -102v-36zM498 221v34q0 86 -46 116t-134 30q-102 0 -189 -23v-99q0 -130 48.5 -182t141.5 -52q81 0 130 43.5t49 132.5z" />
    <glyph glyph-name="seven.oldstyle" horiz-adv-x="559" 
d="M516 487l-328 -673h-75l340 683h-403v60h466v-70z" />
    <glyph glyph-name="eight.oldstyle" horiz-adv-x="643" 
d="M581 211q0 -57 -13.5 -98.5t-35 -65.5t-56 -37.5t-69 -18t-82.5 -4.5h-4q-48 0 -82.5 4.5t-69 18.5t-56 38t-35 65.5t-13.5 98.5v7q0 129 93 168q-91 37 -91 160v10q0 110 67 153.5t187 43.5h4q120 0 187 -43.5t67 -153.5v-10q0 -123 -91 -160q93 -39 93 -167v-9z
M514 211v9q0 69 -26.5 103.5t-92.5 34.5h-144q-67 0 -93.5 -35t-26.5 -104v-7q0 -99 45.5 -133.5t144.5 -34.5h4q99 0 144 34.5t45 132.5zM512 547v10q0 80 -45.5 110t-141.5 30h-4q-96 0 -142 -30t-46 -110v-10q0 -62 26 -96.5t92 -34.5h144q65 0 91 34.5t26 96.5z" />
    <glyph glyph-name="nine.oldstyle" horiz-adv-x="624" 
d="M556 78q0 -142 -61 -210.5t-211 -68.5q-93 0 -201 20v53q117 -15 200 -15q65 0 106.5 14.5t63 45.5t29 67.5t7.5 91.5v48q-92 -26 -192 -26q-51 0 -90.5 8t-77 28t-57.5 61t-20 102v36q0 54 15.5 96t40 67.5t58 42t65.5 22.5t67 6q57 0 99.5 -12t80.5 -42.5t58 -91.5
t20 -151v-192zM489 176v99q0 130 -49 182t-142 52q-81 0 -130 -43.5t-49 -132.5v-34q0 -86 46 -116t134 -30q102 0 190 23z" />
    <glyph glyph-name="comma.superior" horiz-adv-x="208" 
d="M157 425l-62 -143h-51l51 143h62z" />
    <glyph glyph-name="period.superior" horiz-adv-x="166" 
d="M112 337h-57v88h57v-88z" />
    <glyph glyph-name="a.superior" horiz-adv-x="378" 
d="M313 302h-54v23q-52 -31 -111 -31q-103 0 -103 97v9q0 62 38 82t121 20h52v25q0 45 -15.5 59t-68.5 14q-38 0 -102 -4v36q68 13 110 13q79 0 106 -26.5t27 -91.5v-225zM257 360v105h-52q-60 0 -82 -12t-22 -52v-10q0 -57 62 -57q47 0 94 26z" />
    <glyph glyph-name="b.superior" horiz-adv-x="392" 
d="M65 775h58v-143q44 15 83 15q73 0 107 -38t34 -119v-32q0 -86 -38 -124.5t-117 -38.5q-58 0 -127 7v473zM289 458v32q0 61 -20 85.5t-69 24.5q-43 0 -77 -12v-244q42 -4 70 -4q52 0 74 26.5t22 91.5z" />
    <glyph glyph-name="cent.superior" horiz-adv-x="368" 
d="M323 339q-42 -8 -89 -10v-76h-52v79q-136 19 -136 197v56q0 178 136 196v74h52v-72q41 -1 89 -9v-48q-66 6 -101 6q-64 0 -90.5 -33.5t-26.5 -113.5v-56q0 -81 26 -114.5t91 -33.5q53 0 101 5v-47z" />
    <glyph glyph-name="d.superior" horiz-adv-x="392" 
d="M327 302h-55v19q-46 -27 -100 -27q-127 0 -127 153v42q0 84 37 119.5t109 35.5q33 0 78 -6v135h58v-471zM270 361v232q-42 7 -74 7q-49 0 -71 -24t-22 -87v-42q0 -57 19.5 -82.5t63.5 -25.5q38 0 84 22z" />
    <glyph glyph-name="e.superior" horiz-adv-x="387" 
d="M342 452h-239v-10q0 -52 22.5 -78.5t82.5 -26.5q56 0 120 10v-41q-58 -12 -124 -12q-88 0 -123.5 41.5t-35.5 118.5v30q0 77 37.5 119t110.5 42q77 0 113 -43.5t36 -118.5v-31zM283 490v9q0 101 -89 101q-90 0 -90 -101v-9h179z" />
    <glyph glyph-name="l.superior" horiz-adv-x="188" 
d="M123 302h-58v471h58v-471z" />
    <glyph glyph-name="m.superior" horiz-adv-x="576" 
d="M121 609q51 36 103 36q54 0 78 -37q57 37 110 37q61 0 80 -31.5t19 -89.5v-222h-59v221q0 22 -1 33.5t-6 23t-16 16t-30 4.5q-39 0 -86 -28q4 -21 4 -48v-222h-58v222q0 42 -9 59t-42 17q-36 0 -85 -29v-268h-58v332h56v-26z" />
    <glyph glyph-name="o.superior" horiz-adv-x="387" 
d="M342 455q0 -161 -149 -161q-148 0 -148 161v29q0 161 148 161q149 0 149 -161v-29zM284 455v29q0 60 -21.5 87.5t-69.5 27.5t-69 -27.5t-21 -87.5v-29q0 -60 21 -88t69 -28t69.5 28t21.5 88z" />
    <glyph glyph-name="r.superior" horiz-adv-x="282" 
d="M123 302h-58v333h55v-26q50 36 119 36v-49q-65 0 -116 -27v-267z" />
    <glyph glyph-name="s.superior" horiz-adv-x="340" 
d="M295 387q0 -41 -31.5 -67t-100.5 -26q-70 0 -113 12v39q66 -9 111 -9q76 0 76 50q0 23 -12.5 35t-55.5 29l-27 11q-53 22 -75 41.5t-22 55.5q0 87 128 87q71 0 112 -12v-38q-70 7 -109 7t-56 -9.5t-17 -32.5q0 -19 13.5 -30.5t49.5 -25.5l28 -11q58 -23 79.5 -45
t21.5 -61z" />
    <glyph glyph-name="t.superior" horiz-adv-x="307" 
d="M263 302q-35 -8 -64 -8q-48 0 -66.5 20t-18.5 69v210l-71 4v38h71v90h58v-90h92v-42h-92v-209q0 -31 6.5 -39.5t30.5 -8.5q26 0 54 2v-36z" />
    <glyph glyph-name="hyphen.superior" horiz-adv-x="262" 
d="M207 506h-152v46h152v-46z" />
    <glyph glyph-name="cent.oldstyle" horiz-adv-x="486" 
d="M430 551v-51q-92 8 -133 8q-87 0 -126.5 -43.5t-39.5 -144.5v-86q0 -102 39 -145t127 -43q66 0 133 10v-52q-61 -13 -116 -14v-110h-60v111q-97 10 -143 70t-46 173v86q0 222 189 243v110h60v-109q51 -1 116 -13z" />
    <glyph glyph-name="hyphen.inferior" horiz-adv-x="262" 
d="M207 5h-152v46h152v-46z" />
    <glyph glyph-name="cent.inferior" horiz-adv-x="368" 
d="M322 -206q-42 -8 -89 -10v-76h-52v79q-66 9 -100.5 55.5t-34.5 141.5v56q0 178 135 196v74h52v-72q41 -1 89 -9v-48q-66 6 -100 6q-64 0 -90.5 -33.5t-26.5 -113.5v-56q0 -81 25.5 -114.5t91.5 -33.5q52 0 100 5v-47z" />
    <glyph glyph-name="dollar.inferior" horiz-adv-x="393" 
d="M57 -204v46q108 -8 130 -8q99 0 99 70q0 27 -16 43t-59 34l-62 27q-53 23 -78.5 49.5t-25.5 72.5q0 96 125 108v75h54v-74q69 -1 109 -11v-47q-77 9 -129 9q-98 0 -98 -59q0 -47 70 -73l63 -24q56 -21 82 -50t26 -77q0 -55 -33 -85t-90 -36v-77h-54v74q-57 1 -113 13z
" />
    <glyph glyph-name="period.inferior" horiz-adv-x="166" 
d="M112 -164h-57v88h57v-88z" />
    <glyph glyph-name="comma.inferior" horiz-adv-x="208" 
d="M157 -76l-62 -143h-51l51 143h62z" />
    <glyph glyph-name="Dotaccent" horiz-adv-x="431" 
d="M253 825h-65v121h65v-121z" />
    <glyph glyph-name="Breve" horiz-adv-x="445" 
d="M385 951q-14 -156 -162 -156q-82 0 -119 41.5t-43 114.5h50q6 -57 31 -84.5t81 -27.5q55 0 80.5 27.5t31.5 84.5h50z" />
    <glyph glyph-name="Ogonek" horiz-adv-x="445" 
d="M344 -207q-30 -10 -84 -10q-61 0 -91.5 25t-30.5 69q0 39 33.5 68t106.5 69l70 -5q-91 -48 -122 -74t-31 -55q0 -54 70 -54q10 0 79 6v-39z" />
    <glyph glyph-name="Cedilla" horiz-adv-x="435" 
d="M278 -68l-134 -141h-68l121 141h81z" />
    <glyph glyph-name="Ring" horiz-adv-x="446" 
d="M339 850q0 -54 -31.5 -80.5t-83.5 -26.5t-84 26.5t-32 80.5t32 81t84 27t83.5 -27t31.5 -81zM293 850q0 67 -69 67t-69 -67q0 -66 69 -66t69 66z" />
    <glyph glyph-name="Tilde" horiz-adv-x="448" 
d="M414 924q0 -61 -20 -92.5t-69 -31.5q-48 0 -96 44l-41 38q-35 34 -62 34q-26 0 -34.5 -19t-8.5 -58v-34h-49v34q0 124 92 124q46 0 92 -42l42 -39q37 -34 64 -34q26 0 34 18.5t8 57.5v33h48v-33z" />
    <glyph glyph-name="Circumflex" horiz-adv-x="453" 
d="M407 795h-68l-113 117l-112 -117h-68l139 154h83z" />
    <glyph glyph-name="Acute" horiz-adv-x="443" 
d="M370 949l-147 -154h-67l135 154h79z" />
    <glyph glyph-name="Caron" horiz-adv-x="453" 
d="M47 949h67l112 -117l114 117h67l-138 -154h-84z" />
    <glyph glyph-name="Dieresis" horiz-adv-x="441" 
d="M365 817h-59v119h59v-119zM136 936v-119h-60v119h60z" />
    <glyph glyph-name="Grave" horiz-adv-x="431" 
d="M271 797h-66l-148 154h80z" />
    <glyph glyph-name="Hungarumlaut" horiz-adv-x="449" 
d="M511 949l-147 -154h-67l135 154h79zM219 949h80l-147 -154h-68z" />
    <glyph glyph-name="Macron" horiz-adv-x="451" 
d="M397 850h-343v52h343v-52z" />
    <glyph glyph-name="commaaccent.cap" horiz-adv-x="497" 
d="M295 -68l-95 -141h-61l80 141h76z" />
    <glyph glyph-name="h.superior" horiz-adv-x="412" 
d="M65 773h58v-157q58 29 112 29q60 0 86 -31.5t26 -101.5v-210h-58v209q0 51 -15 69.5t-53 18.5q-46 0 -98 -25v-272h-58v471z" />
    <glyph glyph-name="zero.slash" 
d="M575 313q0 -165 -65.5 -245.5t-187.5 -80.5q-117 0 -179 72l-40 -59h-66l72 107q-40 77 -40 206v116q0 165 65.5 245.5t187.5 80.5q114 0 177 -70l39 58h66l-71 -105q42 -79 42 -209v-116zM508 313v116q0 87 -20 142l-308 -457q47 -70 142 -70q186 0 186 269zM136 313
q0 -84 19 -139l306 455q-46 68 -139 68q-186 0 -186 -268v-116z" />
    <glyph glyph-name="perthousand.oldstyle" horiz-adv-x="1212" 
d="M1151 164q0 -175 -139 -175q-140 0 -140 175v10q0 175 140 175q139 0 139 -175v-10zM1095 164v10q0 128 -83 128q-41 0 -62.5 -29t-21.5 -99v-10q0 -70 21.5 -98.5t62.5 -28.5q83 0 83 127zM812 164q0 -175 -140 -175q-139 0 -139 175v10q0 175 139 175q140 0 140 -175
v-10zM755 164v10q0 70 -21.5 99t-61.5 29t-61.5 -29t-21.5 -99v-10q0 -70 21.5 -98.5t61.5 -28.5t61.5 28.5t21.5 98.5zM642 555l-347 -555h-61l347 555h61zM343 381q0 -175 -139 -175q-140 0 -140 175v10q0 176 140 176q139 0 139 -176v-10zM288 381v10q0 70 -21.5 99
t-62.5 29q-40 0 -61.5 -29t-21.5 -99v-10q0 -70 21.5 -98.5t61.5 -28.5q41 0 62.5 28.5t21.5 98.5z" />
    <glyph glyph-name="zero.taboldstyle" 
d="M573 257q0 -130 -66.5 -200t-186.5 -70q-119 0 -185.5 70t-66.5 200v41q0 130 66.5 199.5t185.5 69.5q120 0 186.5 -70t66.5 -199v-41zM506 257v41q0 110 -50 160.5t-136 50.5t-135.5 -50.5t-49.5 -160.5v-41q0 -109 50 -160.5t135 -51.5q86 0 136 51.5t50 160.5z" />
    <glyph glyph-name="one.taboldstyle" 
d="M514 0h-386v56l161 3v433l-162 -56v64l178 63h51v-504l158 -3v-56z" />
    <glyph glyph-name="two.taboldstyle" 
d="M101 493v53q82 21 200 21q133 0 191 -38t58 -119q0 -74 -53 -132.5t-201 -153.5l-99 -64h348v-60h-454v60l165 105q133 85 180 135.5t47 109.5q0 54 -44 76.5t-142 22.5q-92 0 -196 -16z" />
    <glyph glyph-name="three.taboldstyle" 
d="M545 9q0 -110 -62.5 -160t-191.5 -50q-95 0 -196 21v51q101 -14 195 -14q101 0 144.5 34.5t43.5 117.5v28q0 29 -4.5 49.5t-17 41.5t-41.5 32t-73 11h-220v56h220q44 0 72.5 11t41.5 32t17.5 42t4.5 51v14q0 73 -40.5 102.5t-147.5 29.5q-85 0 -193 -12v52
q21 5 82.5 11.5t111.5 6.5q135 0 194.5 -44t59.5 -146v-14q0 -128 -100 -164q100 -37 100 -162v-28z" />
    <glyph glyph-name="four.taboldstyle" 
d="M593 20h-119v-207h-67v207h-360v68l350 469h77v-479h119v-58zM407 78v390l-292 -390h292z" />
    <glyph glyph-name="five.taboldstyle" 
d="M552 20q0 -114 -63 -166t-199 -52q-97 0 -202 21v54q116 -17 201 -17q110 0 153.5 37t43.5 123v27q0 86 -45.5 118.5t-159.5 32.5h-177l32 359h387v-60h-330l-22 -241h113q138 0 203 -48t65 -161v-27z" />
    <glyph glyph-name="six.taboldstyle" 
d="M572 221q0 -54 -15.5 -96.5t-40 -68t-58 -41.5t-65.5 -22t-67 -6q-57 0 -99.5 12t-80 42.5t-57.5 91.5t-20 151v192q0 141 61 210t210 69q104 0 202 -21v-52q-117 15 -201 15q-65 0 -106.5 -14.5t-62.5 -45.5t-28.5 -67.5t-7.5 -92.5v-47q96 26 191 26q51 0 90.5 -8
t77 -28t57.5 -61t20 -102v-36zM505 221v34q0 86 -46 116t-134 30q-102 0 -189 -23v-99q0 -130 48.5 -182t141.5 -52q81 0 130 43.5t49 132.5z" />
    <glyph glyph-name="seven.taboldstyle" 
d="M554 487l-329 -673h-74l339 683h-402v60h466v-70z" />
    <glyph glyph-name="eight.taboldstyle" 
d="M578 211q0 -57 -13.5 -98.5t-35 -65.5t-56 -37.5t-69 -18t-82.5 -4.5h-5q-48 0 -82.5 4.5t-69 18.5t-56 38t-35 65.5t-13.5 98.5v7q0 129 94 168q-91 37 -91 160v10q0 110 67 153.5t186 43.5h5q119 0 186 -43.5t67 -153.5v-10q0 -123 -91 -160q94 -39 94 -167v-9z
M511 211v9q0 69 -26.5 103.5t-93.5 34.5h-143q-67 0 -93.5 -35t-26.5 -104v-7q0 -99 45.5 -133.5t143.5 -34.5h5q98 0 143.5 34.5t45.5 132.5zM509 547v10q0 80 -46 110t-141 30h-5q-95 0 -141 -30t-46 -110v-10q0 -62 26 -96.5t92 -34.5h143q66 0 92 34.5t26 96.5z" />
    <glyph glyph-name="nine.taboldstyle" 
d="M572 78q0 -142 -61 -210.5t-210 -68.5q-90 0 -202 20v53q117 -15 200 -15q65 0 107 14.5t63 45.5t28.5 67.5t7.5 91.5v48q-90 -26 -192 -26q-51 0 -90.5 8t-76.5 28t-57 61t-20 102v36q0 54 15.5 96t40 67.5t58 42t65.5 22.5t67 6q57 0 99 -12t80 -42.5t58 -91.5t20 -151
v-192zM505 176v99q0 130 -48.5 182t-141.5 52q-81 0 -130.5 -43.5t-49.5 -132.5v-34q0 -86 46 -116t135 -30q101 0 189 23z" />
    <glyph glyph-name="colonmonetary.taboldstyle" horiz-adv-x="548" 
d="M459 551v-55q-62 10 -131 10q-87 0 -126.5 -43t-39.5 -144v-84q0 -102 39 -144.5t127 -42.5q60 0 131 9v-53q-27 -7 -64 -10v-105h-54v100h-20q-21 0 -55 4v-104h-54v121q-116 48 -116 225v84q0 175 116 225v119h54v-103q24 6 57 6h18v97h54v-102q20 -2 64 -10z" />
    <glyph glyph-name="Euro.taboldstyle" horiz-adv-x="561" 
d="M347 507q-75 0 -112.5 -30t-46.5 -111h254l-14 -48h-242q-1 -44 0 -86h221l-13 -48h-206q8 -78 46 -109t115 -31q71 0 133 8v-52q-67 -13 -136 -13q-105 0 -158 43.5t-65 153.5h-52v48h50q-1 42 0 86h-50v48h52q11 112 64 156t157 44q66 0 138 -14v-54q-86 9 -135 9z" />
    <glyph glyph-name="florin.taboldstyle" horiz-adv-x="601" 
d="M518 576l-5 -48q-46 4 -68 4q-41 0 -59.5 -17t-25.5 -71l-16 -120h149l-7 -51h-149l-29 -224q-10 -78 -42 -109t-98 -31q-40 0 -82 8l7 49q54 -4 70 -4q41 0 57 19t25 72l28 220h-128l7 51h129l16 125q10 76 43.5 105.5t98.5 29.5q39 0 79 -8z" />
    <glyph glyph-name="numbersign.taboldstyle" horiz-adv-x="606" 
d="M520 157h-106l-16 -157h-57l17 157h-140l-16 -157h-56l16 157h-71v51h77l17 161h-94v51h100l18 163h55l-17 -163h139l18 163h56l-18 -163h78v-51h-84l-17 -161h101v-51zM380 369h-139l-18 -161h141z" />
    <glyph glyph-name="sterling.taboldstyle" horiz-adv-x="561" 
d="M474 552v-55q-81 9 -134 9q-74 0 -100 -28.5t-26 -108.5v-57h198v-55h-198v-99q0 -62 -30 -100h290v-58h-364v50q40 42 40 108v99h-64v55h64v57q0 105 40 150.5t142 45.5q71 0 142 -13z" />
    <glyph glyph-name="yen.taboldstyle" horiz-adv-x="569" 
d="M316 0h-64v181h-196v49h192l-46 84h-146v48h121l-100 192h72l99 -193q20 -38 35 -76h2q18 42 36 77l99 192h70l-100 -192h124v-48h-148l-46 -84h194v-49h-198v-181z" />
    <glyph glyph-name="dollar.taboldstyle" horiz-adv-x="554" 
d="M102 7v50q96 -11 169 -11q127 0 127 91q0 37 -22.5 60t-84.5 49l-66 29q-70 29 -102 64t-32 91q0 120 160 133v101h59v-99q82 -4 136 -17v-51q-112 12 -159 12q-65 0 -98 -18t-33 -60q0 -35 21.5 -57t78.5 -45l67 -29q77 -31 109 -66t32 -96t-39.5 -100t-117.5 -46v-101
h-59v98q-92 3 -146 18z" />
    <glyph glyph-name="cent.taboldstyle" horiz-adv-x="549" 
d="M458 551v-51q-85 8 -133 8q-87 0 -126.5 -43.5t-39.5 -144.5v-86q0 -102 39 -145t127 -43q66 0 133 10v-52q-59 -12 -116 -14v-110h-59v111q-97 10 -143 70t-46 173v86q0 222 189 243v110h60v-109q52 -1 115 -13z" />
    <glyph glyph-name="zero.denominator" horiz-adv-x="447" 
d="M392 191q0 -100 -44 -150t-125 -50t-124.5 50t-43.5 150v58q0 100 43.5 149.5t124.5 49.5t125 -49.5t44 -149.5v-58zM332 190v59q0 83 -29 116.5t-80 33.5q-108 0 -108 -150v-59q0 -149 108 -149q51 0 80 33.5t29 115.5z" />
    <glyph glyph-name="one.denominator" horiz-adv-x="379" 
d="M326 0h-272v44l105 2v340l-106 -34v49l122 42h44v-397l107 -2v-44z" />
    <glyph glyph-name="two.denominator" horiz-adv-x="421" 
d="M65 394v41q57 13 137 13q82 0 121 -25t39 -81q0 -45 -26 -76t-98 -66q-77 -38 -98.5 -64.5t-21.5 -82.5v-5h238v-48h-298v44q0 76 29 114t115 80q64 31 82 51t18 52q0 35 -24.5 48.5t-81.5 13.5q-47 0 -131 -9z" />
    <glyph glyph-name="three.denominator" horiz-adv-x="416" 
d="M60 394v42q68 12 130 12q87 0 127.5 -25.5t40.5 -87.5v-6q0 -78 -64 -102q64 -20 64 -98v-8q0 -68 -41 -99t-127 -31q-84 0 -130 13v41q92 -8 125 -8q61 0 87 18.5t26 67.5v8q0 36 -17 55t-68 19h-135v45h136q50 0 67 20.5t17 56.5v6q0 38 -24.5 53.5t-87.5 15.5
q-30 0 -126 -8z" />
    <glyph glyph-name="four.denominator" horiz-adv-x="447" 
d="M329 0h-60v117h-225v49l227 275h58v-279h72v-45h-72v-117zM271 162v210l-170 -210h170z" />
    <glyph glyph-name="five.denominator" horiz-adv-x="422" 
d="M346 394h-209l-13 -129h69q90 0 130.5 -28.5t40.5 -98.5v-9q0 -72 -43 -105t-131 -33q-73 0 -132 14v42q74 -10 126 -10q66 0 92.5 21t26.5 70v10q0 48 -25.5 65t-92.5 17h-119l21 221h259v-47z" />
    <glyph glyph-name="six.denominator" horiz-adv-x="443" 
d="M366 435v-43q-72 9 -131 9q-72 0 -96 -29t-25 -92v-22q58 14 113 14q35 0 61 -4.5t50 -17t36.5 -37t12.5 -61.5v-21q0 -74 -46.5 -107t-115.5 -33q-83 0 -126.5 40t-43.5 140v104q0 88 39.5 130.5t136.5 42.5q70 0 135 -13zM327 131v20q0 47 -26.5 63t-77.5 16
q-59 0 -109 -12v-53q0 -73 28.5 -101t82.5 -28q46 0 74 23t28 72z" />
    <glyph glyph-name="seven.denominator" horiz-adv-x="412" 
d="M57 394v47h303v-54l-208 -387h-66l215 394h-244z" />
    <glyph glyph-name="eight.denominator" horiz-adv-x="455" 
d="M401 123q0 -79 -45 -105.5t-130 -26.5q-83 0 -127.5 26.5t-44.5 105.5v7q0 73 59 99q-57 26 -57 97v6q0 66 45.5 91t127.5 25q80 0 125 -25t45 -91v-6q0 -71 -56 -97q58 -27 58 -99v-7zM341 124v6q0 78 -71 78h-84q-39 0 -55.5 -20t-16.5 -58v-6q0 -52 28 -70.5t87 -18.5
q56 0 84 18.5t28 70.5zM340 325v6q0 42 -28.5 57.5t-85.5 15.5q-55 0 -83 -15.5t-28 -57.5v-6q0 -74 71 -74h84q70 0 70 74z" />
    <glyph glyph-name="nine.denominator" horiz-adv-x="443" 
d="M76 4v43q75 -9 131 -9q72 0 96.5 29.5t24.5 91.5v23q-56 -14 -113 -14q-34 0 -60 4.5t-50 17t-37 37t-13 61.5v21q0 74 47 106.5t117 32.5q81 0 124.5 -39.5t43.5 -139.5v-104q0 -88 -39.5 -131t-136.5 -43q-57 0 -135 13zM328 222v53q0 73 -28 101t-82 28
q-47 0 -75 -23.5t-28 -71.5v-20q0 -47 26.5 -63t77.5 -16q60 0 109 12z" />
    <glyph glyph-name="comma.denominator" horiz-adv-x="208" 
d="M157 88l-62 -143h-51l51 143h62z" />
    <glyph glyph-name="period.denominator" horiz-adv-x="166" 
d="M112 0h-57v88h57v-88z" />
    <glyph glyph-name="cent.denominator" horiz-adv-x="368" 
d="M222 397q-64 0 -90.5 -33.5t-26.5 -113.5v-56q0 -81 25.5 -114.5t91.5 -33.5q52 0 100 5v-47q-42 -8 -89 -10v-76h-52v79q-66 9 -100.5 55.5t-34.5 141.5v56q0 178 135 196v74h52v-72q41 -1 89 -9v-48q-66 6 -100 6z" />
    <glyph glyph-name="dollar.denominator" horiz-adv-x="393" 
d="M57 5v47q81 -9 130 -9q99 0 99 70q0 27 -16 43t-59 35l-62 27q-52 22 -78 48.5t-26 72.5q0 98 125 108v75h54v-73q71 -3 109 -12v-47q-76 9 -129 9q-98 0 -98 -58q0 -25 16.5 -41.5t53.5 -31.5l63 -25q56 -22 82 -50.5t26 -75.5q0 -55 -33 -85.5t-90 -36.5v-76h-54v74
q-62 1 -113 12z" />
    <glyph glyph-name="hyphen.denominator" horiz-adv-x="262" 
d="M207 169h-152v46h152v-46z" />
    <glyph glyph-name="parenleft.denominator" horiz-adv-x="250" 
d="M204 -78h-58q-35 42 -61 109.5t-26 151.5v4q0 154 88 263h59q-86 -115 -86 -263v-4q0 -146 84 -261z" />
    <glyph glyph-name="parenright.denominator" horiz-adv-x="250" 
d="M190 183q0 -153 -87 -261h-59q85 114 85 261v4q0 148 -86 263h59q88 -109 88 -263v-4z" />
    <glyph glyph-name="zero.numerator" horiz-adv-x="451" 
d="M396 498q0 -100 -44 -150t-125 -50t-124.5 50t-43.5 150v58q0 100 43.5 149.5t124.5 49.5t125 -49.5t44 -149.5v-58zM336 497v59q0 83 -29 116.5t-80 33.5q-108 0 -108 -150v-59q0 -149 108 -149q51 0 80 33.5t29 115.5z" />
    <glyph glyph-name="one.numerator" horiz-adv-x="387" 
d="M334 307h-273v44l106 2v340l-107 -34v49l122 42h45v-397l107 -2v-44z" />
    <glyph glyph-name="two.numerator" horiz-adv-x="421" 
d="M66 701v41q68 13 137 13q81 0 120.5 -25t39.5 -81q0 -46 -26 -76t-98 -66q-78 -38 -99.5 -64.5t-21.5 -82.5v-6h239v-47h-298v44q0 76 29.5 113.5t114.5 79.5q64 32 82 51.5t18 52.5q0 34 -25 47.5t-81 13.5t-131 -8z" />
    <glyph glyph-name="three.numerator" horiz-adv-x="417" 
d="M191 298q-70 0 -130 12v42q96 -8 125 -8q61 0 87 18.5t26 66.5v8q0 36 -17 55.5t-68 19.5h-135v45h136q51 0 67.5 20.5t16.5 56.5v5q0 39 -24.5 54.5t-87.5 15.5q-26 0 -126 -8v41q55 13 130 13q87 0 127.5 -25.5t40.5 -87.5v-6q0 -78 -63 -102q63 -22 63 -98v-8
q0 -68 -40.5 -99t-127.5 -31z" />
    <glyph glyph-name="four.numerator" horiz-adv-x="449" 
d="M329 307h-60v117h-225v49l227 275h58v-279h72v-45h-72v-117zM271 469v210l-170 -210h170z" />
    <glyph glyph-name="five.numerator" horiz-adv-x="423" 
d="M347 701h-209l-12 -129h68q90 0 130.5 -28.5t40.5 -98.5v-9q0 -72 -42.5 -105t-130.5 -33q-76 0 -132 14v42q74 -10 125 -10q66 0 92.5 21t26.5 70v10q0 48 -25.5 65t-91.5 17h-119l20 221h259v-47z" />
    <glyph glyph-name="six.numerator" horiz-adv-x="447" 
d="M366 742v-43q-72 9 -131 9q-72 0 -96 -29t-25 -92v-22q58 14 113 14q35 0 61 -4.5t50 -17t36.5 -37t12.5 -61.5v-21q0 -74 -46.5 -107t-115.5 -33q-83 0 -126.5 40t-43.5 140v104q0 88 39.5 130.5t136.5 42.5q70 0 135 -13zM327 438v20q0 47 -26.5 63t-77.5 16
q-59 0 -109 -12v-53q0 -73 28.5 -101t82.5 -28q46 0 74 23t28 72z" />
    <glyph glyph-name="seven.numerator" horiz-adv-x="414" 
d="M59 701v47h303v-54l-208 -387h-66l215 394h-244z" />
    <glyph glyph-name="eight.numerator" horiz-adv-x="462" 
d="M401 429q0 -79 -45 -105.5t-130 -26.5q-83 0 -127.5 26.5t-44.5 105.5v7q0 73 59 99q-57 26 -57 97v6q0 66 45.5 91t127.5 25q80 0 125 -25t45 -91v-6q0 -71 -56 -97q58 -27 58 -99v-7zM341 430v6q0 78 -71 78h-84q-39 0 -55.5 -20t-16.5 -58v-6q0 -52 28 -70.5t87 -18.5
q56 0 84 18.5t28 70.5zM340 631v6q0 42 -28.5 57.5t-85.5 15.5q-55 0 -83 -15.5t-28 -57.5v-6q0 -74 71 -74h84q70 0 70 74z" />
    <glyph glyph-name="nine.numerator" horiz-adv-x="447" 
d="M76 311v43q75 -9 131 -9q72 0 96.5 29.5t24.5 91.5v23q-56 -14 -113 -14q-34 0 -60 4.5t-50 17t-37 37t-13 61.5v21q0 74 47 106.5t117 32.5q81 0 124.5 -39.5t43.5 -139.5v-104q0 -88 -39.5 -131t-136.5 -43q-57 0 -135 13zM328 529v53q0 73 -28 101t-82 28
q-47 0 -75 -23.5t-28 -71.5v-20q0 -47 26.5 -63t77.5 -16q60 0 109 12z" />
    <glyph glyph-name="comma.numerator" horiz-adv-x="208" 
d="M157 393l-62 -143h-51l51 143h62z" />
    <glyph glyph-name="period.numerator" horiz-adv-x="166" 
d="M112 304h-57v89h57v-89z" />
    <glyph glyph-name="cent.numerator" horiz-adv-x="368" 
d="M322 308q-44 -8 -90 -10v-76h-51v79q-67 9 -101.5 55.5t-34.5 141.5v56q0 178 136 196v74h51v-72q40 -1 90 -9v-48q-66 6 -101 6q-64 0 -90.5 -33.5t-26.5 -113.5v-56q0 -81 26 -114.5t91 -33.5q53 0 101 5v-47z" />
    <glyph glyph-name="dollar.numerator" horiz-adv-x="393" 
d="M56 312v46q108 -8 130 -8q99 0 99 70q0 27 -16 42.5t-59 34.5l-62 27q-53 23 -78.5 49.5t-25.5 72.5q0 96 125 108v75h54v-74q69 -1 109 -11v-47q-76 9 -129 9q-98 0 -98 -59q0 -47 70 -73l63 -24q56 -21 82 -50t26 -77q0 -55 -33 -85t-90 -36v-77h-54v74q-57 1 -113 13z
" />
    <glyph glyph-name="hyphen.numerator" horiz-adv-x="262" 
d="M207 474h-152v46h152v-46z" />
    <glyph glyph-name="parenleft.numerator" horiz-adv-x="250" 
d="M205 234h-59q-87 108 -87 265q0 154 88 263h59q-86 -120 -86 -263q0 -149 85 -265z" />
    <glyph glyph-name="parenright.numerator" horiz-adv-x="250" 
d="M190 494q0 -83 -26 -150.5t-61 -109.5h-58q84 115 84 260v5q0 146 -86 263h59q88 -109 88 -263v-5z" />
    <glyph glyph-name="parenleft.cap" horiz-adv-x="278" 
d="M234 0h-59q-47 62 -81 162.5t-34 211.5v5q0 110 34 209t81 163h59q-113 -162 -113 -372v-5q0 -214 113 -374z" />
    <glyph glyph-name="parenright.cap" horiz-adv-x="278" 
d="M227 374q0 -112 -34 -212.5t-81 -161.5h-58q112 161 112 374v5q0 209 -112 372h58q47 -64 81 -162.5t34 -209.5v-5z" />
    <glyph glyph-name="bracketleft.cap" horiz-adv-x="331" 
d="M273 0h-179v743h179v-53h-118v-638h118v-52z" />
    <glyph glyph-name="bracketright.cap" horiz-adv-x="331" 
d="M244 0h-178v52h118v638h-118v53h178v-743z" />
    <glyph glyph-name="braceleft.cap" horiz-adv-x="354" 
d="M302 0h-43q-87 0 -115.5 31t-28.5 98v97q0 49 -12 73t-50 50v45q38 26 50 50t12 73v96q0 68 28.5 99t115.5 31h43v-54h-43q-53 0 -68 -16t-15 -60v-96q0 -54 -15 -86.5t-52 -59.5q38 -27 53 -59t15 -86v-97q0 -45 14.5 -60.5t67.5 -15.5h43v-53z" />
    <glyph glyph-name="braceright.cap" horiz-adv-x="354" 
d="M297 349q-37 -27 -49 -50.5t-12 -72.5v-97q0 -66 -29 -97.5t-116 -31.5h-42v53h42q53 0 67.5 15.5t14.5 60.5v97q0 53 15.5 85.5t52.5 59.5q-37 27 -52 59.5t-15 86.5v96q0 44 -15 60t-68 16h-42v54h42q87 0 116 -31t29 -99v-96q0 -49 12 -72.5t49 -50.5v-45z" />
    <glyph glyph-name="exclamdown.cap" horiz-adv-x="231" 
d="M82 743h67v-127h-67v127zM145 552l6 -574h-71l7 574h58z" />
    <glyph glyph-name="questiondown.cap" horiz-adv-x="453" 
d="M267 -33q-98 0 -150 35.5t-52 118.5v6q0 52 21.5 94t81.5 100q67 66 84 100t17 90v39h64v-39q0 -66 -19 -109.5t-86 -107.5q-58 -55 -77 -89t-19 -78v-6q0 -55 34.5 -75.5t105.5 -20.5q46 0 152 12v-50q-82 -20 -157 -20zM333 613h-66v130h66v-130z" />
    <glyph glyph-name="guillemotleft.cap" horiz-adv-x="613" 
d="M215 186l-159 207l159 206h78l-156 -206l156 -207h-78zM318 393l161 206h78l-158 -206l158 -207h-78z" />
    <glyph glyph-name="guillemotright.cap" horiz-adv-x="613" 
d="M557 393l-159 -207h-78l156 207l-156 206h78zM134 599l161 -206l-161 -207h-78l158 207l-158 206h78z" />
    <glyph glyph-name="guilsinglleft.cap" horiz-adv-x="350" 
d="M294 186h-78l-160 207l160 206h78l-157 -206z" />
    <glyph glyph-name="guilsinglright.cap" horiz-adv-x="350" 
d="M295 393l-161 -207h-78l158 207l-158 206h78z" />
    <glyph glyph-name="hyphen.cap" horiz-adv-x="365" 
d="M295 367h-226v56h226v-56z" />
    <glyph glyph-name="endash.cap" horiz-adv-x="472" 
d="M404 333h-337v56h337v-56z" />
    <glyph glyph-name="emdash.cap" horiz-adv-x="628" 
d="M562 333h-495v56h495v-56z" />
    <glyph glyph-name="periodcentered.cap" horiz-adv-x="224" 
d="M145 329h-66v130h66v-130z" />
    <glyph glyph-name="at.cap" horiz-adv-x="823" 
d="M771 478q0 -319 -349 -319q-102 0 -147.5 36.5t-45.5 116.5q0 30 4 74q11 110 59 153.5t133 43.5q75 0 146 -18l-35 -343q183 38 183 256q0 231 -268 231q-138 0 -216.5 -64.5t-108.5 -207.5q-17 -73 -17 -158q0 -243 272 -243q104 0 167 10v-39q-94 -14 -167 -14
q-163 0 -243.5 74t-80.5 213q0 89 17 163q31 160 123 235.5t254 75.5q161 0 240.5 -72.5t79.5 -203.5zM504 523q-40 6 -78 6q-58 0 -90.5 -29t-41.5 -115q-5 -58 -5 -73q0 -57 30 -79.5t102 -22.5q18 0 52 2z" />
    <glyph glyph-name="T_h" horiz-adv-x="1069" 
d="M992 0h-65v342q0 90 -27 124t-93 34q-81 0 -173 -46v-454h-65v683h-232v-683h-67v683h-240v60h604v-236q98 50 185 50q91 0 132 -51t41 -162v-344z" />
    <glyph glyph-name="A.alt" horiz-adv-x="643" 
d="M23 0l233 685l-62 4v54h174l251 -743h-71l-87 263h-282l-88 -263h-68zM440 324l-84 249q-15 44 -32 115h-7q-15 -60 -32 -115l-86 -249h241z" />
    <glyph glyph-name="B.alt" horiz-adv-x="624" 
d="M85 0v683l-57 5v55q42 0 120 1.5t128 1.5q149 0 219 -40t70 -148v-9q0 -55 -28 -100t-90 -63q122 -35 122 -170v-14q0 -116 -74.5 -161t-220.5 -45q-50 0 -110 2t-79 2zM502 202v14q0 66 -39 104t-143 38h-168v-300q114 -3 122 -3q120 0 174 31.5t54 115.5zM498 549v9
q0 78 -51 103t-171 25q-42 0 -124 -2v-268h168q102 0 140 36t38 97z" />
    <glyph glyph-name="C.alt" horiz-adv-x="550" 
d="M520 58v-56q-94 -15 -173 -15q-142 0 -217 77.5t-75 264.5v85q0 186 75 263.5t217 77.5q96 0 173 -16v-129h-53l-7 80q-75 5 -113 5q-117 0 -171 -64.5t-54 -216.5v-85q0 -152 54 -217t171 -65q60 0 173 11z" />
    <glyph glyph-name="D.alt" horiz-adv-x="659" 
d="M85 -1v684l-57 5v55q44 0 124.5 1.5t132.5 1.5q164 0 241.5 -83t77.5 -247v-88q0 -166 -76 -249t-243 -83q-50 0 -117 1.5t-83 1.5zM537 328v88q0 146 -63 208t-194 62q-48 0 -128 -2v-625q74 -4 128 -4q131 0 194 63t63 210z" />
    <glyph glyph-name="E.alt" horiz-adv-x="568" 
d="M513 683h-361v-265h337v-61h-337v-298h361v-59h-428v685l-57 3v55h485v-60z" />
    <glyph glyph-name="F.alt" horiz-adv-x="558" 
d="M85 0v685l-57 3v55h485v-60h-361v-265h337v-61h-337v-357h-67z" />
    <glyph glyph-name="G.alt" horiz-adv-x="619" 
d="M554 5q-113 -18 -206 -18q-293 0 -293 339v91q0 338 293 338q87 0 206 -17v-130h-53l-7 80q-82 7 -137 7q-57 0 -97.5 -12.5t-73 -42.5t-48.5 -85.5t-16 -137.5v-91q0 -153 58.5 -215.5t175.5 -62.5q82 0 131 5v272l-115 5v53h182v-378z" />
    <glyph glyph-name="H.alt" horiz-adv-x="708" 
d="M623 0h-67v365h-404v-365h-67v685l-57 3v55h124v-317h404v317h67v-743z" />
    <glyph glyph-name="I.alt" horiz-adv-x="240" 
d="M210 0h-180v54l57 3v628l-57 3v55h180v-55l-56 -3v-628l56 -3v-54z" />
    <glyph glyph-name="J.alt" horiz-adv-x="240" 
d="M210 688l-57 -3v-741q0 -81 -29.5 -119t-109.5 -38q-36 0 -69 7v51q23 -1 65 -1q50 0 63.5 22t13.5 78v741l-57 3v55h180v-55z" />
    <glyph glyph-name="K.alt" horiz-adv-x="601" 
d="M586 0h-92l-337 364v-364h-67v685l-57 3v55h124v-353l341 353h87l-353 -365z" />
    <glyph glyph-name="M.alt" horiz-adv-x="791" 
d="M706 0h-66v539q0 32 4 116h-2q-8 -17 -50 -99l-155 -292h-84l-153 292q-16 33 -50 99h-2q3 -63 3 -116v-539h-66v685l-57 3v55h145l177 -341q16 -30 44 -89h2q8 17 23.5 48.5t20.5 41.5l179 340h87v-743z" />
    <glyph glyph-name="N.alt" horiz-adv-x="692" 
d="M607 -1h-95l-313 577q-35 66 -53 104h-1q3 -62 3 -128v-552h-63v685l-57 3v55h152l314 -571q17 -32 51 -102h1q-3 70 -3 130v543h64v-744z" />
    <glyph glyph-name="P.alt" horiz-adv-x="590" 
d="M150 0h-67v685l-56 3v55q39 0 115.5 2t119.5 2q142 0 215 -47t73 -167v-13q0 -121 -74 -169.5t-216 -48.5q-59 0 -110 1v-303zM150 362q33 -1 110 -1q118 0 170.5 35t52.5 124v13q-1 89 -52 121.5t-169 32.5q-49 0 -112 -3v-322z" />
    <glyph glyph-name="Q.alt" horiz-adv-x="671" 
d="M616 332q0 -162 -64 -247t-183 -96v-173h-66v173q-248 22 -248 343v78q0 173 72.5 259t208.5 86q135 0 207.5 -86t72.5 -259v-78zM549 332v78q0 285 -213 285q-214 0 -214 -285v-78q0 -285 214 -285q213 0 213 285z" />
    <glyph glyph-name="R.alt" horiz-adv-x="622" 
d="M595 0h-79l-185 303q-22 -1 -70 -1q-79 0 -109 1v-303h-67v685l-57 3v55q33 0 108.5 2t122.5 2q69 0 120 -10t91.5 -34t61 -66.5t20.5 -104.5v-8q0 -88 -37.5 -137t-112.5 -70zM484 524v8q0 88 -53 121.5t-172 33.5q-22 0 -57.5 -1.5t-49.5 -1.5v-322q33 -1 109 -1
q118 0 170.5 36.5t52.5 126.5z" />
    <glyph glyph-name="S.alt" horiz-adv-x="572" 
d="M71 5v54q120 -14 206 -14q85 0 128.5 32.5t43.5 105.5q0 54 -28 86t-104 68l-101 47q-82 38 -121.5 83t-39.5 116q0 172 236 172q111 0 201 -18v-128h-52l-9 81q-57 6 -138 6q-84 0 -127.5 -25.5t-43.5 -87.5q0 -49 28 -80t96 -63l101 -46q91 -44 130.5 -89.5
t39.5 -121.5q0 -196 -240 -196q-121 0 -206 18z" />
    <glyph glyph-name="U.alt" horiz-adv-x="683" 
d="M603 319q0 -167 -63.5 -249t-197.5 -82q-135 0 -198.5 82t-63.5 249v367l-59 3v54h126v-417q0 -150 42.5 -214t152.5 -64q108 0 151.5 64.5t43.5 213.5v417h66v-424z" />
    <glyph glyph-name="Z.alt" horiz-adv-x="604" 
d="M557 59v-59h-510v73l423 610h-348l-6 -74h-53v134h479v-73l-422 -611h437z" />
    <glyph glyph-name="a.alt" horiz-adv-x="531" 
d="M458 0h-63v39q-86 -52 -181 -52q-162 0 -162 156v15q0 98 59.5 132t188.5 34h92v46q0 80 -27 105.5t-117 25.5q-45 0 -102 -4l-6 -61h-51v102q100 19 164 19t105 -10.5t62.5 -35.5t29.5 -57.5t8 -83.5v-370zM392 87v186h-92q-103 0 -143 -22.5t-40 -92.5v-19
q0 -101 110 -101q88 0 165 49z" />
    <glyph glyph-name="b.alt" horiz-adv-x="559" 
d="M504 244q0 -137 -57 -197t-180 -60q-81 0 -187 12v716l-56 4v54h121v-248q70 33 149 33q109 0 159.5 -57.5t50.5 -186.5v-70zM438 244v70q0 104 -34.5 145t-116.5 41q-83 0 -142 -28v-421q59 -6 123 -6q91 0 130.5 43.5t39.5 155.5z" />
    <glyph glyph-name="c.alt" horiz-adv-x="466" 
d="M421 4q-77 -17 -149 -17q-112 0 -164.5 61.5t-52.5 193.5v60q0 131 53 193t164 62q81 0 149 -17v-106h-52l-6 61q-41 5 -82 5q-83 0 -121.5 -42.5t-38.5 -155.5v-60q0 -115 38 -157t122 -42q47 0 140 11v-50z" />
    <glyph glyph-name="d.alt" horiz-adv-x="559" 
d="M479 0h-63v31q-80 -44 -161 -44q-100 0 -150 59.5t-50 187.5v67q0 140 57.5 198t168.5 58q61 0 133 -12v170l-63 3v55h128v-773zM414 83v407q-82 11 -129 11q-86 0 -125 -42t-39 -158v-67q0 -102 34 -146.5t111 -44.5q66 0 148 40z" />
    <glyph glyph-name="g.alt" horiz-adv-x="550" 
d="M506 -45q0 -174 -233 -174q-124 0 -176.5 44.5t-52.5 129.5q0 74 53 124q-47 25 -47 77q0 56 55 93q-42 43 -42 126q0 40 8.5 70t30.5 57t66 41t108 14h224v-46l-71 -6q56 -34 56 -130q0 -178 -211 -178q-85 0 -130 25q-36 -25 -36 -60q0 -43 54 -43h109q124 0 179.5 -33
t55.5 -131zM442 -44q0 65 -34.5 87t-136.5 22h-119q-43 -38 -43 -109q0 -62 33.5 -91.5t130.5 -29.5q95 0 132 30t37 91zM423 375q0 64 -30 96.5t-119 32.5q-48 0 -79 -9.5t-45.5 -29t-19 -39.5t-4.5 -51q0 -62 30 -94t118 -32t118.5 32t30.5 94z" />
    <glyph glyph-name="h.alt" horiz-adv-x="589" 
d="M504 0h-66v342q0 90 -27 124t-93 34q-81 0 -173 -46v-454h-65v715l-56 3v55h121v-266q98 50 185 50q91 0 132.5 -51.5t41.5 -161.5v-344z" />
    <glyph glyph-name="i.alt" horiz-adv-x="236" 
d="M151 0h-66v485l-55 3v55h121v-543zM152 649h-67v124h67v-124z" />
    <glyph glyph-name="j.alt" horiz-adv-x="236" 
d="M151 -74q0 -80 -26.5 -112.5t-96.5 -32.5q-33 0 -65 4v49q40 -2 59 -2q39 0 51 19.5t12 74.5v559l-55 3v55h121v-617zM152 648h-67v125h67v-125z" />
    <glyph glyph-name="k.alt" horiz-adv-x="487" 
d="M473 0h-87l-241 275v-275h-65v715l-55 3v55h120v-478l240 248h86l-253 -257z" />
    <glyph glyph-name="l.alt" horiz-adv-x="232" 
d="M149 0h-65v715l-56 3v55h121v-773z" />
    <glyph glyph-name="m.alt" horiz-adv-x="835" 
d="M759 0h-66v363q0 74 -17 105.5t-78 31.5q-68 0 -153 -51q7 -35 7 -86v-363h-66v363q0 76 -15.5 106.5t-74.5 30.5q-64 0 -151 -51v-449h-65v485l-56 3v55h121v-43q83 57 165 57q89 0 121 -61q91 61 175 61q35 0 62 -7.5t43 -23t26 -32t14.5 -41.5t6 -43.5t1.5 -46.5v-363
z" />
    <glyph glyph-name="n.alt" horiz-adv-x="580" 
d="M504 0h-66v344q0 88 -23.5 122t-88.5 34q-70 0 -181 -52v-448h-65v485l-55 3v55h120v-44q109 58 187 58q100 0 136 -51t36 -162v-344z" />
    <glyph glyph-name="p.alt" horiz-adv-x="560" 
d="M144 -209h-64v694l-56 3v55h118v-39q81 53 169 53q99 0 146 -61t47 -200v-40q0 -146 -59 -207.5t-172 -61.5q-51 0 -129 13v-209zM439 256v40q0 112 -31.5 157.5t-105.5 45.5q-64 0 -158 -46v-398q80 -12 129 -12q85 0 125.5 46t40.5 167z" />
    <glyph glyph-name="r.alt" horiz-adv-x="361" 
d="M144 0h-64v485l-55 3v55h119v-44q81 58 204 58v-59q-121 0 -204 -50v-448z" />
    <glyph glyph-name="s.alt" horiz-adv-x="469" 
d="M56 7v52q109 -16 173 -16q72 0 102.5 23t30.5 66q0 41 -23.5 62t-98.5 53l-38 16q-81 34 -117 70t-36 92q0 132 194 132q103 0 165 -19v-103h-52l-7 59q-58 6 -103 6q-70 0 -100.5 -16t-30.5 -59q0 -37 23.5 -58.5t89.5 -49.5l38 -16q94 -40 128 -74t34 -94
q0 -64 -46 -105t-151 -41q-98 0 -175 20z" />
    <glyph glyph-name="u.alt" horiz-adv-x="580" 
d="M435 543h65v-543h-65v44q-111 -57 -193 -57q-94 0 -129.5 53t-35.5 159v286l-56 3v55h120v-344q0 -88 24 -122t89 -34q70 0 181 53v447z" />
    <glyph glyph-name="y.alt" horiz-adv-x="582" 
d="M502 -20q0 -103 -45 -151t-164 -48q-80 0 -189 16v49q104 -9 189 -9q86 0 114.5 31t28.5 112v27q-66 -20 -129 -20q-117 0 -173.5 58t-56.5 192v306h65v-306q0 -108 38 -151t128 -43q64 0 129 19v481h65v-563z" />
    <glyph glyph-name="z.alt" horiz-adv-x="479" 
d="M433 54v-54h-391v72l319 416h-249l-6 -53h-52v108h378v-67l-323 -422h324z" />
    <glyph glyph-name="a.alt2" horiz-adv-x="559" 
d="M479 0h-63v31q-80 -44 -161 -44q-200 0 -200 246v69q0 140 58 197.5t171 57.5q100 0 195 -13v-544zM414 83v412q-77 6 -129 6q-86 0 -125.5 -42t-39.5 -157v-69q0 -95 35.5 -142.5t110.5 -47.5q70 0 148 40z" />
    <glyph glyph-name="u.alt2" horiz-adv-x="577" 
d="M500 259q0 -137 -48 -204.5t-164 -67.5q-114 0 -163 68t-49 204v284h65v-284q0 -113 32.5 -164t114.5 -51t114.5 51t32.5 164v284h65v-284z" />
    <glyph glyph-name="Aacute.alt" horiz-adv-x="643" 
d="M478 943l-147 -154h-67l135 154h79zM23 0l233 685l-62 4v54h174l251 -743h-71l-87 263h-282l-88 -263h-68zM440 324l-84 249q-15 44 -32 115h-7q-15 -60 -32 -115l-86 -249h241z" />
    <glyph glyph-name="Acircumflex.alt" horiz-adv-x="643" 
d="M500 789h-67l-113 116l-113 -116h-67l138 154h84zM23 0l233 685l-62 4v54h174l251 -743h-71l-87 263h-282l-88 -263h-68zM440 324l-84 249q-15 44 -32 115h-7q-15 -60 -32 -115l-86 -249h241z" />
    <glyph glyph-name="Adieresis.alt" horiz-adv-x="643" 
d="M465 809h-60v119h60v-119zM236 928v-119h-61v119h61zM23 0l233 685l-62 4v54h174l251 -743h-71l-87 263h-282l-88 -263h-68zM440 324l-84 249q-15 44 -32 115h-7q-15 -60 -32 -115l-86 -249h241z" />
    <glyph glyph-name="Agrave.alt" horiz-adv-x="643" 
d="M385 789h-67l-148 154h80zM23 0l233 685l-62 4v54h174l251 -743h-71l-87 263h-282l-88 -263h-68zM440 324l-84 249q-15 44 -32 115h-7q-15 -60 -32 -115l-86 -249h241z" />
    <glyph glyph-name="Aring.alt" horiz-adv-x="643" 
d="M435 890q0 -54 -31 -81t-82 -27q-52 0 -84 27t-32 81t32 81t84 27q51 0 82 -27t31 -81zM390 890q0 67 -68 67q-70 0 -70 -67t70 -67q68 0 68 67zM23 0l233 685l-62 4v54h174l251 -743h-71l-87 263h-282l-88 -263h-68zM440 324l-84 249q-15 44 -32 115h-7
q-15 -60 -32 -115l-86 -249h241z" />
    <glyph glyph-name="Atilde.alt" horiz-adv-x="643" 
d="M510 908q0 -61 -20 -92.5t-69 -31.5q-46 0 -96 44l-41 39q-36 33 -62 33t-34.5 -19t-8.5 -57v-34h-49v34q0 123 92 123q27 0 46.5 -9t45.5 -32l42 -39q37 -35 64 -35q26 0 34 18.5t8 57.5v34h48v-34zM23 0l233 685l-62 4v54h174l251 -743h-71l-87 263h-282l-88 -263h-68z
M440 324l-84 249q-15 44 -32 115h-7q-15 -60 -32 -115l-86 -249h241z" />
    <glyph glyph-name="Ccedilla.alt" horiz-adv-x="550" 
d="M379 -68l-134 -141h-69l121 141h82zM520 58v-56q-94 -15 -173 -15q-142 0 -217 77.5t-75 264.5v85q0 186 75 263.5t217 77.5q96 0 173 -16v-129h-53l-7 80q-75 5 -113 5q-117 0 -171 -64.5t-54 -216.5v-85q0 -152 54 -217t171 -65q60 0 173 11z" />
    <glyph glyph-name="Eacute.alt" horiz-adv-x="568" 
d="M455 943l-147 -154h-67l134 154h80zM513 683h-361v-265h337v-61h-337v-298h361v-59h-428v685l-57 3v55h485v-60z" />
    <glyph glyph-name="Ecircumflex.alt" horiz-adv-x="568" 
d="M471 789h-67l-113 116l-113 -116h-67l138 154h84zM513 683h-361v-265h337v-61h-337v-298h361v-59h-428v685l-57 3v55h485v-60z" />
    <glyph glyph-name="Edieresis.alt" horiz-adv-x="568" 
d="M426 808h-59v119h59v-119zM197 927v-119h-60v119h60zM513 683h-361v-265h337v-61h-337v-298h361v-59h-428v685l-57 3v55h485v-60z" />
    <glyph glyph-name="Egrave.alt" horiz-adv-x="568" 
d="M340 789h-67l-147 154h80zM513 683h-361v-265h337v-61h-337v-298h361v-59h-428v685l-57 3v55h485v-60z" />
    <glyph glyph-name="Eth.alt" horiz-adv-x="659" 
d="M604 328q0 -166 -76 -249t-243 -83q-8 0 -200 3v358h-57v59h57v267l-57 5v55q45 0 126 1.5t131 1.5q164 0 241.5 -83t77.5 -247v-88zM152 357v-298q74 -4 128 -4q131 0 194 63t63 210v88q0 146 -63 208t-194 62q-48 0 -128 -2v-268h165v-59h-165z" />
    <glyph glyph-name="Iacute.alt" horiz-adv-x="240" 
d="M263 943l-147 -154h-67l135 154h79zM210 0h-180v54l57 3v628l-57 3v55h180v-55l-56 -3v-628l56 -3v-54z" />
    <glyph glyph-name="Icircumflex.alt" horiz-adv-x="240" 
d="M300 789h-67l-113 116l-113 -116h-67l138 154h84zM210 0h-180v54l57 3v628l-57 3v55h180v-55l-56 -3v-628l56 -3v-54z" />
    <glyph glyph-name="Idieresis.alt" horiz-adv-x="240" 
d="M264 809h-60v119h60v-119zM35 928v-119h-61v119h61zM210 0h-180v54l57 3v628l-57 3v55h180v-55l-56 -3v-628l56 -3v-54z" />
    <glyph glyph-name="Igrave.alt" horiz-adv-x="240" 
d="M195 789h-67l-147 154h79zM210 0h-180v54l57 3v628l-57 3v55h180v-55l-56 -3v-628l56 -3v-54z" />
    <glyph glyph-name="Ntilde.alt" horiz-adv-x="692" 
d="M535 907q0 -60 -20 -91.5t-69 -31.5q-48 0 -96 44l-41 38q-35 34 -62 34q-26 0 -34.5 -19.5t-8.5 -57.5v-34h-49v34q0 124 92 124q27 0 46.5 -9.5t45.5 -32.5l42 -39q37 -35 64 -35q26 0 34 18.5t8 57.5v34h48v-34zM607 -1h-95l-313 577q-35 66 -53 104h-1q3 -62 3 -128
v-552h-63v685l-57 3v55h152l314 -571q17 -32 51 -102h1q-3 70 -3 130v543h64v-744z" />
    <glyph glyph-name="Scaron.alt" horiz-adv-x="572" 
d="M107 943h67l113 -117l113 117h67l-138 -154h-84zM277 -13q-121 0 -206 18v54q120 -14 206 -14q85 0 128.5 32.5t43.5 105.5q0 54 -28 86t-104 68l-101 47q-82 38 -121.5 83t-39.5 116q0 172 236 172q111 0 201 -18v-128h-52l-9 81q-57 6 -138 6q-84 0 -127.5 -25.5
t-43.5 -87.5q0 -49 28 -80t96 -63l101 -46q91 -44 130.5 -89.5t39.5 -121.5q0 -196 -240 -196z" />
    <glyph glyph-name="Uacute.alt" horiz-adv-x="683" 
d="M500 943l-147 -154h-67l135 154h79zM603 319q0 -167 -63.5 -249t-197.5 -82q-135 0 -198.5 82t-63.5 249v367l-59 3v54h126v-417q0 -150 42.5 -214t152.5 -64q108 0 151.5 64.5t43.5 213.5v417h66v-424z" />
    <glyph glyph-name="Ucircumflex.alt" horiz-adv-x="683" 
d="M519 789h-67l-113 116l-113 -116h-67l138 154h84zM603 319q0 -167 -63.5 -249t-197.5 -82q-135 0 -198.5 82t-63.5 249v367l-59 3v54h126v-417q0 -150 42.5 -214t152.5 -64q108 0 151.5 64.5t43.5 213.5v417h66v-424z" />
    <glyph glyph-name="Udieresis.alt" horiz-adv-x="683" 
d="M484 809h-59v119h59v-119zM255 928v-119h-60v119h60zM603 319q0 -167 -63.5 -249t-197.5 -82q-135 0 -198.5 82t-63.5 249v367l-59 3v54h126v-417q0 -150 42.5 -214t152.5 -64q108 0 151.5 64.5t43.5 213.5v417h66v-424z" />
    <glyph glyph-name="Ugrave.alt" horiz-adv-x="683" 
d="M388 789h-67l-148 154h80zM603 319q0 -167 -63.5 -249t-197.5 -82q-135 0 -198.5 82t-63.5 249v367l-59 3v54h126v-417q0 -150 42.5 -214t152.5 -64q108 0 151.5 64.5t43.5 213.5v417h66v-424z" />
    <glyph glyph-name="Zcaron.alt" horiz-adv-x="604" 
d="M129 943h67l112 -117l114 117h67l-138 -154h-84zM557 59v-59h-510v73l423 610h-348l-6 -74h-53v134h479v-73l-422 -611h437z" />
    <glyph glyph-name="aacute.alt" horiz-adv-x="531" 
d="M426 770l-148 -154h-66l134 154h80zM458 0h-63v39q-86 -52 -181 -52q-162 0 -162 156v15q0 98 59.5 132t188.5 34h92v46q0 80 -27 105.5t-117 25.5q-45 0 -102 -4l-6 -61h-51v102q100 19 164 19t105 -10.5t62.5 -35.5t29.5 -57.5t8 -83.5v-370zM392 87v186h-92
q-103 0 -143 -22.5t-40 -92.5v-19q0 -101 110 -101q88 0 165 49z" />
    <glyph glyph-name="acircumflex.alt" horiz-adv-x="531" 
d="M454 616h-67l-113 116l-113 -116h-67l138 154h84zM458 0h-63v39q-86 -52 -181 -52q-162 0 -162 156v15q0 98 59.5 132t188.5 34h92v46q0 80 -27 105.5t-117 25.5q-45 0 -102 -4l-6 -61h-51v102q100 19 164 19t105 -10.5t62.5 -35.5t29.5 -57.5t8 -83.5v-370zM392 87v186
h-92q-103 0 -143 -22.5t-40 -92.5v-19q0 -101 110 -101q88 0 165 49z" />
    <glyph glyph-name="adieresis.alt" horiz-adv-x="531" 
d="M416 642h-59v119h59v-119zM187 761v-119h-60v119h60zM458 0h-63v39q-86 -52 -181 -52q-162 0 -162 156v15q0 98 59.5 132t188.5 34h92v46q0 80 -27 105.5t-117 25.5q-45 0 -102 -4l-6 -61h-51v102q100 19 164 19t105 -10.5t62.5 -35.5t29.5 -57.5t8 -83.5v-370zM392 87
v186h-92q-103 0 -143 -22.5t-40 -92.5v-19q0 -101 110 -101q88 0 165 49z" />
    <glyph glyph-name="agrave.alt" horiz-adv-x="531" 
d="M332 616h-67l-148 154h80zM458 0h-63v39q-86 -52 -181 -52q-162 0 -162 156v15q0 98 59.5 132t188.5 34h92v46q0 80 -27 105.5t-117 25.5q-45 0 -102 -4l-6 -61h-51v102q100 19 164 19t105 -10.5t62.5 -35.5t29.5 -57.5t8 -83.5v-370zM392 87v186h-92q-103 0 -143 -22.5
t-40 -92.5v-19q0 -101 110 -101q88 0 165 49z" />
    <glyph glyph-name="ampersand.alt" horiz-adv-x="729" 
d="M668 0h-85l-62 62q-80 -75 -222 -75q-105 0 -170.5 43t-65.5 141v6q1 67 33.5 114t109.5 88l-10 10q-57 57 -81 98t-24 100v9q0 159 210 159q100 0 152 -37.5t52 -121.5v-9q0 -68 -42 -112.5t-154 -106.5l209 -209q47 81 47 224v19h59v-19q0 -176 -60 -270l104 -103v-10z
M478 106l-228 230q-61 -31 -89.5 -67.5t-29.5 -91.5v-6q0 -67 47 -97t121 -30q115 0 179 62zM439 588v8q0 58 -35 79.5t-103 21.5t-105.5 -21.5t-37.5 -79.5v-9q0 -47 19 -77t80 -91l8 -8q100 53 137 87t37 90z" />
    <glyph glyph-name="aring.alt" horiz-adv-x="531" 
d="M389 711q0 -54 -31.5 -81t-82.5 -27q-52 0 -84 27t-32 81t32 81t84 27q51 0 82.5 -27t31.5 -81zM343 711q0 67 -68 67q-69 0 -69 -67t69 -67q68 0 68 67zM458 0h-63v39q-86 -52 -181 -52q-162 0 -162 156v15q0 98 59.5 132t188.5 34h92v46q0 80 -27 105.5t-117 25.5
q-45 0 -102 -4l-6 -61h-51v102q100 19 164 19t105 -10.5t62.5 -35.5t29.5 -57.5t8 -83.5v-370zM392 87v186h-92q-103 0 -143 -22.5t-40 -92.5v-19q0 -101 110 -101q88 0 165 49z" />
    <glyph glyph-name="atilde.alt" horiz-adv-x="531" 
d="M462 737q0 -60 -20 -91.5t-69 -31.5q-48 0 -96 44l-41 38q-35 34 -62 34q-26 0 -34.5 -19.5t-8.5 -57.5v-34h-49v34q0 124 92 124q27 0 46.5 -9.5t45.5 -32.5l42 -39q37 -35 64 -35q26 0 34 18.5t8 57.5v34h48v-34zM458 0h-63v39q-86 -52 -181 -52q-162 0 -162 156v15
q0 98 59.5 132t188.5 34h92v46q0 80 -27 105.5t-117 25.5q-45 0 -102 -4l-6 -61h-51v102q100 19 164 19t105 -10.5t62.5 -35.5t29.5 -57.5t8 -83.5v-370zM392 87v186h-92q-103 0 -143 -22.5t-40 -92.5v-19q0 -101 110 -101q88 0 165 49z" />
    <glyph glyph-name="ccedilla.alt" horiz-adv-x="466" 
d="M331 -68l-134 -141h-68l121 141h81zM421 4q-77 -17 -149 -17q-112 0 -164.5 61.5t-52.5 193.5v60q0 131 53 193t164 62q81 0 149 -17v-106h-52l-6 61q-41 5 -82 5q-83 0 -121.5 -42.5t-38.5 -155.5v-60q0 -115 38 -157t122 -42q47 0 140 11v-50z" />
    <glyph glyph-name="dotlessi.alt" horiz-adv-x="236" 
d="M151 0h-66v485l-55 3v55h121v-543z" />
    <glyph glyph-name="iacute.alt" horiz-adv-x="236" 
d="M151 0h-66v485l-55 3v55h121v-543zM266 770l-147 -154h-67l135 154h79z" />
    <glyph glyph-name="icircumflex.alt" horiz-adv-x="236" 
d="M151 0h-66v485l-55 3v55h121v-543zM298 616h-67l-113 116l-113 -116h-67l138 154h84z" />
    <glyph glyph-name="idieresis.alt" horiz-adv-x="236" 
d="M151 0h-66v485l-55 3v55h121v-543zM264 642h-59v119h59v-119zM35 761v-119h-60v119h60z" />
    <glyph glyph-name="igrave.alt" horiz-adv-x="236" 
d="M151 0h-66v485l-55 3v55h121v-543zM180 616h-67l-147 154h79z" />
    <glyph glyph-name="lslash.alt" horiz-adv-x="232" 
d="M221 463l-72 -71v-392h-65v327l-72 -69v80l72 70v307l-56 3v55h121v-301l72 71v-80z" />
    <glyph glyph-name="ntilde.alt" horiz-adv-x="580" 
d="M484 737q0 -60 -20 -91.5t-69 -31.5t-96 44l-42 38q-34 34 -62 34q-25 0 -33.5 -19.5t-8.5 -57.5v-34h-49v34q0 124 91 124q46 0 92 -42l43 -39q37 -35 63 -35t34.5 19t8.5 57v34h48v-34zM504 0h-66v344q0 88 -23.5 122t-88.5 34q-70 0 -181 -52v-448h-65v485l-55 3v55
h120v-44q109 58 187 58q100 0 136 -51t36 -162v-344z" />
    <glyph glyph-name="scaron.alt" horiz-adv-x="469" 
d="M55 770h67l113 -117l113 117h67l-138 -154h-84zM56 7v52q109 -16 173 -16q72 0 102.5 23t30.5 66q0 41 -23.5 62t-98.5 53l-38 16q-81 34 -117 70t-36 92q0 132 194 132q103 0 165 -19v-103h-52l-7 59q-58 6 -103 6q-70 0 -100.5 -16t-30.5 -59q0 -37 23.5 -58.5
t89.5 -49.5l38 -16q94 -40 128 -74t34 -94q0 -64 -46 -105t-151 -41q-98 0 -175 20z" />
    <glyph glyph-name="uacute.alt" horiz-adv-x="580" 
d="M455 770l-148 -154h-66l134 154h80zM435 543h65v-543h-65v44q-111 -57 -193 -57q-94 0 -129.5 53t-35.5 159v286l-56 3v55h120v-344q0 -88 24 -122t89 -34q70 0 181 53v447z" />
    <glyph glyph-name="ucircumflex.alt" horiz-adv-x="580" 
d="M470 616h-67l-114 116l-112 -116h-67l138 154h84zM435 543h65v-543h-65v44q-111 -57 -193 -57q-94 0 -129.5 53t-35.5 159v286l-56 3v55h120v-344q0 -88 24 -122t89 -34q70 0 181 53v447z" />
    <glyph glyph-name="udieresis.alt" horiz-adv-x="580" 
d="M430 642h-59v119h59v-119zM201 761v-119h-60v119h60zM435 543h65v-543h-65v44q-111 -57 -193 -57q-94 0 -129.5 53t-35.5 159v286l-56 3v55h120v-344q0 -88 24 -122t89 -34q70 0 181 53v447z" />
    <glyph glyph-name="ugrave.alt" horiz-adv-x="580" 
d="M346 616h-67l-147 154h79zM435 543h65v-543h-65v44q-111 -57 -193 -57q-94 0 -129.5 53t-35.5 159v286l-56 3v55h120v-344q0 -88 24 -122t89 -34q70 0 181 53v447z" />
    <glyph glyph-name="yacute.alt" horiz-adv-x="582" 
d="M502 -20q0 -103 -45 -151t-164 -48q-80 0 -189 16v49q104 -9 189 -9q86 0 114.5 31t28.5 112v27q-66 -20 -129 -20q-117 0 -173.5 58t-56.5 192v306h65v-306q0 -108 38 -151t128 -43q64 0 129 19v481h65v-563zM458 770l-147 -154h-67l134 154h80z" />
    <glyph glyph-name="ydieresis.alt" horiz-adv-x="582" 
d="M502 -20q0 -103 -45 -151t-164 -48q-80 0 -189 16v49q104 -9 189 -9q86 0 114.5 31t28.5 112v27q-66 -20 -129 -20q-117 0 -173.5 58t-56.5 192v306h65v-306q0 -108 38 -151t128 -43q64 0 129 19v481h65v-563zM441 642h-60v119h60v-119zM212 761v-119h-61v119h61z" />
    <glyph glyph-name="zcaron.alt" horiz-adv-x="479" 
d="M66 770h67l112 -117l114 117h67l-138 -154h-84zM433 54v-54h-391v72l319 416h-249l-6 -53h-52v108h378v-67l-323 -422h324z" />
    <glyph glyph-name="two.alt" horiz-adv-x="584" 
d="M516 59v-59h-450v72q0 66 11 111t41 82.5t69 65t108 65.5q99 54 130.5 90.5t31.5 94.5q0 63 -43.5 89.5t-144.5 26.5q-51 0 -136 -9l-7 -84h-51v130q136 21 197 21q129 0 190.5 -42t61.5 -132q0 -72 -40.5 -123t-151.5 -112q-125 -67 -162.5 -117t-37.5 -156v-14h384z
" />
    <glyph glyph-name="three.alt" horiz-adv-x="584" 
d="M522 196q0 -109 -62.5 -159t-191.5 -50q-86 0 -196 20v52q8 -1 45 -5t75.5 -7t74.5 -3q101 0 144.5 34.5t43.5 117.5v29q0 62 -26.5 97.5t-109.5 35.5h-220v57h220q44 0 72.5 10.5t41.5 31.5t17.5 42t4.5 51v14q0 73 -40.5 103t-147.5 30q-64 0 -134 -6l-7 -85h-52v130
q86 19 194 19q135 0 194.5 -44t59.5 -147v-14q0 -128 -100 -164q100 -35 100 -161v-29z" />
    <glyph glyph-name="five.alt" horiz-adv-x="581" 
d="M520 206q0 -114 -63 -166.5t-199 -52.5q-107 0 -202 23v52q157 -17 201 -17q110 0 153.5 37t43.5 124v27q0 85 -45.5 117.5t-159.5 32.5h-177l32 360h387v-137h-52l-7 77h-271l-22 -242h113q138 0 203 -48t65 -160v-27z" />
    <glyph glyph-name="six.alt" horiz-adv-x="626" 
d="M564 221q0 -54 -15.5 -96.5t-40 -68t-58 -41.5t-65.5 -22t-67 -6q-57 0 -99.5 12t-80 42.5t-57.5 91.5t-20 151v192q0 141 61 210t210 69q104 0 202 -21v-128h-53l-7 84q-86 7 -141 7q-65 0 -106.5 -14.5t-62.5 -45.5t-28.5 -67.5t-7.5 -92.5v-47q96 26 191 26
q51 0 90.5 -8t77 -28t57.5 -61t20 -102v-36zM497 221v34q0 86 -46 116t-134 30q-102 0 -189 -23v-99q0 -130 48.5 -182t141.5 -52q81 0 130 43.5t49 132.5z" />
    <glyph glyph-name="seven.alt" horiz-adv-x="562" 
d="M520 672l-328 -672h-75l340 683h-344l-6 -77h-53v137h466v-71z" />
    <glyph glyph-name="dotlessj" horiz-adv-x="236" 
d="M151 -74q0 -80 -26.5 -112.5t-96.5 -32.5q-33 0 -65 4v49q40 -2 59 -2q39 0 51 19.5t12 74.5v617h66v-617z" />
    <glyph glyph-name="zero.tab" 
d="M574 313q0 -165 -65.5 -245.5t-187.5 -80.5q-253 0 -253 326v116q0 326 253 326q122 0 187.5 -80.5t65.5 -245.5v-116zM507 313v116q0 268 -186 268t-186 -268v-116q0 -269 186 -269t186 269z" />
    <glyph glyph-name="one.tab" 
d="M550 0h-435v55l185 4v620l-185 -55v59l201 65h50v-689l184 -4v-55z" />
    <glyph glyph-name="two.tab" 
d="M540 0h-449v72q0 87 23.5 143t68 93t136.5 88q99 54 131 91t32 94q0 63 -44 89.5t-145 26.5q-92 0 -188 -16v53q99 21 192 21q129 0 190.5 -42t61.5 -132q0 -72 -40.5 -123t-152.5 -112q-125 -67 -162.5 -117.5t-37.5 -155.5v-14h384v-59z" />
    <glyph glyph-name="three.tab" 
d="M548 196q0 -110 -62 -159.5t-192 -49.5q-99 0 -196 20v51q126 -14 196 -14q101 0 144.5 34.5t43.5 117.5v29q0 62 -27 97.5t-110 35.5h-219v57h219q83 0 110 36t27 99v14q0 73 -40.5 103t-148.5 30q-76 0 -193 -13v52q86 19 194 19q135 0 195 -44t60 -147v-14
q0 -127 -101 -164q100 -35 100 -161v-29z" />
    <glyph glyph-name="four.tab" 
d="M592 207h-119v-207h-67v207h-360v68l350 469h77v-479h119v-58zM406 265v390l-292 -390h292z" />
    <glyph glyph-name="five.tab" 
d="M552 206q0 -114 -63 -166.5t-199 -52.5q-110 0 -202 22v53q139 -17 201 -17q110 0 153.5 37t43.5 124v27q0 85 -45.5 117.5t-159.5 32.5h-177l32 360h387v-60h-330l-22 -242h113q138 0 203 -48t65 -160v-27z" />
    <glyph glyph-name="seven.tab" 
d="M557 672l-328 -672h-75l340 683h-403v60h466v-71z" />
    <glyph glyph-name="six.tab" 
d="M572 221q0 -67 -23 -115.5t-61.5 -73t-78 -35t-84.5 -10.5q-57 0 -99 12t-80 42.5t-58 91.5t-20 151v192q0 141 61 210t210 69q104 0 202 -21v-52q-117 15 -200 15q-65 0 -107 -14.5t-63 -45.5t-28.5 -67.5t-7.5 -92.5v-47q96 26 192 26q51 0 90.5 -8t77 -28t57.5 -61
t20 -102v-36zM505 221v34q0 86 -46 116t-135 30q-101 0 -189 -23v-99q0 -130 48.5 -182t141.5 -52q81 0 130.5 43.5t49.5 132.5z" />
    <glyph glyph-name="eight.tab" 
d="M578 211q0 -57 -13.5 -98.5t-35 -65.5t-56 -37.5t-69 -18t-82.5 -4.5h-5q-48 0 -82.5 4.5t-69 18.5t-56 38t-35 65.5t-13.5 98.5v7q0 129 94 168q-91 37 -91 160v10q0 110 67 153.5t186 43.5h5q119 0 186 -43.5t67 -153.5v-10q0 -123 -91 -160q94 -39 94 -167v-9z
M511 211v9q0 69 -26.5 103.5t-93.5 34.5h-143q-67 0 -93.5 -35t-26.5 -104v-7q0 -99 45.5 -133.5t143.5 -34.5h5q98 0 143.5 34.5t45.5 132.5zM509 547v10q0 80 -46 110t-141 30h-5q-95 0 -141 -30t-46 -110v-10q0 -62 26 -96.5t92 -34.5h143q66 0 92 34.5t26 96.5z" />
    <glyph glyph-name="nine.tab" 
d="M564 265q0 -141 -61 -210t-210 -69q-104 0 -202 21v53q125 -16 200 -16q65 0 107 14.5t63 45.5t28.5 67.5t7.5 92.5v47q-92 -25 -192 -25q-40 0 -72.5 4t-65.5 17t-55.5 34t-36.5 57.5t-14 85.5v37q0 54 15.5 96t40 67.5t58 42t65.5 22.5t67 6q57 0 99 -12t80 -42.5
t58 -91.5t20 -151v-193zM497 363v99q0 130 -48.5 182.5t-141.5 52.5q-81 0 -130.5 -43.5t-49.5 -132.5v-35q0 -86 46 -116t135 -30q96 0 189 23z" />
    <glyph glyph-name="middot" horiz-adv-x="261" 
d="M165 300h-67v138h67v-138z" />
    <glyph glyph-name="threequartersemdash" horiz-adv-x="855" 
d="M792 264h-717v56h717v-56z" />
    <glyph glyph-name="overscore" horiz-adv-x="575" 
d="M580 824h-585v44h585v-44z" />
    <glyph glyph-name="franc.taboldstyle" horiz-adv-x="559" 
d="M207 0h-66v123h-47v52h47v379h331v-61h-265v-176h249v-58h-249v-84h131v-52h-131v-123z" />
    <glyph glyph-name="lira.taboldstyle" horiz-adv-x="563" 
d="M474 549v-56q-69 8 -134 8q-75 0 -100 -27.5t-25 -108.5v-22h197v-48h-197v-70h197v-48h-197v-21q0 -58 -31 -98h290v-58h-364v50q39 43 39 106v21h-63v48h63v70h-63v48h63v22q0 106 40.5 151t142.5 45q80 0 142 -12z" />
    <glyph glyph-name="currency.taboldstyle" horiz-adv-x="615" 
d="M552 125l-47 -47l-77 76q-52 -39 -120 -39q-69 0 -122 40l-77 -77l-46 47l76 76q-39 54 -39 121q0 69 39 121l-76 77l46 46l78 -76q54 40 120 40q67 0 122 -40l75 76l48 -46l-77 -77q40 -55 40 -121q0 -67 -39 -121zM459 322q0 63 -44.5 108t-107.5 45q-61 0 -105.5 -45
t-44.5 -108q0 -62 44.5 -107t105.5 -45q62 0 106 44.5t46 107.5z" />
    <glyph glyph-name="peseta.taboldstyle" horiz-adv-x="532" 
d="M147 0h-64v367h-49v52h49v134q79 8 156 8q99 0 151.5 -32.5t60.5 -109.5h49v-52h-49q-15 -149 -215 -149q-29 0 -89 4v-222zM388 388v11q0 60 -36 82.5t-116 22.5q-56 0 -89 -3v-223q39 -3 87 -3q78 0 116 26t38 87z" />
    <glyph glyph-name="T_h.caron" horiz-adv-x="1069" 
d="M349 788h-84l-138 154h67l113 -117l113 117h67zM992 0h-65v342q0 90 -27 124t-93 34q-81 0 -173 -46v-454h-65v683h-232v-683h-67v683h-240v60h604v-236q98 50 185 50q91 0 132 -51t41 -162v-344z" />
    <glyph glyph-name="AE.alt" horiz-adv-x="942" 
d="M887 0h-427v263h-275l-87 -263h-68l231 685l-68 3v55h694v-60h-361v-265h338v-61h-338v-298h361v-59zM460 323v361h-135q-17 -55 -34 -108l-86 -253h255z" />
    <glyph glyph-name="ae.alt" horiz-adv-x="896" 
d="M845 249h-387v-56q0 -77 39.5 -114t142.5 -37q83 0 187 18v-53q-89 -20 -188 -20q-163 0 -211 72q-97 -72 -217 -72q-160 0 -160 153v21q0 96 59.5 129.5t188.5 33.5h93v46q0 80 -27 105.5t-117 25.5q-28 0 -104 -4l-6 -61h-51v102q95 19 165 19q90 0 130 -20t56 -63
q52 82 181 82q226 0 226 -261v-46zM778 304v15q0 181 -159 181q-47 0 -80 -15.5t-49.5 -42t-23.5 -54.5t-7 -61v-23h319zM392 93v180h-93q-103 0 -142.5 -22t-39.5 -90v-26q0 -97 106 -97q92 0 169 55z" />
    <glyph glyph-name="agrave.alt2" horiz-adv-x="547" 
d="M353 616h-67l-147 154h79zM479 0h-63v31q-80 -44 -161 -44q-200 0 -200 246v69q0 140 58 197.5t171 57.5q100 0 195 -13v-544zM414 83v412q-77 6 -129 6q-86 0 -125.5 -42t-39.5 -157v-69q0 -95 35.5 -142.5t110.5 -47.5q70 0 148 40z" />
    <glyph glyph-name="aacute.alt2" horiz-adv-x="547" 
d="M441 770l-147 -154h-67l135 154h79zM479 0h-63v31q-80 -44 -161 -44q-200 0 -200 246v69q0 140 58 197.5t171 57.5q100 0 195 -13v-544zM414 83v412q-77 6 -129 6q-86 0 -125.5 -42t-39.5 -157v-69q0 -95 35.5 -142.5t110.5 -47.5q70 0 148 40z" />
    <glyph glyph-name="acircumflex.alt2" horiz-adv-x="547" 
d="M458 616h-67l-114 116l-112 -116h-67l138 154h84zM479 0h-63v31q-80 -44 -161 -44q-200 0 -200 246v69q0 140 58 197.5t171 57.5q100 0 195 -13v-544zM414 83v412q-77 6 -129 6q-86 0 -125.5 -42t-39.5 -157v-69q0 -95 35.5 -142.5t110.5 -47.5q70 0 148 40z" />
    <glyph glyph-name="atilde.alt2" horiz-adv-x="547" 
d="M466 737q0 -60 -20.5 -91.5t-69.5 -31.5q-48 0 -96 44l-41 38q-34 34 -62 34q-26 0 -34.5 -19.5t-8.5 -57.5v-34h-48v34q0 124 91 124q27 0 46.5 -9.5t45.5 -32.5l42 -39q37 -35 64 -35q26 0 34.5 19t8.5 57v34h48v-34zM479 0h-63v31q-80 -44 -161 -44q-200 0 -200 246
v69q0 140 58 197.5t171 57.5q100 0 195 -13v-544zM414 83v412q-77 6 -129 6q-86 0 -125.5 -42t-39.5 -157v-69q0 -95 35.5 -142.5t110.5 -47.5q70 0 148 40z" />
    <glyph glyph-name="adieresis.alt2" horiz-adv-x="547" 
d="M427 642h-60v119h60v-119zM198 761v-119h-61v119h61zM479 0h-63v31q-80 -44 -161 -44q-200 0 -200 246v69q0 140 58 197.5t171 57.5q100 0 195 -13v-544zM414 83v412q-77 6 -129 6q-86 0 -125.5 -42t-39.5 -157v-69q0 -95 35.5 -142.5t110.5 -47.5q70 0 148 40z" />
    <glyph glyph-name="aring.alt2" horiz-adv-x="547" 
d="M399 711q0 -54 -31.5 -81t-82.5 -27q-52 0 -84 27t-32 81t32 81t84 27q51 0 82.5 -27t31.5 -81zM353 711q0 67 -68 67q-69 0 -69 -67t69 -67q68 0 68 67zM479 0h-63v31q-80 -44 -161 -44q-200 0 -200 246v69q0 140 58 197.5t171 57.5q100 0 195 -13v-544zM414 83v412
q-77 6 -129 6q-86 0 -125.5 -42t-39.5 -157v-69q0 -95 35.5 -142.5t110.5 -47.5q70 0 148 40z" />
    <glyph glyph-name="ugrave.alt2" horiz-adv-x="587" 
d="M348 616h-67l-147 154h79zM500 259q0 -137 -48 -204.5t-164 -67.5q-114 0 -163 68t-49 204v284h65v-284q0 -113 32.5 -164t114.5 -51t114.5 51t32.5 164v284h65v-284z" />
    <glyph glyph-name="uacute.alt2" horiz-adv-x="587" 
d="M451 770l-147 -154h-67l134 154h80zM500 259q0 -137 -48 -204.5t-164 -67.5q-114 0 -163 68t-49 204v284h65v-284q0 -113 32.5 -164t114.5 -51t114.5 51t32.5 164v284h65v-284z" />
    <glyph glyph-name="ucircumflex.alt2" horiz-adv-x="587" 
d="M468 616h-67l-113 116l-113 -116h-67l138 154h84zM500 259q0 -137 -48 -204.5t-164 -67.5q-114 0 -163 68t-49 204v284h65v-284q0 -113 32.5 -164t114.5 -51t114.5 51t32.5 164v284h65v-284z" />
    <glyph glyph-name="udieresis.alt2" horiz-adv-x="587" 
d="M434 642h-60v119h60v-119zM205 761v-119h-60v119h60zM500 259q0 -137 -48 -204.5t-164 -67.5q-114 0 -163 68t-49 204v284h65v-284q0 -113 32.5 -164t114.5 -51t114.5 51t32.5 164v284h65v-284z" />
    </font>
</defs>
</svg>
