<?xml version="1.0" standalone="no"?>
<!DOCTYPE svg PUBLIC "-//W3C//DTD SVG 1.1//EN" "http://www.w3.org/Graphics/SVG/1.1/DTD/svg11.dtd" >
<svg>
<metadata>
Created by FontForge 20110222 at Sun Sep 22 14:54:58 2013
 By Orthosie Webhosting
Copyright (c) 2007 Monotype Imaging Inc. Soho is designed by Sebastian Lester. All rights reserved.
</metadata>
<defs>
<font id="SohoGothicStdMedium" horiz-adv-x="687" >
  <font-face 
    font-family="SohoGothicStdMedium"
    font-weight="500"
    font-stretch="normal"
    units-per-em="1000"
    panose-1="2 11 6 3 3 5 4 2 2 4"
    ascent="787"
    descent="-213"
    x-height="563"
    cap-height="743"
    bbox="-73 -293 1484 1013"
    underline-thickness="50"
    underline-position="-50"
    unicode-range="U+0020-FE6A"
  />
<missing-glyph horiz-adv-x="500" 
d="M12 0v665h475v-665h-475zM88 618l162 -243l161 243h-323zM60 575v-484l40 61l80 120l41 61zM440 575l-162 -242l162 -243v485zM411 48l-161 242l-162 -242h323z" />
    <glyph glyph-name="f_f" unicode="ff" horiz-adv-x="781" 
d="M605 0h-132v457h-219v-457h-133v457l-99 10v96h99v54q0 86 34 130.5t124 44.5q68 0 121 -16v-84q-30 3 -89 3q-38 0 -47.5 -16.5t-9.5 -63.5v-52h219v54q0 86 33.5 130.5t123.5 44.5q68 0 121 -16v-84q-30 3 -89 3q-38 0 -47.5 -16t-9.5 -64v-52h144v-106h-144v-457z" />
    <glyph glyph-name="f_i" unicode="fi" horiz-adv-x="682" 
d="M253 0h-132v457l-100 10v96h100v54q0 88 33.5 131.5t123.5 43.5q67 0 122 -16v-84q-32 3 -90 3q-38 0 -47.5 -16t-9.5 -64v-52h351v-563h-132v457h-219v-457zM606 650h-136v127h136v-127z" />
    <glyph glyph-name="f_l" unicode="fl" horiz-adv-x="686" 
d="M253 0h-132v457l-100 10v96h100v52q0 99 44.5 138t140.5 39q78 0 171 -15h132v-777h-132v690q-68 5 -141 5q-49 0 -66 -14.5t-17 -65.5v-52h144v-106h-144v-457z" />
    <glyph glyph-name="f_f_i" unicode="ffi" horiz-adv-x="1031" 
d="M954 0h-132v457h-218v-457h-131v457h-219v-457h-133v457l-99 10v96h99v54q0 87 33.5 131t124.5 44q68 0 121 -16v-84q-30 3 -89 3q-37 0 -47 -16.5t-10 -63.5v-52h219v54q0 87 33.5 131t123.5 44q68 0 121 -16v-84q-32 3 -90 3q-37 0 -47 -16.5t-10 -63.5v-52h350v-563z
M957 650h-137v127h137v-127z" />
    <glyph glyph-name="f_f_l" unicode="ffl" horiz-adv-x="1036" 
d="M959 0h-132v690q-67 5 -140 5q-49 0 -66 -14.5t-17 -65.5v-52h145v-106h-145v-457h-132v457h-218v-457h-133v457l-99 10v96h99v54q0 86 34 130.5t124 44.5q68 0 121 -16v-84q-30 3 -89 3q-38 0 -47.5 -16t-9.5 -64v-52h218v52q0 100 44.5 138.5t140.5 38.5q77 0 170 -15
h132v-777z" />
    <glyph glyph-name="f_b" unicode="fb" horiz-adv-x="1014" 
d="M253 0h-132v457l-100 10v96h100v52q0 98 44.5 137.5t139.5 39.5q74 0 166 -15h131v-226q59 27 134 27q117 0 172 -61t55 -189v-78q0 -140 -65 -202.5t-200 -62.5q-81 0 -227 15v689q-74 6 -139 6q-46 0 -62.5 -14.5t-16.5 -65.5v-52h144v-106h-144v-457zM603 102
q88 -4 98 -4q70 0 100 33t30 119v79q0 77 -24.5 107t-88.5 30q-72 0 -115 -21v-343z" />
    <glyph glyph-name="f_f_b" unicode="ffb" horiz-adv-x="1369" 
d="M607 0h-131v457h-222v-457h-133v457l-99 9v97h99v54q0 86 33.5 130.5t124.5 44.5q62 0 120 -16v-84q-84 3 -87 3q-39 0 -48.5 -16t-9.5 -64v-52h222v52q0 98 44.5 137.5t137.5 39.5q63 0 168 -15h131v-226q55 27 133 27q117 0 172.5 -61t55.5 -189v-78
q0 -140 -65.5 -202.5t-200.5 -62.5q-82 0 -226 15v690q-65 5 -139 5q-46 0 -63 -14.5t-17 -65.5v-52h145v-106h-145v-457zM1186 250v79q0 77 -24.5 107t-88.5 30q-72 0 -116 -21v-343q76 -4 98 -4q70 0 100.5 33t30.5 119z" />
    <glyph glyph-name="f_h" unicode="fh" horiz-adv-x="1035" 
d="M964 0h-133v355q0 64 -19.5 87.5t-69.5 23.5q-69 0 -138 -31v-435h-131v690q-73 5 -136 5q-49 0 -66 -14.5t-17 -65.5v-52h144v-106h-144v-457h-133v457l-99 10v96h99v52q0 99 45.5 138t142.5 39q68 0 164 -15h131v-242q78 42 175 42q100 0 142.5 -56t42.5 -164v-357z
" />
    <glyph glyph-name="f_f_h" unicode="ffh" horiz-adv-x="1385" 
d="M1314 0h-132v355q0 64 -19.5 87.5t-69.5 23.5q-73 0 -137 -31v-435h-133v690q-70 5 -135 5q-49 0 -66.5 -14.5t-17.5 -65.5v-52h144v-106h-144v-457h-131v457h-219v-457h-133v457l-99 10v96h99v54q0 86 33.5 130.5t124.5 44.5q68 0 121 -16v-84q-32 3 -89 3
q-38 0 -47.5 -16t-9.5 -64v-52h219v52q0 99 45.5 138t141.5 39q67 0 163 -15h133v-242q76 42 174 42q100 0 142 -55.5t42 -164.5v-357z" />
    <glyph glyph-name="f_j" unicode="fj" horiz-adv-x="683" 
d="M254 0h-133v457l-99 10v96h99v54q0 85 34 130t124 45q68 0 121 -16v-84q-32 3 -89 3q-37 0 -47 -16.5t-10 -63.5v-52h352v-610q0 -95 -36 -134t-123 -39q-56 0 -85 8v93q16 -1 57 -1q34 0 44.5 14.5t10.5 58.5v504h-220v-457zM608 650h-137v127h137v-127z" />
    <glyph glyph-name="f_f_j" unicode="ffj" horiz-adv-x="1034" 
d="M604 0h-132v457h-219v-457h-132v457l-100 10v96h100v54q0 85 34 130t123 45q68 0 121 -16v-84q-30 3 -89 3q-37 0 -47 -17t-10 -63v-52h219v54q0 86 34 130.5t124 44.5q67 0 120 -16v-84q-31 3 -89 3q-37 0 -47 -16.5t-10 -63.5v-52h352v-610q0 -95 -36 -134t-122 -39
q-58 0 -85 8v93q15 -1 57 -1q34 0 44 14.5t10 58.5v504h-220v-457zM959 650h-138v127h138v-127z" />
    <glyph glyph-name="f_k" unicode="fk" horiz-adv-x="973" 
d="M961 0h-158l-199 267v-267h-131v690q-73 5 -136 5q-49 0 -66 -14.5t-17 -65.5v-52h144v-106h-144v-457h-133v457l-99 10v96h99v52q0 99 46 138t142 39q68 0 164 -15h131v-465l200 251h151l-218 -270z" />
    <glyph glyph-name="f_f_k" unicode="ffk" horiz-adv-x="1324" 
d="M1312 0h-158l-199 267v-267h-132v690q-73 5 -135 5q-49 0 -66.5 -14.5t-17.5 -65.5v-52h145v-106h-145v-457h-132v457h-218v-457h-133v457l-99 10v96h99v54q0 86 34 130.5t124 44.5q68 0 121 -16v-84q-30 3 -89 3q-38 0 -47.5 -16t-9.5 -64v-52h218v52q0 99 45.5 138
t141.5 39q68 0 164 -15h132v-465l200 251h151l-218 -270z" />
    <glyph glyph-name=".notdef" horiz-adv-x="500" 
d="M12 0v665h475v-665h-475zM88 618l162 -243l161 243h-323zM60 575v-484l40 61l80 120l41 61zM440 575l-162 -242l162 -243v485zM411 48l-161 242l-162 -242h323z" />
    <glyph glyph-name=".null" horiz-adv-x="0" 
 />
    <glyph glyph-name="nonmarkingreturn" horiz-adv-x="333" 
 />
    <glyph glyph-name="space" unicode=" " horiz-adv-x="196" 
 />
    <glyph glyph-name="exclam" unicode="!" horiz-adv-x="301" 
d="M218 0h-135v153h135v-153zM223 777l-12 -566h-120l-13 566h145z" />
    <glyph glyph-name="quotedbl" unicode="&#x22;" horiz-adv-x="410" 
d="M20 512l25 254h122l-52 -254h-95zM390 766l-53 -254h-95l26 254h122z" />
    <glyph glyph-name="numbersign" unicode="#" horiz-adv-x="755" 
d="M680 185h-137l-21 -185h-112l20 185h-152l-21 -185h-112l21 185h-92v97h102l18 169h-120v96h131l22 196h112l-21 -196h151l23 196h112l-21 -196h97v-96h-108l-19 -169h127v-97zM459 451h-152l-19 -169h153z" />
    <glyph glyph-name="dollar" unicode="$" horiz-adv-x="646" 
d="M263 -124v110q-121 5 -180 21v103q124 -12 224 -12q68 0 100.5 23t32.5 73q0 36 -20 60t-74 47l-118 50q-83 35 -123 82t-40 129q0 168 198 192v105h118v-103q99 -4 174 -22v-102q-120 13 -217 13q-68 0 -101 -18t-33 -61q0 -36 19 -57.5t73 -43.5l116 -48
q89 -37 128.5 -86t39.5 -131q0 -185 -199 -211v-113h-118z" />
    <glyph glyph-name="percent" unicode="%" horiz-adv-x="1111" 
d="M1057 200q0 -103 -47 -157t-139 -54q-93 0 -140 54t-47 157v45q0 210 187 210q92 0 139 -53.5t47 -156.5v-45zM952 200v45q0 71 -21 98t-60 27q-40 0 -61 -27t-21 -98v-45q0 -71 21 -98t61 -27q39 0 60 27t21 98zM855 744l-486 -744h-118l485 744h119zM424 502
q0 -212 -185 -212q-186 0 -186 212v43q0 212 186 212q185 0 185 -212v-43zM320 502v43q0 72 -19 99.5t-62 27.5t-62 -28.5t-19 -98.5v-43q0 -71 19 -98.5t62 -27.5t62 27.5t19 98.5z" />
    <glyph glyph-name="ampersand" unicode="&#x26;" horiz-adv-x="778" 
d="M725 0h-138l-50 46q-83 -61 -220 -61q-119 0 -191 46.5t-72 151.5v7q0 66 33.5 110.5t107.5 86.5l-8 8q-52 52 -76.5 94t-24.5 95v4q0 170 239 170q110 0 228 -24v-99q-121 11 -220 11q-56 0 -84 -15t-28 -57q0 -33 15.5 -56t60.5 -67l248 -242q28 57 28 153l-51 8v78
h213v-78l-51 -8q0 -142 -62 -234l103 -99v-29zM465 121l-190 181q-45 -24 -64.5 -48t-19.5 -64v-7q0 -49 37.5 -73.5t95.5 -24.5q89 0 141 36z" />
    <glyph glyph-name="quotesingle" unicode="'" horiz-adv-x="187" 
d="M167 766l-52 -254h-95l25 254h122z" />
    <glyph glyph-name="parenleft" unicode="(" horiz-adv-x="377" 
d="M340 -203h-123q-63 82 -109 202t-46 267v7q0 147 46 267.5t109 202.5h123q-147 -215 -147 -470v-7q0 -256 147 -469z" />
    <glyph glyph-name="parenright" unicode=")" horiz-adv-x="377" 
d="M314 266q0 -147 -45.5 -267.5t-108.5 -201.5h-123q147 211 147 469v7q0 258 -147 470h123q63 -81 108.5 -202t45.5 -268v-7z" />
    <glyph glyph-name="asterisk" unicode="*" horiz-adv-x="541" 
d="M480 586l-66 -21q-35 -12 -73 -16q21 -21 49 -55l41 -53l-82 -62l-40 53q-21 28 -39 63q-15 -29 -39 -62l-40 -54l-82 62l41 54q21 29 49 54q-38 6 -73 17l-65 20l31 101l65 -21q42 -13 69 -28q-6 50 -6 72v67h101v-67q0 -32 -8 -74q27 15 70 29l66 22z" />
    <glyph glyph-name="plus" unicode="+" horiz-adv-x="689" 
d="M602 333h-206v-202h-102v202h-208v109h208v202h102v-202h206v-109z" />
    <glyph glyph-name="comma" unicode="," horiz-adv-x="313" 
d="M263 155l-125 -247h-112l94 247h143z" />
    <glyph glyph-name="hyphen" unicode="-" horiz-adv-x="386" 
d="M320 242h-254v104h254v-104z" />
    <glyph glyph-name="period" unicode="." horiz-adv-x="277" 
d="M205 0h-133v154h133v-154z" />
    <glyph glyph-name="slash" unicode="/" horiz-adv-x="453" 
d="M438 743l-291 -743h-133l293 743h131z" />
    <glyph glyph-name="zero" unicode="0" horiz-adv-x="672" 
d="M619 316q0 -163 -71.5 -247.5t-211.5 -84.5t-211.5 84.5t-71.5 247.5v110q0 163 71.5 247.5t211.5 84.5t211.5 -84.5t71.5 -247.5v-110zM479 316v110q0 118 -37 166.5t-106 48.5t-106 -48.5t-37 -166.5v-110q0 -118 37 -166.5t106 -48.5t106 48.5t37 166.5z" />
    <glyph glyph-name="one" unicode="1" horiz-adv-x="583" 
d="M527 0h-470v106l166 7v499l-167 -48v112l205 71h100v-634l166 -7v-106z" />
    <glyph glyph-name="two" unicode="2" horiz-adv-x="620" 
d="M557 0h-499v93q0 126 48 191t178 134q88 47 115.5 76t27.5 71q0 46 -33.5 63.5t-117.5 17.5q-109 0 -202 -13v97q99 28 220 28q141 0 207.5 -45t66.5 -142q0 -75 -43.5 -129t-155.5 -111q-112 -58 -143 -94.5t-31 -109.5v-11h362v-116z" />
    <glyph glyph-name="three" unicode="3" horiz-adv-x="624" 
d="M570 204q0 -118 -68.5 -169t-209.5 -51q-61 0 -127 10t-98 21v97q107 -15 215 -15q80 0 114.5 23t34.5 89v20q0 51 -23 75t-94 24h-209v106h209q71 0 94 25.5t23 76.5v12q0 57 -31 77t-119 20q-91 0 -212 -13v98q25 8 94 18t129 10q142 0 210 -46t68 -156v-12
q0 -117 -89 -162q89 -43 89 -158v-20z" />
    <glyph glyph-name="four" unicode="4" horiz-adv-x="682" 
d="M636 179h-106v-179h-139v179h-347v115l354 449h132v-454h106v-110zM395 289v284l-231 -284h231z" />
    <glyph glyph-name="five" unicode="5" horiz-adv-x="613" 
d="M559 215q0 -123 -72 -177t-213 -54q-124 0 -225 27v100q165 -15 205 -15q92 0 129 25.5t37 92.5v23q0 63 -33.5 87t-130.5 24h-196l33 395h441v-115h-327l-16 -172h86q154 0 218 -51t64 -167v-23z" />
    <glyph glyph-name="six" unicode="6" horiz-adv-x="660" 
d="M605 226q0 -56 -17 -99.5t-43.5 -70t-63 -43t-72 -23t-74.5 -6.5q-137 0 -209.5 67.5t-72.5 235.5v176q0 149 64.5 222t227.5 73q115 0 226 -26v-100q-119 13 -214 13q-55 0 -89 -10t-50 -34t-21 -50t-5 -71v-29q69 18 153 18q58 0 100.5 -8t81 -29.5t58.5 -64t20 -105.5
v-36zM467 226v32q0 67 -31.5 89.5t-102.5 22.5q-76 0 -141 -14v-90q0 -99 35.5 -136t108.5 -37q59 0 95 33t36 100z" />
    <glyph glyph-name="seven" unicode="7" horiz-adv-x="606" 
d="M565 614l-326 -614h-150l341 628h-384v115h519v-129z" />
    <glyph glyph-name="eight" unicode="8" horiz-adv-x="684" 
d="M627 213q0 -61 -16.5 -104.5t-40.5 -67.5t-64.5 -37t-75.5 -16.5t-86 -3.5h-4q-51 0 -86 3.5t-75.5 16.5t-64.5 37t-40.5 67.5t-16.5 104.5v8q0 111 81 163q-79 50 -79 157v10q0 51 15.5 88.5t40.5 60t62.5 36t76 18t86.5 4.5h4q48 0 86 -4.5t75.5 -18t62.5 -36t40.5 -60
t15.5 -88.5v-10q0 -107 -79 -157q82 -53 82 -163v-8zM489 215v7q-1 60 -21 86t-72 26h-109q-52 0 -72.5 -26t-20.5 -86v-7q0 -76 36 -100.5t110 -24.5h4q73 0 109 24.5t36 100.5zM487 538v10q0 60 -36 81.5t-107 21.5h-4q-71 0 -107.5 -21.5t-36.5 -81.5v-10q0 -51 20 -76.5
t71 -25.5h109q51 0 71 25.5t20 76.5z" />
    <glyph glyph-name="nine" unicode="9" horiz-adv-x="660" 
d="M605 280q0 -149 -64 -222.5t-227 -73.5q-128 0 -226 26v100q137 -14 216 -14q54 0 88 10.5t49.5 34.5t20.5 50.5t5 70.5v29q-69 -18 -153 -18q-58 0 -101 8t-81.5 29.5t-58.5 64t-20 105.5v35q0 69 24.5 119t66 75.5t86 37t93.5 11.5q67 0 116 -14t88 -47.5t58.5 -93
t19.5 -145.5v-178zM467 386v89q0 100 -35.5 137t-108.5 37q-58 0 -95 -33.5t-37 -99.5v-33q0 -66 32 -88.5t103 -22.5q76 0 141 14z" />
    <glyph glyph-name="colon" unicode=":" horiz-adv-x="286" 
d="M209 0h-133v155h133v-155zM209 408h-133v155h133v-155z" />
    <glyph glyph-name="semicolon" unicode=";" horiz-adv-x="298" 
d="M234 155l-122 -247h-110l87 247h145zM223 408h-133v155h133v-155z" />
    <glyph glyph-name="less" unicode="&#x3c;" horiz-adv-x="689" 
d="M565 127h-157l-285 261l285 260h157l-284 -260z" />
    <glyph glyph-name="equal" unicode="=" horiz-adv-x="689" 
d="M578 316v-110h-468v110h468zM578 458h-468v111h468v-111z" />
    <glyph glyph-name="greater" unicode="&#x3e;" horiz-adv-x="689" 
d="M565 388l-285 -261h-157l284 261l-284 260h157z" />
    <glyph glyph-name="question" unicode="?" horiz-adv-x="507" 
d="M249 0h-132v154h132v-154zM31 665v97q87 28 191 28q111 0 167 -39.5t56 -125.5v-8q0 -50 -22.5 -92.5t-81.5 -99.5q-65 -65 -82 -98t-17 -83v-32h-120v32q0 70 16 113t72 99q52 52 69.5 81.5t17.5 61.5v7q0 39 -26 53.5t-85 14.5q-40 0 -155 -9z" />
    <glyph glyph-name="at" unicode="@" horiz-adv-x="834" 
d="M808 369q0 -321 -368 -321q-112 0 -163 37.5t-51 119.5q0 158 51.5 222t159.5 64q85 0 173 -21l-33 -321q148 36 148 221q0 224 -260 224q-138 0 -216 -70t-105 -219q-12 -62 -12 -134q0 -110 59.5 -164.5t200.5 -54.5q111 0 183 9v-56q-92 -16 -183 -16q-342 0 -342 282
q0 76 13 146q32 176 132.5 260.5t273.5 84.5q164 0 251.5 -75.5t87.5 -217.5zM493 400q-16 2 -59 2q-36 0 -56 -12.5t-33.5 -57t-13.5 -128.5q0 -41 22 -57t76 -16q24 0 38 1z" />
    <glyph glyph-name="A" unicode="A" horiz-adv-x="705" 
d="M682 0h-147l-64 208h-239l-66 -208h-143l225 743h209zM444 323l-62 205q-13 45 -26 117h-9q-18 -90 -26 -117l-63 -205h186z" />
    <glyph glyph-name="B" unicode="B" horiz-adv-x="675" 
d="M624 215q0 -54 -16.5 -94t-44 -64t-71 -38.5t-90 -19.5t-108.5 -5q-74 0 -215 6v743q147 6 219 6q80 0 135 -8.5t99.5 -30t66 -62t21.5 -101.5v-9q0 -51 -23.5 -93t-70.5 -63q50 -21 74 -63t24 -94v-10zM487 215v11q-1 53 -32.5 79.5t-112.5 26.5h-127v-223h38
q48 0 71.5 0.5t56 3.5t47.5 9.5t31 18t22 30t6 44.5zM484 533v9q0 25 -8.5 42t-22 27t-39 15t-50.5 6.5t-66 1.5h-83v-201h126q81 0 112 25t31 75z" />
    <glyph glyph-name="C" unicode="C" horiz-adv-x="587" 
d="M556 3q-81 -19 -187 -19q-75 0 -130.5 16t-99 53t-65.5 104.5t-22 164.5v99q0 97 22 164.5t65.5 104.5t98.5 52.5t131 15.5q102 0 187 -20v-111q-110 9 -178 9q-99 0 -142.5 -46t-43.5 -169v-99q0 -123 44 -169.5t142 -46.5q68 0 178 9v-112z" />
    <glyph glyph-name="D" unicode="D" horiz-adv-x="706" 
d="M654 326q0 -168 -81 -250t-262 -82q-97 0 -232 6v743q135 6 232 6q178 0 260.5 -82t82.5 -247v-94zM515 326v94q0 118 -48 164t-159 46h-92v-518h92q110 0 158.5 47.5t48.5 166.5z" />
    <glyph glyph-name="E" unicode="E" horiz-adv-x="604" 
d="M552 0h-473v743h473v-116h-333v-189h312v-112h-312v-211h333v-115z" />
    <glyph glyph-name="F" unicode="F" horiz-adv-x="594" 
d="M552 626h-333v-188h312v-112h-312v-326h-140v743h473v-117z" />
    <glyph glyph-name="G" unicode="G" horiz-adv-x="669" 
d="M606 7q-105 -23 -243 -23q-68 0 -121 15t-97.5 51t-68.5 104t-24 165v105q0 82 18.5 143.5t47.5 97t71.5 57.5t84 29t92.5 7q72 0 143.5 -9t95.5 -16v-107q-120 10 -215 10q-50 0 -83 -7.5t-61 -29t-41.5 -64.5t-13.5 -111v-105q0 -122 43.5 -167.5t138.5 -45.5
q61 0 100 3v287h133v-389z" />
    <glyph glyph-name="H" unicode="H" horiz-adv-x="763" 
d="M684 0h-140v327h-325v-327h-140v743h140v-296h325v296h140v-743z" />
    <glyph glyph-name="I" unicode="I" horiz-adv-x="298" 
d="M219 0h-140v743h140v-743z" />
    <glyph glyph-name="J" unicode="J" horiz-adv-x="297" 
d="M218 -37q0 -95 -40.5 -137t-135.5 -42q-59 0 -86 8v97q21 -1 61 -1t51 14.5t11 56.5v784h139v-780z" />
    <glyph glyph-name="K" unicode="K" horiz-adv-x="686" 
d="M675 0h-176l-276 350v-350h-140v743h140v-346l286 346h168l-307 -366z" />
    <glyph glyph-name="L" unicode="L" horiz-adv-x="560" 
d="M534 0h-455v743h140v-625h315v-118z" />
    <glyph glyph-name="M" unicode="M" horiz-adv-x="855" 
d="M776 0h-136v412q0 50 5 128h-2q-11 -25 -51 -103l-110 -209h-111l-108 209q-9 17 -25.5 52t-24.5 51h-2q4 -94 4 -128v-412h-136v743h152l149 -291q20 -39 45 -94h2q24 54 46 96l151 289h152v-743z" />
    <glyph glyph-name="N" unicode="N" horiz-adv-x="741" 
d="M662 0h-163l-238 441q-38 71 -56 111h-2q4 -84 4 -133v-419h-128v743h162l237 -432q42 -80 57 -113h2q-4 59 -4 141v404h129v-743z" />
    <glyph glyph-name="O" unicode="O" horiz-adv-x="715" 
d="M663 328q0 -176 -79.5 -260t-226.5 -84q-146 0 -225.5 84t-79.5 260v87q0 175 79.5 259t225.5 84t226 -84t80 -259v-87zM524 328v86q0 119 -43 170.5t-124 51.5q-80 0 -123 -51.5t-43 -170.5v-86q0 -119 43 -171t123 -52q81 0 124 52t43 171z" />
    <glyph glyph-name="P" unicode="P" horiz-adv-x="648" 
d="M615 504q0 -72 -24.5 -121t-71 -73t-99 -33.5t-123.5 -9.5q-53 0 -82 1v-268h-136v743q89 5 209 5q59 0 104 -5t88.5 -20t71.5 -40.5t45.5 -67.5t17.5 -100v-11zM478 504v11q0 21 -3.5 37.5t-13 29t-18 20.5t-28 13.5t-32.5 8.5t-42.5 4.5t-48 1.5h-57.5h-20v-244
q26 -1 80 -1q98 0 140.5 24.5t42.5 94.5z" />
    <glyph glyph-name="Q" unicode="Q" horiz-adv-x="715" 
d="M663 326q0 -151 -63 -235t-178 -101v-42q0 -26 11 -33.5t51 -7.5h84v-87q-47 -15 -130 -15q-74 0 -111 30t-37 111v45q-115 18 -176.5 101.5t-61.5 233.5v90q0 174 80 258t225 84q146 0 226 -84t80 -258v-90zM524 326v90q0 118 -43 169t-124 51q-80 0 -123 -51t-43 -169
v-90q0 -118 43 -169.5t123 -51.5t123.5 51.5t43.5 169.5z" />
    <glyph glyph-name="R" unicode="R" horiz-adv-x="677" 
d="M661 0h-148l-164 275q-20 -1 -65 -1h-69v-274h-136v743q110 5 208 5q74 0 128 -9t101.5 -33t72.5 -71.5t25 -118.5v-7q0 -151 -128 -206zM477 508v6q0 22 -3 38t-13 28.5t-18.5 21t-29 14t-35 8.5t-46 4t-53 1.5t-64.5 0.5v-244q26 -1 77 -1q99 0 142 26.5t43 96.5z" />
    <glyph glyph-name="S" unicode="S" horiz-adv-x="616" 
d="M567 195q0 -101 -69 -156t-195 -55q-149 0 -234 23v107q122 -12 223 -12q69 0 101 21.5t32 70.5q0 37 -19.5 60t-73.5 46l-112 46q-85 35 -127 86t-42 130q0 105 65 150.5t201 45.5q124 0 217 -24v-106q-148 13 -211 13q-69 0 -101.5 -16t-32.5 -59q0 -34 20 -55t75 -43
l101 -41q101 -41 141.5 -90.5t40.5 -141.5z" />
    <glyph glyph-name="T" unicode="T" horiz-adv-x="640" 
d="M612 627h-222v-627h-140v627h-222v116h584v-116z" />
    <glyph glyph-name="U" unicode="U" horiz-adv-x="731" 
d="M657 304q0 -159 -74.5 -239.5t-216.5 -80.5q-143 0 -217.5 80.5t-74.5 239.5v439h138v-432q0 -115 33 -161t121 -46q87 0 120.5 46.5t33.5 160.5v432h137v-439z" />
    <glyph glyph-name="V" unicode="V" horiz-adv-x="711" 
d="M682 743l-225 -743h-204l-224 743h144l153 -515q7 -24 16.5 -71t13.5 -62h2q20 100 30 133l153 515h141z" />
    <glyph glyph-name="W" unicode="W" horiz-adv-x="948" 
d="M907 743l-130 -743h-187l-94 393q-4 15 -10.5 49t-10.5 50h-2q-4 -16 -10.5 -50t-10.5 -49l-93 -393h-189l-129 743h142l74 -450q4 -27 11 -76.5t10 -67.5h4q5 22 15 68.5t16 69.5l78 327h169l78 -330q25 -110 30 -135h4q12 90 21 144l75 450h139z" />
    <glyph glyph-name="X" unicode="X" horiz-adv-x="703" 
d="M676 0h-156l-181 264l-174 -264h-138l244 379l-241 364h154l178 -256l170 256h138l-241 -370z" />
    <glyph glyph-name="Y" unicode="Y" horiz-adv-x="666" 
d="M649 743l-248 -465v-278h-136v278l-248 465h146l117 -215q30 -56 52 -115h6q14 39 54 115l117 215h140z" />
    <glyph glyph-name="Z" unicode="Z" horiz-adv-x="641" 
d="M588 0h-535v127l366 498h-354v118h511v-128l-365 -498h377v-117z" />
    <glyph glyph-name="bracketleft" unicode="[" horiz-adv-x="421" 
d="M368 -204h-270v947h270v-110h-139v-728h139v-109z" />
    <glyph glyph-name="backslash" unicode="\" horiz-adv-x="476" 
d="M449 0h-132l-291 743h131z" />
    <glyph glyph-name="bracketright" unicode="]" horiz-adv-x="421" 
d="M322 -204h-270v109h139v729h-139v109h270v-947z" />
    <glyph glyph-name="asciicircum" unicode="^" horiz-adv-x="689" 
d="M605 423h-131l-130 263l-129 -263h-132l161 322h200z" />
    <glyph glyph-name="underscore" unicode="_" horiz-adv-x="593" 
d="M590 -126h-588v78h588v-78z" />
    <glyph glyph-name="grave" unicode="`" horiz-adv-x="471" 
d="M334 626h-126l-158 148h153z" />
    <glyph glyph-name="a" unicode="a" horiz-adv-x="577" 
d="M511 0h-122v37q-76 -52 -178 -52q-165 0 -165 161v21q0 44 13 75t34.5 49.5t57.5 29t72.5 13.5t88.5 3h67v35q0 60 -21.5 78t-95.5 18q-80 0 -177 -11v89q24 10 81 20.5t118 10.5q131 0 179 -46.5t48 -158.5v-372zM382 115v141h-70q-78 0 -108 -16t-30 -69v-24
q0 -37 20.5 -51.5t58.5 -14.5q72 0 129 34z" />
    <glyph glyph-name="b" unicode="b" horiz-adv-x="616" 
d="M565 250q0 -140 -65.5 -202.5t-200.5 -62.5q-91 0 -226 16v776h132v-226q55 27 132 27q117 0 172.5 -61t55.5 -189v-78zM433 250v79q0 76 -25 106.5t-88 30.5q-73 0 -116 -21v-343q88 -4 97 -4q71 0 101.5 33t30.5 119z" />
    <glyph glyph-name="c" unicode="c" horiz-adv-x="502" 
d="M462 6q-78 -21 -174 -21q-237 0 -237 261v71q0 260 237 260q106 0 174 -21v-100q-107 9 -151 9q-67 0 -97.5 -30.5t-30.5 -117.5v-71q0 -86 31 -117.5t97 -31.5q44 0 151 9v-100z" />
    <glyph glyph-name="d" unicode="d" horiz-adv-x="616" 
d="M543 0h-124v29q-70 -44 -158 -44q-101 0 -155.5 62.5t-54.5 189.5v80q0 141 63.5 200.5t179.5 59.5q57 0 117 -11v211h132v-777zM412 122v335q-63 10 -105 10q-65 0 -94.5 -30t-29.5 -120v-80q0 -76 26.5 -108t88.5 -32q56 0 114 25z" />
    <glyph glyph-name="e" unicode="e" horiz-adv-x="608" 
d="M559 240h-377v-10q0 -35 4.5 -56.5t18.5 -41t45.5 -28.5t81.5 -9q66 0 203 13v-99q-101 -24 -209 -24q-151 0 -213 63t-62 213v35q0 281 254 281t254 -293v-44zM427 326v9q0 28 -4 49t-15.5 42.5t-37.5 33t-65 11.5q-38 0 -63.5 -11.5t-37.5 -33t-16.5 -42.5t-4.5 -49v-9
h244z" />
    <glyph glyph-name="f" unicode="f" horiz-adv-x="430" 
d="M398 457h-144v-457h-133v457l-99 9v97h99v54q0 86 34 130.5t124 44.5q61 0 121 -16v-84q-84 3 -88 3q-39 0 -48.5 -16t-9.5 -64v-52h144v-106z" />
    <glyph glyph-name="g" unicode="g" horiz-adv-x="616" 
d="M544 -21q0 -99 -52 -148.5t-188 -49.5q-116 0 -220 22v90q142 -9 212 -9q73 0 94.5 21t21.5 74v22q-48 -8 -101 -8q-128 0 -193.5 61.5t-65.5 198.5v63q0 135 65.5 198t210.5 63q94 0 216 -14v-584zM412 110v351q-33 6 -92 6q-78 0 -107 -35.5t-29 -116.5v-62
q0 -84 30 -117t104 -33q64 0 94 7z" />
    <glyph glyph-name="h" unicode="h" horiz-adv-x="635" 
d="M564 0h-133v355q0 64 -19.5 87.5t-69.5 23.5q-69 0 -138 -31v-435h-131v777h131v-242q78 42 175 42q100 0 142.5 -56t42.5 -164v-357z" />
    <glyph glyph-name="i" unicode="i" horiz-adv-x="287" 
d="M210 0h-133v563h133v-563zM212 650h-136v127h136v-127z" />
    <glyph glyph-name="j" unicode="j" horiz-adv-x="287" 
d="M210 -47q0 -97 -36.5 -135t-125.5 -38q-54 0 -82 7v94q16 -1 57 -1q34 0 44 14.5t10 58.5v610h133v-610zM212 650h-136v127h136v-127z" />
    <glyph glyph-name="k" unicode="k" horiz-adv-x="573" 
d="M561 0h-158l-199 267v-267h-131v777h131v-465l200 251h151l-218 -270z" />
    <glyph glyph-name="l" unicode="l" horiz-adv-x="286" 
d="M209 0h-132v777h132v-777z" />
    <glyph glyph-name="m" unicode="m" horiz-adv-x="909" 
d="M839 0h-132v369q0 29 -1.5 42.5t-8 29t-21 21t-40.5 5.5q-54 0 -117 -34q3 -22 3 -64v-369h-132v369q0 29 -1.5 43t-7 29t-19.5 20.5t-37 5.5q-49 0 -121 -36v-431h-131v563h126v-45q75 59 168 59q91 0 128 -61q89 61 175 61q46 0 78.5 -12.5t50 -30.5t27 -48t11.5 -54.5
t2 -60.5v-371z" />
    <glyph glyph-name="n" unicode="n" horiz-adv-x="634" 
d="M564 0h-133v357q0 63 -16 86t-63 23q-53 0 -148 -38v-428h-131v563h126v-45q103 59 185 59q58 0 95 -15.5t55 -47.5t24 -67.5t6 -89.5v-357z" />
    <glyph glyph-name="o" unicode="o" horiz-adv-x="610" 
d="M559 247q0 -262 -254 -262t-254 262v69q0 261 254 261t254 -261v-69zM428 247v69q0 80 -29 114t-94 34t-94 -34t-29 -114v-69q0 -80 29 -114.5t94 -34.5t94 34.5t29 114.5z" />
    <glyph glyph-name="p" unicode="p" horiz-adv-x="615" 
d="M564 260q0 -148 -64.5 -211t-183.5 -63q-62 0 -112 12v-204h-131v769h123v-37q74 51 165 51q99 0 151 -62.5t52 -202.5v-52zM433 260v52q0 86 -25.5 119t-82.5 33q-55 0 -122 -30v-327q60 -11 104 -11q66 0 96 33.5t30 130.5z" />
    <glyph glyph-name="q" unicode="q" horiz-adv-x="615" 
d="M543 -206h-131v220q-72 -29 -146 -29q-112 0 -163.5 62.5t-51.5 204.5v50q0 156 64.5 215.5t206.5 59.5q98 0 221 -16v-767zM411 122v338q-44 4 -93 4q-38 0 -60.5 -5t-41 -21.5t-26 -49.5t-7.5 -87v-49q0 -88 21.5 -121t80.5 -33q61 0 126 24z" />
    <glyph glyph-name="r" unicode="r" horiz-adv-x="406" 
d="M390 456q-113 0 -186 -34v-422h-131v563h125v-46q68 60 192 60v-121z" />
    <glyph glyph-name="s" unicode="s" horiz-adv-x="512" 
d="M474 156q0 -82 -56.5 -126t-171.5 -44q-53 0 -111.5 7.5t-80.5 14.5v94q6 0 41.5 -4t74 -6.5t70.5 -2.5q59 0 81.5 14t22.5 45q0 28 -18 42t-82 40l-43 17q-82 32 -118.5 72.5t-36.5 104.5q0 83 54.5 118t170.5 35q45 0 99 -7.5t77 -14.5v-92q-105 10 -174 10
q-55 0 -76 -8.5t-21 -37.5q0 -26 17 -38.5t72 -34.5l45 -18q93 -38 128 -75t36 -105z" />
    <glyph glyph-name="t" unicode="t" horiz-adv-x="427" 
d="M397 1q-60 -16 -114 -16q-84 0 -119.5 37t-35.5 125v310l-105 9v97h105v143h132v-143h137v-106h-137v-308q0 -40 8.5 -51t43.5 -11q53 0 85 4v-90z" />
    <glyph glyph-name="u" unicode="u" horiz-adv-x="635" 
d="M562 0h-127v45q-112 -60 -195 -60q-53 0 -88 17t-52 50.5t-23 68.5t-6 84v358h131v-358q0 -62 16.5 -85.5t64.5 -23.5t147 38v429h132v-563z" />
    <glyph glyph-name="v" unicode="v" horiz-adv-x="577" 
d="M557 563l-175 -563h-187l-175 563h138l92 -321q8 -30 21.5 -82t18.5 -71q1 4 15 62.5t23 90.5l91 321h138z" />
    <glyph glyph-name="w" unicode="w" horiz-adv-x="875" 
d="M850 563l-121 -563h-173l-87 276q-21 65 -29 113h-4q-7 -45 -29 -113l-88 -276h-171l-123 563h134l63 -304q16 -81 19 -139h5q2 8 15.5 59.5t21.5 78.5l74 235h162l74 -235q8 -27 21.5 -78.5t15.5 -59.5h5q2 51 20 139l62 304h133z" />
    <glyph glyph-name="x" unicode="x" horiz-adv-x="587" 
d="M182 563l124 -182l110 182h145l-184 -286l190 -277h-154l-130 190l-119 -190h-144l193 294l-183 269h152z" />
    <glyph glyph-name="y" unicode="y" horiz-adv-x="585" 
d="M565 563l-196 -584q-37 -108 -80 -153t-131 -45q-76 0 -134 12v96q61 -4 106 -4q34 0 51 17.5t36 66.5l13 35l-210 559h143l98 -299q9 -28 21.5 -77.5t19.5 -72.5q21 98 37 150l89 299h137z" />
    <glyph glyph-name="z" unicode="z" horiz-adv-x="518" 
d="M474 0h-434v118l287 338h-276v107h422v-116l-289 -342h290v-105z" />
    <glyph glyph-name="braceleft" unicode="{" horiz-adv-x="437" 
d="M383 -206h-64q-122 0 -164.5 37.5t-42.5 132.5v151q0 47 -12.5 68t-49.5 44v83q36 23 49 44.5t13 67.5v152q0 96 42 132.5t165 36.5h63v-109h-62q-51 0 -63.5 -10.5t-12.5 -49.5v-152q0 -59 -17 -93t-58 -60q41 -27 58 -61t17 -93v-151q0 -40 12.5 -50.5t63.5 -10.5h63
v-109z" />
    <glyph glyph-name="bar" unicode="|" horiz-adv-x="326" 
d="M228 -206h-131v949h131v-949z" />
    <glyph glyph-name="braceright" unicode="}" horiz-adv-x="437" 
d="M388 227q-37 -23 -50 -44t-13 -68v-151q0 -95 -42.5 -132.5t-164.5 -37.5h-64v109h63q51 0 64 10.5t13 50.5v151q0 59 17 93t58 61q-41 26 -58 59.5t-17 93.5v152q0 39 -13 49.5t-64 10.5h-62v109h63q123 0 165 -36.5t42 -132.5v-152q0 -46 13 -67.5t50 -44.5v-83z" />
    <glyph glyph-name="asciitilde" unicode="~" horiz-adv-x="689" 
d="M593 485q0 -80 -28 -118.5t-94 -38.5t-119 36l-63 42l-10.5 7t-10 6.5t-8.5 5t-9.5 4.5t-9 2t-10.5 1q-24 0 -32 -14t-8 -45v-37h-96v37q0 157 129 157q48 0 108 -40l60 -40q37 -24 66 -24q25 0 32.5 14t7.5 45v37h95v-37z" />
    <glyph glyph-name="uni00A0" unicode="&#xa0;" horiz-adv-x="196" 
 />
    <glyph glyph-name="exclamdown" unicode="&#xa1;" horiz-adv-x="301" 
d="M223 -213h-145l13 566h119zM218 564v-153h-136v153h136z" />
    <glyph glyph-name="cent" unicode="&#xa2;" horiz-adv-x="519" 
d="M465 556v-99q-83 8 -151 8q-66 0 -97 -30.5t-31 -117.5v-71q0 -86 31 -117.5t97 -31.5q49 0 151 8v-99q-52 -15 -121 -18v-109h-113v113q-177 31 -177 254v71q0 222 177 254v110h113v-106q82 -7 121 -19z" />
    <glyph glyph-name="sterling" unicode="&#xa3;" horiz-adv-x="641" 
d="M582 737v-105q-103 10 -186 10q-80 0 -102 -28t-22 -115v-63h229v-104h-229v-121q0 -54 -31 -99h341v-112h-493v94q46 46 46 117v121h-77v104h77v63q0 137 53 198t190 61q118 0 204 -21z" />
    <glyph glyph-name="currency" unicode="&#xa4;" horiz-adv-x="658" 
d="M591 186l-70 -70l-78 76q-54 -32 -113 -32q-63 0 -115 32l-79 -76l-69 69l79 78q-33 52 -33 113q0 63 33 112l-79 78l69 69l79 -77q51 32 115 32q63 0 114 -32l77 75l70 -69l-77 -76q33 -55 33 -113q0 -61 -33 -113zM457 376q0 52 -38 89t-89 37q-53 0 -90.5 -37
t-37.5 -89q0 -53 38 -89.5t90 -36.5q51 0 89 37t38 89z" />
    <glyph glyph-name="yen" unicode="&#xa5;" horiz-adv-x="699" 
d="M648 218h-231v-218h-137v218h-232v89h219l-51 92h-168v89h121l-138 255h147l118 -215q26 -47 52 -115h5q16 45 55 115l116 215h142l-138 -255h120v-89h-167l-52 -92h219v-89z" />
    <glyph glyph-name="brokenbar" unicode="&#xa6;" horiz-adv-x="326" 
d="M228 352h-131v391h131v-391zM228 187v-393h-131v393h131z" />
    <glyph glyph-name="section" unicode="&#xa7;" horiz-adv-x="668" 
d="M94 -196v105q146 -11 221 -11t104 23t29 71q0 39 -19.5 62.5t-89.5 53.5l-120 52q-75 33 -109 78t-34 116q0 62 28 110q-27 40 -27 107q0 94 64 139.5t200 45.5q122 0 223 -23v-103q-180 12 -216 12q-75 0 -104 -18t-29 -59q0 -36 18.5 -58t74.5 -46l116 -49
q94 -40 130.5 -87t36.5 -117q0 -60 -30 -109q30 -46 30 -107q0 -101 -66 -155.5t-199 -54.5q-129 0 -232 22zM472 163v25q0 50 -16 73t-79 49l-117 49q-48 19 -74 47v-12q0 -69 12.5 -90t77.5 -48l119 -50q30 -13 77 -43z" />
    <glyph glyph-name="dieresis" unicode="&#xa8;" horiz-adv-x="483" 
d="M418 645h-111v124h111v-124zM177 769v-124h-112v124h112z" />
    <glyph glyph-name="copyright" unicode="&#xa9;" horiz-adv-x="852" 
d="M784 375q0 -177 -99.5 -276t-260.5 -99t-261 99t-100 276q0 176 100 275.5t261 99.5t260.5 -99.5t99.5 -275.5zM703 375q0 139 -77 219t-202 80q-126 0 -202 -80t-76 -219q0 -140 76 -220t202 -80q125 0 202 80t77 220zM432 160q-93 0 -140 48.5t-47 138.5v56
q0 187 187 187q76 0 114 -12v-76q-64 6 -106 6q-55 0 -75 -23t-20 -82v-56q0 -59 20 -82t75 -23q42 0 106 6v-76q-38 -12 -114 -12z" />
    <glyph glyph-name="ordfeminine" unicode="&#xaa;" horiz-adv-x="445" 
d="M370 421h-91v24q-53 -33 -118 -33q-50 0 -79.5 25.5t-29.5 75.5v12q0 35 13 57t40.5 32t54.5 13t70 3h41v18q0 35 -13.5 45.5t-60.5 10.5q-55 0 -118 -7v62q52 21 138 21t119.5 -30t33.5 -102v-227zM274 501v74h-43q-49 0 -67 -8.5t-18 -38.5v-12q0 -21 12 -27.5t37 -6.5
q46 0 79 19z" />
    <glyph glyph-name="guillemotleft" unicode="&#xab;" horiz-adv-x="725" 
d="M672 74h-143l-159 217l159 215h143l-154 -215zM198 291l154 -217h-143l-159 217l159 215h143z" />
    <glyph glyph-name="logicalnot" unicode="&#xac;" horiz-adv-x="689" 
d="M578 206h-105v252h-363v111h468v-363z" />
    <glyph glyph-name="uni00AD" unicode="&#xad;" horiz-adv-x="386" 
d="M320 242h-254v104h254v-104z" />
    <glyph glyph-name="registered" unicode="&#xae;" horiz-adv-x="675" 
d="M608 475q0 -132 -74 -210.5t-198 -78.5q-125 0 -199 78.5t-74 210.5t74 210.5t199 78.5q124 0 198 -78.5t74 -210.5zM540 475q0 105 -54.5 165t-149.5 60q-96 0 -150.5 -60t-54.5 -165q0 -106 54.5 -166t150.5 -60q95 0 149.5 60t54.5 166zM479 328h-82l-72 111h-32v-111
h-70v309q45 3 93 3q69 -1 104.5 -21.5t35.5 -79.5q0 -68 -59 -87zM385 539q0 30 -18 37t-66 7h-8v-91q36 0 52.5 2t28 12.5t11.5 32.5z" />
    <glyph glyph-name="macron" unicode="&#xaf;" horiz-adv-x="480" 
d="M428 654h-376v88h376v-88z" />
    <glyph glyph-name="degree" unicode="&#xb0;" horiz-adv-x="443" 
d="M394 590q0 -70 -50.5 -118.5t-121.5 -48.5q-72 0 -122 48.5t-50 118.5t50 119t122 49q71 0 121.5 -49t50.5 -119zM311 590q0 38 -26 62.5t-64 24.5t-64 -24.5t-26 -62.5q0 -37 26 -62t64 -25t64 25t26 62z" />
    <glyph glyph-name="plusminus" unicode="&#xb1;" horiz-adv-x="689" 
d="M597 0h-507v95h507v-95zM601 375h-205v-197h-102v197h-206v110h206v196h102v-196h205v-110z" />
    <glyph glyph-name="two.superior" unicode="&#xb2;" horiz-adv-x="450" 
d="M62 675v66q55 17 157 17q90 0 132.5 -28t42.5 -88q0 -47 -28.5 -78.5t-100.5 -64.5q-69 -32 -87.5 -51.5t-18.5 -59.5v-5h227v-81h-331v55q0 79 31 120.5t112 80.5q59 28 74.5 43t15.5 38t-19 33t-65 10q-23 0 -52 -1.5t-56 -3.5t-34 -2z" />
    <glyph glyph-name="three.superior" unicode="&#xb3;" horiz-adv-x="446" 
d="M208 292q-42 0 -88.5 6t-61.5 12v67q81 -7 140 -7q47 0 67 12.5t20 48.5v9q0 28 -14 41t-58 13h-131v73h132q43 0 57 14t14 41v6q0 30 -18 41t-69 11q-28 0 -140 -7v67q16 6 62 12t88 6q92 0 137 -28t45 -94v-7q0 -71 -56 -98q56 -25 56 -95v-9q0 -72 -44.5 -103.5
t-137.5 -31.5z" />
    <glyph glyph-name="acute" unicode="&#xb4;" horiz-adv-x="471" 
d="M412 774l-158 -148h-127l132 148h153z" />
    <glyph glyph-name="mu" unicode="&#xb5;" horiz-adv-x="678" 
d="M582 0h-127v45q-108 -53 -169 -53q-40 0 -63 6v-203h-132v768h131v-358q0 -62 16.5 -85.5t64.5 -23.5t147 38v429h132v-563z" />
    <glyph glyph-name="paragraph" unicode="&#xb6;" horiz-adv-x="744" 
d="M517 -197h-95v446h-48q-57 0 -101.5 6.5t-85 23t-67.5 43t-43 69.5t-16 100v10q0 59 16 102t43 69.5t69.5 42.5t88 22t104.5 6h290v-940h-95v846h-60v-846z" />
    <glyph glyph-name="periodcentered" unicode="&#xb7;" horiz-adv-x="277" 
d="M202 291h-128v155h128v-155z" />
    <glyph glyph-name="cedilla" unicode="&#xb8;" horiz-adv-x="455" 
d="M324 -65l-133 -141h-126l110 141h149z" />
    <glyph glyph-name="one.superior" unicode="&#xb9;" horiz-adv-x="419" 
d="M359 302h-290v75l92 4v270l-93 -29v85l123 44h76v-370l92 -4v-75z" />
    <glyph glyph-name="ordmasculine" unicode="&#xba;" horiz-adv-x="450" 
d="M398 580q0 -169 -173 -169t-173 169v32q0 168 173 168t173 -168v-32zM300 580v32q0 48 -17.5 67.5t-57.5 19.5t-57.5 -20t-17.5 -67v-32q0 -48 17.5 -68t57.5 -20t57.5 20t17.5 68z" />
    <glyph glyph-name="guillemotright" unicode="&#xbb;" horiz-adv-x="725" 
d="M674 291l-159 -217h-142l153 217l-153 215h142zM195 506l159 -215l-159 -217h-143l154 217l-154 215h143z" />
    <glyph glyph-name="onequarter" unicode="&#xbc;" horiz-adv-x="972" 
d="M815 744l-485 -744h-118l484 744h119zM359 302h-290v75l92 4v270l-93 -29v85l123 44h76v-370l92 -4v-75zM854 0h-105v102h-219v77l233 268h91v-269h66v-76h-66v-102zM754 178v153l-136 -153h136z" />
    <glyph glyph-name="onehalf" unicode="&#xbd;" horiz-adv-x="1064" 
d="M815 744l-485 -744h-118l484 744h119zM359 302h-290v75l92 4v270l-93 -29v85l123 44h76v-370l92 -4v-75zM685 373v66q55 17 157 17q90 0 132.5 -28t42.5 -88q0 -47 -28.5 -78.5t-100.5 -64.5q-69 -32 -87.5 -51.5t-18.5 -59.5v-5h227v-81h-331v55q0 79 31 120.5t112 80.5
q59 28 74.5 43t15.5 38t-19 33t-65 10q-23 0 -52 -1.5t-56 -3.5t-34 -2z" />
    <glyph glyph-name="threequarters" unicode="&#xbe;" horiz-adv-x="1025" 
d="M837 744l-486 -744h-119l486 744h119zM904 0h-105v102h-219v77l233 268h91v-269h66v-76h-66v-102zM804 178v153l-136 -153h136zM208 292q-42 0 -88.5 6t-61.5 12v67q81 -7 140 -7q47 0 67 12.5t20 48.5v9q0 28 -14 41t-58 13h-131v73h132q43 0 57 14t14 41v6q0 30 -18 41
t-69 11q-28 0 -140 -7v67q16 6 62 12t88 6q92 0 137 -28t45 -94v-7q0 -71 -56 -98q56 -25 56 -95v-9q0 -72 -44.5 -103.5t-137.5 -31.5z" />
    <glyph glyph-name="questiondown" unicode="&#xbf;" horiz-adv-x="507" 
d="M476 -196q-87 -28 -192 -28q-111 0 -167 39.5t-56 125.5v8q0 50 22.5 92t81.5 100q65 65 82.5 98.5t17.5 82.5v32h119v-32q0 -70 -15.5 -113t-71.5 -99q-52 -53 -69.5 -82t-17.5 -61v-7q0 -39 26 -53.5t84 -14.5q39 0 156 9v-97zM390 412h-132v154h132v-154z" />
    <glyph glyph-name="Agrave" unicode="&#xc0;" horiz-adv-x="705" 
d="M682 0h-147l-64 208h-239l-66 -208h-143l225 743h209zM444 323l-62 205q-13 45 -26 117h-9q-18 -90 -26 -117l-63 -205h186zM456 789h-127l-158 149h153z" />
    <glyph glyph-name="Aacute" unicode="&#xc1;" horiz-adv-x="705" 
d="M682 0h-147l-64 208h-239l-66 -208h-143l225 743h209zM444 323l-62 205q-13 45 -26 117h-9q-18 -90 -26 -117l-63 -205h186zM551 938l-158 -149h-127l132 149h153z" />
    <glyph glyph-name="Acircumflex" unicode="&#xc2;" horiz-adv-x="705" 
d="M682 0h-147l-64 208h-239l-66 -208h-143l225 743h209zM444 323l-62 205q-13 45 -26 117h-9q-18 -90 -26 -117l-63 -205h186zM568 789h-121l-96 91l-95 -91h-122l135 149h164z" />
    <glyph glyph-name="Atilde" unicode="&#xc3;" horiz-adv-x="705" 
d="M682 0h-147l-64 208h-239l-66 -208h-143l225 743h209zM444 323l-62 205q-13 45 -26 117h-9q-18 -90 -26 -117l-63 -205h186zM565 917q0 -133 -108 -133q-49 0 -104 35l-44 28q-32 23 -55 23q-19 0 -26 -12.5t-7 -39.5v-28h-82v28q0 133 111 133q47 0 98 -32l45 -29
q36 -24 58 -24q19 0 26 12t7 39v28h81v-28z" />
    <glyph glyph-name="Adieresis" unicode="&#xc4;" horiz-adv-x="705" 
d="M682 0h-147l-64 208h-239l-66 -208h-143l225 743h209zM444 323l-62 205q-13 45 -26 117h-9q-18 -90 -26 -117l-63 -205h186zM527 803h-110v124h110v-124zM286 927v-124h-111v124h111z" />
    <glyph glyph-name="Aring" unicode="&#xc5;" horiz-adv-x="705" 
d="M682 0h-147l-64 208h-239l-66 -208h-143l225 743h209zM444 323l-62 205q-13 45 -26 117h-9q-18 -90 -26 -117l-63 -205h186zM482 889q0 -56 -35.5 -86t-92.5 -30q-58 0 -94.5 30t-36.5 86q0 57 36.5 87.5t94.5 30.5q57 0 92.5 -30.5t35.5 -87.5zM409 890q0 50 -55 50
q-56 0 -56 -50q0 -51 56 -51q55 0 55 51z" />
    <glyph glyph-name="AE" unicode="&#xc6;" horiz-adv-x="997" 
d="M946 0h-472v208h-229l-65 -208h-142l220 743h688v-116h-333v-189h313v-112h-313v-211h333v-115zM474 322v320h-111q-5 -18 -14.5 -55t-14.5 -55l-63 -210h203z" />
    <glyph glyph-name="Ccedilla" unicode="&#xc7;" horiz-adv-x="587" 
d="M556 3q-81 -19 -187 -19q-75 0 -130.5 16t-99 53t-65.5 104.5t-22 164.5v99q0 97 22 164.5t65.5 104.5t98.5 52.5t131 15.5q102 0 187 -20v-111q-110 9 -178 9q-99 0 -142.5 -46t-43.5 -169v-99q0 -123 44 -169.5t142 -46.5q68 0 178 9v-112zM425 -65l-134 -141h-126
l111 141h149z" />
    <glyph glyph-name="Egrave" unicode="&#xc8;" horiz-adv-x="604" 
d="M552 0h-473v743h473v-116h-333v-189h312v-112h-312v-211h333v-115zM402 789h-127l-158 149h153z" />
    <glyph glyph-name="Eacute" unicode="&#xc9;" horiz-adv-x="604" 
d="M552 0h-473v743h473v-116h-333v-189h312v-112h-312v-211h333v-115zM525 938l-158 -149h-126l131 149h153z" />
    <glyph glyph-name="Ecircumflex" unicode="&#xca;" horiz-adv-x="604" 
d="M552 0h-473v743h473v-116h-333v-189h312v-112h-312v-211h333v-115zM533 789h-121l-96 91l-95 -91h-121l135 149h163z" />
    <glyph glyph-name="Edieresis" unicode="&#xcb;" horiz-adv-x="604" 
d="M552 0h-473v743h473v-116h-333v-189h312v-112h-312v-211h333v-115zM493 803h-111v124h111v-124zM252 927v-124h-111v124h111z" />
    <glyph glyph-name="Igrave" unicode="&#xcc;" horiz-adv-x="298" 
d="M219 0h-140v743h140v-743zM259 789h-126l-158 149h153z" />
    <glyph glyph-name="Iacute" unicode="&#xcd;" horiz-adv-x="298" 
d="M219 0h-140v743h140v-743zM349 937l-158 -149h-126l131 149h153z" />
    <glyph glyph-name="Icircumflex" unicode="&#xce;" horiz-adv-x="298" 
d="M219 0h-140v743h140v-743zM366 789h-121l-96 91l-95 -91h-121l135 149h164z" />
    <glyph glyph-name="Idieresis" unicode="&#xcf;" horiz-adv-x="298" 
d="M219 0h-140v743h140v-743zM324 803h-110v124h110v-124zM83 927v-124h-111v124h111z" />
    <glyph glyph-name="Eth" unicode="&#xd0;" horiz-adv-x="706" 
d="M654 326q0 -168 -81 -250t-262 -82q-115 0 -232 6v328h-52v110h52v305q115 6 232 6q178 0 260.5 -82t82.5 -247v-94zM515 326v94q0 118 -48 164t-159 46h-92v-192h130v-110h-130v-216h92q110 0 158.5 47.5t48.5 166.5z" />
    <glyph glyph-name="Ntilde" unicode="&#xd1;" horiz-adv-x="741" 
d="M662 0h-163l-238 441q-38 71 -56 111h-2q4 -84 4 -133v-419h-128v743h162l237 -432q30 -52 57 -113h2q-4 59 -4 141v404h129v-743zM583 916q0 -133 -108 -133q-51 0 -103 34l-44 29q-34 23 -56 23q-19 0 -26 -12.5t-7 -40.5v-28h-82v28q0 134 112 134q46 0 97 -33l45 -29
q38 -24 58 -24q19 0 26 12t7 40v28h81v-28z" />
    <glyph glyph-name="Ograve" unicode="&#xd2;" horiz-adv-x="715" 
d="M663 328q0 -176 -79.5 -260t-226.5 -84q-146 0 -225.5 84t-79.5 260v87q0 175 79.5 259t225.5 84t226 -84t80 -259v-87zM524 328v86q0 119 -43 170.5t-124 51.5q-80 0 -123 -51.5t-43 -170.5v-86q0 -119 43 -171t123 -52q81 0 124 52t43 171zM455 789h-126l-158 149h153z
" />
    <glyph glyph-name="Oacute" unicode="&#xd3;" horiz-adv-x="715" 
d="M663 328q0 -176 -79.5 -260t-226.5 -84q-146 0 -225.5 84t-79.5 260v87q0 175 79.5 259t225.5 84t226 -84t80 -259v-87zM524 328v86q0 119 -43 170.5t-124 51.5q-80 0 -123 -51.5t-43 -170.5v-86q0 -119 43 -171t123 -52q81 0 124 52t43 171zM546 938l-159 -149h-126
l131 149h154z" />
    <glyph glyph-name="Ocircumflex" unicode="&#xd4;" horiz-adv-x="715" 
d="M663 328q0 -176 -79.5 -260t-226.5 -84q-146 0 -225.5 84t-79.5 260v87q0 175 79.5 259t225.5 84t226 -84t80 -259v-87zM524 328v86q0 119 -43 170.5t-124 51.5q-80 0 -123 -51.5t-43 -170.5v-86q0 -119 43 -171t123 -52q81 0 124 52t43 171zM574 788h-122l-95 91
l-96 -91h-121l135 149h164z" />
    <glyph glyph-name="Otilde" unicode="&#xd5;" horiz-adv-x="715" 
d="M663 328q0 -176 -79.5 -260t-226.5 -84q-146 0 -225.5 84t-79.5 260v87q0 175 79.5 259t225.5 84t226 -84t80 -259v-87zM524 328v86q0 119 -43 170.5t-124 51.5q-80 0 -123 -51.5t-43 -170.5v-86q0 -119 43 -171t123 -52q81 0 124 52t43 171zM570 916q0 -133 -108 -133
q-50 0 -104 34l-44 29q-34 23 -55 23q-19 0 -26 -12.5t-7 -40.5v-28h-82v28q0 134 111 134q47 0 98 -33l45 -29q36 -24 58 -24q19 0 26 12t7 40v28h81v-28z" />
    <glyph glyph-name="Odieresis" unicode="&#xd6;" horiz-adv-x="715" 
d="M663 328q0 -176 -79.5 -260t-226.5 -84q-146 0 -225.5 84t-79.5 260v87q0 175 79.5 259t225.5 84t226 -84t80 -259v-87zM524 328v86q0 119 -43 170.5t-124 51.5q-80 0 -123 -51.5t-43 -170.5v-86q0 -119 43 -171t123 -52q81 0 124 52t43 171zM533 804h-110v124h110v-124z
M292 928v-124h-111v124h111z" />
    <glyph glyph-name="multiply" unicode="&#xd7;" horiz-adv-x="689" 
d="M564 241l-71 -74l-148 144l-150 -146l-71 75l151 147l-151 146l70 74l151 -146l149 146l71 -75l-150 -146z" />
    <glyph glyph-name="Oslash" unicode="&#xd8;" horiz-adv-x="715" 
d="M663 328q0 -176 -79.5 -260t-226.5 -84q-113 0 -186 49l-24 -33h-133l84 114q-46 81 -46 214v87q0 175 79.5 259t225.5 84q110 0 182 -47l24 32h131l-81 -110q50 -80 50 -218v-87zM524 328v86q0 47 -8 87l-266 -361q39 -35 107 -35q81 0 124 52t43 171zM191 328
q0 -46 6 -80l264 357q-39 31 -104 31q-80 0 -123 -51.5t-43 -170.5v-86z" />
    <glyph glyph-name="Ugrave" unicode="&#xd9;" horiz-adv-x="731" 
d="M657 304q0 -159 -74.5 -239.5t-216.5 -80.5q-143 0 -217.5 80.5t-74.5 239.5v439h138v-432q0 -115 33 -161t121 -46q87 0 120.5 46.5t33.5 160.5v432h137v-439zM449 789h-127l-158 149h153z" />
    <glyph glyph-name="Uacute" unicode="&#xda;" horiz-adv-x="731" 
d="M657 304q0 -159 -74.5 -239.5t-216.5 -80.5q-143 0 -217.5 80.5t-74.5 239.5v439h138v-432q0 -115 33 -161t121 -46q87 0 120.5 46.5t33.5 160.5v432h137v-439zM571 939l-158 -149h-126l131 149h153z" />
    <glyph glyph-name="Ucircumflex" unicode="&#xdb;" horiz-adv-x="731" 
d="M657 304q0 -159 -74.5 -239.5t-216.5 -80.5q-143 0 -217.5 80.5t-74.5 239.5v439h138v-432q0 -115 33 -161t121 -46q87 0 120.5 46.5t33.5 160.5v432h137v-439zM583 789h-121l-96 91l-95 -91h-121l135 149h163z" />
    <glyph glyph-name="Udieresis" unicode="&#xdc;" horiz-adv-x="731" 
d="M657 304q0 -159 -74.5 -239.5t-216.5 -80.5q-143 0 -217.5 80.5t-74.5 239.5v439h138v-432q0 -115 33 -161t121 -46q87 0 120.5 46.5t33.5 160.5v432h137v-439zM541 803h-111v124h111v-124zM300 927v-124h-112v124h112z" />
    <glyph glyph-name="Yacute" unicode="&#xdd;" horiz-adv-x="666" 
d="M649 743l-248 -465v-278h-136v278l-248 465h146l117 -215q30 -56 52 -115h6q8 24 54 115l117 215h140zM542 938l-158 -149h-127l132 149h153z" />
    <glyph glyph-name="Thorn" unicode="&#xde;" horiz-adv-x="656" 
d="M215 0h-136v750h136v-119q33 1 88 1q57 0 101 -5t87 -20.5t70.5 -40.5t44.5 -67.5t17 -100.5v-12q0 -72 -24.5 -120t-71 -72.5t-99 -34t-123.5 -9.5q-52 0 -90 1v-151zM486 386v13q-1 74 -47.5 94.5t-164.5 20.5h-59v-244q21 -1 88 -1q98 0 140.5 24t42.5 93z" />
    <glyph glyph-name="germandbls" unicode="&#xdf;" horiz-adv-x="665" 
d="M610 216q0 -106 -61 -166t-187 -60q-30 0 -76 6v104q25 -1 50 -1q76 0 110 29t34 94v19q0 113 -148 113h-46v95h46q73 0 104 28.5t31 82.5v9q0 51 -28 78t-98 27q-74 0 -104 -37t-30 -133v-504h-132v504q0 140 62 211.5t206 71.5q129 0 189.5 -59t60.5 -152v-11
q0 -113 -92 -158q53 -23 81 -69t28 -102v-20z" />
    <glyph glyph-name="agrave" unicode="&#xe0;" horiz-adv-x="577" 
d="M511 0h-122v37q-76 -52 -178 -52q-165 0 -165 161v21q0 44 13 75t34.5 49.5t57.5 29t72.5 13.5t88.5 3h67v35q0 60 -21.5 78t-95.5 18q-80 0 -177 -11v89q24 10 81 20.5t118 10.5q131 0 179 -46.5t48 -158.5v-372zM382 115v141h-70q-78 0 -108 -16t-30 -69v-24
q0 -37 20.5 -51.5t58.5 -14.5q72 0 129 34zM388 626h-127l-158 148h153z" />
    <glyph glyph-name="aacute" unicode="&#xe1;" horiz-adv-x="577" 
d="M511 0h-122v37q-76 -52 -178 -52q-165 0 -165 161v21q0 44 13 75t34.5 49.5t57.5 29t72.5 13.5t88.5 3h67v35q0 60 -21.5 78t-95.5 18q-80 0 -177 -11v89q24 10 81 20.5t118 10.5q131 0 179 -46.5t48 -158.5v-372zM382 115v141h-70q-78 0 -108 -16t-30 -69v-24
q0 -37 20.5 -51.5t58.5 -14.5q72 0 129 34zM495 774l-158 -148h-126l131 148h153z" />
    <glyph glyph-name="acircumflex" unicode="&#xe2;" horiz-adv-x="577" 
d="M511 0h-122v37q-76 -52 -178 -52q-165 0 -165 161v21q0 44 13 75t34.5 49.5t57.5 29t72.5 13.5t88.5 3h67v35q0 60 -21.5 78t-95.5 18q-80 0 -177 -11v89q24 10 81 20.5t118 10.5q131 0 179 -46.5t48 -158.5v-372zM382 115v141h-70q-78 0 -108 -16t-30 -69v-24
q0 -37 20.5 -51.5t58.5 -14.5q72 0 129 34zM507 626h-121l-96 90l-95 -90h-121l135 148h164z" />
    <glyph glyph-name="atilde" unicode="&#xe3;" horiz-adv-x="577" 
d="M511 0h-122v37q-76 -52 -178 -52q-165 0 -165 161v21q0 44 13 75t34.5 49.5t57.5 29t72.5 13.5t88.5 3h67v35q0 60 -21.5 78t-95.5 18q-80 0 -177 -11v89q24 10 81 20.5t118 10.5q131 0 179 -46.5t48 -158.5v-372zM382 115v141h-70q-78 0 -108 -16t-30 -69v-24
q0 -37 20.5 -51.5t58.5 -14.5q72 0 129 34zM503 755q0 -134 -107 -134q-49 0 -104 35l-44 28q-33 24 -55 24q-19 0 -26 -13t-7 -40v-28h-82v28q0 133 111 133q47 0 98 -32l45 -29q36 -24 58 -24q19 0 26 12t7 40v27h80v-27z" />
    <glyph glyph-name="adieresis" unicode="&#xe4;" horiz-adv-x="577" 
d="M511 0h-122v37q-76 -52 -178 -52q-165 0 -165 161v21q0 44 13 75t34.5 49.5t57.5 29t72.5 13.5t88.5 3h67v35q0 60 -21.5 78t-95.5 18q-80 0 -177 -11v89q24 10 81 20.5t118 10.5q131 0 179 -46.5t48 -158.5v-372zM382 115v141h-70q-78 0 -108 -16t-30 -69v-24
q0 -37 20.5 -51.5t58.5 -14.5q72 0 129 34zM467 644h-110v124h110v-124zM226 768v-124h-111v124h111z" />
    <glyph glyph-name="aring" unicode="&#xe5;" horiz-adv-x="577" 
d="M511 0h-122v37q-76 -52 -178 -52q-165 0 -165 161v21q0 44 13 75t34.5 49.5t57.5 29t72.5 13.5t88.5 3h67v35q0 60 -21.5 78t-95.5 18q-80 0 -177 -11v89q24 10 81 20.5t118 10.5q131 0 179 -46.5t48 -158.5v-372zM382 115v141h-70q-78 0 -108 -16t-30 -69v-24
q0 -37 20.5 -51.5t58.5 -14.5q72 0 129 34zM428 726q0 -57 -35.5 -87t-92.5 -30q-58 0 -94.5 30.5t-36.5 86.5q0 57 36.5 87t94.5 30q57 0 92.5 -30t35.5 -87zM355 726q0 51 -55 51q-56 0 -56 -51q0 -50 56 -50q55 0 55 50z" />
    <glyph glyph-name="ae" unicode="&#xe6;" horiz-adv-x="936" 
d="M864 9q-90 -23 -214 -23q-151 0 -212 67q-97 -67 -227 -67q-165 0 -165 160v21q0 44 13 75t34.5 49.5t57.5 29t72.5 13.5t88.5 3h67v35q0 59 -21.5 77.5t-95.5 18.5q-69 0 -177 -10v88q24 10 81 20.5t118 10.5q75 0 115 -12.5t64 -38.5q63 50 171 50q132 0 192.5 -76
t60.5 -204v-56h-376v-10q0 -36 4 -57t18 -42t45.5 -30.5t81.5 -9.5q102 0 204 14v-96zM756 326v9q0 28 -4 49t-16 42.5t-38 33t-65 11.5q-71 0 -96 -38t-25 -98v-9h244zM382 115v141h-70q-78 0 -108 -16t-30 -69v-24q0 -66 78 -66q70 0 130 34z" />
    <glyph glyph-name="ccedilla" unicode="&#xe7;" horiz-adv-x="502" 
d="M462 6q-78 -21 -174 -21q-237 0 -237 261v71q0 260 237 260q106 0 174 -21v-100q-107 9 -151 9q-67 0 -97.5 -30.5t-30.5 -117.5v-71q0 -86 31 -117.5t97 -31.5q44 0 151 9v-100zM367 -65l-133 -141h-126l110 141h149z" />
    <glyph glyph-name="egrave" unicode="&#xe8;" horiz-adv-x="608" 
d="M559 240h-377v-10q0 -35 4.5 -56.5t18.5 -41t45.5 -28.5t81.5 -9q66 0 203 13v-99q-101 -24 -209 -24q-151 0 -213 63t-62 213v35q0 281 254 281t254 -293v-44zM427 326v9q0 28 -4 49t-15.5 42.5t-37.5 33t-65 11.5q-38 0 -63.5 -11.5t-37.5 -33t-16.5 -42.5t-4.5 -49v-9
h244zM412 626h-126l-159 148h154z" />
    <glyph glyph-name="eacute" unicode="&#xe9;" horiz-adv-x="608" 
d="M559 240h-377v-10q0 -35 4.5 -56.5t18.5 -41t45.5 -28.5t81.5 -9q66 0 203 13v-99q-101 -24 -209 -24q-151 0 -213 63t-62 213v35q0 281 254 281t254 -293v-44zM427 326v9q0 28 -4 49t-15.5 42.5t-37.5 33t-65 11.5q-38 0 -63.5 -11.5t-37.5 -33t-16.5 -42.5t-4.5 -49v-9
h244zM518 774l-158 -148h-127l132 148h153z" />
    <glyph glyph-name="ecircumflex" unicode="&#xea;" horiz-adv-x="608" 
d="M559 240h-377v-10q0 -35 4.5 -56.5t18.5 -41t45.5 -28.5t81.5 -9q66 0 203 13v-99q-101 -24 -209 -24q-151 0 -213 63t-62 213v35q0 281 254 281t254 -293v-44zM427 326v9q0 28 -4 49t-15.5 42.5t-37.5 33t-65 11.5q-38 0 -63.5 -11.5t-37.5 -33t-16.5 -42.5t-4.5 -49v-9
h244zM524 626h-121l-96 90l-95 -90h-122l135 148h164z" />
    <glyph glyph-name="edieresis" unicode="&#xeb;" horiz-adv-x="608" 
d="M559 240h-377v-10q0 -35 4.5 -56.5t18.5 -41t45.5 -28.5t81.5 -9q66 0 203 13v-99q-101 -24 -209 -24q-151 0 -213 63t-62 213v35q0 281 254 281t254 -293v-44zM427 326v9q0 28 -4 49t-15.5 42.5t-37.5 33t-65 11.5q-38 0 -63.5 -11.5t-37.5 -33t-16.5 -42.5t-4.5 -49v-9
h244zM480 644h-110v124h110v-124zM239 768v-124h-111v124h111z" />
    <glyph glyph-name="igrave" unicode="&#xec;" horiz-adv-x="287" 
d="M210 0h-133v563h133v-563zM237 626h-126l-159 148h154z" />
    <glyph glyph-name="iacute" unicode="&#xed;" horiz-adv-x="287" 
d="M210 0h-133v563h133v-563zM333 774l-158 -148h-127l132 148h153z" />
    <glyph glyph-name="icircumflex" unicode="&#xee;" horiz-adv-x="287" 
d="M210 0h-133v563h133v-563zM361 626h-122l-95 90l-96 -90h-121l135 148h164z" />
    <glyph glyph-name="idieresis" unicode="&#xef;" horiz-adv-x="287" 
d="M210 0h-133v563h133v-563zM319 645h-111v124h111v-124zM78 769v-124h-112v124h112z" />
    <glyph glyph-name="eth" unicode="&#xf0;" horiz-adv-x="610" 
d="M559 257q0 -271 -254 -271t-254 259v55q0 259 253 259q56 0 96 -20q-37 84 -120 120l-124 -84l-40 48l90 62q-50 11 -105 11q-15 0 -27 -1v90q32 2 42 2q100 0 179 -27l78 54l40 -47l-49 -36q98 -53 146.5 -160.5t48.5 -254.5v-59zM428 245v61q0 76 -29.5 109t-93.5 33
q-65 0 -94 -33.5t-29 -112.5v-57q0 -79 29 -113t94 -34t94 33.5t29 113.5z" />
    <glyph glyph-name="ntilde" unicode="&#xf1;" horiz-adv-x="634" 
d="M564 0h-133v357q0 63 -16 86t-63 23q-53 0 -148 -38v-428h-131v563h126v-45q103 59 185 59q58 0 95 -15.5t55 -47.5t24 -67.5t6 -89.5v-357zM529 755q0 -134 -108 -134q-49 0 -103 35l-44 28q-33 24 -56 24q-33 0 -33 -53v-28h-82v28q0 133 112 133q46 0 97 -32l45 -29
q38 -24 58 -24q19 0 26 12t7 40v27h81v-27z" />
    <glyph glyph-name="ograve" unicode="&#xf2;" horiz-adv-x="610" 
d="M559 247q0 -262 -254 -262t-254 262v69q0 261 254 261t254 -261v-69zM428 247v69q0 80 -29 114t-94 34t-94 -34t-29 -114v-69q0 -80 29 -114.5t94 -34.5t94 34.5t29 114.5zM401 626h-127l-158 148h153z" />
    <glyph glyph-name="oacute" unicode="&#xf3;" horiz-adv-x="610" 
d="M559 247q0 -262 -254 -262t-254 262v69q0 261 254 261t254 -261v-69zM428 247v69q0 80 -29 114t-94 34t-94 -34t-29 -114v-69q0 -80 29 -114.5t94 -34.5t94 34.5t29 114.5zM502 774l-159 -148h-126l131 148h154z" />
    <glyph glyph-name="ocircumflex" unicode="&#xf4;" horiz-adv-x="610" 
d="M559 247q0 -262 -254 -262t-254 262v69q0 261 254 261t254 -261v-69zM428 247v69q0 80 -29 114t-94 34t-94 -34t-29 -114v-69q0 -80 29 -114.5t94 -34.5t94 34.5t29 114.5zM522 626h-121l-96 90l-95 -90h-122l135 148h164z" />
    <glyph glyph-name="otilde" unicode="&#xf5;" horiz-adv-x="610" 
d="M559 247q0 -262 -254 -262t-254 262v69q0 261 254 261t254 -261v-69zM428 247v69q0 80 -29 114t-94 34t-94 -34t-29 -114v-69q0 -80 29 -114.5t94 -34.5t94 34.5t29 114.5zM518 755q0 -134 -108 -134q-48 0 -103 35l-44 28q-33 24 -56 24q-33 0 -33 -53v-28h-82v28
q0 133 112 133q45 0 98 -32l44 -29q38 -24 58 -24q19 0 26 12t7 40v27h81v-27z" />
    <glyph glyph-name="odieresis" unicode="&#xf6;" horiz-adv-x="610" 
d="M559 247q0 -262 -254 -262t-254 262v69q0 261 254 261t254 -261v-69zM428 247v69q0 80 -29 114t-94 34t-94 -34t-29 -114v-69q0 -80 29 -114.5t94 -34.5t94 34.5t29 114.5zM482 645h-111v124h111v-124zM241 769v-124h-112v124h112z" />
    <glyph glyph-name="divide" unicode="&#xf7;" horiz-adv-x="689" 
d="M410 91h-131v146h131v-146zM590 443v-110h-492v110h492zM410 536h-131v146h131v-146z" />
    <glyph glyph-name="oslash" unicode="&#xf8;" horiz-adv-x="610" 
d="M559 247q0 -262 -254 -262q-90 0 -151 35l-22 -30h-122l76 99q-35 62 -35 158v69q0 261 254 261q76 0 133 -26l26 34h121l-72 -95q46 -64 46 -174v-69zM428 247v69q0 29 -5 57l-195 -257q26 -18 77 -18q65 0 94 34.5t29 114.5zM182 247q0 -21 1 -31l181 238
q-23 10 -59 10q-65 0 -94 -34t-29 -114v-69z" />
    <glyph glyph-name="ugrave" unicode="&#xf9;" horiz-adv-x="635" 
d="M562 0h-127v45q-112 -60 -195 -60q-53 0 -88 17t-52 50.5t-23 68.5t-6 84v358h131v-358q0 -62 16.5 -85.5t64.5 -23.5t147 38v429h132v-563zM406 626h-126l-158 148h153z" />
    <glyph glyph-name="uacute" unicode="&#xfa;" horiz-adv-x="635" 
d="M562 0h-127v45q-112 -60 -195 -60q-53 0 -88 17t-52 50.5t-23 68.5t-6 84v358h131v-358q0 -62 16.5 -85.5t64.5 -23.5t147 38v429h132v-563zM524 774l-158 -148h-127l132 148h153z" />
    <glyph glyph-name="ucircumflex" unicode="&#xfb;" horiz-adv-x="635" 
d="M562 0h-127v45q-112 -60 -195 -60q-53 0 -88 17t-52 50.5t-23 68.5t-6 84v358h131v-358q0 -62 16.5 -85.5t64.5 -23.5t147 38v429h132v-563zM535 626h-121l-96 90l-95 -90h-121l135 148h163z" />
    <glyph glyph-name="udieresis" unicode="&#xfc;" horiz-adv-x="635" 
d="M562 0h-127v45q-112 -60 -195 -60q-53 0 -88 17t-52 50.5t-23 68.5t-6 84v358h131v-358q0 -62 16.5 -85.5t64.5 -23.5t147 38v429h132v-563zM494 644h-110v124h110v-124zM253 768v-124h-111v124h111z" />
    <glyph glyph-name="yacute" unicode="&#xfd;" horiz-adv-x="585" 
d="M565 563l-196 -584q-32 -107 -77 -152.5t-134 -45.5q-76 0 -134 12v96q61 -4 106 -4q34 0 51 17.5t36 66.5l13 35l-210 559h143l98 -299q5 -18 39 -150h2q21 98 37 150l89 299h137zM506 774l-159 -148h-126l131 148h154z" />
    <glyph glyph-name="thorn" unicode="&#xfe;" horiz-adv-x="615" 
d="M204 -206h-131v983h125v-250q77 50 159 50q207 0 207 -255v-74q0 -262 -248 -262q-42 0 -112 11v-203zM433 248v74q0 77 -26 109.5t-82 32.5q-55 0 -122 -30v-327q60 -11 104 -11q65 0 95.5 32.5t30.5 119.5z" />
    <glyph glyph-name="ydieresis" unicode="&#xff;" horiz-adv-x="585" 
d="M565 563l-196 -584q-37 -108 -80 -153t-131 -45q-76 0 -134 12v96q61 -4 106 -4q34 0 51 17.5t36 66.5l13 35l-210 559h143l98 -299q4 -13 39 -150h2q21 98 37 150l89 299h137zM478 644h-111v124h111v-124zM237 768v-124h-111v124h111z" />
    <glyph glyph-name="dotlessi" unicode="&#x131;" horiz-adv-x="287" 
d="M210 0h-133v563h133v-563z" />
    <glyph glyph-name="Lslash" unicode="&#x141;" horiz-adv-x="560" 
d="M3 212v108l75 63v360h140v-258l100 86v-108l-100 -86v-259h316v-118h-456v276z" />
    <glyph glyph-name="lslash" unicode="&#x142;" horiz-adv-x="326" 
d="M229 0h-132v280l-80 -73v131l80 73v366h132v-237l80 72v-131l-80 -71v-410z" />
    <glyph glyph-name="OE" unicode="&#x152;" horiz-adv-x="989" 
d="M938 115v-115h-432q-102 -16 -150 -16q-306 0 -306 342v90q0 341 305 341q65 0 151 -14h432v-116h-333v-189h312v-112h-312v-211h333zM467 113v514q-58 9 -107 9q-84 0 -127.5 -51t-43.5 -170v-89q0 -118 44 -169.5t127 -51.5q50 0 107 8z" />
    <glyph glyph-name="oe" unicode="&#x153;" horiz-adv-x="986" 
d="M935 240h-376v-10q0 -36 4 -57t18 -42t45 -30.5t82 -9.5q103 0 203 14v-96q-86 -23 -213 -23q-146 0 -206 67q-63 -68 -188 -68q-254 0 -254 262v69q0 131 65 196t189 65q129 0 190 -69q60 69 187 69q133 0 193.5 -76.5t60.5 -204.5v-56zM804 326v9q0 28 -4 49t-16 42.5
t-37.5 33t-64.5 11.5q-122 0 -122 -124v-21h244zM427 247v69q0 80 -29 115t-94 35q-64 0 -93 -35t-29 -115v-69q0 -80 29 -115t93 -35q65 0 94 35t29 115z" />
    <glyph glyph-name="Scaron" unicode="&#x160;" horiz-adv-x="616" 
d="M91 937h121l96 -91l95 91h122l-135 -149h-164zM567 195q0 -101 -69 -156t-195 -55q-149 0 -234 23v107q122 -12 223 -12q69 0 101 21.5t32 70.5q0 37 -19.5 60t-73.5 46l-112 46q-85 35 -127 86t-42 130q0 105 65 150.5t201 45.5q124 0 217 -24v-106q-148 13 -211 13
q-69 0 -101.5 -16t-32.5 -59q0 -34 20 -55t75 -43l101 -41q101 -41 141.5 -90.5t40.5 -141.5z" />
    <glyph glyph-name="scaron" unicode="&#x161;" horiz-adv-x="512" 
d="M43 774h121l96 -91l95 91h122l-135 -148h-164zM474 156q0 -82 -56.5 -126t-171.5 -44q-53 0 -111.5 7.5t-80.5 14.5v94q6 0 41.5 -4t74 -6.5t70.5 -2.5q59 0 81.5 14t22.5 45q0 28 -18 42t-82 40l-43 17q-82 32 -118.5 72.5t-36.5 104.5q0 83 54.5 118t170.5 35
q45 0 99 -7.5t77 -14.5v-92q-105 10 -174 10q-55 0 -76 -8.5t-21 -37.5q0 -26 17 -38.5t72 -34.5l45 -18q93 -38 128 -75t36 -105z" />
    <glyph glyph-name="Ydieresis" unicode="&#x178;" horiz-adv-x="666" 
d="M649 743l-248 -465v-278h-136v278l-248 465h146l117 -215q30 -56 52 -115h6q8 24 54 115l117 215h140zM511 803h-110v124h110v-124zM270 927v-124h-111v124h111z" />
    <glyph glyph-name="Zcaron" unicode="&#x17d;" horiz-adv-x="641" 
d="M588 0h-535v127l366 498h-354v118h511v-128l-365 -498h377v-117zM116 938h121l95 -91l96 91h121l-135 -149h-163z" />
    <glyph glyph-name="zcaron" unicode="&#x17e;" horiz-adv-x="518" 
d="M474 0h-434v118l287 338h-276v107h422v-116l-289 -342h290v-105zM58 774h121l96 -91l95 91h122l-135 -148h-164z" />
    <glyph glyph-name="florin" unicode="&#x192;" horiz-adv-x="650" 
d="M596 743l-10 -85q-50 3 -74 3q-39 0 -56 -14t-24 -61l-21 -142h160l-13 -104h-162l-45 -327q-13 -93 -58 -129t-121 -36q-64 0 -118 14l11 86q40 -4 77 -4q36 0 54 14t24 60l45 322h-145l14 104h145l21 147q14 94 58.5 130.5t124.5 36.5q57 0 113 -15z" />
    <glyph glyph-name="circumflex" unicode="&#x2c6;" horiz-adv-x="501" 
d="M467 626h-121l-96 90l-95 -90h-121l135 148h163z" />
    <glyph glyph-name="caron" unicode="&#x2c7;" horiz-adv-x="501" 
d="M34 774h121l95 -91l96 91h121l-135 -148h-163z" />
    <glyph glyph-name="uni02C9" unicode="&#x2c9;" horiz-adv-x="480" 
d="M428 654h-376v88h376v-88z" />
    <glyph glyph-name="breve" unicode="&#x2d8;" horiz-adv-x="485" 
d="M431 781q-7 -77 -56 -117t-133 -40t-132.5 40t-55.5 117h85q5 -46 31 -64.5t72 -18.5q47 0 73 18.5t32 64.5h84z" />
    <glyph glyph-name="dotaccent" unicode="&#x2d9;" horiz-adv-x="442" 
d="M288 651h-134v124h134v-124z" />
    <glyph glyph-name="ring" unicode="&#x2da;" horiz-adv-x="451" 
d="M355 730q0 -57 -35.5 -87t-92.5 -30q-58 0 -94.5 30t-36.5 87q0 56 36.5 86.5t94.5 30.5q57 0 92.5 -30t35.5 -87zM282 730q0 51 -55 51q-56 0 -56 -51t56 -51q55 0 55 51z" />
    <glyph glyph-name="ogonek" unicode="&#x2db;" horiz-adv-x="458" 
d="M364 -203q-48 -14 -110 -14q-67 0 -103 25.5t-36 73.5q0 39 36.5 73.5t104.5 55.5l108 -11q-81 -32 -109 -55t-28 -44q0 -38 57 -38q12 0 80 5v-71z" />
    <glyph glyph-name="tilde" unicode="&#x2dc;" horiz-adv-x="486" 
d="M458 755q0 -134 -107 -134q-49 0 -104 35l-44 28q-33 24 -55 24q-19 0 -26 -13t-7 -40v-28h-82v28q0 133 111 133q47 0 98 -32l45 -29q36 -24 58 -24q19 0 26 12t7 40v27h80v-27z" />
    <glyph glyph-name="hungarumlaut" unicode="&#x2dd;" horiz-adv-x="539" 
d="M369 772l-158 -149h-120l131 149h147zM457 772h147l-159 -149h-120z" />
    <glyph glyph-name="uni037E" unicode="&#x37e;" horiz-adv-x="260" 
d="M195 255h-127v154h127v-154z" />
    <glyph glyph-name="uni03A9" unicode="&#x3a9;" horiz-adv-x="714" 
d="M663 399q0 -201 -162 -262v-38h154v-99h-263v193q134 32 134 198v63q0 100 -45.5 141t-123.5 41q-79 0 -124.5 -41t-45.5 -141v-63q0 -166 134 -198v-193h-262v99h153v38q-162 61 -162 262v63q0 146 80.5 221t226.5 75q145 0 225.5 -75t80.5 -221v-63z" />
    <glyph glyph-name="uni03BC" unicode="&#x3bc;" horiz-adv-x="678" 
d="M582 0h-127v45q-108 -53 -169 -53q-40 0 -63 6v-203h-132v768h131v-358q0 -62 16.5 -85.5t64.5 -23.5t147 38v429h132v-563z" />
    <glyph glyph-name="pi" unicode="&#x3c0;" horiz-adv-x="682" 
d="M637 -7q-32 -8 -79 -8q-77 0 -108 36.5t-31 119.5v298h-160v-439h-133v439h-87v124h598v-124h-86v-299q0 -31 7.5 -42t32.5 -11q30 0 46 1v-95z" />
    <glyph glyph-name="figuredash" unicode="&#x2012;" horiz-adv-x="720" 
d="M654 236h-588v99h588v-99z" />
    <glyph glyph-name="endash" unicode="&#x2013;" horiz-adv-x="489" 
d="M423 242h-357v104h357v-104z" />
    <glyph glyph-name="emdash" unicode="&#x2014;" horiz-adv-x="646" 
d="M581 242h-515v104h515v-104z" />
    <glyph glyph-name="quoteleft" unicode="&#x2018;" horiz-adv-x="220" 
d="M200 777l-54 -245h-126l85 245h95z" />
    <glyph glyph-name="quoteright" unicode="&#x2019;" horiz-adv-x="220" 
d="M200 777l-85 -245h-95l54 245h126z" />
    <glyph glyph-name="quotesinglbase" unicode="&#x201a;" horiz-adv-x="220" 
d="M200 148l-85 -245h-95l54 245h126z" />
    <glyph glyph-name="quotedblleft" unicode="&#x201c;" horiz-adv-x="434" 
d="M200 777l-54 -245h-126l85 245h95zM319 777h95l-54 -245h-126z" />
    <glyph glyph-name="quotedblright" unicode="&#x201d;" horiz-adv-x="434" 
d="M234 532l54 245h126l-85 -245h-95zM115 532h-95l54 245h126z" />
    <glyph glyph-name="quotedblbase" unicode="&#x201e;" horiz-adv-x="434" 
d="M234 -97l54 245h126l-85 -245h-95zM115 -97h-95l54 245h126z" />
    <glyph glyph-name="dagger" unicode="&#x2020;" horiz-adv-x="524" 
d="M456 463h-133v-593h-132v593h-123v112h123v202h132v-202h133v-112z" />
    <glyph glyph-name="daggerdbl" unicode="&#x2021;" horiz-adv-x="524" 
d="M456 235h-133v-365h-132v365h-123v111h123v121h-123v113h123v194h132v-194h133v-113h-133v-121h133v-111z" />
    <glyph glyph-name="bullet" unicode="&#x2022;" horiz-adv-x="523" 
d="M446 368q0 -76 -54 -129t-131 -53t-130.5 53t-53.5 129t54 129.5t130 53.5q77 0 131 -53.5t54 -129.5z" />
    <glyph glyph-name="onedotenleader" unicode="&#x2024;" horiz-adv-x="271" 
d="M202 0h-133v154h133v-154z" />
    <glyph glyph-name="twodotenleader" unicode="&#x2025;" horiz-adv-x="516" 
d="M202 0h-133v154h133v-154zM447 154v-154h-132v154h132z" />
    <glyph glyph-name="ellipsis" unicode="&#x2026;" horiz-adv-x="882" 
d="M206 0h-133v154h133v-154zM507 0h-132v154h132v-154zM809 0h-133v154h133v-154z" />
    <glyph glyph-name="perthousand" unicode="&#x2030;" horiz-adv-x="1538" 
d="M1484 198q0 -209 -186 -209q-91 0 -138.5 53t-47.5 156v44q0 103 47.5 156t138.5 53q186 0 186 -209v-44zM1379 198v45q0 70 -21 96.5t-60 26.5t-60 -26.5t-21 -96.5v-45q0 -71 21 -97.5t60 -26.5t60 26.5t21 97.5zM1054 198q0 -103 -47.5 -156t-138.5 -53
q-92 0 -139.5 53t-47.5 156v44q0 103 47.5 156t139.5 53q91 0 138.5 -53t47.5 -156v-44zM949 198v45q0 70 -21 96.5t-60 26.5t-60.5 -26.5t-21.5 -96.5v-45q0 -71 21.5 -97.5t60.5 -26.5t60 26.5t21 97.5zM853 744l-485 -744h-118l485 744h118zM424 504q0 -209 -185 -209
q-186 0 -186 209v43q0 210 186 210q185 0 185 -210v-43zM319 504v43q0 71 -18.5 98t-61.5 27t-62 -28t-19 -97v-43q0 -71 19 -98t62 -27t61.5 27t18.5 98z" />
    <glyph glyph-name="guilsinglleft" unicode="&#x2039;" horiz-adv-x="404" 
d="M351 74h-143l-158 217l158 215h143l-153 -215z" />
    <glyph glyph-name="guilsinglright" unicode="&#x203a;" horiz-adv-x="404" 
d="M353 291l-158 -217h-143l153 217l-153 215h143z" />
    <glyph glyph-name="exclamdbl" unicode="&#x203c;" horiz-adv-x="545" 
d="M462 0h-135v153h135v-153zM467 777l-12 -566h-120l-13 566h145zM218 0h-135v153h135v-153zM223 777l-12 -566h-120l-13 566h145z" />
    <glyph glyph-name="fraction" unicode="&#x2044;" horiz-adv-x="484" 
d="M544 744l-485 -744h-119l485 744h119z" />
    <glyph glyph-name="zero.superior" unicode="&#x2070;" horiz-adv-x="468" 
d="M421 537q0 -103 -47.5 -157t-140.5 -54t-140.5 54t-47.5 157v44q0 211 188 211t188 -211v-44zM315 537v44q0 72 -21.5 99.5t-60.5 27.5q-40 0 -61 -27.5t-21 -99.5v-44q0 -72 21 -99t61 -27q39 0 60.5 27.5t21.5 98.5z" />
    <glyph glyph-name="i.superior" unicode="&#x2071;" horiz-adv-x="222" 
d="M62 650h100v-344h-100v344zM163 698h-104v79h104v-79z" />
    <glyph glyph-name="four.superior" unicode="&#x2074;" horiz-adv-x="468" 
d="M363 336h-105v102h-219v77l233 268h91v-269h66v-76h-66v-102zM263 514v153l-136 -153h136z" />
    <glyph glyph-name="five.superior" unicode="&#x2075;" horiz-adv-x="447" 
d="M377 704h-209l-10 -92h52q100 0 141.5 -30t41.5 -102v-10q0 -144 -186 -144q-76 0 -151 17v69q97 -9 132 -9q55 0 76.5 14.5t21.5 50.5v11q0 34 -19 46t-76 12h-130l22 246h294v-79z" />
    <glyph glyph-name="six.superior" unicode="&#x2076;" horiz-adv-x="473" 
d="M393 775v-70q-72 8 -141 8q-61 0 -79 -20.5t-18 -69.5v-14q39 11 90 11q39 0 67 -5t53.5 -18t38.5 -39.5t13 -66.5v-17q0 -79 -51.5 -113.5t-128.5 -34.5q-95 0 -140.5 43.5t-45.5 145.5v92q0 93 41.5 139t148.5 46q84 0 152 -17zM312 474v16q0 38 -18 50.5t-58 12.5
q-44 0 -81 -9v-45q0 -58 20.5 -78.5t61.5 -20.5q34 0 54.5 18t20.5 56z" />
    <glyph glyph-name="seven.superior" unicode="&#x2077;" horiz-adv-x="444" 
d="M60 704v79h336v-88l-206 -359h-112l214 368h-232z" />
    <glyph glyph-name="eight.superior" unicode="&#x2078;" horiz-adv-x="487" 
d="M428 464q0 -36 -10.5 -62t-26.5 -40.5t-43 -22.5t-51 -10.5t-59 -2.5q-43 0 -71.5 4.5t-57.5 17.5t-43.5 42t-14.5 74v5q0 67 50 97q-49 33 -49 96v6q0 72 50 98t139 26q56 0 93.5 -8.5t64.5 -37t27 -78.5v-6q0 -63 -49 -96q51 -30 51 -97v-5zM325 466q0 37 -11.5 52
t-41.5 15h-65q-30 0 -41.5 -15t-11.5 -52q0 -41 21 -54.5t66 -13.5q43 0 63.5 13.5t20.5 54.5zM323 658q0 36 -21 49t-64 13q-41 0 -62 -13t-21 -49q0 -28 11.5 -42t40.5 -14h65q29 0 40 14t11 42z" />
    <glyph glyph-name="nine.superior" unicode="&#x2079;" horiz-adv-x="473" 
d="M73 343v69q120 -8 143 -8q60 0 78 21t18 70v14q-42 -10 -90 -10q-39 0 -67 5t-53.5 18t-38.5 39.5t-13 66.5v16q0 79 52 113.5t129 34.5q94 0 139.5 -43.5t45.5 -145.5v-91q0 -94 -41.5 -140t-148.5 -46q-85 0 -153 17zM312 574v46q0 57 -20.5 78t-62.5 21
q-33 0 -53.5 -18.5t-20.5 -56.5v-15q0 -37 18 -50t57 -13q43 0 82 8z" />
    <glyph glyph-name="parenleft.superior" unicode="&#x207d;" horiz-adv-x="285" 
d="M240 223h-95q-85 110 -85 262v5q0 150 85 264h95q-80 -120 -80 -264v-5q0 -146 80 -262z" />
    <glyph glyph-name="parenright.superior" unicode="&#x207e;" horiz-adv-x="285" 
d="M224 485q0 -152 -85 -262h-95q80 114 80 262v5q0 147 -80 264h95q85 -114 85 -264v-5z" />
    <glyph glyph-name="n.superior" unicode="&#x207f;" horiz-adv-x="452" 
d="M393 306h-100v212q0 36 -10 49.5t-38 13.5q-31 0 -85 -21v-254h-101v344h96v-26q63 35 118 35q73 0 96.5 -36t23.5 -103v-214z" />
    <glyph glyph-name="zero.inferior" unicode="&#x2080;" horiz-adv-x="468" 
d="M421 -8q0 -103 -47.5 -157t-140.5 -54t-140.5 54t-47.5 157v44q0 211 188 211t188 -211v-44zM315 -8v44q0 72 -21.5 99.5t-60.5 27.5q-40 0 -61 -27.5t-21 -99.5v-44q0 -72 21 -99t61 -27q39 0 60.5 27.5t21.5 98.5z" />
    <glyph glyph-name="one.inferior" unicode="&#x2081;" horiz-adv-x="419" 
d="M359 -209h-290v75l92 4v270l-93 -29v85l123 44h76v-370l92 -4v-75z" />
    <glyph glyph-name="two.inferior" unicode="&#x2082;" horiz-adv-x="450" 
d="M62 164v66q55 17 157 17q90 0 132.5 -28t42.5 -88q0 -47 -28.5 -78.5t-100.5 -64.5q-69 -32 -87.5 -51.5t-18.5 -59.5v-5h227v-81h-331v55q0 79 31 120.5t112 80.5q59 28 74.5 43t15.5 38t-19 33t-65 10q-23 0 -52 -1.5t-56 -3.5t-34 -2z" />
    <glyph glyph-name="three.inferior" unicode="&#x2083;" horiz-adv-x="446" 
d="M208 -219q-42 0 -88.5 6t-61.5 12v67q80 -7 140 -7q47 0 67 12.5t20 48.5v9q0 28 -14 41t-58 13h-131v73h132q43 0 57 14t14 41v6q0 30 -18 41t-69 11q-28 0 -140 -7v67q16 6 62 12t88 6q92 0 137 -27.5t45 -94.5v-7q0 -71 -56 -98q56 -25 56 -95v-9q0 -72 -44.5 -103.5
t-137.5 -31.5z" />
    <glyph glyph-name="four.inferior" unicode="&#x2084;" horiz-adv-x="468" 
d="M363 -209h-105v102h-219v77l233 268h91v-269h66v-76h-66v-102zM263 -31v153l-136 -153h136z" />
    <glyph glyph-name="five.inferior" unicode="&#x2085;" horiz-adv-x="447" 
d="M377 159h-209l-10 -92h52q100 0 141.5 -30t41.5 -102v-10q0 -144 -186 -144q-76 0 -151 17v69q97 -9 132 -9q55 0 76.5 14.5t21.5 50.5v11q0 34 -19 46t-76 12h-130l22 246h294v-79z" />
    <glyph glyph-name="six.inferior" unicode="&#x2086;" horiz-adv-x="473" 
d="M393 230v-70q-72 8 -141 8q-61 0 -79 -20.5t-18 -69.5v-14q39 11 90 11q39 0 67 -5t53.5 -18t38.5 -39.5t13 -66.5v-17q0 -79 -51.5 -113.5t-128.5 -34.5q-95 0 -140.5 43.5t-45.5 145.5v92q0 93 41.5 139t148.5 46q84 0 152 -17zM312 -71v16q0 38 -18 50.5t-58 12.5
q-44 0 -81 -9v-45q0 -58 20.5 -78.5t61.5 -20.5q34 0 54.5 18t20.5 56z" />
    <glyph glyph-name="seven.inferior" unicode="&#x2087;" horiz-adv-x="444" 
d="M60 159v79h336v-88l-206 -359h-112l214 368h-232z" />
    <glyph glyph-name="eight.inferior" unicode="&#x2088;" horiz-adv-x="487" 
d="M428 -81q0 -36 -10.5 -62t-26.5 -40.5t-43 -22.5t-51 -10.5t-59 -2.5q-43 0 -71.5 4.5t-57.5 17.5t-43.5 42t-14.5 74v5q0 67 50 97q-49 33 -49 96v6q0 72 50 98t139 26q56 0 93.5 -8.5t64.5 -37t27 -78.5v-6q0 -63 -49 -96q51 -30 51 -97v-5zM325 -79q0 37 -11.5 52
t-41.5 15h-65q-30 0 -41.5 -15t-11.5 -52q0 -41 21 -54.5t66 -13.5q43 0 63.5 13.5t20.5 54.5zM323 113q0 36 -21 49t-64 13q-41 0 -62 -13t-21 -49q0 -28 11.5 -42t40.5 -14h65q29 0 40 14t11 42z" />
    <glyph glyph-name="nine.inferior" unicode="&#x2089;" horiz-adv-x="473" 
d="M73 -202v69q120 -8 143 -8q60 0 78 21t18 70v14q-42 -10 -90 -10q-39 0 -67 5t-53.5 18t-38.5 39.5t-13 66.5v16q0 79 52 113.5t129 34.5q94 0 139.5 -43.5t45.5 -145.5v-91q0 -94 -41.5 -140t-148.5 -46q-85 0 -153 17zM312 29v46q0 57 -20.5 78t-62.5 21
q-33 0 -53.5 -18.5t-20.5 -56.5v-15q0 -37 18 -50t57 -13q43 0 82 8z" />
    <glyph glyph-name="parenleft.inferior" unicode="&#x208d;" horiz-adv-x="285" 
d="M240 -239h-95q-85 110 -85 262v5q0 150 85 264h95q-80 -120 -80 -264v-5q0 -146 80 -262z" />
    <glyph glyph-name="parenright.inferior" unicode="&#x208e;" horiz-adv-x="285" 
d="M224 23q0 -152 -85 -262h-95q80 114 80 262v5q0 147 -80 264h95q85 -114 85 -264v-5z" />
    <glyph glyph-name="colonmonetary" unicode="&#x20a1;" horiz-adv-x="508" 
d="M468 556v-100q-130 9 -151 9q-66 0 -97 -30.5t-31 -116.5v-73q0 -85 31.5 -116.5t96.5 -31.5q50 0 151 8v-99q-17 -5 -60 -11v-109h-84v100q-10 -1 -26 -1q-24 0 -42 3v-102h-84v125q-114 58 -114 234v73q0 175 114 233v129h84v-106q18 3 45 3h23v103h84v-112
q40 -5 60 -12z" />
    <glyph glyph-name="franc" unicode="&#x20a3;" horiz-adv-x="615" 
d="M230 0h-140v141h-50v93h50v509h473v-117h-333v-188h316v-114h-316v-90h184v-93h-184v-141z" />
    <glyph glyph-name="lira" unicode="&#x20a4;" horiz-adv-x="660" 
d="M589 737v-108q-106 13 -186 13q-81 0 -103 -28t-22 -114v-33h229v-77h-229v-72h229v-77h-229v-31q0 -57 -30 -98h341v-112h-493v94q46 47 46 116v31h-77v77h77v72h-77v77h77v33q0 138 52.5 198t190.5 60q116 0 204 -21z" />
    <glyph glyph-name="peseta" unicode="&#x20a7;" horiz-adv-x="731" 
d="M102 562v181q118 5 217 5q54 0 95.5 -4.5t82.5 -16.5t69.5 -32t48.5 -53.5t27 -79.5h78v-101h-77q-7 -59 -34 -98.5t-72 -59.5t-94 -28t-115 -8q-58 0 -90 1v-268h-136v461h-83v101h83zM509 504v11q-1 70 -43 92.5t-141 22.5h-87v-244q29 -1 88 -1q98 0 140.5 24.5
t42.5 94.5z" />
    <glyph glyph-name="Euro" unicode="&#x20ac;" horiz-adv-x="677" 
d="M62 411v77h59q14 150 93.5 210t220.5 60q94 0 179 -20v-111q-110 9 -170 9q-84 0 -127.5 -32t-54.5 -116h317l-20 -77h-301v-80h277l-22 -77h-251q11 -83 54.5 -115.5t127.5 -32.5q60 0 170 9v-112q-81 -19 -179 -19q-141 0 -220.5 60t-93.5 210h-59v77h56v80h-56z" />
    <glyph glyph-name="litre" unicode="&#x2113;" horiz-adv-x="509" 
d="M463 43q-79 -61 -163 -61q-81 0 -120 41.5t-39 129.5v79l-54 -54l-46 41q22 25 52.5 56t47.5 49v277q0 97 39 142.5t125 45.5q149 0 149 -135q0 -80 -46 -155t-135 -158v-178q0 -50 14.5 -68.5t49.5 -18.5q39 0 82 33zM380 654q0 62 -51 62q-36 0 -46 -26t-10 -89v-168
q55 59 81 111t26 110z" />
    <glyph glyph-name="trademark" unicode="&#x2122;" horiz-adv-x="931" 
d="M852 341h-95v202q0 27 2 73q-23 -43 -31 -56l-55 -81h-59l-54 81q-5 8 -32 56q2 -46 2 -73v-202h-94v406h101l81 -130q14 -23 25 -47q6 9 13.5 24.5t12.5 22.5l82 130h101v-406zM375 672h-118v-331h-98v331h-118v75h334v-75z" />
    <glyph glyph-name="Omega" unicode="&#x2126;" horiz-adv-x="714" 
d="M663 399q0 -201 -162 -262v-38h154v-99h-263v193q134 32 134 198v63q0 100 -45.5 141t-123.5 41q-79 0 -124.5 -41t-45.5 -141v-63q0 -166 134 -198v-193h-262v99h153v38q-162 61 -162 262v63q0 146 80.5 221t226.5 75q145 0 225.5 -75t80.5 -221v-63z" />
    <glyph glyph-name="estimated" unicode="&#x212e;" horiz-adv-x="657" 
d="M625 282h-464v-193q72 -63 164 -63q83 0 133.5 33t93.5 94l33 -19q-47 -68 -106.5 -104.5t-153.5 -36.5q-129 0 -211 84.5t-82 205.5q0 123 81.5 206.5t215.5 83.5t215 -84.5t81 -206.5zM495 315v163q-31 26 -76 44t-90 18q-103 0 -168 -62v-163h334z" />
    <glyph glyph-name="onethird" unicode="&#x2153;" horiz-adv-x="1059" 
d="M803 744l-485 -744h-118l484 744h119zM359 302h-290v75l92 4v270l-93 -29v85l123 44h76v-370l92 -4v-75zM835 -10q-42 0 -88.5 6t-61.5 12v67q81 -7 140 -7q47 0 67 12.5t20 48.5v9q0 28 -14 41t-58 13h-131v73h132q43 0 57 14t14 41v6q0 30 -18 41t-69 11q-28 0 -140 -7
v67q16 6 62 12t88 6q92 0 137 -28t45 -94v-7q0 -71 -56 -98q56 -25 56 -95v-9q0 -72 -44.5 -103.5t-137.5 -31.5z" />
    <glyph glyph-name="twothirds" unicode="&#x2154;" horiz-adv-x="1126" 
d="M858 744l-486 -744h-119l486 744h119zM880 -10q-42 0 -88.5 6t-61.5 12v67q81 -7 140 -7q47 0 67 12.5t20 48.5v9q0 28 -14 41t-58 13h-131v73h132q43 0 57 14t14 41v6q0 30 -18 41t-69 11q-28 0 -140 -7v67q16 6 62 12t88 6q92 0 137 -28t45 -94v-7q0 -71 -56 -98
q56 -25 56 -95v-9q0 -72 -44.5 -103.5t-137.5 -31.5zM62 675v66q55 17 157 17q90 0 132.5 -28t42.5 -88q0 -47 -28.5 -78.5t-100.5 -64.5q-69 -32 -87.5 -51.5t-18.5 -59.5v-5h227v-81h-331v55q0 79 31 120.5t112 80.5q59 28 74.5 43t15.5 38t-19 33t-65 10q-23 0 -52 -1.5
t-56 -3.5t-34 -2z" />
    <glyph glyph-name="oneeighth" unicode="&#x215b;" horiz-adv-x="1071" 
d="M803 744l-485 -744h-118l484 744h119zM1016 128q0 -36 -10.5 -62t-26.5 -40.5t-43 -22.5t-51 -10.5t-59 -2.5q-43 0 -71.5 4.5t-57.5 17.5t-43.5 42t-14.5 74v5q0 67 50 97q-49 33 -49 96v6q0 72 50 98t139 26q56 0 93.5 -8.5t64.5 -37t27 -78.5v-6q0 -63 -49 -96
q51 -30 51 -97v-5zM913 130q0 37 -11.5 52t-41.5 15h-65q-30 0 -41.5 -15t-11.5 -52q0 -41 21 -54.5t66 -13.5q43 0 63.5 13.5t20.5 54.5zM911 322q0 36 -21 49t-64 13q-41 0 -62 -13t-21 -49q0 -28 11.5 -42t40.5 -14h65q29 0 40 14t11 42zM359 302h-290v75l92 4v270
l-93 -29v85l123 44h76v-370l92 -4v-75z" />
    <glyph glyph-name="threeeighths" unicode="&#x215c;" horiz-adv-x="1105" 
d="M830 744l-485 -744h-119l485 744h119zM208 292q-42 0 -88.5 6t-61.5 12v67q81 -7 140 -7q47 0 67 12.5t20 48.5v9q0 28 -14 41t-58 13h-131v73h132q43 0 57 14t14 41v6q0 30 -18 41t-69 11q-28 0 -140 -7v67q16 6 62 12t88 6q92 0 137 -28t45 -94v-7q0 -71 -56 -98
q56 -25 56 -95v-9q0 -72 -44.5 -103.5t-137.5 -31.5zM1047 128q0 -36 -10.5 -62t-26.5 -40.5t-43 -22.5t-51 -10.5t-59 -2.5q-43 0 -71.5 4.5t-57.5 17.5t-43.5 42t-14.5 74v5q0 67 50 97q-49 33 -49 96v6q0 72 50 98t139 26q56 0 93.5 -8.5t64.5 -37t27 -78.5v-6
q0 -63 -49 -96q51 -30 51 -97v-5zM944 130q0 37 -11.5 52t-41.5 15h-65q-30 0 -41.5 -15t-11.5 -52q0 -41 21 -54.5t66 -13.5q43 0 63.5 13.5t20.5 54.5zM942 322q0 36 -21 49t-64 13q-41 0 -62 -13t-21 -49q0 -28 11.5 -42t40.5 -14h65q29 0 40 14t11 42z" />
    <glyph glyph-name="fiveeighths" unicode="&#x215d;" horiz-adv-x="1108" 
d="M832 744l-485 -744h-119l485 744h119zM1050 128q0 -36 -10.5 -62t-26.5 -40.5t-43 -22.5t-51 -10.5t-59 -2.5q-43 0 -71.5 4.5t-57.5 17.5t-43.5 42t-14.5 74v5q0 67 50 97q-49 33 -49 96v6q0 72 50 98t139 26q56 0 93.5 -8.5t64.5 -37t27 -78.5v-6q0 -63 -49 -96
q51 -30 51 -97v-5zM947 130q0 37 -11.5 52t-41.5 15h-65q-30 0 -41.5 -15t-11.5 -52q0 -41 21 -54.5t66 -13.5q43 0 63.5 13.5t20.5 54.5zM945 322q0 36 -21 49t-64 13q-41 0 -62 -13t-21 -49q0 -28 11.5 -42t40.5 -14h65q29 0 40 14t11 42zM377 670h-209l-10 -92h52
q100 0 141.5 -30t41.5 -102v-10q0 -144 -186 -144q-76 0 -151 17v69q97 -9 132 -9q55 0 76.5 14.5t21.5 50.5v11q0 34 -19 46t-76 12h-130l22 246h294v-79z" />
    <glyph glyph-name="seveneighths" unicode="&#x215e;" horiz-adv-x="1018" 
d="M742 744l-485 -744h-119l485 744h119zM960 128q0 -36 -10.5 -62t-26.5 -40.5t-43 -22.5t-51 -10.5t-59 -2.5q-43 0 -71.5 4.5t-57.5 17.5t-43.5 42t-14.5 74v5q0 67 50 97q-49 33 -49 96v6q0 72 50 98t139 26q56 0 93.5 -8.5t64.5 -37t27 -78.5v-6q0 -63 -49 -96
q51 -30 51 -97v-5zM857 130q0 37 -11.5 52t-41.5 15h-65q-30 0 -41.5 -15t-11.5 -52q0 -41 21 -54.5t66 -13.5q43 0 63.5 13.5t20.5 54.5zM855 322q0 36 -21 49t-64 13q-41 0 -62 -13t-21 -49q0 -28 11.5 -42t40.5 -14h65q29 0 40 14t11 42zM60 670v79h336v-88l-206 -359
h-112l214 368h-232z" />
    <glyph glyph-name="partialdiff" unicode="&#x2202;" horiz-adv-x="645" 
d="M587 455q0 -110 -22 -211q-27 -136 -95 -197t-188 -61q-110 0 -166.5 53.5t-56.5 151.5q0 56 6 90q32 230 274 230q72 0 121 -35q0 40 -2 56q-9 73 -51.5 116.5t-137.5 43.5q-71 0 -134 -14l4 92q71 17 145 17q152 0 227.5 -88t75.5 -244zM443 310q0 90 -106 90
q-126 0 -143 -139q-5 -42 -5 -72q0 -48 25 -69.5t81 -21.5q65 0 98.5 37t44.5 118q5 30 5 57z" />
    <glyph glyph-name="Delta" unicode="&#x2206;" horiz-adv-x="738" 
d="M701 0h-663l226 743h209zM527 112l-127 416q-3 11 -30 123h-2q-30 -122 -30 -123l-127 -416h316z" />
    <glyph glyph-name="product" unicode="&#x220f;" horiz-adv-x="756" 
d="M715 619h-85v-688h-135v687h-235v-687h-135v688h-86v124h676v-124z" />
    <glyph glyph-name="summation" unicode="&#x2211;" horiz-adv-x="616" 
d="M545 -69h-473v117l214 285l-214 293v117h473v-117h-316l191 -263v-63l-191 -252h316v-117z" />
    <glyph glyph-name="minus" unicode="&#x2212;" horiz-adv-x="689" 
d="M590 333h-492v110h492v-110z" />
    <glyph glyph-name="uni2215" unicode="&#x2215;" horiz-adv-x="485" 
d="M544 744l-484 -744h-119l485 744h118z" />
    <glyph glyph-name="uni2219" unicode="&#x2219;" horiz-adv-x="277" 
d="M202 291h-128v155h128v-155z" />
    <glyph glyph-name="radical" unicode="&#x221a;" horiz-adv-x="817" 
d="M770 875l-304 -949h-151l-145 454h-122v117h205l137 -439q43 137 130 409t130 408h120z" />
    <glyph glyph-name="infinity" unicode="&#x221e;" horiz-adv-x="754" 
d="M642 364q0 -237 -153 -237h-7q-64 0 -112 51q-38 -53 -101 -53h-7q-155 0 -155 238v24q0 237 155 237h7q63 0 109 -53q35 54 104 54h7q153 0 153 -238v-23zM549 364v23q0 35 -1.5 55t-7 44t-18.5 35t-34 11h-6q-16 0 -26.5 -9t-17 -32.5t-10 -47.5t-8.5 -72
q-8 -68 -15 -107q32 -46 76 -46h6q21 0 34.5 11.5t19 36t7 44.5t1.5 54zM346 484q-33 49 -76 49h-6q-22 0 -35.5 -12.5t-19.5 -36.5t-7.5 -44.5t-1.5 -52.5v-24q0 -33 1.5 -53t7 -44t19 -35.5t35.5 -11.5h6q28 0 40 34t22 123q3 33 15 108z" />
    <glyph glyph-name="integral" unicode="&#x222b;" horiz-adv-x="538" 
d="M481 675q-60 3 -89 3q-38 0 -47.5 -13.5t-9.5 -59.5v-640q0 -84 -32.5 -126t-122.5 -42q-66 0 -123 15v85q40 -4 89 -4q38 0 47.5 14t9.5 59v640q0 84 32.5 126t122.5 42q66 0 123 -15v-84z" />
    <glyph glyph-name="approxequal" unicode="&#x2248;" horiz-adv-x="689" 
d="M588 578q0 -151 -125 -151q-67 0 -117 34l-55 37q-38 26 -61 26q-21 0 -28 -13.5t-7 -44.5v-31h-94v31q0 151 127 151q44 0 105 -39l58 -37q32 -21 68 -21q21 0 28 13.5t7 44.5v31h94v-31zM588 317q0 -152 -125 -152q-64 0 -117 35l-55 36q-40 26 -61 26t-28 -13.5
t-7 -44.5v-31h-94v31q0 151 127 151q45 0 105 -38l58 -37q34 -22 68 -22q21 0 28 13.5t7 45.5v31h94v-31z" />
    <glyph glyph-name="notequal" unicode="&#x2260;" horiz-adv-x="689" 
d="M583 206h-238l-78 -209h-120l79 209h-117v110h152l51 142h-203v111h237l67 177h119l-67 -177h118v-111h-153l-49 -142h202v-110z" />
    <glyph glyph-name="lessequal" unicode="&#x2264;" horiz-adv-x="689" 
d="M598 0h-507v95h507v-95zM546 158h-157l-285 245l285 245h157l-284 -245z" />
    <glyph glyph-name="greaterequal" unicode="&#x2265;" horiz-adv-x="689" 
d="M596 0h-506v95h506v-95zM584 403l-285 -245h-157l284 245l-284 245h157z" />
    <glyph glyph-name="lozenge" unicode="&#x25ca;" horiz-adv-x="699" 
d="M610 362l-262 -312l-259 311l261 316zM494 362l-144 167l-145 -168l143 -165z" />
    <glyph glyph-name="percent.oldstyle" unicode="&#xfe6a;" horiz-adv-x="915" 
d="M856 165q0 -176 -152 -176t-152 176v9q0 176 152 176t152 -176v-9zM760 165v9q0 56 -14 77.5t-42 21.5t-42 -21.5t-14 -77.5v-9q0 -56 14 -77t42 -21t42 21t14 77zM705 590l-386 -590h-106l387 590h105zM363 415q0 -175 -152 -175t-152 175v9q0 177 152 177t152 -177v-9z
M267 415v9q0 56 -14 77.5t-42 21.5t-41.5 -21.5t-13.5 -77.5v-9q0 -55 13.5 -76t41.5 -21t42 21t14 76z" />
    <glyph glyph-name="dollar.oldstyle" horiz-adv-x="548" 
d="M68 7v98q10 0 42 -2t70 -3t76 -1q101 0 101 64q0 27 -16.5 43t-66.5 37l-82 35q-72 32 -105.5 72.5t-33.5 110.5q0 141 166 163v98h112v-94q89 -6 148 -21v-98q-143 10 -189 10q-51 0 -76.5 -11.5t-25.5 -41.5q0 -25 15 -41.5t59 -34.5l81 -34q83 -35 117 -75t34 -112
q0 -74 -41.5 -119t-121.5 -57v-105h-112v100q-100 5 -151 19z" />
    <glyph glyph-name="dollar.superior" horiz-adv-x="427" 
d="M57 343v76q101 -7 142 -7q78 0 78 47q0 17 -12.5 28.5t-44.5 24.5l-67 26q-53 20 -80 50.5t-27 81.5q0 104 124 120v78h92v-75q65 -4 107 -14v-76q-108 9 -142 9q-78 0 -78 -40q0 -18 12 -29.5t43 -21.5l67 -23q112 -39 112 -132q0 -56 -31.5 -90t-89.5 -43v-81h-92v78
q-56 1 -113 13z" />
    <glyph glyph-name="zero.oldstyle" horiz-adv-x="672" 
d="M618 273q0 -141 -71.5 -214.5t-210.5 -73.5q-138 0 -210 73.5t-72 214.5v39q0 141 72 214.5t210 73.5q139 0 210.5 -73.5t71.5 -214.5v-39zM479 273v39q0 172 -143 172q-142 0 -142 -172v-39q0 -171 142 -171q143 0 143 171z" />
    <glyph glyph-name="one.oldstyle" horiz-adv-x="548" 
d="M500 0h-452v109l160 7v335l-161 -53v123l198 71h101v-476l154 -7v-109z" />
    <glyph glyph-name="two.oldstyle" horiz-adv-x="620" 
d="M66 475v98q99 27 228 27q149 0 211.5 -42t62.5 -130q0 -76 -47 -129t-182 -131l-86 -51h307v-117h-504v117l178 106q117 69 155 109t38 85q0 39 -34.5 55.5t-117.5 16.5q-78 0 -209 -14z" />
    <glyph glyph-name="three.oldstyle" horiz-adv-x="624" 
d="M553 46q0 -118 -68.5 -168.5t-209.5 -50.5q-61 0 -126 10t-99 20v97q120 -14 215 -14q80 0 114.5 22.5t34.5 88.5v20q0 51 -23 75.5t-94 24.5h-209v105h209q71 0 94 26t23 77v11q0 57 -31 77t-119 20q-100 0 -212 -12v97q23 8 92.5 18t130.5 10q142 0 210 -45.5
t68 -155.5v-12q0 -117 -89 -162q89 -45 89 -158v-21z" />
    <glyph glyph-name="four.oldstyle" horiz-adv-x="684" 
d="M633 23h-105v-179h-140v179h-346v116l354 448h132v-454h105v-110zM393 133v285l-231 -285h231z" />
    <glyph glyph-name="five.oldstyle" horiz-adv-x="613" 
d="M559 50q0 -123 -72 -177t-213 -54q-124 0 -225 27v100q165 -15 205 -15q92 0 129 25.5t37 92.5v23q0 63 -33.5 86.5t-130.5 23.5h-196l33 396h441v-115h-327l-16 -172h86q154 0 218 -51t64 -167v-23z" />
    <glyph glyph-name="six.oldstyle" horiz-adv-x="660" 
d="M605 226q0 -56 -17 -99.5t-43.5 -70t-63 -43t-72 -23t-74.5 -6.5q-137 0 -209.5 67.5t-72.5 235.5v176q1 150 64.5 222.5t227.5 72.5q115 0 226 -26v-100q-119 13 -214 13q-55 0 -89 -10t-50 -34t-21 -50t-5 -71v-29q69 18 153 18q58 0 100.5 -8t81 -29.5t58.5 -64
t20 -105.5v-36zM467 226v32q0 67 -31.5 89.5t-102.5 22.5q-76 0 -141 -14v-90q0 -99 35.5 -136t108.5 -37q59 0 95 33t36 100z" />
    <glyph glyph-name="seven.oldstyle" horiz-adv-x="607" 
d="M566 459l-326 -614h-150l341 628h-384v115h519v-129z" />
    <glyph glyph-name="eight.oldstyle" horiz-adv-x="685" 
d="M627 213q0 -61 -16.5 -104.5t-40.5 -67.5t-64.5 -37t-75.5 -16.5t-86 -3.5h-4q-51 0 -86 3.5t-75.5 16.5t-64.5 37t-40.5 67.5t-16.5 104.5v8q0 111 81 163q-79 51 -79 157v10q0 63 22.5 105.5t64 63.5t87.5 29.5t107 8.5h4q48 0 86 -4.5t75.5 -18t62.5 -36t40.5 -60
t15.5 -88.5v-10q0 -107 -78 -157q81 -52 81 -163v-8zM489 215v7q0 60 -20.5 86t-71.5 26h-110q-52 0 -72 -26t-20 -86v-7q0 -76 35.5 -100.5t109.5 -24.5h4q74 0 109.5 24.5t35.5 100.5zM487 538v10q0 60 -36 81.5t-107 21.5h-4q-71 0 -107.5 -21.5t-36.5 -81.5v-10
q0 -51 20 -76.5t71 -25.5h110q51 0 70.5 25.5t19.5 76.5z" />
    <glyph glyph-name="nine.oldstyle" horiz-adv-x="660" 
d="M597 123q0 -73 -13.5 -125t-46 -92t-90 -59.5t-141.5 -19.5q-120 0 -226 25v100q127 -13 216 -13q55 0 88.5 10.5t49.5 34t20.5 50t4.5 70.5v29q-69 -18 -153 -18q-46 0 -81.5 4.5t-70.5 18.5t-58 36.5t-37 60t-14 88.5v35q0 69 24.5 118.5t66 75t86 37t93.5 11.5
q138 0 210 -66.5t72 -233.5v-177zM459 229v89q0 99 -35.5 136t-108.5 37q-59 0 -95.5 -33t-36.5 -100v-32q0 -67 32 -89.5t103 -22.5t141 15z" />
    <glyph glyph-name="comma.superior" horiz-adv-x="254" 
d="M201 432l-73 -155h-81l54 155h100z" />
    <glyph glyph-name="period.superior" horiz-adv-x="210" 
d="M154 336h-98v96h98v-96z" />
    <glyph glyph-name="a.superior" horiz-adv-x="416" 
d="M357 306h-92v24q-47 -32 -115 -32q-107 0 -107 98v12q0 28 9 47.5t23 30.5t38.5 16.5t47 7t57.5 1.5h39v19q0 34 -12.5 44t-57.5 10q-51 0 -117 -4v58q51 21 136 21t118 -29.5t33 -100.5v-223zM261 380v79h-42q-46 0 -63 -9t-17 -39v-11q0 -38 46 -38q40 0 76 18z" />
    <glyph glyph-name="b.superior" horiz-adv-x="434" 
d="M59 779h100v-132q32 14 78 14q80 0 118 -39.5t38 -121.5v-35q0 -89 -44.5 -128t-133.5 -39q-70 0 -156 10v471zM293 465v35q0 47 -14.5 64.5t-53.5 17.5q-43 0 -67 -12v-191q18 -3 58 -3q42 0 59.5 19.5t17.5 69.5z" />
    <glyph glyph-name="cent.superior" horiz-adv-x="395" 
d="M350 340q-32 -9 -84 -11v-77h-89v83q-132 29 -132 204v44q0 177 132 204v78h89v-72q50 -3 84 -11v-84q-53 5 -100 5q-56 0 -77 -26.5t-21 -93.5v-44q0 -67 20 -93.5t78 -26.5q40 0 100 5v-84z" />
    <glyph glyph-name="d.superior" horiz-adv-x="434" 
d="M375 306h-92v19q-45 -28 -103 -28q-66 0 -102.5 40.5t-36.5 121.5v36q0 88 42 126t120 38q28 0 72 -6v124h100v-471zM277 389v186q-33 6 -62 6q-39 0 -56.5 -17t-17.5 -69v-36q0 -46 15.5 -65t53.5 -19q34 0 67 14z" />
    <glyph glyph-name="e.superior" horiz-adv-x="424" 
d="M383 450h-243q0 -20 2.5 -32t10.5 -24.5t27.5 -18t50.5 -5.5q73 0 135 9v-68q-63 -14 -144 -14q-102 0 -141.5 43t-39.5 122v29q0 84 44.5 126t126.5 42q90 0 130.5 -48.5t40.5 -124.5v-36zM284 506v5q0 35 -14 55.5t-57 20.5t-57.5 -21.5t-15.5 -59.5h144z" />
    <glyph glyph-name="l.superior" horiz-adv-x="218" 
d="M159 306h-100v471h100v-471z" />
    <glyph glyph-name="m.superior" horiz-adv-x="636" 
d="M153 621q51 38 111 38q59 0 85 -39q59 39 115 39q36 0 60 -10t35 -30t14.5 -40.5t3.5 -50.5v-222h-101v220q0 22 -1.5 31t-10.5 17t-29 8q-33 0 -69 -19q2 -13 2 -37v-220h-100v220q0 22 -1.5 31t-10 17t-27.5 8q-28 0 -70 -20v-256h-100v344h94v-29z" />
    <glyph glyph-name="o.superior" horiz-adv-x="425" 
d="M384 461q0 -164 -172 -164q-171 0 -171 164v34q0 164 171 164q172 0 172 -164v-34zM284 461v34q0 46 -17 66t-55 20t-55 -20t-17 -66v-34q0 -46 17 -66t55 -20t55 20t17 66z" />
    <glyph glyph-name="r.superior" horiz-adv-x="312" 
d="M159 306h-100v344h93v-29q44 38 122 38v-86q-65 0 -115 -18v-249z" />
    <glyph glyph-name="s.superior" horiz-adv-x="376" 
d="M333 402q0 -106 -155 -106q-63 0 -129 14v62q88 -7 124 -7q35 0 48 8t13 25q0 15 -11.5 24t-46.5 21l-28 9q-54 17 -79.5 42.5t-25.5 66.5q0 54 36.5 76t109.5 22q89 0 131 -14v-59q-2 0 -51 2.5t-70 2.5q-32 0 -44.5 -5.5t-12.5 -21.5q0 -13 10 -20.5t40 -18.5l31 -11
q62 -22 86 -46t24 -66z" />
    <glyph glyph-name="t.superior" horiz-adv-x="331" 
d="M291 307q-30 -10 -78 -10q-57 0 -81.5 24.5t-24.5 82.5v175l-67 6v65h67v85h100v-85h84v-71h-84v-174q0 -25 5 -32t26 -7q33 0 53 2v-61z" />
    <glyph glyph-name="hyphen.superior" horiz-adv-x="254" 
d="M201 498h-149v78h149v-78z" />
    <glyph glyph-name="cent.oldstyle" horiz-adv-x="538" 
d="M478 584v-102q-82 5 -142 5q-75 0 -107.5 -33.5t-32.5 -120.5v-78q0 -87 32.5 -120.5t107.5 -33.5q82 0 142 6v-103q-43 -11 -118 -15v-104h-111v108q-189 35 -189 262v78q0 226 189 261v103h111v-98q75 -4 118 -15z" />
    <glyph glyph-name="hyphen.inferior" horiz-adv-x="254" 
d="M201 2h-149v78h149v-78z" />
    <glyph glyph-name="cent.inferior" horiz-adv-x="395" 
d="M350 -205q-32 -9 -84 -11v-77h-89v83q-132 29 -132 204v44q0 177 132 204v78h89v-72q50 -3 84 -11v-84q-53 5 -100 5q-56 0 -77 -26.5t-21 -93.5v-44q0 -67 20 -93.5t78 -26.5q40 0 100 5v-84z" />
    <glyph glyph-name="dollar.inferior" horiz-adv-x="427" 
d="M57 -202v76q102 -7 142 -7q78 0 78 47q0 17 -12.5 28.5t-44.5 24.5l-67 26q-53 20 -80 50.5t-27 81.5q0 104 124 120v78h92v-75q65 -4 107 -14v-76q-108 9 -142 9q-78 0 -78 -40q0 -18 12 -29.5t43 -21.5l67 -23q112 -39 112 -132q0 -56 -31.5 -90t-89.5 -43v-81h-92v78
q-56 1 -113 13z" />
    <glyph glyph-name="period.inferior" horiz-adv-x="210" 
d="M154 -160h-98v96h98v-96z" />
    <glyph glyph-name="comma.inferior" horiz-adv-x="254" 
d="M201 -64l-73 -155h-81l54 155h100z" />
    <glyph glyph-name="Dotaccent" horiz-adv-x="442" 
d="M288 820h-134v125h134v-125z" />
    <glyph glyph-name="Breve" horiz-adv-x="485" 
d="M431 951q-7 -77 -56 -117.5t-133 -40.5t-132.5 40t-55.5 118h85q9 -84 103 -84q47 0 73 19t32 65h84z" />
    <glyph glyph-name="Ogonek" horiz-adv-x="458" 
d="M364 -203q-48 -14 -110 -14q-67 0 -103 25.5t-36 73.5q0 37 31.5 67.5t103.5 65.5h118q-89 -46 -115 -69t-26 -44q0 -39 57 -39q12 0 80 5v-71z" />
    <glyph glyph-name="Cedilla" horiz-adv-x="455" 
d="M324 -65l-133 -141h-126l110 141h149z" />
    <glyph glyph-name="Ring" horiz-adv-x="451" 
d="M355 892q0 -57 -35.5 -87t-92.5 -30q-58 0 -94.5 30t-36.5 87q0 56 36.5 86.5t94.5 30.5q57 0 92.5 -30t35.5 -87zM282 892q0 51 -55 51q-56 0 -56 -51t56 -51q55 0 55 51z" />
    <glyph glyph-name="Tilde" horiz-adv-x="486" 
d="M458 924q0 -133 -107 -133q-50 0 -104 34l-44 29q-34 23 -55 23q-19 0 -26 -12.5t-7 -40.5v-28h-82v28q0 134 111 134q47 0 98 -33l45 -29q36 -24 58 -24q19 0 26 12t7 40v28h80v-28z" />
    <glyph glyph-name="Circumflex" horiz-adv-x="501" 
d="M467 795h-121l-96 91l-95 -91h-121l135 149h163z" />
    <glyph glyph-name="Acute" horiz-adv-x="471" 
d="M412 944l-158 -149h-127l132 149h153z" />
    <glyph glyph-name="Caron" horiz-adv-x="501" 
d="M34 944h121l95 -92l96 92h121l-135 -149h-163z" />
    <glyph glyph-name="Dieresis" horiz-adv-x="483" 
d="M418 814h-111v124h111v-124zM177 938v-124h-112v124h112z" />
    <glyph glyph-name="Grave" horiz-adv-x="471" 
d="M334 795h-126l-158 149h153z" />
    <glyph glyph-name="Hungarumlaut" horiz-adv-x="539" 
d="M362 942l-159 -149h-120l131 149h148zM456 942h147l-158 -149h-121z" />
    <glyph glyph-name="Macron" horiz-adv-x="480" 
d="M428 823h-376v89h376v-89z" />
    <glyph glyph-name="h.superior" horiz-adv-x="453" 
d="M59 777h100v-143q52 25 112 25q68 0 95.5 -35t27.5 -104v-214h-101v213q0 36 -12 49t-41 13q-40 0 -81 -17v-258h-100v471z" />
    <glyph glyph-name="zero.slash" horiz-adv-x="672" 
d="M619 316q0 -163 -71.5 -247.5t-211.5 -84.5q-102 0 -169 46l-20 -30h-133l79 116q-40 77 -40 200v110q0 163 71.5 247.5t211.5 84.5q100 0 165 -44l20 29h131l-76 -112q43 -81 43 -205v-110zM479 316v110q0 32 -3 58l-236 -347q33 -36 96 -36q69 0 106 48.5t37 166.5z
M193 316q0 -35 2 -51l234 343q-33 33 -93 33q-69 0 -106 -48.5t-37 -166.5v-110z" />
    <glyph glyph-name="perthousand.oldstyle" horiz-adv-x="1272" 
d="M1213 165q0 -176 -151 -176q-153 0 -153 176v9q0 176 153 176q151 0 151 -176v-9zM1117 165v9q0 56 -13.5 77.5t-41.5 21.5q-29 0 -42.5 -21.5t-13.5 -77.5v-9q0 -56 13.5 -77t42.5 -21q28 0 41.5 21t13.5 77zM856 165q0 -176 -152 -176t-152 176v9q0 176 152 176
t152 -176v-9zM760 165v9q0 56 -14 77.5t-42 21.5t-42 -21.5t-14 -77.5v-9q0 -56 14 -77t42 -21t42 21t14 77zM705 590l-386 -590h-106l387 590h105zM363 415q0 -175 -152 -175t-152 175v9q0 177 152 177t152 -177v-9zM267 415v9q0 56 -14 77.5t-42 21.5t-41.5 -21.5
t-13.5 -77.5v-9q0 -55 13.5 -76t41.5 -21t42 21t14 76z" />
    <glyph glyph-name="zero.taboldstyle" 
d="M625 273q0 -141 -72 -214.5t-210 -73.5q-139 0 -210.5 73.5t-71.5 214.5v39q0 141 71.5 214.5t210.5 73.5q138 0 210 -73.5t72 -214.5v-39zM485 273v39q0 172 -142 172t-142 -172v-39q0 -171 142 -171t142 171z" />
    <glyph glyph-name="one.taboldstyle" 
d="M573 0h-459v110l162 6v336l-163 -52v121l201 71h102v-476l157 -6v-110z" />
    <glyph glyph-name="two.taboldstyle" 
d="M97 475v98q99 27 228 27q149 0 211.5 -42t62.5 -130q0 -76 -47 -129t-182 -131l-86 -51h307v-117h-503v117l177 106q117 69 155 109t38 85q0 39 -34.5 55.5t-117.5 16.5q-78 0 -209 -14z" />
    <glyph glyph-name="three.taboldstyle" 
d="M595 46q0 -118 -68.5 -168.5t-209.5 -50.5q-61 0 -127 10t-98 20v97q120 -14 215 -14q80 0 114.5 22.5t34.5 88.5v20q0 51 -23 75.5t-95 24.5h-208v105h209q71 0 94 26t23 77v11q0 57 -31.5 77t-118.5 20q-100 0 -212 -12v97q22 8 91.5 18t131.5 10q142 0 210 -45.5
t68 -155.5v-12q0 -116 -89 -162q89 -45 89 -158v-21z" />
    <glyph glyph-name="four.taboldstyle" 
d="M638 23h-105v-179h-140v179h-346v116l354 448h132v-454h105v-110zM398 133v285l-231 -285h231z" />
    <glyph glyph-name="five.taboldstyle" 
d="M599 59q0 -122 -72.5 -176.5t-212.5 -54.5q-130 0 -226 28v100q141 -16 206 -16q92 0 128.5 26t36.5 92v24q0 63 -33.5 86.5t-130.5 23.5h-196l34 395h441v-114h-327l-16 -172h85q153 0 218 -51.5t65 -166.5v-24z" />
    <glyph glyph-name="six.taboldstyle" 
d="M619 226q0 -56 -17 -99.5t-43.5 -70t-63 -43t-72 -23t-74.5 -6.5q-137 0 -209.5 67.5t-72.5 235.5v176q0 150 64 222.5t228 72.5q114 0 225 -26v-100q-143 13 -213 13q-56 0 -90 -10t-50 -34t-21 -50t-5 -71v-29q69 18 153 18q58 0 101 -8t81.5 -29.5t58.5 -64t20 -105.5
v-36zM481 226v32q0 67 -31.5 89.5t-103.5 22.5q-76 0 -141 -14v-90q0 -99 35.5 -136t108.5 -37q59 0 95.5 33t36.5 100z" />
    <glyph glyph-name="seven.taboldstyle" 
d="M605 459l-326 -614h-150l341 628h-384v115h519v-129z" />
    <glyph glyph-name="eight.taboldstyle" 
d="M628 213q0 -61 -16.5 -104.5t-41 -67.5t-65 -37t-75.5 -16.5t-86 -3.5h-4q-51 0 -86 3.5t-75.5 16.5t-64.5 37t-40.5 67.5t-16.5 104.5v8q0 110 82 163q-79 50 -79 157v10q0 51 15.5 88.5t40.5 60t62.5 36t75.5 18t86 4.5h4q48 0 86.5 -4.5t76 -18t62.5 -36t40.5 -60
t15.5 -88.5v-10q0 -107 -79 -157q82 -53 82 -163v-8zM490 215v7q0 60 -20.5 86t-72.5 26h-109q-52 0 -72.5 -26t-20.5 -86v-7q0 -76 36 -100.5t109 -24.5h4q74 0 110 24.5t36 100.5zM488 538v10q0 60 -36.5 81.5t-107.5 21.5h-4q-71 0 -107 -21.5t-36 -81.5v-10
q0 -51 20 -76.5t71 -25.5h109q51 0 71 25.5t20 76.5z" />
    <glyph glyph-name="nine.taboldstyle" 
d="M619 123q0 -149 -64 -222.5t-228 -73.5q-122 0 -225 25v100q125 -13 215 -13q55 0 88.5 10.5t49.5 34t21 50t5 70.5v29q-70 -18 -153 -18q-46 0 -81.5 4.5t-70.5 18.5t-58 36.5t-37 60t-14 88.5v35q0 69 24.5 118.5t66 75t86 37t93.5 11.5q138 0 210 -66.5t72 -233.5
v-177zM481 229v89q0 99 -35.5 136t-109.5 37q-59 0 -95 -33t-36 -100v-32q0 -67 31.5 -89.5t102.5 -22.5t142 15z" />
    <glyph glyph-name="colonmonetary.taboldstyle" horiz-adv-x="611" 
d="M513 584v-106q-75 8 -139 8q-76 0 -108 -33.5t-32 -120.5v-76q0 -87 32 -120.5t108 -33.5q71 0 139 7v-105q-21 -6 -61 -11v-98h-80v91h-14q-22 0 -56 4v-95h-79v118q-125 53 -125 243v76q0 188 125 244v111h79v-89q32 4 56 4h14v85h80v-92q37 -5 61 -11z" />
    <glyph glyph-name="Euro.taboldstyle" horiz-adv-x="631" 
d="M409 490q-67 0 -98 -21t-38 -82h247l-18 -65h-232v-64h216l-17 -64h-196q6 -56 37.5 -77.5t97.5 -21.5q67 0 141 6v-100q-64 -17 -155 -17q-121 0 -183 47t-74 163h-51v64h49v64h-49v65h51q10 121 71.5 168t184.5 47q86 0 156 -16v-103q-75 7 -140 7z" />
    <glyph glyph-name="florin.taboldstyle" horiz-adv-x="618" 
d="M528 589l-9 -83q-35 3 -63 3q-27 0 -39 -9.5t-17 -43.5l-15 -98h122l-12 -95h-122l-28 -218q-10 -79 -47.5 -111t-104.5 -32q-53 0 -103 11l11 85q41 -3 65 -3q27 0 37.5 12t16.5 44l26 212h-108l11 95h111l14 105q11 78 50 108t105 30q43 0 99 -12z" />
    <glyph glyph-name="numbersign.taboldstyle" horiz-adv-x="681" 
d="M591 140h-107l-16 -140h-106l16 140h-114l-16 -140h-105l16 140h-69v88h78l15 124h-93v87h102l18 150h105l-18 -150h114l18 150h105l-17 -150h74v-87h-84l-14 -124h98v-88zM402 352h-114l-15 -124h115z" />
    <glyph glyph-name="sterling.taboldstyle" horiz-adv-x="621" 
d="M527 585v-102q-90 9 -141 9q-63 0 -83 -18.5t-20 -76.5v-46h172v-98h-172v-78q0 -39 -20 -67h264v-108h-411v88q38 37 38 87v78h-61v98h61v46q0 109 47 156.5t159 47.5q81 0 167 -16z" />
    <glyph glyph-name="yen.taboldstyle" horiz-adv-x="666" 
d="M397 0h-129v153h-203v81h195l-42 76h-153v81h114l-104 198h142l78 -160q18 -37 37 -85h2q17 47 37 85l79 160h141l-105 -198h116v-81h-155l-41 -76h196v-81h-205v-153z" />
    <glyph glyph-name="dollar.taboldstyle" horiz-adv-x="623" 
d="M110 6v97q115 -8 184 -8q101 0 101 61q0 26 -17 41.5t-68 36.5l-76 31q-73 30 -106.5 68t-33.5 106q0 137 164 158v90h109v-87q92 -6 144 -20v-94q-14 1 -47 3.5t-67 4t-69 1.5q-52 0 -76.5 -10.5t-24.5 -40.5q0 -24 15 -39.5t60 -33.5l78 -32q82 -32 115.5 -70.5
t33.5 -109.5q0 -70 -41.5 -112.5t-120.5 -54.5v-97h-109v93q-93 5 -148 18z" />
    <glyph glyph-name="cent.taboldstyle" horiz-adv-x="611" 
d="M514 584v-101q-73 4 -141 4q-76 0 -108 -33.5t-32 -120.5v-78q0 -87 32 -120.5t108 -33.5q81 0 141 6v-103q-41 -12 -118 -15v-104h-110v108q-189 35 -189 262v78q0 226 189 261v103h111v-98q76 -4 117 -15z" />
    <glyph glyph-name="zero.denominator" horiz-adv-x="468" 
d="M421 201q0 -103 -47.5 -157t-140.5 -54t-140.5 54t-47.5 157v44q0 211 188 211t188 -211v-44zM315 201v44q0 72 -21.5 99.5t-60.5 27.5q-40 0 -61 -27.5t-21 -99.5v-44q0 -72 21 -99t61 -27q39 0 60.5 27.5t21.5 98.5z" />
    <glyph glyph-name="one.denominator" horiz-adv-x="419" 
d="M359 0h-290v75l92 4v270l-93 -29v85l123 44h76v-370l92 -4v-75z" />
    <glyph glyph-name="two.denominator" horiz-adv-x="450" 
d="M62 373v66q55 17 157 17q90 0 132.5 -28t42.5 -88q0 -47 -28.5 -78.5t-100.5 -64.5q-69 -32 -87.5 -51.5t-18.5 -59.5v-5h227v-81h-331v55q0 79 31 120.5t112 80.5q59 28 74.5 43t15.5 38t-19 33t-65 10q-23 0 -52 -1.5t-56 -3.5t-34 -2z" />
    <glyph glyph-name="three.denominator" horiz-adv-x="446" 
d="M208 -10q-42 0 -88.5 6t-61.5 12v67q81 -7 140 -7q47 0 67 12.5t20 48.5v9q0 28 -14 41t-58 13h-131v73h132q43 0 57 14t14 41v6q0 30 -18 41t-69 11q-28 0 -140 -7v67q16 6 62 12t88 6q92 0 137 -28t45 -94v-7q0 -71 -56 -98q56 -25 56 -95v-9q0 -72 -44.5 -103.5
t-137.5 -31.5z" />
    <glyph glyph-name="four.denominator" horiz-adv-x="468" 
d="M363 0h-105v102h-219v77l233 268h91v-269h66v-76h-66v-102zM263 178v153l-136 -153h136z" />
    <glyph glyph-name="five.denominator" horiz-adv-x="447" 
d="M377 368h-209l-10 -92h52q100 0 141.5 -30t41.5 -102v-10q0 -144 -186 -144q-76 0 -151 17v69q97 -9 132 -9q55 0 76.5 14.5t21.5 50.5v11q0 34 -19 46t-76 12h-130l22 246h294v-79z" />
    <glyph glyph-name="six.denominator" horiz-adv-x="473" 
d="M393 439v-70q-72 8 -141 8q-61 0 -79 -20.5t-18 -69.5v-14q39 11 90 11q39 0 67 -5t53.5 -18t38.5 -39.5t13 -66.5v-17q0 -79 -51.5 -113.5t-128.5 -34.5q-95 0 -140.5 43.5t-45.5 145.5v92q0 93 41.5 139t148.5 46q84 0 152 -17zM312 138v16q0 38 -18 50.5t-58 12.5
q-44 0 -81 -9v-45q0 -58 20.5 -78.5t61.5 -20.5q34 0 54.5 18t20.5 56z" />
    <glyph glyph-name="seven.denominator" horiz-adv-x="444" 
d="M60 368v79h336v-88l-206 -359h-112l214 368h-232z" />
    <glyph glyph-name="eight.denominator" horiz-adv-x="487" 
d="M428 128q0 -36 -10.5 -62t-26.5 -40.5t-43 -22.5t-51 -10.5t-59 -2.5q-43 0 -71.5 4.5t-57.5 17.5t-43.5 42t-14.5 74v5q0 67 50 97q-49 33 -49 96v6q0 72 50 98t139 26q56 0 93.5 -8.5t64.5 -37t27 -78.5v-6q0 -63 -49 -96q51 -30 51 -97v-5zM325 130q0 37 -11.5 52
t-41.5 15h-65q-30 0 -41.5 -15t-11.5 -52q0 -41 21 -54.5t66 -13.5q43 0 63.5 13.5t20.5 54.5zM323 322q0 36 -21 49t-64 13q-41 0 -62 -13t-21 -49q0 -28 11.5 -42t40.5 -14h65q29 0 40 14t11 42z" />
    <glyph glyph-name="nine.denominator" horiz-adv-x="473" 
d="M73 7v69q120 -8 143 -8q60 0 78 21t18 70v14q-42 -10 -90 -10q-39 0 -67 5t-53.5 18t-38.5 39.5t-13 66.5v16q0 79 52 113.5t129 34.5q94 0 139.5 -43.5t45.5 -145.5v-91q0 -94 -41.5 -140t-148.5 -46q-85 0 -153 17zM312 238v46q0 57 -20.5 78t-62.5 21
q-33 0 -53.5 -18.5t-20.5 -56.5v-15q0 -37 18 -50t57 -13q43 0 82 8z" />
    <glyph glyph-name="comma.denominator" horiz-adv-x="254" 
d="M201 100l-73 -155h-81l54 155h100z" />
    <glyph glyph-name="period.denominator" horiz-adv-x="210" 
d="M154 4h-98v96h98v-96z" />
    <glyph glyph-name="cent.denominator" horiz-adv-x="395" 
d="M350 4q-32 -9 -84 -11v-77h-89v83q-132 29 -132 204v44q0 177 132 204v78h89v-72q50 -3 84 -11v-84q-53 5 -100 5q-56 0 -77 -26.5t-21 -93.5v-44q0 -67 20 -93.5t78 -26.5q40 0 100 5v-84z" />
    <glyph glyph-name="dollar.denominator" horiz-adv-x="427" 
d="M57 7v76q102 -7 142 -7q78 0 78 47q0 17 -12.5 28.5t-44.5 24.5l-67 26q-53 20 -80 50.5t-27 81.5q0 104 124 120v78h92v-75q65 -4 107 -14v-76q-108 9 -142 9q-78 0 -78 -40q0 -18 12 -29.5t43 -21.5l67 -23q112 -39 112 -132q0 -56 -31.5 -90t-89.5 -43v-81h-92v78
q-56 1 -113 13z" />
    <glyph glyph-name="hyphen.denominator" horiz-adv-x="254" 
d="M201 166h-149v78h149v-78z" />
    <glyph glyph-name="parenleft.denominator" horiz-adv-x="285" 
d="M240 -75h-95q-85 110 -85 262v5q0 150 85 264h95q-80 -120 -80 -264v-5q0 -146 80 -262z" />
    <glyph glyph-name="parenright.denominator" horiz-adv-x="285" 
d="M224 187q0 -152 -85 -262h-95q80 114 80 262v5q0 147 -80 264h95q85 -114 85 -264v-5z" />
    <glyph glyph-name="zero.numerator" horiz-adv-x="468" 
d="M421 503q0 -103 -47.5 -157t-140.5 -54t-140.5 54t-47.5 157v44q0 211 188 211t188 -211v-44zM315 503v44q0 72 -21.5 99.5t-60.5 27.5q-40 0 -61 -27.5t-21 -99.5v-44q0 -72 21 -99t61 -27q39 0 60.5 27.5t21.5 98.5z" />
    <glyph glyph-name="one.numerator" horiz-adv-x="419" 
d="M359 302h-290v75l92 4v270l-93 -29v85l123 44h76v-370l92 -4v-75z" />
    <glyph glyph-name="two.numerator" horiz-adv-x="450" 
d="M62 675v66q55 17 157 17q90 0 132.5 -28t42.5 -88q0 -47 -28.5 -78.5t-100.5 -64.5q-69 -32 -87.5 -51.5t-18.5 -59.5v-5h227v-81h-331v55q0 79 31 120.5t112 80.5q59 28 74.5 43t15.5 38t-19 33t-65 10q-23 0 -52 -1.5t-56 -3.5t-34 -2z" />
    <glyph glyph-name="three.numerator" horiz-adv-x="446" 
d="M208 292q-42 0 -88.5 6t-61.5 12v67q81 -7 140 -7q47 0 67 12.5t20 48.5v9q0 28 -14 41t-58 13h-131v73h132q43 0 57 14t14 41v6q0 30 -18 41t-69 11q-28 0 -140 -7v67q16 6 62 12t88 6q92 0 137 -28t45 -94v-7q0 -71 -56 -98q56 -25 56 -95v-9q0 -72 -44.5 -103.5
t-137.5 -31.5z" />
    <glyph glyph-name="four.numerator" horiz-adv-x="468" 
d="M363 302h-105v102h-219v77l233 268h91v-269h66v-76h-66v-102zM263 480v153l-136 -153h136z" />
    <glyph glyph-name="five.numerator" horiz-adv-x="447" 
d="M377 670h-209l-10 -92h52q100 0 141.5 -30t41.5 -102v-10q0 -144 -186 -144q-76 0 -151 17v69q97 -9 132 -9q55 0 76.5 14.5t21.5 50.5v11q0 34 -19 46t-76 12h-130l22 246h294v-79z" />
    <glyph glyph-name="six.numerator" horiz-adv-x="473" 
d="M393 741v-70q-72 8 -141 8q-61 0 -79 -20.5t-18 -69.5v-14q39 11 90 11q39 0 67 -5t53.5 -18t38.5 -39.5t13 -66.5v-17q0 -79 -51.5 -113.5t-128.5 -34.5q-95 0 -140.5 43.5t-45.5 145.5v92q0 93 41.5 139t148.5 46q84 0 152 -17zM312 440v16q0 38 -18 50.5t-58 12.5
q-44 0 -81 -9v-45q0 -58 20.5 -78.5t61.5 -20.5q34 0 54.5 18t20.5 56z" />
    <glyph glyph-name="seven.numerator" horiz-adv-x="444" 
d="M60 670v79h336v-88l-206 -359h-112l214 368h-232z" />
    <glyph glyph-name="eight.numerator" horiz-adv-x="487" 
d="M428 430q0 -36 -10.5 -62t-26.5 -40.5t-43 -22.5t-51 -10.5t-59 -2.5q-43 0 -71.5 4.5t-57.5 17.5t-43.5 42t-14.5 74v5q0 67 50 97q-49 33 -49 96v6q0 72 50 98t139 26q56 0 93.5 -8.5t64.5 -37t27 -78.5v-6q0 -63 -49 -96q51 -30 51 -97v-5zM325 432q0 37 -11.5 52
t-41.5 15h-65q-30 0 -41.5 -15t-11.5 -52q0 -41 21 -54.5t66 -13.5q43 0 63.5 13.5t20.5 54.5zM323 624q0 36 -21 49t-64 13q-41 0 -62 -13t-21 -49q0 -28 11.5 -42t40.5 -14h65q29 0 40 14t11 42z" />
    <glyph glyph-name="nine.numerator" horiz-adv-x="473" 
d="M73 309v69q120 -8 143 -8q60 0 78 21t18 70v14q-42 -10 -90 -10q-39 0 -67 5t-53.5 18t-38.5 39.5t-13 66.5v16q0 79 52 113.5t129 34.5q94 0 139.5 -43.5t45.5 -145.5v-91q0 -94 -41.5 -140t-148.5 -46q-85 0 -153 17zM312 540v46q0 57 -20.5 78t-62.5 21
q-33 0 -53.5 -18.5t-20.5 -56.5v-15q0 -37 18 -50t57 -13q43 0 82 8z" />
    <glyph glyph-name="comma.numerator" horiz-adv-x="254" 
d="M201 402l-73 -155h-81l54 155h100z" />
    <glyph glyph-name="period.numerator" horiz-adv-x="210" 
d="M154 306h-98v96h98v-96z" />
    <glyph glyph-name="cent.numerator" horiz-adv-x="395" 
d="M350 306q-32 -9 -84 -11v-77h-89v83q-132 29 -132 204v44q0 177 132 204v78h89v-72q50 -3 84 -11v-84q-53 5 -100 5q-56 0 -77 -26.5t-21 -93.5v-44q0 -67 20 -93.5t78 -26.5q40 0 100 5v-84z" />
    <glyph glyph-name="dollar.numerator" horiz-adv-x="427" 
d="M57 309v76q101 -7 142 -7q78 0 78 47q0 17 -12.5 28.5t-44.5 24.5l-67 26q-53 20 -80 50.5t-27 81.5q0 104 124 120v78h92v-75q65 -4 107 -14v-76q-108 9 -142 9q-78 0 -78 -40q0 -18 12 -29.5t43 -21.5l67 -23q112 -39 112 -132q0 -56 -31.5 -90t-89.5 -43v-81h-92v78
q-56 1 -113 13z" />
    <glyph glyph-name="hyphen.numerator" horiz-adv-x="254" 
d="M201 468h-149v78h149v-78z" />
    <glyph glyph-name="parenleft.numerator" horiz-adv-x="285" 
d="M240 227h-95q-85 110 -85 262v5q0 150 85 264h95q-80 -120 -80 -264v-5q0 -146 80 -262z" />
    <glyph glyph-name="parenright.numerator" horiz-adv-x="285" 
d="M224 489q0 -152 -85 -262h-95q80 114 80 262v5q0 147 -80 264h95q85 -114 85 -264v-5z" />
    <glyph glyph-name="parenleft.cap" horiz-adv-x="318" 
d="M281 0h-108q-46 60 -81.5 159t-35.5 210v6q0 110 35.5 207.5t81.5 160.5h108q-109 -164 -109 -368v-6q0 -206 109 -369z" />
    <glyph glyph-name="parenright.cap" horiz-adv-x="318" 
d="M275 369q0 -111 -35.5 -210.5t-81.5 -158.5h-107q108 164 108 369v6q0 205 -108 368h107q46 -62 81.5 -159.5t35.5 -208.5v-6z" />
    <glyph glyph-name="bracketleft.cap" horiz-adv-x="347" 
d="M298 0h-220v743h220v-97h-102v-550h102v-96z" />
    <glyph glyph-name="bracketright.cap" horiz-adv-x="347" 
d="M267 0h-219v96h103v550h-103v97h219v-743z" />
    <glyph glyph-name="braceleft.cap" horiz-adv-x="366" 
d="M320 0h-51q-106 0 -142 33t-36 117v91q0 40 -10 58t-40 37v70q30 19 40 37t10 58v91q0 85 35.5 118t142.5 33h51v-99h-50q-40 0 -50.5 -8.5t-10.5 -43.5v-91q0 -51 -13.5 -79.5t-45.5 -50.5q32 -22 46 -51t14 -79v-91q0 -35 10 -43.5t50 -8.5h50v-98z" />
    <glyph glyph-name="braceright.cap" horiz-adv-x="366" 
d="M320 336q-29 -19 -39 -37t-10 -58v-91q0 -84 -36.5 -117t-142.5 -33h-51v98h51q40 0 50 8.5t10 43.5v91q0 50 13.5 79t45.5 51q-32 22 -45.5 50.5t-13.5 79.5v91q0 35 -10 43.5t-50 8.5h-51v99h51q107 0 143 -33t36 -118v-91q0 -40 10 -58t39 -37v-70z" />
    <glyph glyph-name="exclamdown.cap" horiz-adv-x="301" 
d="M223 -34h-145l13 566h119zM218 743v-153h-136v153h136z" />
    <glyph glyph-name="questiondown.cap" horiz-adv-x="507" 
d="M285 -47q-111 0 -167 39.5t-56 125.5v8q0 51 22.5 93.5t80.5 98.5q66 66 83 99t17 82v32h120v-32q0 -70 -16 -113t-72 -99q-52 -53 -69.5 -82t-17.5 -61v-7q0 -39 26 -53.5t84 -14.5q39 0 156 9v-97q-87 -28 -191 -28zM390 589h-132v154h132v-154z" />
    <glyph glyph-name="guillemotleft.cap" horiz-adv-x="725" 
d="M672 167h-143l-159 217l159 215h143l-154 -215zM198 384l154 -217h-143l-159 217l159 215h143z" />
    <glyph glyph-name="guillemotright.cap" horiz-adv-x="725" 
d="M674 384l-159 -217h-142l153 217l-153 215h142zM195 599l159 -215l-159 -217h-143l154 217l-154 215h143z" />
    <glyph glyph-name="guilsinglleft.cap" horiz-adv-x="404" 
d="M351 167h-143l-158 217l158 215h143l-153 -215z" />
    <glyph glyph-name="guilsinglright.cap" horiz-adv-x="404" 
d="M353 384l-158 -217h-143l153 217l-153 215h143z" />
    <glyph glyph-name="hyphen.cap" horiz-adv-x="377" 
d="M310 340h-244v96h244v-96z" />
    <glyph glyph-name="endash.cap" horiz-adv-x="485" 
d="M418 340h-352v96h352v-96z" />
    <glyph glyph-name="emdash.cap" horiz-adv-x="661" 
d="M595 340h-529v96h529v-96z" />
    <glyph glyph-name="periodcentered.cap" horiz-adv-x="277" 
d="M200 309h-124v155h124v-155z" />
    <glyph glyph-name="at.cap" horiz-adv-x="859" 
d="M808 463q0 -321 -368 -321q-112 0 -163 37.5t-51 119.5q0 33 4 79q11 113 62.5 160t144.5 47q85 0 173 -21l-33 -321q148 36 148 221q0 224 -260 224q-137 0 -215 -70t-106 -219q-12 -70 -12 -134q0 -110 59.5 -164.5t200.5 -54.5q111 0 183 9v-56q-92 -16 -183 -16
q-342 0 -342 282q0 76 13 146q32 176 132.5 260.5t273.5 84.5q164 0 251.5 -75.5t87.5 -217.5zM493 494q-16 2 -59 2q-45 0 -69 -24t-30 -100q-4 -51 -4 -74q0 -41 22 -57t76 -16q24 0 38 1z" />
    <glyph glyph-name="T_h" horiz-adv-x="1153" 
d="M1082 0h-132v355q0 64 -19.5 87.5t-69.5 23.5q-69 0 -138 -31v-435h-132v627h-201v-627h-140v627h-222v116h695v-208q84 42 175 42q100 0 142 -55.5t42 -164.5v-357z" />
    <glyph glyph-name="A.alt" horiz-adv-x="705" 
d="M23 0l196 631l-55 5v107h293l225 -743h-147l-64 208h-239l-66 -208h-143zM444 323l-62 205q-13 45 -26 117h-9q-18 -90 -26 -117l-63 -205h186z" />
    <glyph glyph-name="B.alt" horiz-adv-x="675" 
d="M79 0v629l-51 7v107q148 6 270 6q80 0 135 -8.5t99.5 -30t66 -62t21.5 -101.5v-9q0 -51 -23.5 -93t-70.5 -63q50 -21 74 -63t24 -94v-10q0 -54 -16.5 -94t-44 -64t-71 -38.5t-90 -19.5t-108.5 -5q-77 0 -215 6zM487 215v11q0 53 -32 79.5t-113 26.5h-127v-223h87
q99 0 142 21t43 85zM484 533v9q0 58 -40.5 75t-138.5 17h-90v-201h126q81 0 112 25t31 75z" />
    <glyph glyph-name="C.alt" horiz-adv-x="587" 
d="M556 113v-110q-81 -19 -187 -19q-75 0 -130.5 16t-99 53t-65.5 104.5t-22 164.5v99q0 97 22 164.5t65.5 104.5t98.5 52.5t131 15.5q111 0 187 -20v-170h-94l-9 66q-48 2 -75 2q-99 0 -142.5 -46t-43.5 -169v-99q0 -123 44 -169.5t142 -46.5q68 0 178 7z" />
    <glyph glyph-name="D.alt" horiz-adv-x="706" 
d="M79 0v630l-52 8v105q135 6 284 6q178 0 260.5 -82t82.5 -247v-94q0 -168 -81 -250t-262 -82q-97 0 -232 6zM515 326v94q0 118 -48 164t-159 46h-92v-518h92q110 0 158.5 47.5t48.5 166.5z" />
    <glyph glyph-name="E.alt" horiz-adv-x="604" 
d="M552 627h-333v-189h312v-112h-312v-211h333v-115h-473v631l-50 5v107h523v-116z" />
    <glyph glyph-name="F.alt" horiz-adv-x="594" 
d="M79 0v631l-51 5v107h524v-117h-333v-188h312v-112h-312v-326h-140z" />
    <glyph glyph-name="G.alt" horiz-adv-x="669" 
d="M606 7q-105 -23 -243 -23q-68 0 -121 15t-97.5 51t-68.5 104t-24 165v105q0 82 18.5 143.5t47.5 97t71.5 57.5t84 29t92.5 7q72 0 143.5 -9t95.5 -16v-165h-92l-11 64q-60 4 -112 4q-50 0 -83 -7.5t-61 -29t-41.5 -64.5t-13.5 -111v-105q0 -122 43.5 -167.5t138.5 -45.5
q61 0 100 3v185l-92 8v94h225v-389z" />
    <glyph glyph-name="H.alt" horiz-adv-x="763" 
d="M684 0h-140v327h-325v-327h-140v632l-51 4v107h191v-296h325v296h140v-743z" />
    <glyph glyph-name="I.alt" horiz-adv-x="304" 
d="M272 0h-241v106l51 5v521l-51 4v107h241v-107l-50 -4v-521l50 -5v-106z" />
    <glyph glyph-name="J.alt" horiz-adv-x="303" 
d="M271 636l-50 -4v-669q0 -95 -40.5 -137t-135.5 -42q-59 0 -86 8v96h61q40 0 51 14.5t11 56.5v673l-51 4v107h240v-107z" />
    <glyph glyph-name="K.alt" horiz-adv-x="686" 
d="M675 0h-176l-276 350v-350h-140v632l-50 4v107h190v-346l286 346h168l-307 -366z" />
    <glyph glyph-name="M.alt" horiz-adv-x="855" 
d="M776 0h-136v412q0 50 5 128h-2q-11 -25 -51 -103l-110 -209h-111l-108 209q-16 33 -50 103h-2q4 -94 4 -128v-412h-136v632l-51 4v107h203l149 -291q20 -39 45 -94h2q14 32 46 96l151 289h152v-743z" />
    <glyph glyph-name="N.alt" horiz-adv-x="741" 
d="M662 0h-163l-238 441q-38 71 -56 111h-2q4 -84 4 -133v-419h-128v632l-51 4v107h213l237 -432q30 -52 57 -113h2q-4 59 -4 141v404h129v-743z" />
    <glyph glyph-name="P.alt" horiz-adv-x="648" 
d="M215 0h-136v632l-51 4v107q101 5 260 5q75 0 129 -9t101.5 -33t72 -71.5t24.5 -119.5v-11q0 -72 -24.5 -121t-71 -73t-99 -33.5t-123.5 -9.5q-38 0 -82 1v-268zM215 386q18 -1 80 -1q98 0 140.5 24.5t42.5 94.5v11q-1 70 -43 92.5t-141 22.5h-79v-244z" />
    <glyph glyph-name="Q.alt" horiz-adv-x="715" 
d="M663 326q0 -149 -62.5 -233.5t-178.5 -102.5v-174h-132v175q-115 18 -176.5 102t-61.5 233v90q0 173 80.5 257.5t224.5 84.5q145 0 225.5 -84.5t80.5 -257.5v-90zM524 326v90q0 118 -43 169t-124 51q-80 0 -123 -51t-43 -169v-90q0 -118 43 -169.5t123 -51.5t123.5 51.5
t43.5 169.5z" />
    <glyph glyph-name="R.alt" horiz-adv-x="677" 
d="M660 0h-148l-161 275q-18 -1 -62 -1h-74v-274h-136v632l-51 4v107q103 5 259 5q74 0 128 -9t101.5 -33t72.5 -71.5t25 -118.5v-7q0 -151 -128 -206zM477 508v6q0 69 -43 92.5t-145 23.5h-74v-244q25 -1 77 -1q99 0 142 26.5t43 96.5z" />
    <glyph glyph-name="S.alt" horiz-adv-x="616" 
d="M69 7v107q156 -13 223 -13q69 0 101 22t32 71q0 38 -19.5 61t-74.5 46l-117 48q-77 32 -120 82t-43 131q0 102 64 149t202 47q130 0 223 -24v-158h-92l-12 63q-54 3 -113 3q-69 0 -101.5 -16.5t-32.5 -59.5q0 -34 19.5 -55t74.5 -43l117 -48q88 -36 127.5 -86.5
t39.5 -133.5q0 -107 -68 -161.5t-196 -54.5q-149 0 -234 23z" />
    <glyph glyph-name="U.alt" horiz-adv-x="731" 
d="M657 304q0 -159 -74.5 -239.5t-216.5 -80.5q-143 0 -217.5 80.5t-74.5 239.5v328l-51 5v106h189v-432q0 -115 33 -161t121 -46q87 0 120.5 46.5t33.5 160.5v432h137v-439z" />
    <glyph glyph-name="Z.alt" horiz-adv-x="641" 
d="M588 117v-117h-535v127l366 498h-255l-9 -58h-90v176h511v-128l-365 -498h377z" />
    <glyph glyph-name="a.alt" horiz-adv-x="577" 
d="M511 0h-122v37q-76 -52 -178 -52q-165 0 -165 161v21q0 44 13 75t34.5 49.5t57.5 29t72.5 13.5t88.5 3h67v35q0 60 -21.5 78t-95.5 18q-50 0 -77 -2l-10 -50h-90v130q24 10 81 20.5t118 10.5q131 0 179 -46.5t48 -158.5v-372zM382 115v141h-70q-78 0 -108 -16t-30 -69
v-24q0 -37 20.5 -51.5t58.5 -14.5q72 0 129 34z" />
    <glyph glyph-name="b.alt" horiz-adv-x="616" 
d="M565 250q0 -140 -65.5 -202.5t-200.5 -62.5q-91 0 -226 16v667l-50 5v104h182v-226q55 27 132 27q117 0 172.5 -61t55.5 -189v-78zM433 250v79q0 76 -25 106.5t-88 30.5q-73 0 -116 -21v-343q88 -4 97 -4q71 0 101.5 33t30.5 119z" />
    <glyph glyph-name="c.alt" horiz-adv-x="505" 
d="M462 6q-78 -21 -174 -21q-237 0 -237 261v71q0 260 237 260q114 0 174 -21v-142h-89l-9 49q-34 2 -55 2q-65 0 -95.5 -31t-30.5 -117v-71q0 -86 31 -117.5t97 -31.5q44 0 151 9v-100z" />
    <glyph glyph-name="d.alt" horiz-adv-x="617" 
d="M544 0h-124v29q-70 -44 -158 -44q-101 0 -155.5 62.5t-54.5 189.5v80q0 141 63.5 200.5t179.5 59.5q57 0 117 -11v113l-55 5v93h187v-777zM413 122v335q-63 10 -105 10q-65 0 -94.5 -30t-29.5 -120v-80q0 -76 26.5 -108t88.5 -32q56 0 114 25z" />
    <glyph glyph-name="g.alt" horiz-adv-x="598" 
d="M560 -38q0 -92 -64.5 -136.5t-199.5 -44.5q-134 0 -195.5 43t-61.5 135q0 67 52 116q-45 30 -45 80q0 62 59 100q-44 46 -44 131q0 92 52 141.5t190 49.5h258v-77l-53 -12q32 -41 32 -102q0 -99 -60 -145t-180 -46q-71 0 -119 16q-27 -20 -27 -45q0 -30 48 -30h94
q68 0 112 -6t81 -24t54 -53.5t17 -90.5zM432 -40q0 49 -27 65t-110 16h-101q-29 -27 -29 -81q0 -47 26 -67t105 -20q77 0 106.5 20.5t29.5 66.5zM415 386q0 50 -23.5 73t-91.5 23q-69 0 -91 -23t-22 -73t23 -73t90 -23q68 0 91.5 23t23.5 73z" />
    <glyph glyph-name="h.alt" horiz-adv-x="635" 
d="M564 0h-133v355q0 64 -19.5 87.5t-69.5 23.5q-69 0 -138 -31v-435h-131v667l-50 5v105h181v-242q78 42 175 42q100 0 142.5 -56t42.5 -164v-357z" />
    <glyph glyph-name="i.alt" horiz-adv-x="287" 
d="M210 0h-133v452l-49 6v105h182v-563zM212 650h-136v127h136v-127z" />
    <glyph glyph-name="j.alt" horiz-adv-x="287" 
d="M210 -47q0 -97 -36.5 -135t-125.5 -38q-54 0 -82 7v94q16 -1 57 -1q34 0 44 14.5t10 58.5v500l-49 5v105h182v-610zM212 650h-136v127h136v-127z" />
    <glyph glyph-name="k.alt" horiz-adv-x="573" 
d="M561 0h-158l-199 267v-267h-131v667l-50 5v105h181v-465l200 251h151l-218 -270z" />
    <glyph glyph-name="l.alt" horiz-adv-x="286" 
d="M209 0h-132v667l-49 5v105h181v-777z" />
    <glyph glyph-name="m.alt" horiz-adv-x="909" 
d="M839 0h-132v369q0 29 -1.5 42.5t-8 29t-21 21t-40.5 5.5q-54 0 -117 -34q3 -22 3 -64v-369h-132v369q0 29 -1.5 43t-7 29t-19.5 20.5t-37 5.5q-49 0 -121 -36v-431h-131v453l-50 5v105h176v-45q75 59 168 59q91 0 128 -61q89 61 175 61q46 0 78.5 -12.5t50 -30.5t27 -48
t11.5 -54.5t2 -60.5v-371z" />
    <glyph glyph-name="n.alt" horiz-adv-x="634" 
d="M564 0h-133v357q0 63 -16 86t-63 23q-53 0 -148 -38v-428h-131v452l-50 6v105h176v-45q103 59 185 59q58 0 95 -15.5t55 -47.5t24 -67.5t6 -89.5v-357z" />
    <glyph glyph-name="p.alt" horiz-adv-x="615" 
d="M204 -206h-131v659l-50 5v105h173v-37q74 51 165 51q99 0 151 -62.5t52 -202.5v-52q0 -148 -64.5 -211t-183.5 -63q-62 0 -112 12v-204zM433 260v52q0 86 -25.5 119t-82.5 33q-55 0 -122 -30v-327q60 -11 104 -11q66 0 96 33.5t30 130.5z" />
    <glyph glyph-name="r.alt" horiz-adv-x="406" 
d="M204 0h-131v453l-50 5v105h175v-46q68 60 192 60v-121q-113 0 -186 -34v-422z" />
    <glyph glyph-name="s.alt" horiz-adv-x="512" 
d="M54 8v94q146 -13 186 -13q59 0 81.5 14t22.5 45q0 29 -17.5 43t-81.5 39l-43 17q-83 33 -119.5 73t-36.5 104q0 82 53.5 117.5t163.5 35.5q55 0 112 -7t81 -15v-129h-92l-10 45q-52 2 -81 2q-55 0 -76 -8.5t-21 -37.5q0 -25 16 -37.5t70 -34.5l47 -19q101 -42 133 -79.5
t32 -104.5q0 -79 -57 -122.5t-171 -43.5q-53 0 -111.5 7.5t-80.5 14.5z" />
    <glyph glyph-name="u.alt" horiz-adv-x="635" 
d="M430 563h132v-563h-127v45q-112 -60 -195 -60q-53 0 -88 17t-52 50.5t-23 68.5t-6 84v248l-50 5v105h181v-358q0 -62 16.5 -85.5t64.5 -23.5t147 38v429z" />
    <glyph glyph-name="y.alt" horiz-adv-x="636" 
d="M564 -21q0 -99 -52 -148.5t-189 -49.5q-115 0 -219 22v90q142 -9 212 -9q73 0 94 21t21 74v22q-48 -8 -101 -8q-128 0 -193.5 61.5t-65.5 198.5v310h132v-310q0 -84 30 -117t104 -33q62 0 95 7v453h132v-584z" />
    <glyph glyph-name="z.alt" horiz-adv-x="518" 
d="M474 105v-105h-434v118l287 338h-183l-9 -42h-84v149h422v-116l-289 -342h290z" />
    <glyph glyph-name="a.alt2" horiz-adv-x="616" 
d="M543 0h-124v29q-67 -43 -157 -43q-102 0 -156.5 62.5t-54.5 188.5v80q0 145 65 202.5t200 57.5q118 0 227 -14v-563zM412 122v340q-60 5 -101 5q-68 0 -98 -30t-30 -120v-80q0 -76 26.5 -108t88.5 -32q57 0 114 25z" />
    <glyph glyph-name="u.alt2" horiz-adv-x="633" 
d="M562 259q0 -139 -59 -206.5t-187 -67.5q-126 0 -185.5 68t-59.5 206v304h131v-304q0 -86 25.5 -123.5t88.5 -37.5t88.5 37.5t25.5 123.5v304h132v-304z" />
    <glyph glyph-name="Aacute.alt" horiz-adv-x="705" 
d="M544 938l-158 -149h-127l132 149h153zM23 0l196 631l-55 5v107h293l225 -743h-147l-64 208h-239l-66 -208h-143zM444 323l-62 205q-13 45 -26 117h-9q-18 -90 -26 -117l-63 -205h186z" />
    <glyph glyph-name="Acircumflex.alt" horiz-adv-x="705" 
d="M569 789h-122l-95 91l-96 -91h-121l135 149h164zM23 0l196 631l-55 5v107h293l225 -743h-147l-64 208h-239l-66 -208h-143zM444 323l-62 205q-13 45 -26 117h-9q-18 -90 -26 -117l-63 -205h186z" />
    <glyph glyph-name="Adieresis.alt" horiz-adv-x="705" 
d="M528 803h-111v124h111v-124zM287 927v-124h-112v124h112zM23 0l196 631l-55 5v107h293l225 -743h-147l-64 208h-239l-66 -208h-143zM444 323l-62 205q-13 45 -26 117h-9q-18 -90 -26 -117l-63 -205h186z" />
    <glyph glyph-name="Agrave.alt" horiz-adv-x="705" 
d="M439 789h-126l-158 149h153zM23 0l196 631l-55 5v107h293l225 -743h-147l-64 208h-239l-66 -208h-143zM444 323l-62 205q-13 45 -26 117h-9q-18 -90 -26 -117l-63 -205h186z" />
    <glyph glyph-name="Aring.alt" horiz-adv-x="705" 
d="M481 896q0 -57 -35.5 -87t-92.5 -30q-58 0 -94.5 30t-36.5 87t36.5 87t94.5 30q57 0 92.5 -30t35.5 -87zM408 896q0 51 -55 51q-56 0 -56 -51t56 -51q55 0 55 51zM23 0l196 631l-55 5v107h293l225 -743h-147l-64 208h-239l-66 -208h-143zM444 323l-62 205q-13 45 -26 117
h-9q-18 -90 -26 -117l-63 -205h186z" />
    <glyph glyph-name="Atilde.alt" horiz-adv-x="705" 
d="M565 917q0 -134 -108 -134q-49 0 -104 35l-44 28q-33 24 -55 24q-33 0 -33 -53v-28h-82v28q0 133 111 133q49 0 98 -32l45 -29q36 -24 58 -24q19 0 26 12t7 40v27h81v-27zM23 0l196 631l-55 5v107h293l225 -743h-147l-64 208h-239l-66 -208h-143zM444 323l-62 205
q-13 45 -26 117h-9q-18 -90 -26 -117l-63 -205h186z" />
    <glyph glyph-name="Ccedilla.alt" horiz-adv-x="587" 
d="M424 -65l-134 -141h-126l111 141h149zM556 113v-110q-81 -19 -187 -19q-75 0 -130.5 16t-99 53t-65.5 104.5t-22 164.5v99q0 97 22 164.5t65.5 104.5t98.5 52.5t131 15.5q111 0 187 -20v-170h-94l-9 66q-48 2 -75 2q-99 0 -142.5 -46t-43.5 -169v-99q0 -123 44 -169.5
t142 -46.5q68 0 178 7z" />
    <glyph glyph-name="Eacute.alt" horiz-adv-x="604" 
d="M516 938l-158 -149h-127l132 149h153zM552 627h-333v-189h312v-112h-312v-211h333v-115h-473v631l-50 5v107h523v-116z" />
    <glyph glyph-name="Ecircumflex.alt" horiz-adv-x="604" 
d="M528 789h-121l-96 91l-95 -91h-122l135 149h164zM552 627h-333v-189h312v-112h-312v-211h333v-115h-473v631l-50 5v107h523v-116z" />
    <glyph glyph-name="Edieresis.alt" horiz-adv-x="604" 
d="M479 803h-110v123h110v-123zM238 926v-123h-111v123h111zM552 627h-333v-189h312v-112h-312v-211h333v-115h-473v631l-50 5v107h523v-116z" />
    <glyph glyph-name="Egrave.alt" horiz-adv-x="604" 
d="M390 789h-126l-159 149h154zM552 627h-333v-189h312v-112h-312v-211h333v-115h-473v631l-50 5v107h523v-116z" />
    <glyph glyph-name="Eth.alt" horiz-adv-x="706" 
d="M654 326q0 -168 -81 -250t-262 -82q-115 0 -232 6v328h-52v110h52v192l-52 8v105q138 6 284 6q178 0 260.5 -82t82.5 -247v-94zM216 328v-216h92q110 0 158.5 47.5t48.5 166.5v94q0 118 -48 164t-159 46h-92v-192h130v-110h-130z" />
    <glyph glyph-name="Iacute.alt" horiz-adv-x="304" 
d="M342 938l-159 -149h-126l131 149h154zM272 0h-241v106l51 5v521l-51 4v107h241v-107l-50 -4v-521l50 -5v-106z" />
    <glyph glyph-name="Icircumflex.alt" horiz-adv-x="304" 
d="M369 789h-121l-96 91l-95 -91h-121l135 149h164zM272 0h-241v106l51 5v521l-51 4v107h241v-107l-50 -4v-521l50 -5v-106z" />
    <glyph glyph-name="Idieresis.alt" horiz-adv-x="304" 
d="M327 803h-111v124h111v-124zM86 927v-124h-111v124h111zM272 0h-241v106l51 5v521l-51 4v107h241v-107l-50 -4v-521l50 -5v-106z" />
    <glyph glyph-name="Igrave.alt" horiz-adv-x="304" 
d="M251 789h-126l-158 149h153zM272 0h-241v106l51 5v521l-51 4v107h241v-107l-50 -4v-521l50 -5v-106z" />
    <glyph glyph-name="Ntilde.alt" horiz-adv-x="741" 
d="M582 917q0 -134 -108 -134q-49 0 -103 35l-44 28q-33 24 -56 24q-33 0 -33 -53v-28h-82v28q0 133 112 133q48 0 97 -32l45 -29q38 -24 58 -24q19 0 26 12t7 40v27h81v-27zM662 0h-163l-238 441q-38 71 -56 111h-2q4 -84 4 -133v-419h-128v632l-51 4v107h213l237 -432
q30 -52 57 -113h2q-4 59 -4 141v404h129v-743z" />
    <glyph glyph-name="Scaron.alt" horiz-adv-x="616" 
d="M93 938h121l96 -91l95 91h122l-135 -149h-164zM69 7v107q156 -13 223 -13q69 0 101 22t32 71q0 38 -19.5 61t-74.5 46l-117 48q-77 32 -120 82t-43 131q0 102 64 149t202 47q130 0 223 -24v-158h-92l-12 63q-54 3 -113 3q-69 0 -101.5 -16.5t-32.5 -59.5q0 -34 19.5 -55
t74.5 -43l117 -48q88 -36 127.5 -86.5t39.5 -133.5q0 -107 -68 -161.5t-196 -54.5q-149 0 -234 23z" />
    <glyph glyph-name="Uacute.alt" horiz-adv-x="731" 
d="M569 938l-158 -149h-127l132 149h153zM657 304q0 -159 -74.5 -239.5t-216.5 -80.5q-143 0 -217.5 80.5t-74.5 239.5v328l-51 5v106h189v-432q0 -115 33 -161t121 -46q87 0 120.5 46.5t33.5 160.5v432h137v-439z" />
    <glyph glyph-name="Ucircumflex.alt" horiz-adv-x="731" 
d="M582 789h-122l-95 91l-96 -91h-121l135 149h164zM657 304q0 -159 -74.5 -239.5t-216.5 -80.5q-143 0 -217.5 80.5t-74.5 239.5v328l-51 5v106h189v-432q0 -115 33 -161t121 -46q87 0 120.5 46.5t33.5 160.5v432h137v-439z" />
    <glyph glyph-name="Udieresis.alt" horiz-adv-x="731" 
d="M541 803h-111v124h111v-124zM300 927v-124h-111v124h111zM657 304q0 -159 -74.5 -239.5t-216.5 -80.5q-143 0 -217.5 80.5t-74.5 239.5v328l-51 5v106h189v-432q0 -115 33 -161t121 -46q87 0 120.5 46.5t33.5 160.5v432h137v-439z" />
    <glyph glyph-name="Ugrave.alt" horiz-adv-x="731" 
d="M438 789h-126l-158 149h153zM657 304q0 -159 -74.5 -239.5t-216.5 -80.5q-143 0 -217.5 80.5t-74.5 239.5v328l-51 5v106h189v-432q0 -115 33 -161t121 -46q87 0 120.5 46.5t33.5 160.5v432h137v-439z" />
    <glyph glyph-name="Zcaron.alt" horiz-adv-x="641" 
d="M110 938h121l95 -91l96 91h121l-134 -149h-164zM588 117v-117h-535v127l366 498h-255l-9 -58h-90v176h511v-128l-365 -498h377z" />
    <glyph glyph-name="aacute.alt" horiz-adv-x="577" 
d="M494 774l-158 -148h-126l131 148h153zM511 0h-122v37q-76 -52 -178 -52q-165 0 -165 161v21q0 44 13 75t34.5 49.5t57.5 29t72.5 13.5t88.5 3h67v35q0 60 -21.5 78t-95.5 18q-50 0 -77 -2l-10 -50h-90v130q24 10 81 20.5t118 10.5q131 0 179 -46.5t48 -158.5v-372z
M382 115v141h-70q-78 0 -108 -16t-30 -69v-24q0 -37 20.5 -51.5t58.5 -14.5q72 0 129 34z" />
    <glyph glyph-name="acircumflex.alt" horiz-adv-x="577" 
d="M516 626h-121l-96 90l-95 -90h-121l135 148h163zM511 0h-122v37q-76 -52 -178 -52q-165 0 -165 161v21q0 44 13 75t34.5 49.5t57.5 29t72.5 13.5t88.5 3h67v35q0 60 -21.5 78t-95.5 18q-50 0 -77 -2l-10 -50h-90v130q24 10 81 20.5t118 10.5q131 0 179 -46.5t48 -158.5
v-372zM382 115v141h-70q-78 0 -108 -16t-30 -69v-24q0 -37 20.5 -51.5t58.5 -14.5q72 0 129 34z" />
    <glyph glyph-name="adieresis.alt" horiz-adv-x="577" 
d="M475 645h-111v124h111v-124zM234 769v-124h-112v124h112zM511 0h-122v37q-76 -52 -178 -52q-165 0 -165 161v21q0 44 13 75t34.5 49.5t57.5 29t72.5 13.5t88.5 3h67v35q0 60 -21.5 78t-95.5 18q-50 0 -77 -2l-10 -50h-90v130q24 10 81 20.5t118 10.5q131 0 179 -46.5
t48 -158.5v-372zM382 115v141h-70q-78 0 -108 -16t-30 -69v-24q0 -37 20.5 -51.5t58.5 -14.5q72 0 129 34z" />
    <glyph glyph-name="agrave.alt" horiz-adv-x="577" 
d="M391 626h-126l-158 148h153zM511 0h-122v37q-76 -52 -178 -52q-165 0 -165 161v21q0 44 13 75t34.5 49.5t57.5 29t72.5 13.5t88.5 3h67v35q0 60 -21.5 78t-95.5 18q-50 0 -77 -2l-10 -50h-90v130q24 10 81 20.5t118 10.5q131 0 179 -46.5t48 -158.5v-372zM382 115v141
h-70q-78 0 -108 -16t-30 -69v-24q0 -37 20.5 -51.5t58.5 -14.5q72 0 129 34z" />
    <glyph glyph-name="ampersand.alt" horiz-adv-x="796" 
d="M743 0h-148l-47 44q-83 -59 -223 -59q-262 0 -262 194v6q0 66 31 113.5t109 87.5l-10 10q-53 52 -75.5 90.5t-22.5 90.5v10q0 171 241 171q117 0 175.5 -41t58.5 -130v-10q0 -65 -36 -111.5t-142 -102.5l161 -151q31 59 31 155v20h109v-20q0 -150 -58 -238l108 -103v-26z
M473 121l-187 181q-47 -23 -66.5 -50.5t-19.5 -66.5v-6q0 -94 133 -94q88 0 140 36zM436 571v9q0 38 -24.5 52.5t-75.5 14.5q-52 0 -79 -14.5t-27 -52.5v-10q0 -33 14 -54t63 -66l10 -11q73 41 96 68t23 64z" />
    <glyph glyph-name="aring.alt" horiz-adv-x="577" 
d="M428 730q0 -57 -35.5 -87t-92.5 -30q-58 0 -94.5 30t-36.5 87q0 56 36.5 86.5t94.5 30.5q57 0 92.5 -30t35.5 -87zM355 730q0 51 -55 51q-56 0 -56 -51t56 -51q55 0 55 51zM511 0h-122v37q-76 -52 -178 -52q-165 0 -165 161v21q0 44 13 75t34.5 49.5t57.5 29t72.5 13.5
t88.5 3h67v35q0 60 -21.5 78t-95.5 18q-50 0 -77 -2l-10 -50h-90v130q24 10 81 20.5t118 10.5q131 0 179 -46.5t48 -158.5v-372zM382 115v141h-70q-78 0 -108 -16t-30 -69v-24q0 -37 20.5 -51.5t58.5 -14.5q72 0 129 34z" />
    <glyph glyph-name="atilde.alt" horiz-adv-x="577" 
d="M511 755q0 -133 -108 -133q-48 0 -103 35l-44 28q-32 23 -56 23q-19 0 -26 -12.5t-7 -39.5v-28h-82v28q0 133 112 133q45 0 98 -32l44 -29q38 -24 58 -24q19 0 26 12t7 39v28h81v-28zM511 0h-122v37q-76 -52 -178 -52q-165 0 -165 161v21q0 44 13 75t34.5 49.5t57.5 29
t72.5 13.5t88.5 3h67v35q0 60 -21.5 78t-95.5 18q-50 0 -77 -2l-10 -50h-90v130q24 10 81 20.5t118 10.5q131 0 179 -46.5t48 -158.5v-372zM382 115v141h-70q-78 0 -108 -16t-30 -69v-24q0 -37 20.5 -51.5t58.5 -14.5q72 0 129 34z" />
    <glyph glyph-name="ccedilla.alt" horiz-adv-x="505" 
d="M379 -65l-133 -141h-126l110 141h149zM462 6q-78 -21 -174 -21q-237 0 -237 261v71q0 260 237 260q114 0 174 -21v-142h-89l-9 49q-34 2 -55 2q-65 0 -95.5 -31t-30.5 -117v-71q0 -86 31 -117.5t97 -31.5q44 0 151 9v-100z" />
    <glyph glyph-name="dotlessi.alt" horiz-adv-x="287" 
d="M210 0h-133v452l-49 6v105h182v-563z" />
    <glyph glyph-name="iacute.alt" horiz-adv-x="287" 
d="M210 0h-133v452l-49 6v105h182v-563zM337 774l-158 -148h-126l131 148h153z" />
    <glyph glyph-name="icircumflex.alt" horiz-adv-x="287" 
d="M210 0h-133v452l-49 6v105h182v-563zM361 626h-122l-95 90l-96 -90h-121l135 148h164z" />
    <glyph glyph-name="idieresis.alt" horiz-adv-x="287" 
d="M210 0h-133v452l-49 6v105h182v-563zM319 645h-111v124h111v-124zM78 769v-124h-112v124h112z" />
    <glyph glyph-name="igrave.alt" horiz-adv-x="287" 
d="M210 0h-133v452l-49 6v105h182v-563zM237 626h-126l-159 148h154z" />
    <glyph glyph-name="lslash.alt" horiz-adv-x="312" 
d="M273 473l-62 -56v-417h-132v289l-58 -54v111l58 54v267l-49 5v105h181v-250l62 57v-111z" />
    <glyph glyph-name="ntilde.alt" horiz-adv-x="634" 
d="M536 755q0 -133 -108 -133q-49 0 -104 35l-44 28q-32 23 -55 23q-19 0 -26 -12.5t-7 -39.5v-28h-82v28q0 133 111 133q47 0 98 -32l45 -29q36 -24 58 -24q19 0 26 12t7 39v28h81v-28zM564 0h-133v357q0 63 -16 86t-63 23q-53 0 -148 -38v-428h-131v452l-50 6v105h176v-45
q103 59 185 59q58 0 95 -15.5t55 -47.5t24 -67.5t6 -89.5v-357z" />
    <glyph glyph-name="scaron.alt" horiz-adv-x="512" 
d="M46 774h121l95 -91l96 91h121l-134 -148h-164zM54 8v94q146 -13 186 -13q59 0 81.5 14t22.5 45q0 29 -17.5 43t-81.5 39l-43 17q-83 33 -119.5 73t-36.5 104q0 82 53.5 117.5t163.5 35.5q55 0 112 -7t81 -15v-129h-92l-10 45q-52 2 -81 2q-55 0 -76 -8.5t-21 -37.5
q0 -25 16 -37.5t70 -34.5l47 -19q101 -42 133 -79.5t32 -104.5q0 -79 -57 -122.5t-171 -43.5q-53 0 -111.5 7.5t-80.5 14.5z" />
    <glyph glyph-name="uacute.alt" horiz-adv-x="635" 
d="M525 774l-158 -148h-126l131 148h153zM430 563h132v-563h-127v45q-112 -60 -195 -60q-53 0 -88 17t-52 50.5t-23 68.5t-6 84v248l-50 5v105h181v-358q0 -62 16.5 -85.5t64.5 -23.5t147 38v429z" />
    <glyph glyph-name="ucircumflex.alt" horiz-adv-x="635" 
d="M534 626h-121l-96 90l-95 -90h-121l135 148h164zM430 563h132v-563h-127v45q-112 -60 -195 -60q-53 0 -88 17t-52 50.5t-23 68.5t-6 84v248l-50 5v105h181v-358q0 -62 16.5 -85.5t64.5 -23.5t147 38v429z" />
    <glyph glyph-name="udieresis.alt" horiz-adv-x="635" 
d="M490 644h-110v124h110v-124zM249 768v-124h-111v124h111zM430 563h132v-563h-127v45q-112 -60 -195 -60q-53 0 -88 17t-52 50.5t-23 68.5t-6 84v248l-50 5v105h181v-358q0 -62 16.5 -85.5t64.5 -23.5t147 38v429z" />
    <glyph glyph-name="ugrave.alt" horiz-adv-x="635" 
d="M405 626h-126l-158 148h153zM430 563h132v-563h-127v45q-112 -60 -195 -60q-53 0 -88 17t-52 50.5t-23 68.5t-6 84v248l-50 5v105h181v-358q0 -62 16.5 -85.5t64.5 -23.5t147 38v429z" />
    <glyph glyph-name="yacute.alt" horiz-adv-x="636" 
d="M528 774l-158 -148h-127l132 148h153zM564 -21q0 -99 -52 -148.5t-189 -49.5q-115 0 -219 22v90q142 -9 212 -9q73 0 94 21t21 74v22q-48 -8 -101 -8q-128 0 -193.5 61.5t-65.5 198.5v310h132v-310q0 -84 30 -117t104 -33q62 0 95 7v453h132v-584z" />
    <glyph glyph-name="ydieresis.alt" horiz-adv-x="636" 
d="M564 -21q0 -99 -52 -148.5t-189 -49.5q-115 0 -219 22v90q142 -9 212 -9q73 0 94 21t21 74v22q-48 -8 -101 -8q-128 0 -193.5 61.5t-65.5 198.5l1 310h131v-310q0 -84 30 -117t104 -33q62 0 95 7v453h132v-584zM500 644h-110v124h110v-124zM259 768v-124h-111v124h111z
" />
    <glyph glyph-name="zcaron.alt" horiz-adv-x="518" 
d="M50 774h122l95 -91l96 91h121l-135 -148h-164zM474 105v-105h-434v118l287 338h-183l-9 -42h-84v149h422v-116l-289 -342h290z" />
    <glyph glyph-name="two.alt" horiz-adv-x="620" 
d="M557 116v-116h-499v93q0 126 48 191t178 134q88 47 115.5 76t27.5 71q0 46 -33.5 63.5t-117.5 17.5q-46 0 -108 -5l-9 -68h-92v157q27 9 97 18.5t130 9.5q141 0 207.5 -45t66.5 -142q0 -75 -43.5 -128.5t-155.5 -111.5q-111 -57 -142.5 -94t-31.5 -110v-11h362z" />
    <glyph glyph-name="three.alt" horiz-adv-x="624" 
d="M570 204q0 -118 -68.5 -169t-209.5 -51q-132 0 -225 31v98q176 -16 215 -16q80 0 114.5 23t34.5 89v20q0 51 -23 75t-94 24h-209v106h209q71 0 94 25.5t23 76.5v12q0 57 -31 77t-119 20q-11 0 -110 -3l-10 -69h-92v157q25 8 94 18t129 10q142 0 210 -46t68 -156v-12
q0 -117 -89 -162q89 -43 89 -158v-20z" />
    <glyph glyph-name="five.alt" horiz-adv-x="613" 
d="M559 215q0 -123 -72 -177t-213 -54q-124 0 -225 29v99q5 0 51 -5t84 -8t70 -3q93 0 130 25.5t37 92.5v23q0 63 -34 87t-131 24h-196l33 395h441v-172h-90l-9 57h-228l-16 -172h86q154 0 218 -51t64 -167v-23z" />
    <glyph glyph-name="six.alt" horiz-adv-x="660" 
d="M605 226q0 -56 -17 -99.5t-43.5 -70t-63 -43t-72 -23t-74.5 -6.5q-137 0 -209.5 67.5t-72.5 235.5v176q1 150 64.5 222.5t227.5 72.5q115 0 226 -26v-158h-92l-9 68q-105 3 -113 3q-55 0 -89 -10t-50 -34t-21 -50t-5 -71v-29q69 18 153 18q58 0 100.5 -8t81 -29.5
t58.5 -64t20 -105.5v-36zM467 226v32q0 67 -31.5 89.5t-102.5 22.5q-76 0 -141 -14v-90q0 -99 35.5 -136t108.5 -37q59 0 95 33t36 100z" />
    <glyph glyph-name="seven.alt" horiz-adv-x="613" 
d="M572 614l-326 -614h-150l341 628h-284l-8 -59h-92v174h519v-129z" />
    <glyph glyph-name="dotlessj" horiz-adv-x="287" 
d="M210 -47q0 -97 -36.5 -135t-125.5 -38q-54 0 -82 7v94q16 -1 57 -1q34 0 44 14.5t10 58.5v610h133v-610z" />
    <glyph glyph-name="zero.tab" 
d="M627 316q0 -163 -71.5 -247.5t-211.5 -84.5t-211.5 84.5t-71.5 247.5v110q0 163 71.5 247.5t211.5 84.5t211.5 -84.5t71.5 -247.5v-110zM487 316v110q0 118 -37 166.5t-106 48.5t-106 -48.5t-37 -166.5v-110q0 -118 37 -166.5t106 -48.5t106 48.5t37 166.5z" />
    <glyph glyph-name="one.tab" 
d="M600 0h-484v107l173 7v498l-173 -48v112l211 71h101v-633l172 -7v-107z" />
    <glyph glyph-name="two.tab" 
d="M586 0h-499v93q0 126 48 191t178 134q89 47 116 76t27 71q0 46 -33.5 63.5t-117.5 17.5q-109 0 -202 -13v97q99 28 220 28q141 0 207.5 -45t66.5 -142q0 -75 -43 -128.5t-155 -111.5q-112 -57 -143.5 -94t-31.5 -110v-11h362v-116z" />
    <glyph glyph-name="three.tab" 
d="M599 204q0 -118 -69 -169t-209 -51q-62 0 -128 10t-97 21v97q107 -15 215 -15q80 0 114.5 23t34.5 89v20q0 51 -23 75t-95 24h-208v106h209q71 0 94 25.5t23 76.5v12q0 57 -31.5 77t-118.5 20q-91 0 -212 -13v98q24 8 93 18t130 10q141 0 209.5 -46t68.5 -156v-12
q0 -116 -89 -162q89 -43 89 -158v-20z" />
    <glyph glyph-name="four.tab" 
d="M637 179h-105v-179h-140v179h-346v115l354 449h132v-454h105v-110zM397 289v284l-231 -284h231z" />
    <glyph glyph-name="five.tab" 
d="M599 215q0 -123 -72 -177t-213 -54q-121 0 -226 27v100q165 -15 206 -15q92 0 128.5 25.5t36.5 92.5v23q0 63 -33.5 87t-130.5 24h-196l34 395h441v-115h-327l-16 -172h85q154 0 218.5 -51t64.5 -167v-23z" />
    <glyph glyph-name="seven.tab" 
d="M609 614l-325 -614h-151l341 628h-383v115h518v-129z" />
    <glyph glyph-name="six.tab" 
d="M618 226q0 -56 -17 -99.5t-43.5 -70t-63 -43t-72 -23t-74.5 -6.5q-137 0 -209.5 67.5t-72.5 235.5v176q0 150 64 222.5t228 72.5q114 0 225 -26v-100q-143 13 -213 13q-55 0 -89.5 -10t-50.5 -34t-21 -50t-5 -71v-29q70 18 153 18q58 0 101 -8t81.5 -29.5t58.5 -64
t20 -105.5v-36zM480 226v32q0 67 -31.5 89.5t-102.5 22.5q-77 0 -142 -14v-90q0 -99 35.5 -136t108.5 -37q59 0 95.5 33t36.5 100z" />
    <glyph glyph-name="eight.tab" 
d="M627 213q0 -61 -16.5 -104.5t-40.5 -67.5t-64.5 -37t-75.5 -16.5t-86 -3.5h-4q-51 0 -86 3.5t-75.5 16.5t-64.5 37t-40.5 67.5t-16.5 104.5v8q0 110 82 163q-79 50 -79 157v10q0 51 15.5 88.5t40.5 60t62.5 36t75.5 18t86 4.5h4q61 0 107 -8.5t87.5 -29.5t64 -63.5
t22.5 -105.5v-10q0 -107 -79 -157q81 -52 81 -163v-8zM490 215v7q0 60 -20.5 86t-72.5 26h-110q-51 0 -71.5 -26t-20.5 -86v-7q0 -76 35.5 -100.5t109.5 -24.5h4q74 0 110 24.5t36 100.5zM488 538v10q0 60 -36.5 81.5t-107.5 21.5h-4q-71 0 -107 -21.5t-36 -81.5v-10
q0 -51 19.5 -76.5t70.5 -25.5h110q51 0 71 25.5t20 76.5z" />
    <glyph glyph-name="nine.tab" 
d="M609 280q0 -149 -64 -222.5t-228 -73.5q-127 0 -225 26v100q134 -14 215 -14q54 0 88 10.5t50 34.5t21 50.5t5 70.5v29q-70 -18 -153 -18q-58 0 -101 8t-81.5 29.5t-58.5 64t-20 105.5v35q0 69 24.5 119t66 75.5t86 37t93.5 11.5q67 0 116 -14t88 -47.5t58.5 -93
t19.5 -145.5v-178zM471 386v89q0 99 -35.5 136.5t-109.5 37.5q-58 0 -94.5 -33.5t-36.5 -99.5v-33q0 -66 31.5 -88.5t102.5 -22.5q77 0 142 14z" />
    <glyph glyph-name="middot" horiz-adv-x="291" 
d="M210 291h-128v155h128v-155z" />
    <glyph glyph-name="threequartersemdash" horiz-adv-x="834" 
d="M768 236h-702v99h702v-99z" />
    <glyph glyph-name="overscore" horiz-adv-x="611" 
d="M608 818h-606v78h606v-78z" />
    <glyph glyph-name="franc.taboldstyle" horiz-adv-x="630" 
d="M279 0h-139v103h-50v79h50v412h401v-114h-262v-123h250v-107h-250v-68h129v-79h-129v-103z" />
    <glyph glyph-name="lira.taboldstyle" horiz-adv-x="622" 
d="M527 582v-103q-84 7 -138 7q-65 0 -85 -18t-20 -75v-19h171v-66h-171v-57h171v-66h-171v-12q0 -35 -21 -65h264v-108h-411v88q37 36 37 85v12h-60v66h60v57h-60v66h60v18q0 110 47.5 157.5t160.5 47.5q93 0 166 -15z" />
    <glyph glyph-name="currency.taboldstyle" horiz-adv-x="646" 
d="M592 108l-72 -72l-79 78q-52 -32 -117 -32q-64 0 -118 32l-82 -79l-70 71l80 79q-33 55 -33 117q0 63 33 115l-80 80l70 70l82 -78q55 33 118 33t118 -33l79 77l71 -70l-80 -79q35 -57 35 -115q0 -61 -34 -117zM456 302q0 56 -38.5 92.5t-94.5 36.5q-55 0 -93 -36.5
t-38 -92.5t38.5 -93t92.5 -37q55 0 94 37t39 93z" />
    <glyph glyph-name="peseta.taboldstyle" horiz-adv-x="622" 
d="M212 0h-129v356h-49v92h49v140q100 11 199 11q113 0 178 -33t78 -118h51v-92h-51q-10 -58 -46 -93t-86 -48t-120 -13q-5 0 -74 3v-205zM412 399v10q0 47 -30.5 63.5t-96.5 16.5q-45 0 -73 -2v-171q42 -3 70 -3q65 0 97.5 19.5t32.5 66.5z" />
    <glyph glyph-name="T_h.caron" horiz-adv-x="1153" 
d="M1082 0h-132v355q0 64 -19.5 87.5t-69.5 23.5q-69 0 -138 -31v-435h-132v628h-201v-628h-140v628h-222v115h695v-208q84 42 175 42q100 0 142 -55.5t42 -164.5v-357zM541 937l-134 -149h-164l-135 149h121l95 -91l96 91h121z" />
    <glyph glyph-name="AE.alt" horiz-adv-x="998" 
d="M946 0h-472v208h-229l-65 -208h-142l192 629l-55 5v109h771v-116h-333v-189h313v-112h-313v-211h333v-115zM474 322v320h-111q-5 -18 -14.5 -55t-14.5 -55l-63 -210h203z" />
    <glyph glyph-name="ae.alt" horiz-adv-x="936" 
d="M887 240h-376v-10q0 -36 4 -57t18 -42t45.5 -30.5t81.5 -9.5q102 0 204 14v-96q-90 -23 -214 -23q-151 0 -212 67q-97 -67 -227 -67q-165 0 -165 160v21q0 44 13 75t34.5 49.5t57.5 29t72.5 13.5t88.5 3h67v35q0 58 -21 77t-92 19q-52 0 -81 -2l-10 -50h-90v130
q24 10 81 20.5t118 10.5q75 0 115 -12.5t64 -38.5q63 50 171 50q132 0 192.5 -76t60.5 -204v-56zM756 326v9q0 28 -4 49t-16 42.5t-38 33t-65 11.5q-71 0 -96 -38t-25 -98v-9h244zM382 115v141h-70q-78 0 -108 -16t-30 -69v-24q0 -66 78 -66q70 0 130 34z" />
    <glyph glyph-name="agrave.alt2" horiz-adv-x="602" 
d="M423 626h-126l-158 148h153zM543 0h-124v29q-67 -43 -157 -43q-102 0 -156.5 62.5t-54.5 188.5v80q0 145 65 202.5t200 57.5q118 0 227 -14v-563zM412 122v340q-60 5 -101 5q-68 0 -98 -30t-30 -120v-80q0 -76 26.5 -108t88.5 -32q57 0 114 25z" />
    <glyph glyph-name="aacute.alt2" horiz-adv-x="602" 
d="M512 774l-158 -148h-127l132 148h153zM543 0h-124v29q-67 -43 -157 -43q-102 0 -156.5 62.5t-54.5 188.5v80q0 145 65 202.5t200 57.5q118 0 227 -14v-563zM412 122v340q-60 5 -101 5q-68 0 -98 -30t-30 -120v-80q0 -76 26.5 -108t88.5 -32q57 0 114 25z" />
    <glyph glyph-name="acircumflex.alt2" horiz-adv-x="602" 
d="M525 626h-121l-96 90l-95 -90h-121l135 148h163zM543 0h-124v29q-67 -43 -157 -43q-102 0 -156.5 62.5t-54.5 188.5v80q0 145 65 202.5t200 57.5q118 0 227 -14v-563zM412 122v340q-60 5 -101 5q-68 0 -98 -30t-30 -120v-80q0 -76 26.5 -108t88.5 -32q57 0 114 25z" />
    <glyph glyph-name="atilde.alt2" horiz-adv-x="602" 
d="M518 755q0 -133 -108 -133q-48 0 -103 35l-44 28q-32 23 -56 23q-19 0 -26 -12.5t-7 -39.5v-28h-82v28q0 133 112 133q45 0 98 -32l44 -29q38 -24 58 -24q19 0 26 12t7 39v28h81v-28zM543 0h-124v29q-67 -43 -157 -43q-102 0 -156.5 62.5t-54.5 188.5v80q0 145 65 202.5
t200 57.5q118 0 227 -14v-563zM412 122v340q-60 5 -101 5q-68 0 -98 -30t-30 -120v-80q0 -76 26.5 -108t88.5 -32q57 0 114 25z" />
    <glyph glyph-name="adieresis.alt2" horiz-adv-x="602" 
d="M484 644h-110v124h110v-124zM243 768v-124h-111v124h111zM543 0h-124v29q-67 -43 -157 -43q-102 0 -156.5 62.5t-54.5 188.5v80q0 145 65 202.5t200 57.5q118 0 227 -14v-563zM412 122v340q-60 5 -101 5q-68 0 -98 -30t-30 -120v-80q0 -76 26.5 -108t88.5 -32
q57 0 114 25z" />
    <glyph glyph-name="aring.alt2" horiz-adv-x="602" 
d="M443 732q0 -56 -35.5 -86t-93.5 -30t-94 30t-36 86q0 57 36 87.5t94 30.5t93.5 -30.5t35.5 -87.5zM369 733q0 50 -55 50t-55 -50q0 -51 55 -51t55 51zM543 0h-124v29q-67 -43 -157 -43q-102 0 -156.5 62.5t-54.5 188.5v80q0 145 65 202.5t200 57.5q118 0 227 -14v-563z
M412 122v340q-60 5 -101 5q-68 0 -98 -30t-30 -120v-80q0 -76 26.5 -108t88.5 -32q57 0 114 25z" />
    <glyph glyph-name="ugrave.alt2" horiz-adv-x="645" 
d="M406 626h-126l-159 148h154zM562 259q0 -139 -59 -206.5t-187 -67.5q-126 0 -185.5 68t-59.5 206v304h131v-304q0 -86 25.5 -123.5t88.5 -37.5t88.5 37.5t25.5 123.5v304h132v-304z" />
    <glyph glyph-name="uacute.alt2" horiz-adv-x="645" 
d="M522 774l-158 -148h-127l132 148h153zM562 259q0 -139 -59 -206.5t-187 -67.5q-126 0 -185.5 68t-59.5 206v304h131v-304q0 -86 25.5 -123.5t88.5 -37.5t88.5 37.5t25.5 123.5v304h132v-304z" />
    <glyph glyph-name="ucircumflex.alt2" horiz-adv-x="645" 
d="M535 626h-121l-96 90l-95 -90h-121l135 148h163zM562 259q0 -139 -59 -206.5t-187 -67.5q-126 0 -185.5 68t-59.5 206v304h131v-304q0 -86 25.5 -123.5t88.5 -37.5t88.5 37.5t25.5 123.5v304h132v-304z" />
    <glyph glyph-name="udieresis.alt2" horiz-adv-x="645" 
d="M493 645h-111v124h111v-124zM252 769v-124h-112v124h112zM562 259q0 -139 -59 -206.5t-187 -67.5q-126 0 -185.5 68t-59.5 206v304h131v-304q0 -86 25.5 -123.5t88.5 -37.5t88.5 37.5t25.5 123.5v304h132v-304z" />
    </font>
</defs>
</svg>
